<svg id="exdr9mquf5mq1" xmlns="http://www.w3.org/2000/svg" xmlns:xlink="http://www.w3.org/1999/xlink" viewBox="0 0 870 524" shape-rendering="geometricPrecision" text-rendering="geometricPrecision"><defs><linearGradient id="exdr9mquf5mq19-fill" x1="679.579000" y1="72.964800" x2="256.836000" y2="-159.253000" spreadMethod="pad" gradientUnits="userSpaceOnUse"><stop id="exdr9mquf5mq19-fill-0" offset="0%" stop-color="rgb(41,217,225)"/><stop id="exdr9mquf5mq19-fill-1" offset="100%" stop-color="rgb(45,13,178)"/></linearGradient><linearGradient id="exdr9mquf5mq25-fill" x1="521.846000" y1="119.936000" x2="657.455000" y2="119.936000" spreadMethod="pad" gradientUnits="userSpaceOnUse"><stop id="exdr9mquf5mq25-fill-0" offset="0%" stop-color="rgb(239,152,129)"/><stop id="exdr9mquf5mq25-fill-1" offset="100%" stop-color="rgb(255,94,54)"/></linearGradient><linearGradient id="exdr9mquf5mq55-fill" x1="705.140000" y1="386.808000" x2="546.924000" y2="383.134000" spreadMethod="pad" gradientUnits="userSpaceOnUse"><stop id="exdr9mquf5mq55-fill-0" offset="0%" stop-color="rgb(41,217,225)"/><stop id="exdr9mquf5mq55-fill-1" offset="100%" stop-color="rgb(45,13,178)"/></linearGradient><linearGradient id="exdr9mquf5mq77-fill" x1="704.348000" y1="343.136000" x2="758.127000" y2="343.136000" spreadMethod="pad" gradientUnits="userSpaceOnUse"><stop id="exdr9mquf5mq77-fill-0" offset="0%" stop-color="rgb(172,198,249)"/><stop id="exdr9mquf5mq77-fill-1" offset="100%" stop-color="rgb(111,150,227)"/></linearGradient><linearGradient id="exdr9mquf5mq79-fill" x1="770.049000" y1="371.469000" x2="777.599000" y2="371.469000" spreadMethod="pad" gradientUnits="userSpaceOnUse"><stop id="exdr9mquf5mq79-fill-0" offset="0%" stop-color="rgb(172,198,249)"/><stop id="exdr9mquf5mq79-fill-1" offset="100%" stop-color="rgb(111,150,227)"/></linearGradient></defs><path id="exdr9mquf5mq2" d="M69.971800,137.214000C81.023200,137.214000,89.982200,128.230000,89.982200,117.149000C89.982200,106.068000,81.023200,97.085100,69.971800,97.085100C58.920400,97.085100,49.961400,106.068000,49.961400,117.149000C49.961400,128.230000,58.920400,137.214000,69.971800,137.214000Z" fill="rgb(208,218,255)" stroke="none" stroke-width="1"/><path id="exdr9mquf5mq3" d="M780.986000,39.351900C790.718000,39.351900,798.608000,31.441000,798.608000,21.682400C798.608000,11.923800,790.718000,4.012940,780.986000,4.012940C771.254000,4.012940,763.364000,11.923800,763.364000,21.682400C763.364000,31.441000,771.254000,39.351900,780.986000,39.351900Z" fill="rgb(208,218,255)" stroke="none" stroke-width="1"/><path id="exdr9mquf5mq4" d="M858.768000,360.315000C864.971000,360.315000,870,355.273000,870,349.053000C870,342.833000,864.971000,337.791000,858.768000,337.791000C852.565000,337.791000,847.537000,342.833000,847.537000,349.053000C847.537000,355.273000,852.565000,360.315000,858.768000,360.315000Z" fill="rgb(208,218,255)" stroke="none" stroke-width="1"/><path id="exdr9mquf5mq5" d="M17.299300,413.194000C26.853400,413.194000,34.598600,405.428000,34.598600,395.848000C34.598600,386.268000,26.853400,378.502000,17.299300,378.502000C7.745160,378.502000,0,386.268000,0,395.848000C0,405.428000,7.745160,413.194000,17.299300,413.194000Z" fill="rgb(208,218,255)" stroke="none" stroke-width="1"/><path id="exdr9mquf5mq6" d="M90.498600,346.399000C85.011900,396.366000,133.747000,407.563000,138.911000,415.653000C144.010000,423.744000,145.301000,434.035000,145.753000,443.873000C146.463000,459.859000,145.366000,475.911000,142.526000,491.638000C140.395000,503.677000,197.135000,517.139000,211.723000,506.525000C224.245000,497.463000,232.766000,482.253000,246.709000,475.975000C256.068000,471.768000,266.590000,472.157000,276.789000,472.674000C324.943000,475.199000,372.968000,479.988000,420.864000,486.978000C440.939000,489.891000,461.401000,493.256000,481.218000,489.438000C501.034000,485.619000,520.593000,473.257000,527.887000,453.257000C528.984000,450.151000,548.026000,421.219000,573.072000,440.377000C595.212000,465.102000,726.893000,449.698000,735.285000,445.879000C743.418000,442.190000,749.680000,435.135000,755.747000,428.209000C769.561000,412.417000,784.407000,393,780.341000,371.641000C777.113000,354.490000,762.589000,342.516000,748.195000,334.102000C733.800000,325.688000,717.921000,318.827000,707.399000,305.429000C691.327000,284.977000,691.972000,255.787000,690.939000,229.250000C690.036000,205.238000,687.066000,181.355000,682.161000,157.860000C677.771000,137.213000,671.703000,116.502000,660.407000,99.091400C649.047000,81.616100,631.683000,67.700600,612.060000,65.111600C586.433000,61.746000,560.678000,77.797400,535.568000,71.001500C514.396000,65.305800,499.808000,44.982700,482.250000,30.873000C451.073000,5.760350,410.148000,0.517758,371.483000,0.064695C330.494000,-0.453092,288.408000,3.689200,251.873000,22.976700C243.481000,27.377900,235.283000,32.750000,229.539000,40.581500C220.631000,52.555300,218.501000,68.671400,212.691000,82.651700C189.195000,139.026000,131.939000,151.194000,107.152000,206.920000C98.373600,226.726000,98.438200,249.767000,104.829000,270.543000C108.056000,281.158000,114.124000,289.443000,120.450000,297.404000C130.648000,310.219000,94.436100,301.740000,90.498600,346.399000Z" transform="matrix(1 0 0 1 -0.03778678000003 -0.86654402500000)" opacity="0.05" fill="rgb(45,13,178)" stroke="none" stroke-width="1"/><g id="exdr9mquf5mq7" opacity="0.2"><path id="exdr9mquf5mq8" d="M696.749000,259.152000C696.749000,259.152000,700.234000,212.422000,726.571000,187.050000C737.673000,176.501000,745.096000,162.585000,747.614000,147.440000C748.776000,140.256000,749.228000,132.942000,749.099000,125.628000" opacity="0.2" fill="none" stroke="rgb(83,84,97)" stroke-width="2.264300" stroke-miterlimit="10"/><path id="exdr9mquf5mq9" d="M765.688000,109.512000C763.751000,114.625000,748.776000,126.081000,748.776000,126.081000C748.776000,126.081000,745.096000,107.635000,747.033000,102.457000C748.969000,97.279200,754.714000,94.690300,759.878000,96.632000C765.042000,98.638400,767.624000,104.399000,765.688000,109.512000Z" opacity="0.2" fill="rgb(45,13,178)" stroke="none" stroke-width="1"/><path id="exdr9mquf5mq10" d="M770.271000,143.880000C765.881000,147.116000,747.098000,148.605000,747.098000,148.605000C747.098000,148.605000,754.004000,131.130000,758.458000,127.829000C762.912000,124.592000,769.109000,125.499000,772.336000,129.965000C775.628000,134.366000,774.725000,140.644000,770.271000,143.880000Z" opacity="0.2" fill="rgb(45,13,178)" stroke="none" stroke-width="1"/><path id="exdr9mquf5mq11" d="M751.229000,192.422000C745.742000,193.005000,728.894000,184.785000,728.894000,184.785000C728.894000,184.785000,743.676000,173.200000,749.163000,172.617000C754.650000,172.035000,759.556000,175.983000,760.136000,181.484000C760.653000,186.921000,756.715000,191.840000,751.229000,192.422000Z" opacity="0.2" fill="rgb(45,13,178)" stroke="none" stroke-width="1"/><path id="exdr9mquf5mq12" d="M728.572000,225.884000C723.279000,227.373000,705.269000,222.130000,705.269000,222.130000C705.269000,222.130000,717.921000,208.215000,723.214000,206.662000C728.507000,205.173000,733.994000,208.280000,735.479000,213.522000C736.963000,218.765000,733.865000,224.396000,728.572000,225.884000Z" opacity="0.2" fill="rgb(45,13,178)" stroke="none" stroke-width="1"/><path id="exdr9mquf5mq13" d="M727.216000,142.197000C729.540000,147.181000,745.290000,157.407000,745.290000,157.407000C745.290000,157.407000,747.549000,138.702000,745.226000,133.718000C742.902000,128.735000,736.963000,126.599000,731.993000,128.929000C727.023000,131.259000,724.892000,137.214000,727.216000,142.197000Z" opacity="0.2" fill="rgb(45,13,178)" stroke="none" stroke-width="1"/><path id="exdr9mquf5mq14" d="M701.203000,181.678000C704.947000,185.756000,723.020000,190.740000,723.020000,190.740000C723.020000,190.740000,719.599000,172.229000,715.855000,168.151000C712.112000,164.074000,705.850000,163.815000,701.784000,167.569000C697.782000,171.323000,697.459000,177.601000,701.203000,181.678000Z" opacity="0.2" fill="rgb(45,13,178)" stroke="none" stroke-width="1"/><path id="exdr9mquf5mq15" d="M681.128000,223.490000C684.097000,228.150000,701.074000,236.175000,701.074000,236.175000C701.074000,236.175000,700.815000,217.341000,697.846000,212.746000C694.877000,208.086000,688.680000,206.791000,684.097000,209.768000C679.514000,212.681000,678.158000,218.894000,681.128000,223.490000Z" opacity="0.2" fill="rgb(45,13,178)" stroke="none" stroke-width="1"/></g><path id="exdr9mquf5mq16" d="M680.289000,393.518000L181.901000,393.518000C176.027000,393.518000,171.315000,388.728000,171.315000,382.903000L171.315000,54.238200C171.315000,48.348300,176.091000,43.623500,181.901000,43.623500L680.289000,43.623500C686.163000,43.623500,690.875000,48.413100,690.875000,54.238200L690.875000,382.903000C690.875000,388.728000,686.163000,393.518000,680.289000,393.518000Z" fill="rgb(40,35,79)" stroke="none" stroke-width="1"/><path id="exdr9mquf5mq17" d="M669.251000,386.075000L192.939000,386.075000C187.065000,386.075000,182.353000,381.285000,182.353000,375.460000L182.353000,61.681400C182.353000,55.791600,187.129000,51.066800,192.939000,51.066800L669.186000,51.066800C675.060000,51.066800,679.772000,55.856300,679.772000,61.681400L679.772000,375.460000C679.837000,381.350000,675.060000,386.075000,669.251000,386.075000Z" fill="rgb(255,255,255)" stroke="none" stroke-width="1"/><path id="exdr9mquf5mq18" d="M473.923000,393.518000L381.617000,393.518000L381.617000,432.416000L473.923000,432.416000L473.923000,393.518000Z" opacity="0.1" fill="rgb(45,13,178)" stroke="none" stroke-width="1"/><path id="exdr9mquf5mq19" d="M669.251000,51.390400L192.939000,51.390400C187.065000,51.390400,182.546000,55.856300,182.546000,61.746100L182.546000,77.279700L679.514000,77.279700C679.579000,77.279700,679.579000,77.279700,679.579000,77.279700L679.579000,61.746100C679.643000,55.791600,675.060000,51.390400,669.251000,51.390400Z" opacity="0.7" fill="url(#exdr9mquf5mq19-fill)" stroke="none" stroke-width="1"/><path id="exdr9mquf5mq20" d="M194.165000,70.095500C197.160000,70.095500,199.588000,67.661300,199.588000,64.658700C199.588000,61.656000,197.160000,59.221900,194.165000,59.221900C191.171000,59.221900,188.743000,61.656000,188.743000,64.658700C188.743000,67.661300,191.171000,70.095500,194.165000,70.095500Z" fill="rgb(255,255,255)" stroke="none" stroke-width="1"/><path id="exdr9mquf5mq21" d="M208.624000,70.095500C211.619000,70.095500,214.047000,67.661300,214.047000,64.658700C214.047000,61.656000,211.619000,59.221900,208.624000,59.221900C205.630000,59.221900,203.202000,61.656000,203.202000,64.658700C203.202000,67.661300,205.630000,70.095500,208.624000,70.095500Z" fill="rgb(255,255,255)" stroke="none" stroke-width="1"/><path id="exdr9mquf5mq22" d="M223.084000,70.095500C226.078000,70.095500,228.506000,67.661300,228.506000,64.658700C228.506000,61.656000,226.078000,59.221900,223.084000,59.221900C220.089000,59.221900,217.661000,61.656000,217.661000,64.658700C217.661000,67.661300,220.089000,70.095500,223.084000,70.095500Z" fill="rgb(255,255,255)" stroke="none" stroke-width="1"/><g id="exdr9mquf5mq23" opacity="0.3"><path id="exdr9mquf5mq24" d="M199.588000,110.547000L453.009000,110.547000C454.429000,110.547000,455.591000,111.713000,455.591000,113.136000L455.591000,126.728000C455.591000,128.152000,454.429000,129.317000,453.009000,129.317000L199.588000,129.317000C198.167000,129.317000,197.006000,128.152000,197.006000,126.728000L197.006000,113.136000C197.006000,111.713000,198.167000,110.547000,199.588000,110.547000Z" opacity="0.3" fill="rgb(45,13,178)" stroke="none" stroke-width="1"/><path id="exdr9mquf5mq25" d="M524.401000,110.547000L654.856000,110.547000C656.276000,110.547000,657.438000,111.713000,657.438000,113.136000L657.438000,126.728000C657.438000,128.152000,656.276000,129.317000,654.856000,129.317000L524.401000,129.317000C522.981000,129.317000,521.819000,128.152000,521.819000,126.728000L521.819000,113.136000C521.819000,111.713000,522.981000,110.547000,524.401000,110.547000Z" opacity="0.6" fill="url(#exdr9mquf5mq25-fill)" stroke="none" stroke-width="1"/></g><g id="exdr9mquf5mq26" opacity="0.4"><path id="exdr9mquf5mq27" d="M275,246.662000L257,246.662000L257,336.904000L275,336.904000L275,246.662000Z" opacity="0.4" fill="rgb(41,217,225)" stroke="none" stroke-width="1"/><path id="exdr9mquf5mq28" d="M315.364000,277.054000L297.290000,277.054000L297.290000,337.052000L315.364000,337.052000L315.364000,277.054000Z" opacity="0.4" fill="rgb(41,217,225)" stroke="none" stroke-width="1"/><path id="exdr9mquf5mq29" d="M350.349000,234.013000L332.276000,234.013000L332.276000,337.052000L350.349000,337.052000L350.349000,234.013000Z" opacity="0.4" fill="rgb(41,217,225)" stroke="none" stroke-width="1"/><path id="exdr9mquf5mq30" d="M385.271000,191.037000L367.197000,191.037000L367.197000,337.052000L385.271000,337.052000L385.271000,191.037000Z" opacity="0.4" fill="rgb(41,217,225)" stroke="none" stroke-width="1"/><path id="exdr9mquf5mq31" d="M420.257000,204.952000L402.183000,204.952000L402.183000,337.052000L420.257000,337.052000L420.257000,204.952000Z" opacity="0.4" fill="rgb(41,217,225)" stroke="none" stroke-width="1"/><path id="exdr9mquf5mq32" d="M455.243000,246.181000L437.169000,246.181000L437.169000,337.052000L455.243000,337.052000L455.243000,246.181000Z" opacity="0.4" fill="rgb(41,217,225)" stroke="none" stroke-width="1"/></g><g id="exdr9mquf5mq33" opacity="0.07"><path id="exdr9mquf5mq34" d="M524.143000,170.546000L654.598000,170.546000C656.018000,170.546000,657.180000,171.711000,657.180000,173.135000L657.180000,335.526000C657.180000,336.950000,656.018000,338.115000,654.598000,338.115000L524.143000,338.115000C522.723000,338.115000,521.561000,336.950000,521.561000,335.526000L521.561000,173.135000C521.561000,171.711000,522.723000,170.546000,524.143000,170.546000Z" fill="rgb(58,82,204)" stroke="none" stroke-width="1"/></g><path id="exdr9mquf5mq35" d="M487.285000,444.843000L368.256000,444.843000L368.256000,437.141000C368.256000,434.552000,370.386000,432.417000,372.968000,432.417000L482.638000,432.417000C485.220000,432.417000,487.350000,434.552000,487.350000,437.141000L487.350000,444.843000L487.285000,444.843000Z" fill="rgb(58,82,204)" stroke="none" stroke-width="1"/><path id="exdr9mquf5mq36" d="M208.242000,472.739000C208.183000,472.739000,208.065000,472.739000,208.006000,472.739000C206.709000,472.621000,205.766000,471.439000,205.943000,470.198000L236.948000,166.579000C237.066000,165.279000,238.245000,164.333000,239.483000,164.510000C240.780000,164.628000,241.723000,165.811000,241.546000,167.052000L210.540000,470.670000C210.423000,471.852000,209.420000,472.739000,208.242000,472.739000Z" fill="rgb(45,13,178)" stroke="none" stroke-width="1"/><path id="exdr9mquf5mq37" d="M302.672000,472.739000C301.494000,472.739000,300.492000,471.853000,300.374000,470.671000L269.309000,166.993000C269.191000,165.692000,270.134000,164.569000,271.372000,164.451000C272.669000,164.333000,273.789000,165.279000,273.907000,166.520000L304.971000,470.139000C305.089000,471.439000,304.146000,472.562000,302.908000,472.680000C302.849000,472.739000,302.731000,472.739000,302.672000,472.739000Z" fill="rgb(45,13,178)" stroke="none" stroke-width="1"/><path id="exdr9mquf5mq38" d="M274.909000,202.160000L236.005000,202.160000C234.708000,202.160000,233.647000,201.096000,233.647000,199.796000C233.647000,198.495000,234.708000,197.431000,236.005000,197.431000L274.909000,197.431000C276.206000,197.431000,277.267000,198.495000,277.267000,199.796000C277.267000,201.096000,276.206000,202.160000,274.909000,202.160000Z" fill="rgb(45,13,178)" stroke="none" stroke-width="1"/><path id="exdr9mquf5mq39" d="M279.094000,241.937000L231.820000,241.937000C230.523000,241.937000,229.462000,240.873000,229.462000,239.573000C229.462000,238.273000,230.523000,237.209000,231.820000,237.209000L279.094000,237.209000C280.391000,237.209000,281.452000,238.273000,281.452000,239.573000C281.393000,240.873000,280.391000,241.937000,279.094000,241.937000Z" fill="rgb(45,13,178)" stroke="none" stroke-width="1"/><path id="exdr9mquf5mq40" d="M284.340000,291.880000L226.692000,291.880000C225.395000,291.880000,224.334000,290.816000,224.334000,289.516000C224.334000,288.216000,225.395000,287.152000,226.692000,287.152000L284.340000,287.152000C285.637000,287.152000,286.698000,288.216000,286.698000,289.516000C286.698000,290.875000,285.637000,291.880000,284.340000,291.880000Z" fill="rgb(45,13,178)" stroke="none" stroke-width="1"/><path id="exdr9mquf5mq41" d="M289.822000,348.206000L220.974000,348.206000C219.677000,348.206000,218.616000,347.143000,218.616000,345.842000C218.616000,344.542000,219.677000,343.478000,220.974000,343.478000L289.822000,343.478000C291.119000,343.478000,292.180000,344.542000,292.180000,345.842000C292.180000,347.143000,291.119000,348.206000,289.822000,348.206000Z" fill="rgb(45,13,178)" stroke="none" stroke-width="1"/><path id="exdr9mquf5mq42" d="M298.016000,428.056000L212.839000,428.056000C211.542000,428.056000,210.481000,426.992000,210.481000,425.692000C210.481000,424.392000,211.542000,423.328000,212.839000,423.328000L298.016000,423.328000C299.313000,423.328000,300.374000,424.392000,300.374000,425.692000C300.315000,427.052000,299.313000,428.056000,298.016000,428.056000Z" fill="rgb(45,13,178)" stroke="none" stroke-width="1"/><path id="exdr9mquf5mq43" d="M119.094000,426.786000C119.094000,426.786000,76.943100,452.287000,154.661000,491.509000C154.661000,491.509000,171.767000,459.665000,152.854000,433.646000C145.237000,423.161000,131.036000,420.054000,119.740000,426.397000L119.094000,426.786000Z" fill="rgb(58,82,204)" stroke="none" stroke-width="1"/><path id="exdr9mquf5mq44" d="M119.610000,426.203000C119.610000,426.203000,155.694000,453.840000,154.661000,491.509000" fill="none" stroke="rgb(83,84,97)" stroke-width="1.132100" stroke-miterlimit="10"/><path id="exdr9mquf5mq45" d="M156.726000,491.962000C156.726000,491.962000,143.494000,446.979000,159.179000,413.906000C165.828000,400.055000,167.829000,384.457000,164.924000,369.376000C163.440000,362.257000,161.374000,355.202000,158.663000,348.470000" fill="none" stroke="rgb(83,84,97)" stroke-width="2.264300" stroke-miterlimit="10"/><path id="exdr9mquf5mq46" d="M168.345000,327.565000C168.345000,333.066000,158.405000,349.053000,158.405000,349.053000C158.405000,349.053000,148.464000,333.066000,148.464000,327.565000C148.464000,322.063000,152.918000,317.597000,158.405000,317.597000C163.892000,317.597000,168.345000,322.063000,168.345000,327.565000Z" fill="rgb(41,217,225)" stroke="none" stroke-width="1"/><path id="exdr9mquf5mq47" d="M184.806000,358.114000C181.836000,362.709000,164.795000,370.735000,164.795000,370.735000C164.795000,370.735000,165.118000,351.901000,168.087000,347.305000C171.057000,342.710000,177.253000,341.351000,181.836000,344.328000C186.419000,347.305000,187.775000,353.454000,184.806000,358.114000Z" fill="rgb(41,217,225)" stroke="none" stroke-width="1"/><path id="exdr9mquf5mq48" d="M184.096000,410.216000C179.190000,412.676000,160.470000,410.928000,160.470000,410.928000C160.470000,410.928000,170.217000,394.812000,175.123000,392.353000C180.029000,389.893000,186.032000,391.835000,188.485000,396.754000C191.002000,401.738000,189.001000,407.692000,184.096000,410.216000Z" fill="rgb(41,217,225)" stroke="none" stroke-width="1"/><path id="exdr9mquf5mq49" d="M174.671000,449.568000C170.282000,452.869000,151.498000,454.293000,151.498000,454.293000C151.498000,454.293000,158.405000,436.753000,162.794000,433.517000C167.184000,430.216000,173.445000,431.187000,176.737000,435.588000C180.029000,440.054000,179.125000,446.267000,174.671000,449.568000Z" fill="rgb(41,217,225)" stroke="none" stroke-width="1"/><path id="exdr9mquf5mq50" d="M143.946000,371.771000C147.883000,375.589000,166.280000,379.602000,166.280000,379.602000C166.280000,379.602000,161.761000,361.286000,157.824000,357.467000C153.886000,353.648000,147.560000,353.713000,143.752000,357.661000C139.879000,361.609000,139.944000,367.952000,143.946000,371.771000Z" fill="rgb(41,217,225)" stroke="none" stroke-width="1"/><path id="exdr9mquf5mq51" d="M133.489000,417.919000C138.394000,420.378000,157.114000,418.631000,157.114000,418.631000C157.114000,418.631000,147.367000,402.514000,142.461000,400.055000C137.555000,397.595000,131.552000,399.537000,129.099000,404.456000C126.646000,409.375000,128.583000,415.394000,133.489000,417.919000Z" fill="rgb(41,217,225)" stroke="none" stroke-width="1"/><path id="exdr9mquf5mq52" d="M129.551000,464.131000C133.940000,467.432000,152.724000,468.856000,152.724000,468.856000C152.724000,468.856000,145.818000,451.316000,141.428000,448.080000C137.039000,444.779000,130.778000,445.750000,127.485000,450.151000C124.193000,454.617000,125.097000,460.895000,129.551000,464.131000Z" fill="rgb(41,217,225)" stroke="none" stroke-width="1"/><g id="exdr9mquf5mq53"><path id="exdr9mquf5mq54" d="M558.098000,234.823000L701.205000,234.823000C702.689000,234.823000,703.916000,236.052000,703.916000,237.476000L703.916000,414.624000C703.916000,416.113000,702.689000,417.278000,701.205000,417.278000L558.098000,417.278000C556.614000,417.278000,555.387000,416.048000,555.387000,414.624000L555.387000,237.476000C555.452000,235.988000,556.614000,234.823000,558.098000,234.823000Z" opacity="0.9" fill="rgb(255,255,255)" stroke="none" stroke-width="1"/><path id="exdr9mquf5mq55" d="M564.745000,239.994000L702.558000,239.994000C703.978000,239.994000,705.140000,241.159000,705.140000,242.583000L705.140000,413.582000C705.140000,415.006000,703.978000,416.171000,702.558000,416.171000L564.745000,416.171000C563.325000,416.171000,562.163000,415.006000,562.163000,413.582000L562.163000,242.583000C562.163000,241.159000,563.325000,239.994000,564.745000,239.994000Z" opacity="0.7" fill="url(#exdr9mquf5mq55-fill)" stroke="none" stroke-width="1"/><path id="exdr9mquf5mq56" d="M597.149000,262.583000C605.217000,262.583000,611.737000,269.120000,611.737000,277.210000C611.737000,285.300000,605.217000,291.837000,597.149000,291.837000C589.080000,291.837000,582.560000,285.300000,582.560000,277.210000C582.560000,269.120000,589.080000,262.583000,597.149000,262.583000Z" fill="rgb(255,255,255)" stroke="none" stroke-width="1"/><path id="exdr9mquf5mq57" d="M583.851000,309.442000L685.065000,309.442000C685.775000,309.442000,686.356000,310.025000,686.356000,310.737000L686.356000,314.038000C686.356000,314.749000,685.775000,315.332000,685.065000,315.332000L583.851000,315.332000C583.141000,315.332000,582.560000,314.749000,582.560000,314.038000L582.560000,310.737000C582.560000,310.025000,583.141000,309.442000,583.851000,309.442000Z" fill="rgb(255,255,255)" stroke="none" stroke-width="1"/><path id="exdr9mquf5mq58" d="M583.851000,321.934000L685.065000,321.934000C685.775000,321.934000,686.356000,322.516000,686.356000,323.228000L686.356000,326.529000C686.356000,327.241000,685.775000,327.824000,685.065000,327.824000L583.851000,327.824000C583.141000,327.824000,582.560000,327.241000,582.560000,326.529000L582.560000,323.228000C582.560000,322.516000,583.141000,321.934000,583.851000,321.934000Z" fill="rgb(255,255,255)" stroke="none" stroke-width="1"/><path id="exdr9mquf5mq59" d="M583.851000,334.361000L685.065000,334.361000C685.775000,334.361000,686.356000,334.943000,686.356000,335.655000L686.356000,338.956000C686.356000,339.668000,685.775000,340.250000,685.065000,340.250000L583.851000,340.250000C583.141000,340.250000,582.560000,339.668000,582.560000,338.956000L582.560000,335.655000C582.560000,334.943000,583.141000,334.361000,583.851000,334.361000Z" fill="rgb(255,255,255)" stroke="none" stroke-width="1"/><path id="exdr9mquf5mq60" d="M583.851000,346.852000L685.065000,346.852000C685.775000,346.852000,686.356000,347.435000,686.356000,348.147000L686.356000,351.448000C686.356000,352.160000,685.775000,352.742000,685.065000,352.742000L583.851000,352.742000C583.141000,352.742000,582.560000,352.160000,582.560000,351.448000L582.560000,348.147000C582.560000,347.370000,583.141000,346.852000,583.851000,346.852000Z" fill="rgb(255,255,255)" stroke="none" stroke-width="1"/><path id="exdr9mquf5mq61" d="M583.851000,359.279000L685.065000,359.279000C685.775000,359.279000,686.356000,359.862000,686.356000,360.574000L686.356000,363.875000C686.356000,364.586000,685.775000,365.169000,685.065000,365.169000L583.851000,365.169000C583.141000,365.169000,582.560000,364.586000,582.560000,363.875000L582.560000,360.574000C582.560000,359.862000,583.141000,359.279000,583.851000,359.279000Z" fill="rgb(255,255,255)" stroke="none" stroke-width="1"/><path id="exdr9mquf5mq62" d="M583.851000,371.706000L685.065000,371.706000C685.775000,371.706000,686.356000,372.289000,686.356000,373.001000L686.356000,376.301000C686.356000,377.013000,685.775000,377.596000,685.065000,377.596000L583.851000,377.596000C583.141000,377.596000,582.560000,377.013000,582.560000,376.301000L582.560000,373.001000C582.560000,372.289000,583.141000,371.706000,583.851000,371.706000Z" fill="rgb(255,255,255)" stroke="none" stroke-width="1"/><path id="exdr9mquf5mq63" d="M583.851000,384.198000L685.065000,384.198000C685.775000,384.198000,686.356000,384.780000,686.356000,385.492000L686.356000,388.793000C686.356000,389.505000,685.775000,390.087000,685.065000,390.087000L583.851000,390.087000C583.141000,390.087000,582.560000,389.505000,582.560000,388.793000L582.560000,385.492000C582.560000,384.780000,583.141000,384.198000,583.851000,384.198000Z" fill="rgb(255,255,255)" stroke="none" stroke-width="1"/></g><path id="exdr9mquf5mq64" d="M810.033000,518.369000C810.033000,515.263000,790.152000,512.738000,765.623000,512.738000C741.094000,512.738000,721.213000,515.263000,721.213000,518.369000C721.213000,521.476000,741.094000,524,765.623000,524C790.152000,524,810.033000,521.476000,810.033000,518.369000Z" opacity="0.05" fill="rgb(45,13,178)" stroke="none" stroke-width="1"/><g id="exdr9mquf5mq65"><path id="exdr9mquf5mq66" d="M765.171000,330.607000L752.520000,330.219000L755.166000,315.009000C751.681000,316.950000,748.324000,317.856000,746.710000,317.403000C742.773000,316.238000,742.902000,301.676000,746.129000,296.045000C749.357000,290.414000,765.171000,288.472000,765.623000,299.799000C765.752000,303.811000,764.009000,307.242000,761.492000,310.025000L765.171000,330.607000Z" fill="rgb(246,126,96)" stroke="none" stroke-width="1"/><path id="exdr9mquf5mq67" d="M745.677000,294.232000C744.967000,295.786000,745.419000,297.663000,748.259000,297.468000C751.164000,300.964000,755.360000,303.294000,755.812000,303.358000C755.876000,303.358000,757.684000,300.834000,759.491000,301.870000C761.557000,303.099000,761.169000,305.365000,760.072000,307.177000C759.491000,308.083000,758.587000,309.507000,760.072000,310.543000C762.396000,312.225000,768.334000,308.471000,769.367000,305.300000C771.175000,299.345000,768.657000,291.255000,762.138000,290.090000C762.525000,288.990000,764.074000,288.537000,765.171000,288.278000C767.753000,287.760000,770.465000,288.278000,772.982000,288.860000C776.080000,289.508000,779.243000,290.543000,782.406000,290.543000C784.020000,290.543000,785.698000,290.219000,787.183000,289.702000C788.797000,289.119000,790.023000,288.213000,791.443000,287.242000C792.799000,286.336000,794.219000,286.530000,795.639000,286.983000C797.124000,287.436000,798.608000,288.019000,799.964000,288.731000C802.933000,290.284000,805.644000,292.161000,808.807000,293.261000C811.195000,294.103000,813.648000,294.556000,816.166000,294.621000C820.490000,294.685000,825.719000,293.779000,828.559000,290.090000C830.496000,287.566000,830.496000,284.394000,829.334000,281.547000C828.236000,278.893000,826.300000,276.951000,823.912000,275.398000C821.394000,273.715000,818.554000,272.421000,815.520000,272.226000C812.228000,271.968000,809.130000,273.068000,806.354000,274.751000C803.643000,276.369000,801.255000,278.116000,798.027000,278.634000C794.864000,279.152000,791.701000,278.699000,788.668000,277.728000C785.505000,276.692000,782.406000,275.592000,779.050000,275.268000C775.887000,275.009000,772.595000,275.333000,769.625000,276.563000C766.979000,277.728000,764.849000,279.670000,763.429000,282.194000C762.654000,283.553000,762.138000,284.977000,761.750000,286.466000C761.621000,286.983000,761.492000,287.501000,761.428000,288.084000C761.363000,288.537000,761.428000,289.184000,761.169000,289.637000C760.847000,290.090000,760.266000,290.025000,759.749000,290.025000C758.910000,290.025000,754.456000,290.219000,752.778000,290.478000C750.583000,290.737000,746.323000,292.679000,745.677000,294.232000Z" fill="rgb(45,13,178)" stroke="none" stroke-width="1"/></g><g id="exdr9mquf5mq68"><path id="exdr9mquf5mq69" d="M745.355000,383.486000L746.904000,509.114000L752.520000,506.719000L757.813000,446.591000L768.076000,373.842000L745.355000,383.486000Z" fill="rgb(245,131,102)" stroke="none" stroke-width="1"/><path id="exdr9mquf5mq70" d="M754.908000,507.172000C754.650000,506.654000,754.069000,506.395000,753.553000,506.654000C752.197000,507.237000,751.164000,507.560000,750.390000,507.560000C749.486000,507.560000,748.259000,507.237000,746.775000,506.525000L745.936000,504.454000C745.871000,504.195000,745.548000,504.130000,745.290000,504.195000L731.928000,510.149000C730.896000,510.279000,729.540000,510.473000,727.926000,510.667000C726.313000,510.861000,725.925000,512.220000,726.635000,514.615000C744.645000,514.680000,754.133000,514.745000,755.166000,514.745000C755.489000,512.997000,755.618000,511.638000,755.683000,510.732000C755.683000,509.955000,755.424000,508.790000,754.844000,507.301000C754.973000,507.301000,754.973000,507.237000,754.908000,507.172000Z" fill="rgb(41,217,225)" stroke="none" stroke-width="1"/><path id="exdr9mquf5mq71" d="M763.364000,437.853000C766.269000,417.336000,773.434000,395.201000,773.821000,371.447000L739.739000,376.237000C738.512000,395.395000,741.611000,423.096000,741.934000,442.967000C742.192000,462.901000,743.031000,480.959000,744.193000,497.140000L758.975000,497.593000C764.461000,479.470000,760.459000,458.371000,763.364000,437.853000Z" fill="rgb(45,13,178)" stroke="none" stroke-width="1"/></g><g id="exdr9mquf5mq72"><path id="exdr9mquf5mq73" d="M773.111000,379.214000L753.940000,378.567000C759.297000,399.861000,767.882000,434.811000,770.787000,439.213000C772.724000,442.125000,791.830000,459.471000,828.236000,465.361000L829.656000,459.989000C799.189000,449.633000,783.762000,431.187000,783.374000,430.669000C782.664000,429.763000,776.338000,401.349000,773.111000,379.214000Z" fill="rgb(245,131,102)" stroke="none" stroke-width="1"/><path id="exdr9mquf5mq74" d="M785.569000,427.951000C785.053000,426.656000,782.471000,410.411000,777.952000,379.214000L749.034000,375.395000C756.264000,413.517000,760.330000,438.824000,766.462000,444.779000C772.530000,450.733000,789.507000,469.374000,816.876000,467.432000L819.070000,453.970000C797.382000,445.814000,786.150000,429.245000,785.569000,427.951000Z" fill="rgb(58,82,204)" stroke="none" stroke-width="1"/><path id="exdr9mquf5mq75" d="M828.107000,457.723000C827.526000,457.853000,827.204000,458.435000,827.333000,458.953000C827.655000,460.377000,827.785000,461.477000,827.591000,462.189000C827.397000,463.095000,826.881000,464.196000,825.913000,465.555000L823.653000,466.008000C823.395000,466.073000,823.266000,466.332000,823.331000,466.591000L826.687000,480.830000C826.623000,481.865000,826.558000,483.224000,826.429000,484.843000C826.300000,486.461000,827.591000,487.108000,830.108000,486.849000C833.529000,469.115000,835.337000,459.795000,835.531000,458.759000C833.852000,458.112000,832.561000,457.723000,831.658000,457.529000C830.948000,457.400000,829.721000,457.465000,828.107000,457.723000Z" fill="rgb(41,217,225)" stroke="none" stroke-width="1"/></g><path id="exdr9mquf5mq76" d="M716.888000,361.415000L700.235000,354.166000C692.940000,354.619000,689.390000,354.360000,689.713000,353.325000C690.165000,351.707000,692.295000,352.160000,692.747000,351.124000C693.199000,350.153000,690.875000,347.888000,688.616000,345.817000C686.356000,343.810000,687.906000,343.487000,688.874000,343.552000C692.359000,344.458000,696.168000,346.140000,700.235000,348.665000L721.020000,352.224000L716.888000,361.415000ZM800.093000,403.356000C800.803000,404.909000,806.225000,409.828000,810.033000,412.611000C811.518000,413.712000,810.873000,415.071000,810.292000,415.459000C805.386000,418.242000,802.417000,414.682000,798.285000,412.611000C793.831000,410.281000,793.961000,416.365000,790.475000,414.553000C791.637000,412.094000,794.412000,407.498000,793.315000,404.456000C792.799000,403.032000,786.666000,387.887000,774.918000,358.826000L786.473000,359.150000C794.542000,386.463000,799.060000,401.155000,800.093000,403.356000Z" transform="matrix(1 0 0 1 0 -0.41824116000004)" fill="rgb(243,137,109)" stroke="none" stroke-width="1"/><path id="exdr9mquf5mq77" d="M755.554000,342.063000C750.067000,369.570000,729.605000,366.269000,704.366000,362.192000L706.625000,348.988000C733.671000,354.166000,750.519000,345.623000,753.359000,325.494000L758.136000,321.351000C758.071000,327.565000,756.909000,335.008000,755.554000,342.063000Z" transform="matrix(1 0 0 1 0.77400000000000 0)" fill="url(#exdr9mquf5mq77-fill)" stroke="none" stroke-width="1"/><path id="exdr9mquf5mq78" d="M763.558000,318.827000C783.245000,337.856000,795.639000,364.263000,800.867000,397.984000L786.150000,400.896000C784.085000,398.307000,782.600000,396.366000,779.114000,387.175000L735.672000,385.816000C740.062000,368.599000,746.646000,353.454000,747.420000,329.765000L762.654000,318.892000L763.558000,318.827000Z" fill="rgb(172,198,249)" stroke="none" stroke-width="1"/><path id="exdr9mquf5mq79" d="M777.629000,388.405000L770.077000,388.146000C772.401000,380.509000,773.305000,369.247000,772.853000,354.490000C775.499000,365.169000,776.919000,376.496000,777.629000,388.405000Z" fill="url(#exdr9mquf5mq79-fill)" stroke="none" stroke-width="1"/><script><![CDATA[!function(t,n){"object"==typeof exports&&"undefined"!=typeof module?module.exports=n():"function"==typeof define&&define.amd?define(n):(t=t||self).__SVGATOR_PLAYER__=n()}(this,(function(){"use strict";function t(n){return(t="function"==typeof Symbol&&"symbol"==typeof Symbol.iterator?function(t){return typeof t}:function(t){return t&&"function"==typeof Symbol&&t.constructor===Symbol&&t!==Symbol.prototype?"symbol":typeof t})(n)}function n(t,n){if(!(t instanceof n))throw new TypeError("Cannot call a class as a function")}function r(t,n){for(var r=0;r<n.length;r++){var e=n[r];e.enumerable=e.enumerable||!1,e.configurable=!0,"value"in e&&(e.writable=!0),Object.defineProperty(t,e.key,e)}}function e(t,n,e){return n&&r(t.prototype,n),e&&r(t,e),t}function i(t){return(i=Object.setPrototypeOf?Object.getPrototypeOf:function(t){return t.__proto__||Object.getPrototypeOf(t)})(t)}function o(t,n){return(o=Object.setPrototypeOf||function(t,n){return t.__proto__=n,t})(t,n)}function u(t,n){return!n||"object"!=typeof n&&"function"!=typeof n?function(t){if(void 0===t)throw new ReferenceError("this hasn't been initialised - super() hasn't been called");return t}(t):n}function a(t){var n=function(){if("undefined"==typeof Reflect||!Reflect.construct)return!1;if(Reflect.construct.sham)return!1;if("function"==typeof Proxy)return!0;try{return Date.prototype.toString.call(Reflect.construct(Date,[],(function(){}))),!0}catch(t){return!1}}();return function(){var r,e=i(t);if(n){var o=i(this).constructor;r=Reflect.construct(e,arguments,o)}else r=e.apply(this,arguments);return u(this,r)}}function l(t,n,r){return(l="undefined"!=typeof Reflect&&Reflect.get?Reflect.get:function(t,n,r){var e=function(t,n){for(;!Object.prototype.hasOwnProperty.call(t,n)&&null!==(t=i(t)););return t}(t,n);if(e){var o=Object.getOwnPropertyDescriptor(e,n);return o.get?o.get.call(r):o.value}})(t,n,r||t)}var f=Math.abs;function s(t){return t}function c(t,n,r){var e=1-r;return 3*r*e*(t*e+n*r)+r*r*r}function h(){var t=arguments.length>0&&void 0!==arguments[0]?arguments[0]:0,n=arguments.length>1&&void 0!==arguments[1]?arguments[1]:0,r=arguments.length>2&&void 0!==arguments[2]?arguments[2]:1,e=arguments.length>3&&void 0!==arguments[3]?arguments[3]:1;return t<0||t>1||r<0||r>1?null:f(t-n)<=1e-5&&f(r-e)<=1e-5?s:function(i){if(i<=0)return t>0?i*n/t:0===n&&r>0?i*e/r:0;if(i>=1)return r<1?1+(i-1)*(e-1)/(r-1):1===r&&t<1?1+(i-1)*(n-1)/(t-1):1;for(var o,u=0,a=1;u<a;){var l=c(t,r,o=(u+a)/2);if(f(i-l)<1e-5)break;l<i?u=o:a=o}return c(n,e,o)}}function v(){return 1}function y(t){return 1===t?1:0}function d(){var t=arguments.length>0&&void 0!==arguments[0]?arguments[0]:1,n=arguments.length>1&&void 0!==arguments[1]?arguments[1]:0;if(1===t){if(0===n)return y;if(1===n)return v}var r=1/t;return function(t){return t>=1?1:(t+=n*r)-t%r}}function g(t){var n=arguments.length>1&&void 0!==arguments[1]?arguments[1]:2;if(Number.isInteger(t))return t;var r=Math.pow(10,n);return Math.round(t*r)/r}var p=Math.PI/180;function m(t,n,r){return t>=.5?r:n}function b(t,n,r){return 0===t||n===r?n:t*(r-n)+n}function w(t,n,r){var e=b(t,n,r);return e<=0?0:e}function k(t,n,r){return 0===t?n:1===t?r:{x:b(t,n.x,r.x),y:b(t,n.y,r.y)}}function x(t,n,r){var e=function(t,n,r){return Math.round(b(t,n,r))}(t,n,r);return e<=0?0:e>=255?255:e}function A(t,n,r){return 0===t?n:1===t?r:{r:x(t,n.r,r.r),g:x(t,n.g,r.g),b:x(t,n.b,r.b),a:b(t,null==n.a?1:n.a,null==r.a?1:r.a)}}function _(t,n,r){if(0===t)return n;if(1===t)return r;var e=n.length;if(e!==r.length)return m(t,n,r);for(var i=[],o=0;o<e;o++)i.push(A(t,n[o],r[o]));return i}function S(t,n){for(var r=[],e=0;e<t;e++)r.push(n);return r}function O(t,n){if(--n<=0)return t;var r=(t=Object.assign([],t)).length;do{for(var e=0;e<r;e++)t.push(t[e])}while(--n>0);return t}var M,j=function(){function t(r){n(this,t),this.list=r,this.length=r.length}return e(t,[{key:"setAttribute",value:function(t,n){for(var r=this.list,e=0;e<this.length;e++)r[e].setAttribute(t,n)}},{key:"removeAttribute",value:function(t){for(var n=this.list,r=0;r<this.length;r++)n[r].removeAttribute(t)}},{key:"style",value:function(t,n){for(var r=this.list,e=0;e<this.length;e++)r[e].style[t]=n}}]),t}(),F=/-./g,P=function(t,n){return n.toUpperCase()};function q(t){return"function"==typeof t?t:m}function B(t){return t?"function"==typeof t?t:Array.isArray(t)?function(t){var n=arguments.length>1&&void 0!==arguments[1]?arguments[1]:s;if(!Array.isArray(t))return n;switch(t.length){case 1:return d(t[0])||n;case 2:return d(t[0],t[1])||n;case 4:return h(t[0],t[1],t[2],t[3])||n}return n}(t,null):function(t,n){var r=arguments.length>2&&void 0!==arguments[2]?arguments[2]:s;switch(t){case"linear":return s;case"steps":return d(n.steps||1,n.jump||0)||r;case"bezier":case"cubic-bezier":return h(n.x1||0,n.y1||0,n.x2||0,n.y2||0)||r}return r}(t.type,t.value,null):null}function I(t,n,r){var e=arguments.length>3&&void 0!==arguments[3]&&arguments[3],i=n.length-1;if(t<=n[0].t)return e?[0,0,n[0].v]:n[0].v;if(t>=n[i].t)return e?[i,1,n[i].v]:n[i].v;var o,u=n[0],a=null;for(o=1;o<=i;o++){if(!(t>n[o].t)){a=n[o];break}u=n[o]}return null==a?e?[i,1,n[i].v]:n[i].v:u.t===a.t?e?[o,1,a.v]:a.v:(t=(t-u.t)/(a.t-u.t),u.e&&(t=u.e(t)),e?[o,t,r(t,u.v,a.v)]:r(t,u.v,a.v))}function R(t,n){var r=arguments.length>2&&void 0!==arguments[2]?arguments[2]:null;return t&&t.length?"function"!=typeof n?null:("function"!=typeof r&&(r=null),function(e){var i=I(e,t,n);return null!=i&&r&&(i=r(i)),i}):null}function E(t,n){return t.t-n.t}function T(n,r,e,i,o){var u,a="@"===e[0],l="#"===e[0],f=M[e],s=m;switch(a?(u=e.substr(1),e=u.replace(F,P)):l&&(e=e.substr(1)),t(f)){case"function":if(s=f(i,o,I,B,e,a,r,n),l)return s;break;case"string":s=R(i,q(f));break;case"object":if((s=R(i,q(f.i),f.f))&&"function"==typeof f.u)return f.u(r,s,e,a,n)}return s?function(t,n,r){var e=arguments.length>3&&void 0!==arguments[3]&&arguments[3];if(e)return t instanceof j?function(e){return t.style(n,r(e))}:function(e){return t.style[n]=r(e)};if(Array.isArray(n)){var i=n.length;return function(e){var o=r(e);if(null==o)for(var u=0;u<i;u++)t[u].removeAttribute(n);else for(var a=0;a<i;a++)t[a].setAttribute(n,o)}}return function(e){var i=r(e);null==i?t.removeAttribute(n):t.setAttribute(n,i)}}(r,e,s,a):null}function z(n,r,e,i){if(!i||"object"!==t(i))return null;var o=null,u=null;return Array.isArray(i)?u=function(t){if(!t||!t.length)return null;for(var n=0;n<t.length;n++)t[n].e&&(t[n].e=B(t[n].e));return t.sort(E)}(i):(u=i.keys,o=i.data||null),u?T(n,r,e,u,o):null}function C(t,n,r){if(!r)return null;var e=[];for(var i in r)if(r.hasOwnProperty(i)){var o=z(t,n,i,r[i]);o&&e.push(o)}return e.length?e:null}function D(t,n){if(!n.duration||n.duration<0)return null;var r=function(t,n){if(!n)return null;var r=[];if(Array.isArray(n))for(var e=n.length,i=0;i<e;i++){var o=n[i];if(2===o.length){var u=null;if("string"==typeof o[0])u=t.getElementById(o[0]);else if(Array.isArray(o[0])){u=[];for(var a=0;a<o[0].length;a++)if("string"==typeof o[0][a]){var l=t.getElementById(o[0][a]);l&&u.push(l)}u=u.length?1===u.length?u[0]:new j(u):null}if(u){var f=C(t,u,o[1]);f&&(r=r.concat(f))}}}else for(var s in n)if(n.hasOwnProperty(s)){var c=t.getElementById(s);if(c){var h=C(t,c,n[s]);h&&(r=r.concat(h))}}return r.length?r:null}(t,n.elements);return r?function(t,n){var r=arguments.length>2&&void 0!==arguments[2]?arguments[2]:1/0,e=arguments.length>3&&void 0!==arguments[3]?arguments[3]:1,i=arguments.length>4&&void 0!==arguments[4]&&arguments[4],o=arguments.length>5&&void 0!==arguments[5]?arguments[5]:1,u=t.length,a=e>0?n:0;i&&r%2==0&&(a=n-a);var l=null;return function(f,s){var c=f%n,h=1+(f-c)/n;s*=e,i&&h%2==0&&(s=-s);var v=!1;if(h>r)c=a,v=!0,-1===o&&(c=e>0?0:n);else if(s<0&&(c=n-c),c===l)return!1;l=c;for(var y=0;y<u;y++)t[y](c);return v}}(r,n.duration,n.iterations||1/0,n.direction||1,!!n.alternate,n.fill||1):null}function N(t,n){if(M=n,!t||!t.root||!Array.isArray(t.animations))return null;for(var r=document.getElementsByTagName("svg"),e=!1,i=0;i<r.length;i++)if(r[i].id===t.root&&!r[i].svgatorAnimation){(e=r[i]).svgatorAnimation=!0;break}if(!e)return null;var o=t.animations.map((function(t){return D(e,t)})).filter((function(t){return!!t}));return o.length?{element:e,animations:o,animationSettings:t.animationSettings,options:t.options||void 0}:null}var L=function(){function t(r,e){var i=arguments.length>2&&void 0!==arguments[2]?arguments[2]:{};n(this,t),this._id=0,this._running=!1,this._rollingBack=!1,this._animations=r,this.duration=e.duration,this.alternate=e.alternate,this.fill=e.fill,this.iterations=e.iterations,this.direction=i.direction||1,this.speed=i.speed||1,this.fps=i.fps||100,this.offset=i.offset||0,this.rollbackStartOffset=0}return e(t,[{key:"_rollback",value:function(){var t=this,n=1/0,r=null;this.rollbackStartOffset=this.offset,this._rollingBack||(this._rollingBack=!0,this._running=!0);this._id=window.requestAnimationFrame((function e(i){if(t._rollingBack){null==r&&(r=i);var o=i-r,u=t.rollbackStartOffset-o,a=Math.round(u*t.speed);if(a>t.duration&&n!=1/0){var l=!!t.alternate&&a/t.duration%2>1,f=a%t.duration;a=(f+=l?t.duration:0)||t.duration}var s=t.fps?1e3/t.fps:0,c=Math.max(0,a);if(c<n-s){t.offset=c,n=c;for(var h=t._animations,v=h.length,y=0;y<v;y++)h[y](c,t.direction)}var d=!1;if(t.iterations>0&&-1===t.fill){var g=t.iterations*t.duration,p=g==a;a=p?0:a,t.offset=p?0:t.offset,d=a>g}a>0&&t.offset>=a&&!d?t._id=window.requestAnimationFrame(e):t.stop()}}))}},{key:"_start",value:function(){var t=this,n=arguments.length>0&&void 0!==arguments[0]?arguments[0]:0,r=-1/0,e=null,i={},o=function o(u){t._running=!0,null==e&&(e=u);var a=Math.round((u-e+n)*t.speed),l=t.fps?1e3/t.fps:0;if(a>r+l&&!t._rollingBack){t.offset=a,r=a;for(var f=t._animations,s=f.length,c=0,h=0;h<s;h++)i[h]?c++:(i[h]=f[h](a,t.direction),i[h]&&c++);if(c===s)return void t._stop()}t._id=window.requestAnimationFrame(o)};this._id=window.requestAnimationFrame(o)}},{key:"_stop",value:function(){this._id&&window.cancelAnimationFrame(this._id),this._running=!1,this._rollingBack=!1}},{key:"play",value:function(){!this._rollingBack&&this._running||(this._rollingBack=!1,this.rollbackStartOffset>this.duration&&(this.offset=this.rollbackStartOffset-(this.rollbackStartOffset-this.offset)%this.duration,this.rollbackStartOffset=0),this._start(this.offset))}},{key:"stop",value:function(){this._stop(),this.offset=0,this.rollbackStartOffset=0;var t=this.direction,n=this._animations;window.requestAnimationFrame((function(){for(var r=0;r<n.length;r++)n[r](0,t)}))}},{key:"reachedToEnd",value:function(){return this.iterations>0&&this.offset>=this.iterations*this.duration}},{key:"restart",value:function(){this._stop(),this.offset=0,this._start()}},{key:"pause",value:function(){this._stop()}},{key:"reverse",value:function(){this.direction=-this.direction}}],[{key:"build",value:function(n,r){return(n=N(n,r))?{el:n.element,options:n.options||{},player:new t(n.animations,n.animationSettings,n.options)}:null}}]),t}();!function(){for(var t=0,n=["ms","moz","webkit","o"],r=0;r<n.length&&!window.requestAnimationFrame;++r)window.requestAnimationFrame=window[n[r]+"RequestAnimationFrame"],window.cancelAnimationFrame=window[n[r]+"CancelAnimationFrame"]||window[n[r]+"CancelRequestAnimationFrame"];window.requestAnimationFrame||(window.requestAnimationFrame=function(n){var r=Date.now(),e=Math.max(0,16-(r-t)),i=window.setTimeout((function(){n(r+e)}),e);return t=r+e,i},window.cancelAnimationFrame=window.clearTimeout)}();var V=/\.0+$/g;function $(t){return Number.isInteger(t)?t+"":t.toFixed(6).replace(V,"")}function G(t){var n=arguments.length>1&&void 0!==arguments[1]?arguments[1]:" ";return t&&t.length?t.map($).join(n):""}function H(t){return t?null==t.a||t.a>=1?"rgb("+t.r+","+t.g+","+t.b+")":"rgba("+t.r+","+t.g+","+t.b+","+t.a+")":"transparent"}var Q={f:null,i:function(t,n,r){return 0===t?n:1===t?r:{x:w(t,n.x,r.x),y:w(t,n.y,r.y)}},u:function(t,n){return function(r){var e=n(r);t.setAttribute("rx",$(e.x)),t.setAttribute("ry",$(e.y))}}},U={f:null,i:function(t,n,r){return 0===t?n:1===t?r:{width:w(t,n.width,r.width),height:w(t,n.height,r.height)}},u:function(t,n){return function(r){var e=n(r);t.setAttribute("width",$(e.width)),t.setAttribute("height",$(e.height))}}},Y=Math.sin,Z=Math.cos,J=Math.acos,K=Math.asin,W=Math.tan,X=Math.atan2,tt=Math.PI/180,nt=180/Math.PI,rt=Math.sqrt,et=function(){function t(){var r=arguments.length>0&&void 0!==arguments[0]?arguments[0]:1,e=arguments.length>1&&void 0!==arguments[1]?arguments[1]:0,i=arguments.length>2&&void 0!==arguments[2]?arguments[2]:0,o=arguments.length>3&&void 0!==arguments[3]?arguments[3]:1,u=arguments.length>4&&void 0!==arguments[4]?arguments[4]:0,a=arguments.length>5&&void 0!==arguments[5]?arguments[5]:0;n(this,t),this.m=[r,e,i,o,u,a],this.i=null,this.w=null,this.s=null}return e(t,[{key:"point",value:function(t,n){var r=this.m;return{x:r[0]*t+r[2]*n+r[4],y:r[1]*t+r[3]*n+r[5]}}},{key:"translateSelf",value:function(){var t=arguments.length>0&&void 0!==arguments[0]?arguments[0]:0,n=arguments.length>1&&void 0!==arguments[1]?arguments[1]:0;if(!t&&!n)return this;var r=this.m;return r[4]+=r[0]*t+r[2]*n,r[5]+=r[1]*t+r[3]*n,this.w=this.s=this.i=null,this}},{key:"rotateSelf",value:function(){var t=arguments.length>0&&void 0!==arguments[0]?arguments[0]:0;if(t%=360){var n=Y(t*=tt),r=Z(t),e=this.m,i=e[0],o=e[1];e[0]=i*r+e[2]*n,e[1]=o*r+e[3]*n,e[2]=e[2]*r-i*n,e[3]=e[3]*r-o*n,this.w=this.s=this.i=null}return this}},{key:"scaleSelf",value:function(){var t=arguments.length>0&&void 0!==arguments[0]?arguments[0]:1,n=arguments.length>1&&void 0!==arguments[1]?arguments[1]:1;if(1!==t||1!==n){var r=this.m;r[0]*=t,r[1]*=t,r[2]*=n,r[3]*=n,this.w=this.s=this.i=null}return this}},{key:"skewSelf",value:function(t,n){if(n%=360,(t%=360)||n){var r=this.m,e=r[0],i=r[1],o=r[2],u=r[3];t&&(t=W(t*tt),r[2]+=e*t,r[3]+=i*t),n&&(n=W(n*tt),r[0]+=o*n,r[1]+=u*n),this.w=this.s=this.i=null}return this}},{key:"resetSelf",value:function(){var t=arguments.length>0&&void 0!==arguments[0]?arguments[0]:1,n=arguments.length>1&&void 0!==arguments[1]?arguments[1]:0,r=arguments.length>2&&void 0!==arguments[2]?arguments[2]:0,e=arguments.length>3&&void 0!==arguments[3]?arguments[3]:1,i=arguments.length>4&&void 0!==arguments[4]?arguments[4]:0,o=arguments.length>5&&void 0!==arguments[5]?arguments[5]:0,u=this.m;return u[0]=t,u[1]=n,u[2]=r,u[3]=e,u[4]=i,u[5]=o,this.w=this.s=this.i=null,this}},{key:"recomposeSelf",value:function(){var t=arguments.length>0&&void 0!==arguments[0]?arguments[0]:null,n=arguments.length>1&&void 0!==arguments[1]?arguments[1]:null,r=arguments.length>2&&void 0!==arguments[2]?arguments[2]:null,e=arguments.length>3&&void 0!==arguments[3]?arguments[3]:null,i=arguments.length>4&&void 0!==arguments[4]?arguments[4]:null;return this.isIdentity||this.resetSelf(),t&&(t.x||t.y)&&this.translateSelf(t.x,t.y),n&&this.rotateSelf(n),r&&(r.x&&this.skewSelf(r.x,0),r.y&&this.skewSelf(0,r.y)),!e||1===e.x&&1===e.y||this.scaleSelf(e.x,e.y),i&&(i.x||i.y)&&this.translateSelf(i.x,i.y),this}},{key:"decompose",value:function(){var t=arguments.length>0&&void 0!==arguments[0]?arguments[0]:0,n=arguments.length>1&&void 0!==arguments[1]?arguments[1]:0,r=this.m,e=r[0]*r[0]+r[1]*r[1],i=[[r[0],r[1]],[r[2],r[3]]],o=rt(e);if(0===o)return{origin:{x:r[4],y:r[5]},translate:{x:t,y:n},scale:{x:0,y:0},skew:{x:0,y:0},rotate:0};i[0][0]/=o,i[0][1]/=o;var u=r[0]*r[3]-r[1]*r[2]<0;u&&(o=-o);var a=i[0][0]*i[1][0]+i[0][1]*i[1][1];i[1][0]-=i[0][0]*a,i[1][1]-=i[0][1]*a;var l=rt(i[1][0]*i[1][0]+i[1][1]*i[1][1]);if(0===l)return{origin:{x:r[4],y:r[5]},translate:{x:t,y:n},scale:{x:o,y:0},skew:{x:0,y:0},rotate:0};i[1][0]/=l,i[1][1]/=l,a/=l;var f=0;return i[1][1]<0?(f=J(i[1][1])*nt,i[0][1]<0&&(f=360-f)):f=K(i[0][1])*nt,u&&(f=-f),a=X(a,rt(i[0][0]*i[0][0]+i[0][1]*i[0][1]))*nt,{origin:{x:r[4],y:r[5]},translate:{x:t,y:n},scale:{x:o,y:l},skew:{x:a,y:0},rotate:f}}},{key:"toString",value:function(){return null===this.s&&(this.s="matrix("+this.m.map(ot).join(" ")+")"),this.s}},{key:"determinant",get:function(){var t=this.m;return t[0]*t[3]-t[1]*t[2]}},{key:"isIdentity",get:function(){if(null===this.i){var t=this.m;this.i=1===t[0]&&0===t[1]&&0===t[2]&&1===t[3]&&0===t[4]&&0===t[5]}return this.i}}]),t}(),it=/\.0+$/;function ot(t){return Number.isInteger(t)?t:t.toFixed(14).replace(it,"")}Object.freeze({M:2,L:2,Z:0,H:1,V:1,C:6,Q:4,T:2,S:4,A:7});function ut(t,n,r){return t+(n-t)*r}function at(t,n,r){var e=arguments.length>3&&void 0!==arguments[3]&&arguments[3],i={x:ut(t.x,n.x,r),y:ut(t.y,n.y,r)};return e&&(i.a=lt(t,n)),i}function lt(t,n){return Math.atan2(n.y-t.y,n.x-t.x)}function ft(t,n,r,e){var i=1-e;return i*i*t+2*i*e*n+e*e*r}function st(t,n,r,e){return 2*(1-e)*(n-t)+2*e*(r-n)}function ct(t,n,r,e){var i=arguments.length>4&&void 0!==arguments[4]&&arguments[4],o={x:ft(t.x,n.x,r.x,e),y:ft(t.y,n.y,r.y,e)};return i&&(o.a=ht(t,n,r,e)),o}function ht(t,n,r,e){return Math.atan2(st(t.y,n.y,r.y,e),st(t.x,n.x,r.x,e))}function vt(t,n,r,e,i){var o=i*i;return i*o*(e-t+3*(n-r))+3*o*(t+r-2*n)+3*i*(n-t)+t}function yt(t,n,r,e,i){var o=1-i;return 3*(o*o*(n-t)+2*o*i*(r-n)+i*i*(e-r))}function dt(t,n,r,e,i){var o=arguments.length>5&&void 0!==arguments[5]&&arguments[5],u={x:vt(t.x,n.x,r.x,e.x,i),y:vt(t.y,n.y,r.y,e.y,i)};return o&&(u.a=gt(t,n,r,e,i)),u}function gt(t,n,r,e,i){return Math.atan2(yt(t.y,n.y,r.y,e.y,i),yt(t.x,n.x,r.x,e.x,i))}function pt(t,n,r){var e=arguments.length>3&&void 0!==arguments[3]&&arguments[3];if(bt(n)){if(wt(r))return ct(n,r.start,r,t,e)}else if(bt(r)){if(n.end)return ct(n,n.end,r,t,e)}else{if(n.end)return r.start?dt(n,n.end,r.start,r,t,e):ct(n,n.end,r,t,e);if(r.start)return ct(n,r.start,r,t,e)}return at(n,r,t,e)}function mt(t,n,r){var e=pt(t,n,r,!0);return e.a=function(t){var n=arguments.length>1&&void 0!==arguments[1]&&arguments[1];return n?t+Math.PI:t}(e.a)/p,e}function bt(t){return!t.type||"corner"===t.type}function wt(t){return null!=t.start&&!bt(t)}var kt=new et;var xt={f:$,i:b},At={f:$,i:function(t,n,r){var e=b(t,n,r);return e<=0?0:e>=1?1:e}};function _t(t,n,r,e,i,o,u,a){return n=function(t,n,r){for(var e,i,o,u=t.length-1,a={},l=0;l<=u;l++)(e=t[l]).e&&(e.e=n(e.e)),e.v&&"g"===(i=e.v).t&&i.r&&(o=r.getElementById(i.r))&&(a[i.r]=o.querySelectorAll("stop"));return a}(t,e,a),function(e){var i,o=r(e,t,St);return o?"c"===o.t?H(o.v):"g"===o.t?(n[o.r]&&function(t,n){for(var r=0,e=t.length;r<e;r++)t[r].setAttribute("stop-color",H(n[r]))}(n[o.r],o.v),(i=o.r)?"url(#"+i+")":"none"):"none":"none"}}function St(t,n,r){if(0===t)return n;if(1===t)return r;if(n&&r){var e=n.t;if(e===r.t)switch(n.t){case"c":return{t:e,v:A(t,n.v,r.v)};case"g":if(n.r===r.r)return{t:e,v:_(t,n.v,r.v),r:n.r}}}return m(t,n,r)}var Ot={fill:_t,"fill-opacity":At,stroke:_t,"stroke-opacity":At,"stroke-width":xt,"stroke-dashoffset":{f:$,i:b},"stroke-dasharray":{f:function(t){var n=arguments.length>1&&void 0!==arguments[1]?arguments[1]:" ";return t&&t.length>0&&(t=t.map((function(t){return Math.floor(1e4*t)/1e4}))),G(t,n)},i:function(t,n,r){var e,i,o,u=n.length,a=r.length;if(u!==a)if(0===u)n=S(u=a,0);else if(0===a)a=u,r=S(u,0);else{var l=(o=(e=u)*(i=a)/function(t,n){for(var r;n;)r=n,n=t%n,t=r;return t||1}(e,i))<0?-o:o;n=O(n,Math.floor(l/u)),r=O(r,Math.floor(l/a)),u=a=l}for(var f=[],s=0;s<u;s++)f.push(g(w(t,n[s],r[s]),6));return f}},opacity:At,transform:function(n,r,e,i){if(!(n=function(n,r){if(!n||"object"!==t(n))return null;var e=!1;for(var i in n)n.hasOwnProperty(i)&&(n[i]&&n[i].length?(n[i].forEach((function(t){t.e&&(t.e=r(t.e))})),e=!0):delete n[i]);return e?n:null}(n,i)))return null;var o=function(t,i,o){var u=arguments.length>3&&void 0!==arguments[3]?arguments[3]:null;return n[t]?e(i,n[t],o):r&&r[t]?r[t]:u};return r&&r.a&&n.o?function(t){var r=e(t,n.o,mt);return kt.recomposeSelf(r,o("r",t,b,0)+r.a,o("k",t,k),o("s",t,k),o("t",t,k)).toString()}:function(t){return kt.recomposeSelf(o("o",t,pt,null),o("r",t,b,0),o("k",t,k),o("s",t,k),o("t",t,k)).toString()}},r:xt,"#size":U,"#radius":Q,_:function(t,n){if(Array.isArray(t))for(var r=0;r<t.length;r++)this[t[r]]=n;else this[t]=n}};return function(t){!function(t,n){if("function"!=typeof n&&null!==n)throw new TypeError("Super expression must either be null or a function");t.prototype=Object.create(n&&n.prototype,{constructor:{value:t,writable:!0,configurable:!0}}),n&&o(t,n)}(u,t);var r=a(u);function u(){return n(this,u),r.apply(this,arguments)}return e(u,null,[{key:"build",value:function(t){var n=l(i(u),"build",this).call(this,t,Ot),r=(n.el,n.options,n.player);return function(t){t.play()}(r),r}}]),u}(L)}));
__SVGATOR_PLAYER__.build({"root":"exdr9mquf5mq1","animations":[{"duration":4000,"direction":1,"iterations":0,"fill":1,"alternate":false,"elements":{"exdr9mquf5mq2":{"transform":{"data":{"t":{"x":-69.97179985046387,"y":-117.14955139160156}},"keys":{"o":[{"t":0,"v":{"x":69.97179985046387,"y":117.14955139160156,"type":"corner"},"e":[0.42,0,0.58,1]},{"t":1000,"v":{"x":69.97179985046387,"y":105.56355139160164,"type":"corner"},"e":[0.42,0,0.58,1]},{"t":2000,"v":{"x":69.97179985046387,"y":117.14955139160156,"type":"corner"},"e":[0.42,0,0.58,1]},{"t":3000,"v":{"x":69.97179985046387,"y":105.56355139160164,"type":"corner"},"e":[0.42,0,0.58,1]},{"t":4000,"v":{"x":69.97179985046387,"y":117.14955139160156,"type":"corner"},"e":[0.42,0,0.58,1]}]}}},"exdr9mquf5mq3":{"transform":{"data":{"t":{"x":-780.9859924316406,"y":-21.682419300079346}},"keys":{"o":[{"t":0,"v":{"x":780.9859924316406,"y":21.682419300079346,"type":"corner"},"e":[0.42,0,0.58,1]},{"t":1000,"v":{"x":780.9859924316406,"y":33.720919300079345,"type":"corner"},"e":[0.42,0,0.58,1]},{"t":2000,"v":{"x":780.9859924316406,"y":21.682419300079346,"type":"corner"},"e":[0.42,0,0.58,1]},{"t":3000,"v":{"x":780.9859924316406,"y":33.720919300079345,"type":"corner"},"e":[0.42,0,0.58,1]},{"t":4000,"v":{"x":780.9859924316406,"y":21.682419300079346,"type":"corner"},"e":[0.42,0,0.58,1]}]}}},"exdr9mquf5mq4":{"transform":{"data":{"t":{"x":-858.7684936523438,"y":-349.05299377441406}},"keys":{"o":[{"t":0,"v":{"x":858.7684936523438,"y":349.05299377441406,"type":"corner"},"e":[0.42,0,0.58,1]},{"t":1000,"v":{"x":858.7684936523438,"y":337.2079937744141,"type":"corner"},"e":[0.42,0,0.58,1]},{"t":2000,"v":{"x":858.7684936523438,"y":349.05299377441406,"type":"corner"},"e":[0.42,0,0.58,1]},{"t":3000,"v":{"x":858.7684936523438,"y":337.2079937744141,"type":"corner"},"e":[0.42,0,0.58,1]},{"t":4000,"v":{"x":858.7684936523438,"y":349.05299377441406,"type":"corner"},"e":[0.42,0,0.58,1]}]}}},"exdr9mquf5mq5":{"transform":{"data":{"t":{"x":-17.299299240112305,"y":-395.84800720214844}},"keys":{"o":[{"t":0,"v":{"x":17.299299240112305,"y":395.84800720214844,"type":"corner"},"e":[0.42,0,0.58,1]},{"t":1000,"v":{"x":17.299299240112305,"y":386.17521418714847,"type":"corner"},"e":[0.42,0,0.58,1]},{"t":2000,"v":{"x":17.299299240112305,"y":395.84800720214844,"type":"corner"},"e":[0.42,0,0.58,1]},{"t":3000,"v":{"x":17.299299240112305,"y":386.17521418714847,"type":"corner"},"e":[0.42,0,0.58,1]},{"t":4000,"v":{"x":17.299299240112305,"y":395.84800720214844,"type":"corner"},"e":[0.42,0,0.58,1]}]}}},"exdr9mquf5mq53":{"transform":{"data":{"t":{"x":-633.6515197753906,"y":-328.0824966430664}},"keys":{"o":[{"t":0,"v":{"x":633.6515197753906,"y":328.0824966430664,"type":"corner"},"e":[0.42,0,0.58,1]},{"t":1000,"v":{"x":633.6515197753906,"y":315.4327036280668,"type":"corner"},"e":[0.42,0,0.58,1]},{"t":2000,"v":{"x":633.6515197753906,"y":328.0824966430664,"type":"corner"},"e":[0.42,0,0.58,1]},{"t":3000,"v":{"x":633.6515197753906,"y":315.4327036280668,"type":"corner"},"e":[0.42,0,0.58,1]},{"t":4000,"v":{"x":633.6515197753906,"y":328.0824966430664,"type":"corner"},"e":[0.42,0,0.58,1]}]}}},"exdr9mquf5mq65":{"transform":{"data":{"o":{"x":758.91,"y":321.934,"type":"corner"},"t":{"x":-758.91,"y":-321.934}},"keys":{"r":[{"t":0,"v":0,"e":[0.42,0,0.58,1]},{"t":1000,"v":-12.897759407360235,"e":[0.42,0,0.58,1]},{"t":2000,"v":-13.62216587626745,"e":[0.42,0,0.58,1]},{"t":4000,"v":0,"e":[0.42,0,0.58,1]}]}}},"exdr9mquf5mq72":{"transform":{"data":{"o":{"x":763.364,"y":386.075,"type":"corner"},"t":{"x":-763.364,"y":-386.075}},"keys":{"r":[{"t":0,"v":0},{"t":2000,"v":7.340084921007617},{"t":4000,"v":0}]}}},"exdr9mquf5mq76":{"transform":{"data":{"o":{"x":749.1964416503906,"y":379.5945304464453,"type":"corner"},"t":{"x":-749.1964416503906,"y":-380.0127716064453}},"keys":{"r":[{"t":0,"v":0},{"t":2000,"v":7.066360638396382},{"t":4000,"v":0}]}}},"exdr9mquf5mq77":{"transform":{"data":{"o":{"x":746.46968945,"y":349.797,"type":"corner"},"t":{"x":-745.69568945,"y":-349.797}},"keys":{"r":[{"t":0,"v":0,"e":[0.42,0,0.58,1]},{"t":2000,"v":9.4284230753152,"e":[0.42,0,0.58,1]},{"t":4000,"v":0,"e":[0.42,0,0.58,1]}]}}}}}],"options":{"start":"load","hover":"freeze","click":"freeze","scroll":25,"exportedIds":"unique","title":"Web Design and Development"},"animationSettings":{"duration":4000,"direction":1,"iterations":0,"fill":1,"alternate":false}})]]></script></svg>