<svg width="785" height="640" viewBox="0 0 785 640" fill="none" xmlns="http://www.w3.org/2000/svg">
<path opacity="0.05" d="M350 8.66025C359.282 3.30127 370.718 3.30127 380 8.66025L627.128 151.34C636.41 156.699 642.128 166.603 642.128 177.321V462.68C642.128 473.397 636.41 483.301 627.128 488.66L380 631.34C370.718 636.699 359.282 636.699 350 631.34L102.872 488.66C93.5898 483.301 87.8719 473.397 87.8719 462.68V177.32C87.8719 166.603 93.5898 156.699 102.872 151.34L350 8.66025Z" fill="#2D0DB2"/>
<path d="M702.022 114.166C711.867 114.166 719.904 106.191 719.904 96.4087C719.904 86.6263 711.929 78.6509 702.022 78.6509C692.177 78.6509 684.14 86.6263 684.14 96.4087C684.14 106.191 692.177 114.166 702.022 114.166Z" fill="#D0DAFF"/>
<path d="M92.091 184.699C104.989 184.699 115.456 174.293 115.456 161.458C115.456 148.623 104.989 138.217 92.091 138.217C79.1933 138.217 68.7256 148.623 68.7256 161.458C68.7256 174.293 79.1933 184.699 92.091 184.699Z" fill="#D0DAFF"/>
<path d="M14.8916 428.073C23.1162 428.073 29.7831 421.469 29.7831 413.244C29.7831 405.082 23.1162 398.415 14.8916 398.415C6.66694 398.477 0 405.082 0 413.306C0 421.469 6.66694 428.073 14.8916 428.073Z" fill="#D0DAFF"/>
<path d="M756.293 569.761C763.894 569.761 770.063 563.655 770.063 556.053C770.063 548.514 763.894 542.346 756.293 542.346C748.691 542.346 742.522 548.452 742.522 556.053C742.522 563.655 748.691 569.761 756.293 569.761Z" fill="#D0DAFF"/>
<path d="M707.318 475.053H332.911C325.932 475.053 320.387 469.446 320.387 462.529C456.093 446.828 589.307 446.828 719.904 462.529C719.904 469.446 714.297 475.053 707.318 475.053Z" fill="#D0DAFF"/>
<path d="M719.904 463.277L320.387 462.529L366.681 384.707L366.931 384.333V212.924C366.931 204.201 374.034 197.036 382.757 197.036H655.291C664.077 197.036 671.18 204.139 671.18 212.862V385.455L719.904 463.277Z" fill="#D0DAFF"/>
<path d="M382.382 208.127C379.516 208.127 377.211 210.432 377.211 213.298V369.628C377.211 372.495 379.516 374.738 382.382 374.8H657.845C660.712 374.8 663.017 372.495 663.017 369.628V213.236C663.017 210.37 660.712 208.127 657.845 208.064L382.382 208.127Z" fill="white"/>
<path d="M383.567 395.424C382.695 395.424 381.885 395.922 381.511 396.732L367.242 427.699C366.744 428.821 367.18 430.129 368.302 430.628C368.551 430.752 368.862 430.815 369.236 430.815H669.311C670.557 430.815 671.554 429.818 671.554 428.634C671.554 428.26 671.492 427.949 671.305 427.637L655.79 396.67C655.416 395.922 654.668 395.424 653.796 395.424H383.567Z" fill="white"/>
<path d="M519.024 205.572C520.893 205.572 522.388 204.077 522.388 202.207C522.388 200.338 520.893 198.843 519.024 198.843C517.155 198.843 515.659 200.338 515.659 202.207C515.659 204.077 517.155 205.572 519.024 205.572Z" fill="#D0DAFF"/>
<path d="M489.553 436.734C488.556 436.734 487.683 437.419 487.434 438.354L483.883 451.626C483.571 452.809 484.257 453.993 485.44 454.305C485.627 454.367 485.814 454.367 486.001 454.367H554.104C555.35 454.367 556.347 453.37 556.347 452.186C556.347 451.937 556.284 451.688 556.222 451.439L551.611 438.167C551.3 437.295 550.49 436.672 549.555 436.672H489.553V436.734Z" fill="#E6EBFF"/>
<path d="M671.18 381.778V384.707H366.682L366.931 384.333V381.778H671.18Z" fill="#E3E8FF"/>
<path d="M633.546 354.737H473.352C471.732 354.737 470.361 353.179 470.361 351.185V303.395C470.361 301.401 471.67 299.844 473.352 299.844H633.608C635.228 299.844 636.599 301.401 636.599 303.395V351.123C636.536 353.117 635.228 354.675 633.546 354.737ZM473.352 301.277C472.355 301.277 471.607 302.211 471.607 303.395V351.123C471.607 352.307 472.417 353.241 473.352 353.241H633.608C634.605 353.241 635.352 352.307 635.352 351.123V303.395C635.352 302.211 634.542 301.277 633.608 301.277H473.352Z" fill="#E3E8FF"/>
<path d="M502.886 342.774C511.734 342.774 518.961 335.608 518.961 326.698C518.961 317.851 511.796 310.623 502.886 310.623C493.976 310.623 486.811 317.788 486.811 326.698C486.811 335.608 494.038 342.774 502.886 342.774Z" fill="#E3E8FF"/>
<path d="M538.899 316.044C538.027 316.044 537.342 317.228 537.342 318.723C537.342 320.218 538.089 321.402 538.899 321.402H613.482C614.354 321.402 615.04 320.156 615.04 318.723C615.04 317.29 614.292 316.044 613.482 316.044H538.899Z" fill="#E3E8FF"/>
<path d="M539.959 332.119C538.463 332.119 537.279 333.365 537.279 334.798C537.279 336.231 538.525 337.478 539.959 337.478H594.291C595.786 337.478 596.97 336.231 596.97 334.798C596.97 333.365 595.724 332.119 594.291 332.119H539.959Z" fill="#E3E8FF"/>
<path d="M424.378 308.878L404.378 345.017C404.004 345.764 404.502 346.699 405.374 346.699H445.376C446.248 346.699 446.809 345.764 446.373 345.017L426.372 308.878C425.998 308.131 424.814 308.131 424.378 308.878Z" fill="#FDE5DF"/>
<path d="M425.437 342.338C426.497 342.338 427.431 341.465 427.431 340.406C427.431 339.347 426.559 338.475 425.437 338.475C424.378 338.475 423.506 339.347 423.506 340.406C423.506 341.465 424.316 342.338 425.437 342.338Z" fill="white"/>
<path d="M425.438 321.464C426.185 321.464 426.746 321.776 426.746 322.088V334.362C426.746 334.736 426.185 334.985 425.438 334.985C424.69 334.985 424.129 334.674 424.129 334.362V322.088C424.067 321.776 424.69 321.464 425.438 321.464Z" fill="white"/>
<path d="M633.546 282.958H473.352C471.732 282.958 470.361 281.401 470.361 279.407V231.617C470.361 229.623 471.67 228.065 473.352 228.065H633.608C635.228 228.065 636.599 229.623 636.599 231.617V279.344C636.536 281.338 635.228 282.896 633.546 282.958ZM473.352 229.498C472.355 229.498 471.607 230.433 471.607 231.617V279.344C471.607 280.528 472.417 281.463 473.352 281.463H633.608C634.605 281.463 635.352 280.528 635.352 279.344V231.617C635.352 230.433 634.542 229.498 633.608 229.498H473.352Z" fill="#E3E8FF"/>
<path d="M502.886 270.995C511.734 270.995 518.961 263.83 518.961 254.92C518.961 246.072 511.796 238.844 502.886 238.844C493.976 238.844 486.811 246.01 486.811 254.92C486.811 263.83 494.038 270.995 502.886 270.995Z" fill="#E3E8FF"/>
<path d="M538.899 244.265C538.027 244.265 537.342 245.449 537.342 246.944C537.342 248.44 538.089 249.624 538.899 249.624H613.482C614.354 249.624 615.04 248.377 615.04 246.944C615.04 245.449 614.292 244.265 613.482 244.265H538.899Z" fill="#E3E8FF"/>
<path d="M539.959 260.278C538.463 260.278 537.279 261.524 537.279 262.957C537.279 264.391 538.525 265.637 539.959 265.637H594.291C595.786 265.637 596.97 264.391 596.97 262.957C596.97 261.524 595.724 260.278 594.291 260.278H539.959Z" fill="#E3E8FF"/>
<path d="M425.002 231.305L406.247 242.832C406.247 242.832 406.247 266.634 425.002 279.594C443.756 266.634 443.756 242.832 443.756 242.832L425.002 231.305Z" fill="#DFF9FB"/>
<path opacity="0.2" d="M425.188 231.305L424.877 231.492V279.344C424.939 279.407 425.126 279.469 425.188 279.594C443.943 266.634 443.943 242.832 443.943 242.832L425.188 231.305Z" fill="#E3E8FF"/>
<path d="M419.768 253.736L423.88 257.848C424.254 258.222 424.752 258.097 425.064 257.724L431.918 247.63C432.167 247.256 432.665 247.194 433.039 247.443L434.597 248.751C434.908 249 434.971 249.499 434.721 249.81L425.126 262.397C424.815 262.833 424.254 262.833 423.942 262.459L417.525 255.231C417.151 254.795 417.338 254.172 417.836 253.985L419.02 253.549C419.269 253.487 419.581 253.549 419.768 253.736Z" fill="white"/>
<path d="M316.116 411.972L313.706 605.095L305.052 601.481L296.891 509.027L281.117 397.183L316.116 411.972Z" fill="#F58366"/>
<path d="M301.384 601.535C301.768 600.769 302.699 600.385 303.465 600.714C305.547 601.645 307.135 602.083 308.285 602.083C309.709 602.083 311.517 601.535 313.817 600.495L315.077 597.318C315.241 596.935 315.734 596.825 316.063 596.935C316.063 596.935 335.671 606.574 338.081 606.848C340.546 607.122 341.203 609.203 340.053 612.983C312.338 613.092 302.37 613.202 300.672 613.202C300.179 610.463 299.905 608.437 299.905 607.012C299.905 605.862 300.343 604.055 301.165 601.754C301.329 601.7 301.329 601.59 301.384 601.535Z" fill="#191847"/>
<path d="M288.292 495.498C283.746 463.95 272.737 429.937 272.189 393.459L324.715 400.798C326.632 430.211 324.715 472.823 324.277 503.385C323.894 534.002 319.731 561.826 317.814 586.638L295.029 587.35C286.704 559.471 292.838 527.046 288.292 495.498Z" fill="#AFB9C5"/>
<path d="M302.532 419.092L280.898 611.011L272.682 606.52L273.777 513.737L269.231 400.908L302.532 419.092Z" fill="#F58366"/>
<path d="M269.287 605.26C269.616 604.438 270.547 604.055 271.368 604.438C273.504 605.315 275.093 605.753 276.243 605.698C277.667 605.643 279.475 605.15 281.775 604L282.98 600.823C283.089 600.44 283.637 600.33 283.966 600.44L298.864 609.642C300.452 609.806 302.533 610.08 304.998 610.299C307.463 610.518 308.12 612.599 307.079 616.378C279.365 616.981 270.547 616.871 268.904 616.926C268.356 614.188 268.082 612.161 268.027 610.737C268.027 609.587 268.411 607.779 269.232 605.424C269.232 605.369 269.232 605.315 269.287 605.26Z" fill="#191847"/>
<path d="M266.657 497.086C265.288 465.264 257.73 430.32 260.852 393.952L305.545 404.851C304.504 434.318 302.314 477.862 298.808 508.26C295.358 538.713 291.359 566.208 286.978 590.745L264.247 589.212C258.661 560.566 268.027 528.963 266.657 497.086Z" fill="#C5CFD6"/>
<path d="M295.193 249.903C295.193 249.903 309.488 264.308 304.613 282.876C299.739 301.443 291.906 301.553 283.253 293.556C274.599 285.559 269.505 277.179 268.41 267.813C267.259 258.502 282.102 237.032 295.193 249.903Z" fill="#F67E60"/>
<path d="M297.987 311.85C297.987 311.85 295.851 306.975 294.372 301.498C294.098 300.512 293.879 299.526 293.66 298.595C292.948 295.144 292.619 291.749 293.441 289.448C295.741 282.711 279.145 287.367 279.145 287.367C279.145 287.367 282.377 305.222 279.145 311.247C275.859 317.272 297.987 311.85 297.987 311.85Z" fill="#F67E60"/>
<path d="M247.487 369.743C247.761 371.989 258.222 371.496 269.396 370.4C269.396 370.455 269.396 370.51 269.451 370.51C269.67 371.496 269.889 372.372 270.053 372.974C270.217 373.632 270.382 374.344 270.491 375.111C271.587 381.464 256.579 413.286 254.443 420.954C254.443 420.954 307.9 432.675 325.427 423.09C325.427 423.09 325.427 388.475 328.22 378.616C331.014 368.757 333.424 329.815 333.424 329.815C333.424 329.815 322.798 314.479 314.747 311.685C306.64 308.892 296.234 307.139 296.234 307.139L281.062 307.687C281.062 307.687 268.41 310.973 265.617 311.85C260.578 313.438 258.606 315.136 255.977 320.339C252.307 327.514 246.228 359.665 247.487 369.743ZM263.426 352.819C263.426 352.819 264.795 355.886 266.055 359.336C265.069 359.446 264.083 359.446 263.645 359.501C259.647 360.103 262.659 355.064 263.426 352.819Z" fill="white"/>
<path d="M290.482 260.31C290.482 260.31 283.636 272.743 279.363 277.234C275.091 281.671 275.584 285.231 275.584 285.231C275.584 285.231 258.989 264.801 270.819 252.423C282.65 240.099 297.876 245.029 302.367 255.873C306.804 266.663 305.216 279.863 305.216 279.863C305.216 279.863 305.161 267.156 290.482 260.31Z" fill="#191847"/>
<path d="M291.249 247.055C291.249 247.055 253.018 224.051 261.562 304.291C265.287 339.564 269.504 311.083 278.706 308.18C287.908 305.277 280.13 282.218 278.761 274.057C277.391 265.951 291.249 247.055 291.249 247.055Z" fill="#191847"/>
<path d="M263.645 352.983C263.645 352.983 264.302 354.407 266.219 360.103C268.136 344.165 267.15 335.894 267.15 335.894C266.876 344.384 263.645 352.983 263.645 352.983Z" fill="#CFBEB8"/>
<path d="M269.396 370.51C269.616 371.496 269.835 372.372 269.999 372.974C270.163 373.632 270.328 374.344 270.437 375.111C276.736 371.715 281.227 369.031 281.227 369.031C279.529 369.414 269.396 370.51 269.396 370.51Z" fill="#CFBEB8"/>
<path d="M263.645 370.455C256.908 384.641 248.309 426.869 248.309 426.869L280.459 431.251C283.034 432.073 293.714 365.69 294.371 350.354C295.248 330.746 280.952 307.687 280.952 307.687C255.593 312.014 262.549 350.354 262.549 350.354C262.549 350.354 265.178 367.223 263.645 370.455Z" fill="#3A52CC"/>
<path d="M297.931 307.961L297.602 307.139C297.602 307.139 310.583 309.111 317.156 312.397C323.728 315.684 336.381 332.717 336.381 332.717L325.152 356.214C325.152 372.974 338.298 426.869 338.298 426.869C338.298 426.869 315.184 431.525 315.02 430.32C310.474 402.551 309.652 364.54 309.378 351.559C309.05 334.799 297.055 307.687 297.055 307.687C297.383 307.796 297.657 307.906 297.931 307.961Z" fill="#3A52CC"/>
<path d="M321.484 386.558C321.484 386.558 309.051 387.051 307.079 386.558C305.162 386.065 292.236 380.478 291.469 374.946C290.702 369.414 321.484 379.93 321.484 379.93V386.558Z" fill="#F67E60"/>
<path d="M282.814 369.25L333.368 363.335L310.529 381.902L282.814 369.25Z" fill="#ACC6F9"/>
<path d="M310.529 381.902L282.814 372.482V369.25L311.46 378.452L310.529 381.902Z" fill="#191847"/>
<path d="M297.494 359.939C297.494 359.939 301.656 359.939 304.011 359.446C305.819 359.062 310.31 359.61 311.46 360.596C312.611 361.637 316.28 368.702 316.937 369.14C317.649 369.579 316.609 370.564 315.349 370.072C315.349 370.072 314.254 373.194 311.515 371.989C308.777 370.838 306.914 368.319 305.49 367.826C304.066 367.388 295.686 365.142 295.686 365.142C295.686 365.142 295.358 359.227 297.494 359.939Z" fill="#F67E60"/>
<path d="M306.531 319.518L297.987 322.475L296.07 307.194L295.193 304.291L306.531 319.518Z" fill="#ACC6F9"/>
<path d="M319.949 379.437C319.949 379.437 320.442 385.846 319.949 387.215C319.949 387.215 351.114 384.093 354.017 379.766C356.92 375.384 356.81 370.126 356.81 370.126L319.949 379.437Z" fill="#3A52CC"/>
<path d="M311.021 380.095L325.043 327.843C325.152 327.405 325.591 327.021 326.029 326.966L379.54 321.325C380.362 321.215 381.019 322.037 380.8 322.804L366.176 370.893C366.067 371.331 365.683 371.605 365.3 371.715L312.391 381.519C311.514 381.738 310.802 380.971 311.021 380.095Z" fill="#191847"/>
<path d="M280.46 305.113L292.838 320.011L286.046 326.035L278.762 308.18L280.46 305.113Z" fill="#ACC6F9"/>
<path d="M262.933 354.078C262.933 354.078 263.426 358.57 263.754 359.665C266.164 360.432 286.868 358.898 286.868 358.898C286.868 358.898 270.162 356.488 262.933 354.078Z" fill="#2D0DB2"/>
<path d="M265.507 359.227C268.848 358.953 274.325 358.624 278.761 358.624C285.717 358.57 297.603 359.391 297.603 359.391L297.11 377.356C297.11 377.356 278.816 377.849 267.314 378.671C267.314 378.671 247.049 380.478 245.241 378.671C239.983 373.358 248.801 323.242 258.113 315.903C262.056 312.781 277.063 308.673 277.063 308.673L263.535 352.983C263.535 352.983 261.618 356.926 261.673 358.624C261.728 359.117 262.056 359.391 262.549 359.501C262.878 359.446 263.644 359.391 264.685 359.336L265.507 359.227Z" fill="#3A52CC"/>
<path d="M274.908 283.387C277.683 282.769 279.304 279.443 278.528 275.959C277.752 272.475 274.873 270.152 272.098 270.77C269.322 271.388 267.701 274.714 268.477 278.198C269.253 281.682 272.132 284.005 274.908 283.387Z" fill="#E6EBFF"/>
<path d="M291.03 290.324L291.249 289.01C279.309 286.983 273.175 277.125 273.12 277.015L271.97 277.727C272.298 278.165 278.542 288.188 291.03 290.324Z" fill="#E6EBFF"/>
<path d="M291.633 292.241C292.752 292.241 293.66 291.334 293.66 290.215C293.66 289.096 292.752 288.188 291.633 288.188C290.514 288.188 289.606 289.096 289.606 290.215C289.606 291.334 290.514 292.241 291.633 292.241Z" fill="white"/>
<path d="M196.001 327.295L216.048 326.638L211.83 302.703C217.362 305.77 222.675 307.194 225.14 306.427C231.329 304.565 231.165 281.671 226.071 272.798C220.922 263.925 195.947 260.803 195.289 278.713C195.07 285.012 197.864 290.434 201.807 294.816L196.001 327.295Z" fill="#F67E60"/>
<path d="M226.728 410.602L224.263 608.491L213.199 608.656L207.065 510.067L190.907 395.485L226.728 410.602Z" fill="#F58366"/>
<path d="M220.867 607.889C223.606 607.232 224.865 605.041 224.865 605.041C224.865 605.041 236.039 606.301 242.995 607.396C246.39 607.615 250.663 613.037 249.074 617.145C220.648 617.255 213.254 617.364 211.556 617.364C211.008 614.571 211.665 607.779 211.665 606.301C214.842 606.081 216.211 608.656 220.867 607.889Z" fill="#29D9E1"/>
<path d="M198.795 496.21C194.139 463.895 182.856 429.06 182.309 391.597L230.179 398.553C232.151 428.677 233.191 472.932 232.698 504.316C232.26 535.7 231 564.181 229.083 589.65L205.751 590.417C205.148 562.1 203.45 528.525 198.795 496.21Z" fill="#2D0DB2"/>
<path d="M186.908 403.811L217.197 402.825C208.707 436.4 195.179 491.445 190.633 498.401C187.62 503.002 157.386 534.988 99.8764 544.245L97.6855 535.81C145.775 519.543 170.148 485.803 170.805 484.927C171.791 483.503 181.869 438.755 186.908 403.756V403.811Z" fill="#F58366"/>
<path d="M169.656 480.107C170.532 478.081 177.434 450.531 179.241 400.963L220.812 395.54C209.365 455.624 207.01 495.005 197.425 504.371C187.84 513.737 159.907 535.152 117.842 544.737L114.337 523.541C148.624 510.56 168.725 482.189 169.656 480.107Z" fill="#3A52CC"/>
<path d="M103.876 540.849C105.3 543.259 107.819 543.752 107.819 543.752C107.819 543.752 110.01 554.761 111.105 561.771C111.982 565.058 108.038 570.809 103.657 570.535C94.8383 543.532 92.5379 536.467 91.9902 534.824C94.5097 533.455 101.137 531.976 102.506 531.538C103.711 534.495 101.685 536.631 103.876 540.849Z" fill="#29D9E1"/>
<path d="M265.78 361.253L298.588 355.667C305.051 351.778 311.076 349.094 316.553 347.67C318.141 347.561 320.551 348.053 316.991 351.23C313.431 354.462 309.761 357.967 310.473 359.555C311.185 361.199 314.581 360.432 315.239 363.006C315.731 364.649 310.145 365.087 298.588 364.375L272.243 375.823L265.78 361.253ZM162.536 372.153L180.83 371.66C162.262 417.394 152.568 441.329 151.746 443.52C149.993 448.34 154.32 455.57 156.182 459.404C150.596 462.197 150.87 452.667 143.804 456.282C137.286 459.568 132.576 465.264 124.853 460.828C123.922 460.28 122.827 458.144 125.237 456.391C131.261 452.009 139.861 444.287 140.956 441.877C142.435 438.426 149.61 415.258 162.536 372.153Z" fill="#F3896D"/>
<path d="M211.172 345.37C219.826 388.694 252.141 383.545 292.07 377.082L288.509 356.269C245.788 364.43 219.224 350.956 214.678 319.189L207.119 312.671C207.174 322.42 209.091 334.142 211.172 345.37Z" fill="#29D9E1"/>
<path d="M198.576 308.673C167.465 338.688 147.857 380.204 139.642 433.387L162.919 437.988C166.206 433.935 168.506 430.868 173.983 416.353L242.667 414.217C235.711 387.051 225.359 363.17 224.154 325.871L199.397 306.372L198.576 308.673Z" fill="#29D9E1"/>
<path opacity="0.7" d="M173.928 416.299L188.278 415.641C184.608 403.537 183.129 388.146 183.896 364.923C179.679 381.738 175.023 397.457 173.928 416.299Z" fill="url(#paint0_linear)"/>
<path d="M226.837 269.949C227.933 272.359 211.556 284.3 210.789 284.354C210.735 284.354 207.777 280.356 205.038 282.054C201.807 283.971 202.409 287.586 204.162 290.379C205.093 291.858 206.462 294.049 204.162 295.747C200.492 298.376 191.072 292.515 189.483 287.422C186.58 278.056 189.648 264.527 204.491 263.158C205.805 263.158 212.816 263.432 215.445 263.87C219.06 264.472 225.742 267.485 226.837 269.949Z" fill="#2D0DB2"/>
<defs>
<linearGradient id="paint0_linear" x1="188.287" y1="390.61" x2="173.949" y2="390.61" gradientUnits="userSpaceOnUse">
<stop offset="3.06636e-06" stop-color="#29D9E1" stop-opacity="0.9"/>
<stop offset="1" stop-color="#2D0DB2"/>
</linearGradient>
</defs>
</svg>
