<svg id="e1om7uudqg2r1" xmlns="http://www.w3.org/2000/svg" xmlns:xlink="http://www.w3.org/1999/xlink" viewBox="0 0 470 470" shape-rendering="geometricPrecision" text-rendering="geometricPrecision"><defs><linearGradient id="e1om7uudqg2r6-fill" x1="64.995000" y1="440.391000" x2="131.727000" y2="440.391000" spreadMethod="pad" gradientUnits="userSpaceOnUse"><stop id="e1om7uudqg2r6-fill-0" offset="0%" stop-color="rgb(45,13,178)"/><stop id="e1om7uudqg2r6-fill-1" offset="100%" stop-color="rgba(41,217,225,0.9)"/></linearGradient><linearGradient id="e1om7uudqg2r46-fill" x1="309.154000" y1="287.803000" x2="448.593000" y2="289.919000" spreadMethod="pad" gradientUnits="userSpaceOnUse"><stop id="e1om7uudqg2r46-fill-0" offset="0%" stop-color="rgb(45,13,178)"/><stop id="e1om7uudqg2r46-fill-1" offset="100%" stop-color="rgba(41,217,225,0.9)"/></linearGradient></defs><g id="e1om7uudqg2r2" clip-path="url(#e1om7uudqg2r82)"><g id="e1om7uudqg2r3"><g id="e1om7uudqg2r4"><path id="e1om7uudqg2r5" d="M62.472400,426.378000L110.055000,422.855000C113.292000,422.440000,116.313000,424.513000,117.608000,428.139000L126.132000,452.696000C126.995000,454.976000,125.592000,457.877000,123.542000,458.291000L79.520100,470C76.175300,470.725000,72.938400,468.653000,71.535800,464.923000L59.882900,431.869000C59.127600,429.486000,60.422400,426.689000,62.472400,426.378000Z" fill="rgb(208,218,255)" stroke="none" stroke-width="1"/><path id="e1om7uudqg2r6" d="M67.867200,420.368000L115.450000,416.845000C118.687000,416.431000,121.708000,418.503000,123.003000,422.129000L131.527000,446.686000C132.390000,448.966000,130.987000,451.867000,128.937000,452.282000L84.915000,463.990000C81.570200,464.715000,78.333200,462.643000,76.930600,458.913000L65.277700,425.860000C64.414500,423.476000,65.817200,420.679000,67.867200,420.368000Z" fill="url(#e1om7uudqg2r6-fill)" stroke="none" stroke-width="1"/><path id="e1om7uudqg2r7" d="M116.205000,443.992000L91.173000,449.173000C90.957200,449.277000,90.741400,449.070000,90.633500,448.759000C90.633500,448.448000,90.741400,448.241000,91.065100,448.137000L116.097000,442.956000C116.313000,442.853000,116.529000,443.060000,116.637000,443.371000C116.637000,443.681000,116.421000,443.889000,116.205000,443.992000Z" fill="rgb(255,255,255)" stroke="none" stroke-width="1"/><path id="e1om7uudqg2r8" d="M119.658000,427.621000L94.410000,432.076000C94.194200,432.076000,93.978400,431.973000,93.870500,431.662000C93.870500,431.351000,93.978400,431.144000,94.302100,431.040000L119.442000,426.585000C119.658000,426.585000,119.874000,426.689000,119.982000,426.999000C120.089000,427.310000,119.874000,427.621000,119.658000,427.621000Z" fill="rgb(255,255,255)" stroke="none" stroke-width="1"/><path id="e1om7uudqg2r9" d="M109.192000,426.067000L93.331000,428.554000C93.115200,428.554000,92.899400,428.346000,92.899400,428.139000C92.899400,427.828000,93.007300,427.621000,93.331000,427.518000L109.192000,425.031000C109.408000,425.031000,109.623000,425.238000,109.623000,425.445000C109.731000,425.756000,109.516000,426.067000,109.192000,426.067000Z" fill="rgb(255,255,255)" stroke="none" stroke-width="1"/><path id="e1om7uudqg2r10" d="M87.828300,432.595000C87.073000,435.807000,83.620300,437.983000,80.167600,437.361000C76.714900,436.739000,74.556900,433.734000,75.312200,430.522000C76.067500,427.310000,79.520200,425.134000,82.972900,425.756000C86.425600,426.274000,88.583500,429.383000,87.828300,432.595000Z" fill="rgb(255,255,255)" stroke="none" stroke-width="1"/></g><path id="e1om7uudqg2r11" d="M31.721800,40.824400C16.616200,37.819500,0.107897,47.973800,0,58.024500L12.839800,372.912000C13.271400,381.512000,30.319100,390.941000,41.108800,391.045000L45.748400,389.491000L41.972000,390.423000L31.721800,40.824400Z" fill="rgb(45,13,178)" stroke="none" stroke-width="1"/><path id="e1om7uudqg2r12" d="M29.671700,382.652000L16.292500,48.388400C16.076700,41.860600,25.463700,37.508700,33.340200,40.617200L324.663000,156.148000C328.223000,157.599000,330.597000,160.293000,330.813000,163.194000L344.084000,327.218000C344.408000,331.362000,340.739000,334.989000,335.452000,336.025000L44.237800,390.734000C37.008700,392.081000,29.995400,388.144000,29.671700,382.652000Z" fill="rgb(208,218,255)" stroke="none" stroke-width="1"/><path id="e1om7uudqg2r13" d="M52.114400,378.300000L332.431000,327.321000L318.944000,162.987000L33.771900,52.947500L52.114400,378.300000Z" fill="rgb(243,246,255)" stroke="none" stroke-width="1"/><path id="e1om7uudqg2r14" d="M224.318000,338.201000L327.684000,321.312000L316.247000,170.551000L211.694000,135.840000L224.318000,338.201000Z" fill="rgb(45,13,178)" stroke="none" stroke-width="1"/><path id="e1om7uudqg2r15" d="M242.876000,202.257000L241.258000,201.843000L241.366000,203.501000L242.984000,203.915000L242.876000,202.257000ZM243.524000,215.935000L241.905000,215.520000L242.013000,217.178000L243.632000,217.593000L243.524000,215.935000ZM243.955000,222.670000L242.337000,222.255000L242.445000,223.913000L244.063000,224.328000L243.955000,222.670000ZM243.416000,213.655000L241.798000,213.241000L241.905000,214.899000L243.524000,215.313000L243.416000,213.655000ZM243.200000,209.096000L241.582000,208.682000L241.690000,210.339000L243.308000,210.754000L243.200000,209.096000ZM243.092000,206.817000L241.474000,206.402000L241.582000,208.060000L243.200000,208.474000L243.092000,206.817000ZM243.308000,211.376000L241.690000,210.961000L241.798000,212.619000L243.416000,213.033000L243.308000,211.376000ZM244.063000,224.949000L242.445000,224.535000L242.553000,226.193000L244.171000,226.607000L244.063000,224.949000ZM243.848000,220.494000L242.229000,220.079000L242.337000,221.737000L243.955000,222.152000L243.848000,220.494000ZM254.206000,216.246000L244.927000,214.070000L245.034000,215.727000L254.314000,217.903000L254.206000,216.246000ZM249.350000,217.282000L245.034000,216.246000L245.142000,217.903000L249.458000,218.940000L249.350000,217.282000ZM255.500000,223.291000L245.250000,220.805000L245.358000,222.462000L255.608000,224.949000L255.500000,223.291000ZM251.832000,213.448000L244.819000,211.790000L244.927000,213.448000L251.940000,215.106000L251.832000,213.448000ZM244.279000,229.508000L242.661000,229.094000L242.769000,230.752000L244.387000,231.166000L244.279000,229.508000ZM244.171000,227.229000L242.553000,226.814000L242.661000,228.472000L244.279000,228.887000L244.171000,227.229000ZM244.387000,231.788000L242.769000,231.373000L242.876000,233.031000L244.495000,233.446000L244.387000,231.788000ZM242.876000,233.653000L242.984000,235.311000L244.603000,235.725000L244.495000,234.067000L242.876000,233.653000ZM242.984000,204.537000L241.366000,204.122000L241.474000,205.780000L243.092000,206.195000L242.984000,204.537000ZM265.319000,220.494000L267.585000,221.012000L267.477000,219.354000L265.211000,218.836000L265.319000,220.494000ZM256.579000,199.667000L240.934000,195.833000L241.042000,197.595000L256.687000,201.428000L256.579000,199.667000ZM244.819000,211.168000L246.977000,211.686000L246.869000,210.029000L244.711000,209.511000L244.819000,211.168000ZM292.509000,214.277000L289.272000,213.448000L289.380000,215.106000L292.617000,215.935000L292.509000,214.277000ZM251.616000,208.889000L244.603000,207.231000L244.711000,208.889000L251.724000,210.547000L251.616000,208.889000ZM289.920000,219.768000L289.812000,218.111000L282.043000,216.246000L282.151000,217.903000L289.920000,219.768000ZM299.522000,211.894000L299.415000,210.132000L283.769000,206.298000L283.877000,208.060000L299.522000,211.894000ZM286.035000,215.002000L283.554000,214.380000L283.662000,216.038000L286.143000,216.660000L286.035000,215.002000ZM280.533000,213.655000L280.640000,215.313000L283.014000,215.935000L282.906000,214.277000L280.533000,213.655000ZM251.508000,226.193000L266.506000,229.819000L266.398000,228.161000L251.400000,224.535000L251.508000,226.193000ZM255.608000,215.935000L255.500000,214.277000L252.695000,213.552000L252.803000,215.209000L255.608000,215.935000ZM244.279000,202.672000L244.387000,204.330000L248.056000,205.159000L247.948000,203.501000L244.279000,202.672000ZM263.269000,217.800000L263.161000,216.142000L256.795000,214.588000L256.903000,216.246000L263.269000,217.800000ZM249.674000,205.573000L260.464000,208.164000L260.356000,206.506000L249.566000,203.915000L249.674000,205.573000ZM264.456000,220.390000L264.348000,218.732000L255.069000,216.556000L255.177000,218.214000L264.456000,220.390000ZM249.782000,207.853000L249.674000,206.195000L247.300000,205.573000L247.408000,207.231000L249.782000,207.853000ZM257.982000,208.164000L250.429000,206.298000L250.537000,207.956000L258.090000,209.821000L257.982000,208.164000ZM246.869000,207.127000L246.761000,205.470000L244.387000,204.848000L244.495000,206.506000L246.869000,207.127000ZM278.051000,206.713000L277.943000,204.951000L262.298000,201.118000L262.406000,202.879000L278.051000,206.713000ZM279.993000,213.448000L277.619000,212.826000L277.727000,214.484000L280.101000,215.106000L279.993000,213.448000ZM281.180000,216.038000L277.727000,215.209000L277.835000,216.867000L281.288000,217.696000L281.180000,216.038000ZM288.085000,213.241000L277.404000,210.650000L277.511000,212.308000L288.193000,214.899000L288.085000,213.241000ZM286.251000,219.458000L277.835000,217.385000L277.943000,219.043000L286.359000,221.115000L286.251000,219.458000ZM276.540000,221.634000L274.922000,221.219000L275.030000,222.877000L276.648000,223.291000L276.540000,221.634000ZM276.432000,219.354000L274.814000,218.940000L274.922000,220.597000L276.540000,221.012000L276.432000,219.354000ZM276.325000,217.074000L274.706000,216.660000L274.814000,218.318000L276.432000,218.732000L276.325000,217.074000ZM275.030000,223.499000L275.138000,225.156000L276.756000,225.571000L276.648000,223.913000L275.030000,223.499000ZM288.733000,223.913000L288.625000,222.255000L285.819000,221.530000L285.927000,223.188000L288.733000,223.913000ZM278.159000,224.224000L278.267000,225.882000L282.583000,226.918000L282.475000,225.260000L278.159000,224.224000ZM282.367000,223.084000L282.475000,224.742000L289.380000,226.400000L289.272000,224.742000L282.367000,223.084000ZM290.027000,222.670000L290.135000,224.328000L296.501000,225.882000L296.393000,224.224000L290.027000,222.670000ZM290.999000,225.156000L291.106000,226.814000L293.372000,227.332000L293.264000,225.675000L290.999000,225.156000ZM287.654000,219.872000L287.762000,221.530000L297.796000,223.913000L297.688000,222.255000L287.654000,219.872000ZM276.217000,214.795000L274.598000,214.380000L274.706000,216.038000L276.325000,216.453000L276.217000,214.795000ZM281.719000,222.877000L278.051000,222.048000L278.159000,223.706000L281.827000,224.535000L281.719000,222.877000ZM284.201000,225.675000L284.309000,227.332000L286.791000,227.954000L286.683000,226.296000L284.201000,225.675000ZM284.956000,221.426000L277.943000,219.768000L278.051000,221.426000L285.064000,223.084000L284.956000,221.426000ZM258.090000,228.369000L258.198000,230.026000L269.419000,232.720000L269.311000,231.063000L258.090000,228.369000ZM255.608000,232.306000L253.774000,231.891000L253.882000,233.549000L255.716000,233.964000L255.608000,232.306000ZM251.185000,228.990000L245.682000,227.643000L245.790000,229.301000L251.292000,230.648000L251.185000,228.990000ZM252.587000,235.414000L254.853000,235.932000L254.745000,234.275000L252.479000,233.757000L252.587000,235.414000ZM249.890000,230.855000L249.998000,232.513000L252.803000,233.238000L252.695000,231.581000L249.890000,230.855000ZM248.379000,225.467000L250.753000,226.089000L250.645000,224.431000L248.271000,223.809000L248.379000,225.467000ZM262.514000,224.949000L260.032000,224.328000L260.140000,225.985000L262.622000,226.607000L262.514000,224.949000ZM248.703000,230.544000L245.790000,229.819000L245.898000,231.477000L248.811000,232.202000L248.703000,230.544000ZM256.795000,228.058000L245.574000,225.364000L245.682000,227.022000L256.903000,229.716000L256.795000,228.058000ZM247.840000,223.602000L245.466000,222.981000L245.574000,224.638000L247.948000,225.260000L247.840000,223.602000ZM246.005000,234.378000L246.113000,236.036000L250.429000,237.072000L250.321000,235.414000L246.005000,234.378000ZM276.109000,212.515000L274.490000,212.101000L274.598000,213.759000L276.217000,214.173000L276.109000,212.515000ZM252.156000,229.197000L252.264000,230.855000L266.074000,234.171000L265.966000,232.513000L252.156000,229.197000ZM259.061000,224.120000L256.579000,223.499000L256.687000,225.156000L259.169000,225.778000L259.061000,224.120000ZM276.001000,210.236000L274.382000,209.821000L274.490000,211.479000L276.109000,211.894000L276.001000,210.236000ZM251.077000,217.696000L251.185000,219.354000L271.361000,224.224000L271.253000,222.566000L251.077000,217.696000ZM256.148000,234.585000L256.256000,236.243000L260.140000,237.176000L260.032000,235.518000L256.148000,234.585000ZM245.898000,232.202000L246.005000,233.860000L251.292000,235.104000L251.185000,233.446000L245.898000,232.202000ZM252.048000,235.829000L252.156000,237.487000L256.364000,238.523000L256.256000,236.865000L252.048000,235.829000Z" fill="rgb(208,218,255)" stroke="none" stroke-width="1"/><path id="e1om7uudqg2r16" d="M44.129900,68.489700L204.465000,131.177000L215.147000,339.444000L62.256600,367.317000L44.129900,68.489700Z" fill="rgb(45,13,178)" stroke="none" stroke-width="1"/><path id="e1om7uudqg2r17" d="M176.843000,195.004000L82.541300,179.151000L81.138700,108.382000L175.441000,137.083000L176.843000,195.004000Z" fill="rgb(33,13,153)" stroke="none" stroke-width="1"/><path id="e1om7uudqg2r18" d="M153.646000,166.614000L169.614000,170.551000L169.722000,173.452000L153.754000,169.515000L153.646000,166.614000Z" opacity="0.8" fill="rgb(255,255,255)" stroke="none" stroke-width="1"/><path id="e1om7uudqg2r19" d="M153.322000,160.915000L169.291000,164.852000L169.506000,167.753000L153.538000,163.816000L153.322000,160.915000Z" opacity="0.8" fill="rgb(255,255,255)" stroke="none" stroke-width="1"/><path id="e1om7uudqg2r20" d="M152.998000,154.905000L168.966000,158.843000L169.182000,161.744000L153.213000,157.806000L152.998000,154.905000Z" opacity="0.8" fill="rgb(255,255,255)" stroke="none" stroke-width="1"/><path id="e1om7uudqg2r21" d="M152.782000,149.206000L168.751000,153.144000L168.859000,156.045000L152.890000,152.108000L152.782000,149.206000Z" opacity="0.8" fill="rgb(255,255,255)" stroke="none" stroke-width="1"/><path id="e1om7uudqg2r22" d="M152.135000,134.493000L168.104000,138.327000L168.535000,146.098000L152.567000,142.160000L152.135000,134.493000Z" fill="rgb(172,198,249)" stroke="none" stroke-width="1"/><path id="e1om7uudqg2r23" d="M92.791600,117.811000L108.760000,121.748000L109.192000,129.416000L93.115300,125.478000L92.791600,117.811000Z" opacity="0.6" fill="rgb(41,217,225)" stroke="none" stroke-width="1"/><path id="e1om7uudqg2r24" d="M116.097000,123.510000L132.066000,127.447000L132.929000,144.647000L116.961000,140.710000L116.097000,123.510000Z" opacity="0.6" fill="rgb(41,217,225)" stroke="none" stroke-width="1"/><path id="e1om7uudqg2r25" d="M116.205000,152.833000L132.174000,156.770000L133.037000,173.867000L117.069000,170.033000L116.205000,152.833000Z" opacity="0.6" fill="rgb(41,217,225)" stroke="none" stroke-width="1"/><path id="e1om7uudqg2r26" d="M124.405000,131.281000C125.700000,131.592000,126.779000,133.146000,126.779000,134.700000C126.779000,135.115000,126.779000,135.425000,126.671000,135.736000L135.087000,146.927000L150.409000,150.657000L150.517000,152.107000L135.087000,148.274000L126.240000,136.462000C125.808000,136.876000,125.269000,136.980000,124.729000,136.876000C123.434000,136.565000,122.355000,135.011000,122.355000,133.457000C122.140000,131.902000,123.111000,130.970000,124.405000,131.281000Z" opacity="0.5" fill="rgb(45,13,178)" stroke="none" stroke-width="1"/><path id="e1om7uudqg2r27" d="M98.402200,130.038000L98.833800,137.809000L92.683700,136.254000L92.252100,128.587000L98.402200,130.038000Z" fill="rgb(255,255,255)" stroke="none" stroke-width="1"/><path id="e1om7uudqg2r28" d="M99.049700,141.642000L99.373300,149.310000L93.223200,147.756000L92.791600,140.088000L99.049700,141.642000Z" fill="rgb(255,255,255)" stroke="none" stroke-width="1"/><path id="e1om7uudqg2r29" d="M99.589100,153.144000L99.912800,160.811000L93.762700,159.361000L93.439000,151.590000L99.589100,153.144000Z" fill="rgb(255,255,255)" stroke="none" stroke-width="1"/><path id="e1om7uudqg2r30" d="M100.129000,164.645000L100.560000,172.416000L94.410100,170.862000L93.978500,163.091000L100.129000,164.645000Z" fill="rgb(255,255,255)" stroke="none" stroke-width="1"/><path id="e1om7uudqg2r31" d="M124.405000,159.464000C124.945000,159.568000,125.376000,159.879000,125.808000,160.190000L133.253000,152.729000L133.361000,152.626000L150.732000,156.874000L150.840000,158.325000L134.440000,154.387000L126.995000,161.744000C127.427000,162.469000,127.642000,163.298000,127.750000,164.231000C127.858000,166.407000,126.563000,167.754000,124.837000,167.339000C123.111000,166.925000,121.600000,164.852000,121.492000,162.676000C121.276000,160.397000,122.679000,159.050000,124.405000,159.464000Z" opacity="0.6" fill="rgb(255,255,255)" stroke="none" stroke-width="1"/><path id="e1om7uudqg2r32" d="M124.405000,132.939000C124.945000,133.042000,125.377000,133.664000,125.377000,134.286000C125.377000,134.908000,125.053000,135.322000,124.513000,135.218000C123.974000,135.115000,123.542000,134.493000,123.542000,133.871000C123.542000,133.146000,123.974000,132.732000,124.405000,132.939000Z" opacity="0.6" fill="rgb(255,255,255)" stroke="none" stroke-width="1"/><path id="e1om7uudqg2r33" d="M110.810000,138.016000C110.810000,138.016000,110.918000,138.016000,110.810000,138.016000C113.400000,138.741000,115.558000,141.746000,115.774000,144.854000C115.882000,148.067000,113.939000,150.035000,111.458000,149.414000C108.868000,148.792000,106.710000,145.683000,106.495000,142.575000C106.279000,139.466000,108.221000,137.394000,110.810000,138.016000Z" opacity="0.8" fill="rgb(255,255,255)" stroke="none" stroke-width="1"/><path id="e1om7uudqg2r34" d="M124.513000,161.640000C125.269000,161.848000,125.916000,162.780000,126.024000,163.713000C126.024000,164.645000,125.484000,165.267000,124.729000,165.060000C123.974000,164.852000,123.326000,163.920000,123.219000,162.987000C123.111000,162.055000,123.758000,161.433000,124.513000,161.640000Z" fill="rgb(45,13,178)" stroke="none" stroke-width="1"/><path id="e1om7uudqg2r35" d="M110.918000,140.399000C110.918000,140.399000,111.026000,140.399000,110.918000,140.399000C112.429000,140.814000,113.724000,142.575000,113.831000,144.440000C113.939000,146.305000,112.752000,147.549000,111.242000,147.134000C109.731000,146.720000,108.437000,144.958000,108.329000,143.093000C108.221000,141.228000,109.408000,139.985000,110.918000,140.399000Z" fill="rgb(45,13,178)" stroke="none" stroke-width="1"/><path id="e1om7uudqg2r36" d="M272.224000,378.404000L388.753000,365.037000C389.940000,364.934000,390.696000,363.898000,390.696000,362.862000L383.143000,265.256000C383.035000,264.220000,382.172000,263.391000,381.093000,263.391000L263.269000,256.138000C261.974000,256.034000,260.895000,257.070000,261.003000,258.313000L269.851000,376.435000C269.851000,377.679000,270.930000,378.611000,272.224000,378.404000Z" opacity="0.6" fill="rgb(41,217,225)" stroke="none" stroke-width="1"/><path id="e1om7uudqg2r37" d="M308.802000,356.437000L290.135000,357.992000C289.057000,358.095000,288.085000,357.266000,288.085000,356.230000C288.085000,355.194000,288.841000,354.365000,289.812000,354.261000L308.478000,352.707000C309.557000,352.604000,310.528000,353.433000,310.528000,354.469000C310.528000,355.505000,309.773000,356.334000,308.802000,356.437000Z" opacity="0.5" fill="rgb(255,255,255)" stroke="none" stroke-width="1"/><path id="e1om7uudqg2r38" d="M373.432000,317.271000L283.554000,323.591000C282.475000,323.695000,281.504000,322.866000,281.504000,321.726000C281.504000,320.690000,282.259000,319.965000,283.338000,319.861000L373.216000,313.541000C374.295000,313.437000,375.266000,314.370000,375.266000,315.406000C375.266000,316.442000,374.511000,317.271000,373.432000,317.271000Z" opacity="0.5" fill="rgb(255,255,255)" stroke="none" stroke-width="1"/><path id="e1om7uudqg2r39" d="M373.432000,326.700000L283.554000,333.020000C282.475000,333.124000,281.504000,332.295000,281.504000,331.155000C281.504000,330.119000,282.259000,329.394000,283.338000,329.290000L373.216000,322.970000C374.295000,322.866000,375.266000,323.798000,375.266000,324.835000C375.266000,325.871000,374.511000,326.700000,373.432000,326.700000Z" opacity="0.5" fill="rgb(255,255,255)" stroke="none" stroke-width="1"/><path id="e1om7uudqg2r40" d="M302.220000,312.090000L283.554000,313.230000C282.475000,313.333000,281.504000,312.504000,281.504000,311.365000C281.504000,310.329000,282.259000,309.603000,283.338000,309.500000L302.004000,308.360000C303.083000,308.256000,304.054000,309.189000,304.054000,310.225000C304.054000,311.261000,303.299000,312.090000,302.220000,312.090000Z" opacity="0.5" fill="rgb(255,255,255)" stroke="none" stroke-width="1"/><path id="e1om7uudqg2r41" d="M304.594000,287.740000C302.867000,294.993000,295.099000,299.863000,287.330000,298.516000C279.562000,297.273000,274.598000,290.331000,276.325000,283.077000C278.051000,275.824000,285.820000,270.954000,293.588000,272.301000C301.465000,273.545000,306.320000,280.487000,304.594000,287.740000Z" opacity="0.5" fill="rgb(255,255,255)" stroke="none" stroke-width="1"/><path id="e1om7uudqg2r42" d="M335.236000,82.374400L453.060000,131.903000C453.815000,132.213000,454.247000,132.835000,454.355000,133.664000L460.073000,203.915000C460.181000,205.262000,458.994000,206.299000,457.592000,206.091000L353.255000,189.409000L340.739000,187.855000C339.660000,187.751000,338.905000,186.922000,338.905000,185.886000L332.323000,84.343100C332.107000,82.788800,333.726000,81.752700,335.236000,82.374400Z" opacity="0.1" fill="rgb(45,13,178)" stroke="none" stroke-width="1"/><path id="e1om7uudqg2r43" d="M133.145000,0.207371L304.054000,74.914200C304.809000,75.225000,305.241000,75.846700,305.349000,76.675600L313.657000,182.053000C313.765000,183.400000,312.470000,184.539000,311.067000,184.229000L141.453000,151.693000C140.482000,151.486000,139.835000,150.761000,139.727000,149.828000L130.016000,2.176070C129.908000,0.621833,131.635000,-0.414322,133.145000,0.207371Z" opacity="0.15" fill="rgb(41,217,225)" stroke="none" stroke-width="1"/><path id="e1om7uudqg2r44" d="M461.476000,221.323000L470,366.488000C470.108000,367.524000,469.245000,368.457000,468.166000,368.664000L150.948000,416.845000C149.653000,417.052000,148.466000,416.120000,148.466000,414.877000L136.058000,166.614000C135.950000,165.267000,137.245000,164.231000,138.540000,164.438000L459.642000,219.354000C460.721000,219.561000,461.476000,220.390000,461.476000,221.323000Z" opacity="0.3" fill="rgb(172,198,249)" stroke="none" stroke-width="1"/><g id="e1om7uudqg2r45"><path id="e1om7uudqg2r46" d="M319.268000,343.071000L446.047000,332.502000C447.234000,332.399000,448.097000,331.466000,447.989000,330.326000L442.810000,245.051000C442.702000,244.015000,441.947000,243.186000,440.868000,243.082000L312.362000,232.721000C311.067000,232.617000,309.988000,233.653000,309.988000,234.896000L316.894000,341.206000C317.002000,342.346000,317.973000,343.175000,319.268000,343.071000Z" fill="url(#e1om7uudqg2r46-fill)" stroke="none" stroke-width="1"/><path id="e1om7uudqg2r47" d="M331.568000,316.338000L345.271000,300.588000L351.853000,315.302000L380.229000,276.964000L385.624000,303.386000L398.356000,290.020000L402.133000,321.104000L422.201000,284.735000L420.044000,312.608000L433.099000,290.745000L439.033000,290.849000" opacity="0.2" fill="none" stroke="rgb(255,255,255)" stroke-width="1.573600" stroke-linecap="round" stroke-linejoin="round" stroke-miterlimit="10"/><path id="e1om7uudqg2r48" d="M341.494000,292.403000L352.716000,279.555000L358.111000,291.471000L381.093000,260.282000L385.624000,281.834000L395.982000,270.955000L399.004000,296.237000L415.404000,266.603000L413.570000,289.398000L424.359000,271.473000L429.107000,271.576000" fill="none" stroke="rgb(255,255,255)" stroke-width="1.283000" stroke-linecap="round" stroke-linejoin="round" stroke-miterlimit="10"/></g><path id="e1om7uudqg2r49" d="M382.927000,143.300000L366.958000,139.363000L366.742000,136.462000L382.711000,140.399000L382.927000,143.300000Z" opacity="0.8" fill="rgb(255,255,255)" stroke="none" stroke-width="1"/><path id="e1om7uudqg2r50" d="M383.142000,148.999000L367.173000,145.062000L367.065000,142.160000L383.034000,146.098000L383.142000,148.999000Z" opacity="0.8" fill="rgb(255,255,255)" stroke="none" stroke-width="1"/><path id="e1om7uudqg2r51" d="M383.467000,154.905000L367.498000,150.968000L367.390000,148.067000L383.359000,152.004000L383.467000,154.905000Z" opacity="0.8" fill="rgb(255,255,255)" stroke="none" stroke-width="1"/><path id="e1om7uudqg2r52" d="M383.790000,160.604000L367.821000,156.667000L367.606000,153.765000L383.682000,157.703000L383.790000,160.604000Z" opacity="0.8" fill="rgb(255,255,255)" stroke="none" stroke-width="1"/><path id="e1om7uudqg2r53" d="M384.438000,175.421000L368.469000,171.484000L368.037000,163.816000L384.006000,167.754000L384.438000,175.421000Z" fill="rgb(172,198,249)" stroke="none" stroke-width="1"/><path id="e1om7uudqg2r54" d="M420.474000,186.404000L404.505000,182.467000L403.642000,165.267000L419.611000,169.204000L420.474000,186.404000Z" opacity="0.6" fill="rgb(41,217,225)" stroke="none" stroke-width="1"/><path id="e1om7uudqg2r55" d="M420.367000,157.081000L404.398000,153.144000L403.535000,135.944000L419.504000,139.881000L420.367000,157.081000Z" opacity="0.6" fill="rgb(41,217,225)" stroke="none" stroke-width="1"/><path id="e1om7uudqg2r56" d="M412.167000,178.633000C410.872000,178.322000,409.793000,176.768000,409.793000,175.214000C409.793000,174.799000,409.793000,174.489000,409.901000,174.178000L401.485000,162.987000L386.164000,159.257000L386.056000,157.806000L401.485000,161.640000L410.333000,173.452000C410.764000,173.038000,411.304000,172.934000,411.843000,173.038000C413.138000,173.349000,414.217000,174.903000,414.217000,176.457000C414.433000,177.908000,413.462000,178.944000,412.167000,178.633000Z" opacity="0.5" fill="rgb(45,13,178)" stroke="none" stroke-width="1"/><path id="e1om7uudqg2r57" d="M438.062000,179.773000L437.739000,172.105000L443.889000,173.660000L444.320000,181.327000L438.062000,179.773000Z" fill="rgb(255,255,255)" stroke="none" stroke-width="1"/><path id="e1om7uudqg2r58" d="M437.523000,168.272000L437.199000,160.604000L443.349000,162.055000L443.673000,169.826000L437.523000,168.272000Z" fill="rgb(255,255,255)" stroke="none" stroke-width="1"/><path id="e1om7uudqg2r59" d="M436.984000,156.770000L436.552000,148.999000L442.702000,150.553000L443.134000,158.221000L436.984000,156.770000Z" fill="rgb(255,255,255)" stroke="none" stroke-width="1"/><path id="e1om7uudqg2r60" d="M436.336000,145.165000L436.012000,137.498000L442.163000,139.052000L442.594000,146.720000L436.336000,145.165000Z" fill="rgb(255,255,255)" stroke="none" stroke-width="1"/><path id="e1om7uudqg2r61" d="M412.167000,150.450000C412.167000,150.450000,412.059000,150.346000,412.167000,150.450000C411.628000,150.346000,411.196000,150.035000,410.764000,149.724000L403.319000,157.185000L403.212000,157.288000L385.840000,153.040000L385.732000,151.590000L402.133000,155.527000L409.577000,148.170000C409.146000,147.445000,408.930000,146.616000,408.822000,145.683000C408.714000,143.508000,410.009000,142.161000,411.735000,142.575000C413.462000,142.989000,414.972000,145.062000,415.080000,147.238000C415.188000,149.414000,413.893000,150.864000,412.167000,150.450000Z" opacity="0.6" fill="rgb(255,255,255)" stroke="none" stroke-width="1"/><path id="e1om7uudqg2r62" d="M412.059000,176.975000C411.520000,176.872000,411.088000,176.250000,411.088000,175.628000C411.088000,175.007000,411.412000,174.592000,411.951000,174.696000C412.491000,174.799000,412.922000,175.421000,412.922000,176.043000C413.030000,176.664000,412.599000,177.079000,412.059000,176.975000Z" opacity="0.6" fill="rgb(255,255,255)" stroke="none" stroke-width="1"/><path id="e1om7uudqg2r63" d="M425.654000,171.898000C425.654000,171.795000,425.654000,171.795000,425.654000,171.898000C423.065000,171.173000,420.907000,168.168000,420.691000,165.060000C420.583000,161.848000,422.525000,159.879000,425.007000,160.501000C427.596000,161.122000,429.754000,164.231000,429.970000,167.339000C430.186000,170.448000,428.244000,172.520000,425.654000,171.898000Z" opacity="0.8" fill="rgb(255,255,255)" stroke="none" stroke-width="1"/><path id="e1om7uudqg2r64" d="M412.059000,148.274000C411.304000,148.067000,410.656000,147.134000,410.549000,146.202000C410.549000,145.269000,411.088000,144.647000,411.843000,144.855000C412.599000,145.062000,413.246000,145.994000,413.354000,146.927000C413.354000,147.859000,412.814000,148.378000,412.059000,148.274000Z" fill="rgb(45,13,178)" stroke="none" stroke-width="1"/><path id="e1om7uudqg2r65" d="M425.546000,169.515000C424.036000,169.101000,422.741000,167.339000,422.633000,165.474000C422.525000,163.609000,423.712000,162.366000,425.223000,162.780000C426.733000,163.195000,428.028000,164.956000,428.136000,166.821000C428.244000,168.686000,427.057000,169.930000,425.546000,169.515000Z" fill="rgb(45,13,178)" stroke="none" stroke-width="1"/><path id="e1om7uudqg2r66" d="M279.561000,97.605800L166.269000,57.817400C165.730000,57.610200,165.298000,57.092100,165.190000,56.574100L164.867000,54.605400C164.651000,53.362000,165.946000,52.325800,167.133000,52.740300L280.425000,92.528600C280.964000,92.735900,281.396000,93.253900,281.504000,93.772000L281.827000,95.740700C282.151000,96.984100,280.856000,98.020300,279.561000,97.605800Z" fill="rgb(255,255,255)" stroke="none" stroke-width="1"/><path id="e1om7uudqg2r67" d="M279.884000,109.211000L166.592000,69.422400C166.053000,69.215200,165.621000,68.697100,165.513000,68.179000L165.190000,66.210300C164.974000,64.967000,166.269000,63.930800,167.456000,64.345300L280.748000,104.134000C281.287000,104.341000,281.719000,104.859000,281.827000,105.377000L282.150000,107.346000C282.474000,108.693000,281.179000,109.625000,279.884000,109.211000Z" fill="rgb(255,255,255)" stroke="none" stroke-width="1"/><path id="e1om7uudqg2r68" d="M281.180000,131.695000L167.564000,92.632100C167.025000,92.424900,166.593000,91.906800,166.485000,91.388700L166.162000,89.420100C165.946000,88.176700,167.241000,87.140500,168.427000,87.555000L282.043000,126.618000C282.583000,126.825000,283.014000,127.343000,283.122000,127.861000L283.446000,129.830000C283.662000,131.177000,282.367000,132.110000,281.180000,131.695000Z" fill="rgb(255,255,255)" stroke="none" stroke-width="1"/><path id="e1om7uudqg2r69" d="M227.016000,102.579000L167.672000,81.441700C167.133000,81.234500,166.701000,80.716400,166.593000,80.198300L166.269000,78.229600C166.054000,76.986200,167.348000,75.950100,168.535000,76.364500L227.879000,97.502100C228.418000,97.709300,228.850000,98.227400,228.958000,98.745500L229.281000,100.714000C229.605000,101.958000,228.310000,102.994000,227.016000,102.579000Z" fill="rgb(255,255,255)" stroke="none" stroke-width="1"/><path id="e1om7uudqg2r70" d="M280.425000,120.712000L236.187000,105.791000C235.647000,105.584000,235.216000,105.066000,235.108000,104.548000L234.784000,102.579000C234.568000,101.336000,235.863000,100.300000,237.050000,100.714000L281.288000,115.635000C281.827000,115.842000,282.259000,116.360000,282.367000,116.878000L282.690000,118.847000C282.906000,120.090000,281.719000,121.126000,280.425000,120.712000Z" fill="rgb(255,255,255)" stroke="none" stroke-width="1"/><path id="e1om7uudqg2r71" d="M278.375000,111.594000L395.767000,142.575000C396.630000,142.782000,397.277000,143.507000,397.385000,144.440000L403.427000,217.385000C403.535000,218.732000,402.348000,219.768000,400.946000,219.561000L283.122000,203.397000C282.151000,203.294000,281.288000,202.465000,281.288000,201.428000L275.677000,113.666000C275.461000,112.215000,276.864000,111.179000,278.375000,111.594000Z" opacity="0.8" fill="rgb(172,198,249)" stroke="none" stroke-width="1"/><g id="e1om7uudqg2r72"><path id="e1om7uudqg2r73" d="M313.765000,167.235000C316.678000,198.527000,333.510000,223.084000,351.313000,222.255000C369.116000,221.426000,381.093000,195.419000,378.072000,164.127000C375.158000,132.835000,358.326000,108.278000,340.523000,109.107000C322.720000,110.040000,310.744000,136.047000,313.765000,167.235000Z" opacity="0.1" fill="rgb(45,13,178)" stroke="none" stroke-width="1"/><path id="e1om7uudqg2r74" d="M333.834000,166.303000C335.668000,185.990000,344.839000,201.532000,354.334000,201.118000C363.721000,200.703000,369.871000,184.332000,368.037000,164.645000C366.203000,144.958000,357.032000,129.416000,347.537000,129.830000C338.150000,130.245000,332,146.616000,333.834000,166.303000Z" opacity="0.5" fill="rgb(45,13,178)" stroke="none" stroke-width="1"/><path id="e1om7uudqg2r75" d="M346.997000,166.717000C347.753000,174.385000,351.313000,180.394000,354.874000,180.187000C358.542000,179.980000,360.916000,173.659000,360.161000,166.096000C359.405000,158.532000,355.845000,152.418000,352.284000,152.625000C348.724000,152.833000,346.350000,159.153000,346.997000,166.717000Z" opacity="0.8" fill="rgb(45,13,178)" stroke="none" stroke-width="1"/><path id="e1om7uudqg2r76" d="M353.471000,170.137000C352.608000,171.173000,350.989000,171.276000,350.126000,170.240000L347.537000,167.546000C347.321000,167.235000,347.321000,166.925000,347.753000,166.717000C348.076000,166.510000,348.616000,166.614000,348.939000,166.925000L350.018000,168.064000C350.882000,169.100000,352.608000,168.997000,353.363000,167.961000L358.758000,160.915000C358.974000,160.604000,359.513000,160.500000,359.837000,160.708000C360.269000,160.915000,360.377000,161.226000,360.161000,161.537000L353.471000,170.137000Z" fill="rgb(255,255,255)" stroke="rgb(255,255,255)" stroke-width="0.301900" stroke-miterlimit="10"/></g><g id="e1om7uudqg2r77"><path id="e1om7uudqg2r78" d="M93.223200,300.796000C99.049600,357.888000,131.958000,402.961000,166.809000,401.406000C201.660000,399.852000,225.181000,352.293000,219.355000,295.200000C213.529000,238.108000,180.620000,193.036000,145.769000,194.590000C110.918000,196.144000,87.396700,243.704000,93.223200,300.796000Z" opacity="0.2" fill="rgb(41,217,225)" stroke="none" stroke-width="1"/><path id="e1om7uudqg2r79" d="M132.714000,299.034000C136.382000,334.989000,154.401000,363.483000,172.851000,362.654000C191.302000,361.825000,203.386000,331.984000,199.718000,296.029000C196.049000,260.075000,178.030000,231.581000,159.580000,232.409000C141.022000,233.238000,129.045000,263.080000,132.714000,299.034000Z" transform="matrix(1 0 0 1 -0.26729238999999 0)" opacity="0.5" fill="rgb(41,217,225)" stroke="none" stroke-width="1"/><path id="e1om7uudqg2r80" d="M158.609000,299.863000C160.012000,313.748000,167.025000,324.835000,174.146000,324.524000C181.267000,324.213000,186.015000,312.608000,184.504000,298.724000C183.102000,284.839000,176.088000,273.752000,168.967000,274.063000C161.846000,274.374000,157.206000,285.979000,158.609000,299.863000Z" transform="matrix(1 0 0 1 -0.26729238999999 0)" fill="rgb(41,217,225)" stroke="none" stroke-width="1"/><path id="e1om7uudqg2r81" d="M169.075000,308.670000C168.535000,309.292000,167.564000,309.292000,167.025000,308.774000L159.688000,301.417000C159.148000,300.899000,159.364000,300.174000,160.119000,299.863000C160.875000,299.552000,161.846000,299.656000,162.385000,300.174000L166.809000,304.629000C167.349000,305.148000,168.428000,305.148000,168.859000,304.526000L181.483000,289.087000C181.915000,288.569000,182.886000,288.362000,183.641000,288.673000C184.396000,288.984000,184.720000,289.605000,184.288000,290.227000L169.075000,308.670000Z" transform="matrix(1 0 0 1 -0.26729238999999 0)" fill="rgb(255,255,255)" stroke="rgb(255,255,255)" stroke-width="0.571700" stroke-miterlimit="10"/></g></g><clipPath id="e1om7uudqg2r82"><rect id="e1om7uudqg2r83" width="470" height="470" rx="0" ry="0" fill="rgb(255,255,255)" stroke="none" stroke-width="1"/></clipPath></g><script><![CDATA[!function(t,n){"object"==typeof exports&&"undefined"!=typeof module?module.exports=n():"function"==typeof define&&define.amd?define(n):(t=t||self).__SVGATOR_PLAYER__=n()}(this,(function(){"use strict";function t(n){return(t="function"==typeof Symbol&&"symbol"==typeof Symbol.iterator?function(t){return typeof t}:function(t){return t&&"function"==typeof Symbol&&t.constructor===Symbol&&t!==Symbol.prototype?"symbol":typeof t})(n)}function n(t,n){if(!(t instanceof n))throw new TypeError("Cannot call a class as a function")}function r(t,n){for(var r=0;r<n.length;r++){var e=n[r];e.enumerable=e.enumerable||!1,e.configurable=!0,"value"in e&&(e.writable=!0),Object.defineProperty(t,e.key,e)}}function e(t,n,e){return n&&r(t.prototype,n),e&&r(t,e),t}function i(t){return(i=Object.setPrototypeOf?Object.getPrototypeOf:function(t){return t.__proto__||Object.getPrototypeOf(t)})(t)}function o(t,n){return(o=Object.setPrototypeOf||function(t,n){return t.__proto__=n,t})(t,n)}function u(t,n){return!n||"object"!=typeof n&&"function"!=typeof n?function(t){if(void 0===t)throw new ReferenceError("this hasn't been initialised - super() hasn't been called");return t}(t):n}function a(t){var n=function(){if("undefined"==typeof Reflect||!Reflect.construct)return!1;if(Reflect.construct.sham)return!1;if("function"==typeof Proxy)return!0;try{return Date.prototype.toString.call(Reflect.construct(Date,[],(function(){}))),!0}catch(t){return!1}}();return function(){var r,e=i(t);if(n){var o=i(this).constructor;r=Reflect.construct(e,arguments,o)}else r=e.apply(this,arguments);return u(this,r)}}function l(t,n,r){return(l="undefined"!=typeof Reflect&&Reflect.get?Reflect.get:function(t,n,r){var e=function(t,n){for(;!Object.prototype.hasOwnProperty.call(t,n)&&null!==(t=i(t)););return t}(t,n);if(e){var o=Object.getOwnPropertyDescriptor(e,n);return o.get?o.get.call(r):o.value}})(t,n,r||t)}var f=Math.abs;function s(t){return t}function c(t,n,r){var e=1-r;return 3*r*e*(t*e+n*r)+r*r*r}function h(){var t=arguments.length>0&&void 0!==arguments[0]?arguments[0]:0,n=arguments.length>1&&void 0!==arguments[1]?arguments[1]:0,r=arguments.length>2&&void 0!==arguments[2]?arguments[2]:1,e=arguments.length>3&&void 0!==arguments[3]?arguments[3]:1;return t<0||t>1||r<0||r>1?null:f(t-n)<=1e-5&&f(r-e)<=1e-5?s:function(i){if(i<=0)return t>0?i*n/t:0===n&&r>0?i*e/r:0;if(i>=1)return r<1?1+(i-1)*(e-1)/(r-1):1===r&&t<1?1+(i-1)*(n-1)/(t-1):1;for(var o,u=0,a=1;u<a;){var l=c(t,r,o=(u+a)/2);if(f(i-l)<1e-5)break;l<i?u=o:a=o}return c(n,e,o)}}function v(){return 1}function y(t){return 1===t?1:0}function d(){var t=arguments.length>0&&void 0!==arguments[0]?arguments[0]:1,n=arguments.length>1&&void 0!==arguments[1]?arguments[1]:0;if(1===t){if(0===n)return y;if(1===n)return v}var r=1/t;return function(t){return t>=1?1:(t+=n*r)-t%r}}function g(t){var n=arguments.length>1&&void 0!==arguments[1]?arguments[1]:2;if(Number.isInteger(t))return t;var r=Math.pow(10,n);return Math.round(t*r)/r}var p=Math.PI/180;function m(t,n,r){return t>=.5?r:n}function b(t,n,r){return 0===t||n===r?n:t*(r-n)+n}function w(t,n,r){var e=b(t,n,r);return e<=0?0:e}function k(t,n,r){return 0===t?n:1===t?r:{x:b(t,n.x,r.x),y:b(t,n.y,r.y)}}function x(t,n,r){var e=function(t,n,r){return Math.round(b(t,n,r))}(t,n,r);return e<=0?0:e>=255?255:e}function A(t,n,r){return 0===t?n:1===t?r:{r:x(t,n.r,r.r),g:x(t,n.g,r.g),b:x(t,n.b,r.b),a:b(t,null==n.a?1:n.a,null==r.a?1:r.a)}}function _(t,n,r){if(0===t)return n;if(1===t)return r;var e=n.length;if(e!==r.length)return m(t,n,r);for(var i=[],o=0;o<e;o++)i.push(A(t,n[o],r[o]));return i}function S(t,n){for(var r=[],e=0;e<t;e++)r.push(n);return r}function O(t,n){if(--n<=0)return t;var r=(t=Object.assign([],t)).length;do{for(var e=0;e<r;e++)t.push(t[e])}while(--n>0);return t}var M,j=function(){function t(r){n(this,t),this.list=r,this.length=r.length}return e(t,[{key:"setAttribute",value:function(t,n){for(var r=this.list,e=0;e<this.length;e++)r[e].setAttribute(t,n)}},{key:"removeAttribute",value:function(t){for(var n=this.list,r=0;r<this.length;r++)n[r].removeAttribute(t)}},{key:"style",value:function(t,n){for(var r=this.list,e=0;e<this.length;e++)r[e].style[t]=n}}]),t}(),F=/-./g,P=function(t,n){return n.toUpperCase()};function q(t){return"function"==typeof t?t:m}function B(t){return t?"function"==typeof t?t:Array.isArray(t)?function(t){var n=arguments.length>1&&void 0!==arguments[1]?arguments[1]:s;if(!Array.isArray(t))return n;switch(t.length){case 1:return d(t[0])||n;case 2:return d(t[0],t[1])||n;case 4:return h(t[0],t[1],t[2],t[3])||n}return n}(t,null):function(t,n){var r=arguments.length>2&&void 0!==arguments[2]?arguments[2]:s;switch(t){case"linear":return s;case"steps":return d(n.steps||1,n.jump||0)||r;case"bezier":case"cubic-bezier":return h(n.x1||0,n.y1||0,n.x2||0,n.y2||0)||r}return r}(t.type,t.value,null):null}function I(t,n,r){var e=arguments.length>3&&void 0!==arguments[3]&&arguments[3],i=n.length-1;if(t<=n[0].t)return e?[0,0,n[0].v]:n[0].v;if(t>=n[i].t)return e?[i,1,n[i].v]:n[i].v;var o,u=n[0],a=null;for(o=1;o<=i;o++){if(!(t>n[o].t)){a=n[o];break}u=n[o]}return null==a?e?[i,1,n[i].v]:n[i].v:u.t===a.t?e?[o,1,a.v]:a.v:(t=(t-u.t)/(a.t-u.t),u.e&&(t=u.e(t)),e?[o,t,r(t,u.v,a.v)]:r(t,u.v,a.v))}function R(t,n){var r=arguments.length>2&&void 0!==arguments[2]?arguments[2]:null;return t&&t.length?"function"!=typeof n?null:("function"!=typeof r&&(r=null),function(e){var i=I(e,t,n);return null!=i&&r&&(i=r(i)),i}):null}function E(t,n){return t.t-n.t}function T(n,r,e,i,o){var u,a="@"===e[0],l="#"===e[0],f=M[e],s=m;switch(a?(u=e.substr(1),e=u.replace(F,P)):l&&(e=e.substr(1)),t(f)){case"function":if(s=f(i,o,I,B,e,a,r,n),l)return s;break;case"string":s=R(i,q(f));break;case"object":if((s=R(i,q(f.i),f.f))&&"function"==typeof f.u)return f.u(r,s,e,a,n)}return s?function(t,n,r){var e=arguments.length>3&&void 0!==arguments[3]&&arguments[3];if(e)return t instanceof j?function(e){return t.style(n,r(e))}:function(e){return t.style[n]=r(e)};if(Array.isArray(n)){var i=n.length;return function(e){var o=r(e);if(null==o)for(var u=0;u<i;u++)t[u].removeAttribute(n);else for(var a=0;a<i;a++)t[a].setAttribute(n,o)}}return function(e){var i=r(e);null==i?t.removeAttribute(n):t.setAttribute(n,i)}}(r,e,s,a):null}function z(n,r,e,i){if(!i||"object"!==t(i))return null;var o=null,u=null;return Array.isArray(i)?u=function(t){if(!t||!t.length)return null;for(var n=0;n<t.length;n++)t[n].e&&(t[n].e=B(t[n].e));return t.sort(E)}(i):(u=i.keys,o=i.data||null),u?T(n,r,e,u,o):null}function C(t,n,r){if(!r)return null;var e=[];for(var i in r)if(r.hasOwnProperty(i)){var o=z(t,n,i,r[i]);o&&e.push(o)}return e.length?e:null}function D(t,n){if(!n.duration||n.duration<0)return null;var r=function(t,n){if(!n)return null;var r=[];if(Array.isArray(n))for(var e=n.length,i=0;i<e;i++){var o=n[i];if(2===o.length){var u=null;if("string"==typeof o[0])u=t.getElementById(o[0]);else if(Array.isArray(o[0])){u=[];for(var a=0;a<o[0].length;a++)if("string"==typeof o[0][a]){var l=t.getElementById(o[0][a]);l&&u.push(l)}u=u.length?1===u.length?u[0]:new j(u):null}if(u){var f=C(t,u,o[1]);f&&(r=r.concat(f))}}}else for(var s in n)if(n.hasOwnProperty(s)){var c=t.getElementById(s);if(c){var h=C(t,c,n[s]);h&&(r=r.concat(h))}}return r.length?r:null}(t,n.elements);return r?function(t,n){var r=arguments.length>2&&void 0!==arguments[2]?arguments[2]:1/0,e=arguments.length>3&&void 0!==arguments[3]?arguments[3]:1,i=arguments.length>4&&void 0!==arguments[4]&&arguments[4],o=arguments.length>5&&void 0!==arguments[5]?arguments[5]:1,u=t.length,a=e>0?n:0;i&&r%2==0&&(a=n-a);var l=null;return function(f,s){var c=f%n,h=1+(f-c)/n;s*=e,i&&h%2==0&&(s=-s);var v=!1;if(h>r)c=a,v=!0,-1===o&&(c=e>0?0:n);else if(s<0&&(c=n-c),c===l)return!1;l=c;for(var y=0;y<u;y++)t[y](c);return v}}(r,n.duration,n.iterations||1/0,n.direction||1,!!n.alternate,n.fill||1):null}function N(t,n){if(M=n,!t||!t.root||!Array.isArray(t.animations))return null;for(var r=document.getElementsByTagName("svg"),e=!1,i=0;i<r.length;i++)if(r[i].id===t.root&&!r[i].svgatorAnimation){(e=r[i]).svgatorAnimation=!0;break}if(!e)return null;var o=t.animations.map((function(t){return D(e,t)})).filter((function(t){return!!t}));return o.length?{element:e,animations:o,animationSettings:t.animationSettings,options:t.options||void 0}:null}var L=function(){function t(r,e){var i=arguments.length>2&&void 0!==arguments[2]?arguments[2]:{};n(this,t),this._id=0,this._running=!1,this._rollingBack=!1,this._animations=r,this.duration=e.duration,this.alternate=e.alternate,this.fill=e.fill,this.iterations=e.iterations,this.direction=i.direction||1,this.speed=i.speed||1,this.fps=i.fps||100,this.offset=i.offset||0,this.rollbackStartOffset=0}return e(t,[{key:"_rollback",value:function(){var t=this,n=1/0,r=null;this.rollbackStartOffset=this.offset,this._rollingBack||(this._rollingBack=!0,this._running=!0);this._id=window.requestAnimationFrame((function e(i){if(t._rollingBack){null==r&&(r=i);var o=i-r,u=t.rollbackStartOffset-o,a=Math.round(u*t.speed);if(a>t.duration&&n!=1/0){var l=!!t.alternate&&a/t.duration%2>1,f=a%t.duration;a=(f+=l?t.duration:0)||t.duration}var s=t.fps?1e3/t.fps:0,c=Math.max(0,a);if(c<n-s){t.offset=c,n=c;for(var h=t._animations,v=h.length,y=0;y<v;y++)h[y](c,t.direction)}var d=!1;if(t.iterations>0&&-1===t.fill){var g=t.iterations*t.duration,p=g==a;a=p?0:a,t.offset=p?0:t.offset,d=a>g}a>0&&t.offset>=a&&!d?t._id=window.requestAnimationFrame(e):t.stop()}}))}},{key:"_start",value:function(){var t=this,n=arguments.length>0&&void 0!==arguments[0]?arguments[0]:0,r=-1/0,e=null,i={},o=function o(u){t._running=!0,null==e&&(e=u);var a=Math.round((u-e+n)*t.speed),l=t.fps?1e3/t.fps:0;if(a>r+l&&!t._rollingBack){t.offset=a,r=a;for(var f=t._animations,s=f.length,c=0,h=0;h<s;h++)i[h]?c++:(i[h]=f[h](a,t.direction),i[h]&&c++);if(c===s)return void t._stop()}t._id=window.requestAnimationFrame(o)};this._id=window.requestAnimationFrame(o)}},{key:"_stop",value:function(){this._id&&window.cancelAnimationFrame(this._id),this._running=!1,this._rollingBack=!1}},{key:"play",value:function(){!this._rollingBack&&this._running||(this._rollingBack=!1,this.rollbackStartOffset>this.duration&&(this.offset=this.rollbackStartOffset-(this.rollbackStartOffset-this.offset)%this.duration,this.rollbackStartOffset=0),this._start(this.offset))}},{key:"stop",value:function(){this._stop(),this.offset=0,this.rollbackStartOffset=0;var t=this.direction,n=this._animations;window.requestAnimationFrame((function(){for(var r=0;r<n.length;r++)n[r](0,t)}))}},{key:"reachedToEnd",value:function(){return this.iterations>0&&this.offset>=this.iterations*this.duration}},{key:"restart",value:function(){this._stop(),this.offset=0,this._start()}},{key:"pause",value:function(){this._stop()}},{key:"reverse",value:function(){this.direction=-this.direction}}],[{key:"build",value:function(n,r){return(n=N(n,r))?{el:n.element,options:n.options||{},player:new t(n.animations,n.animationSettings,n.options)}:null}}]),t}();!function(){for(var t=0,n=["ms","moz","webkit","o"],r=0;r<n.length&&!window.requestAnimationFrame;++r)window.requestAnimationFrame=window[n[r]+"RequestAnimationFrame"],window.cancelAnimationFrame=window[n[r]+"CancelAnimationFrame"]||window[n[r]+"CancelRequestAnimationFrame"];window.requestAnimationFrame||(window.requestAnimationFrame=function(n){var r=Date.now(),e=Math.max(0,16-(r-t)),i=window.setTimeout((function(){n(r+e)}),e);return t=r+e,i},window.cancelAnimationFrame=window.clearTimeout)}();var V=/\.0+$/g;function $(t){return Number.isInteger(t)?t+"":t.toFixed(6).replace(V,"")}function G(t){var n=arguments.length>1&&void 0!==arguments[1]?arguments[1]:" ";return t&&t.length?t.map($).join(n):""}function H(t){return t?null==t.a||t.a>=1?"rgb("+t.r+","+t.g+","+t.b+")":"rgba("+t.r+","+t.g+","+t.b+","+t.a+")":"transparent"}var Q={f:null,i:function(t,n,r){return 0===t?n:1===t?r:{x:w(t,n.x,r.x),y:w(t,n.y,r.y)}},u:function(t,n){return function(r){var e=n(r);t.setAttribute("rx",$(e.x)),t.setAttribute("ry",$(e.y))}}},U={f:null,i:function(t,n,r){return 0===t?n:1===t?r:{width:w(t,n.width,r.width),height:w(t,n.height,r.height)}},u:function(t,n){return function(r){var e=n(r);t.setAttribute("width",$(e.width)),t.setAttribute("height",$(e.height))}}},Y=Math.sin,Z=Math.cos,J=Math.acos,K=Math.asin,W=Math.tan,X=Math.atan2,tt=Math.PI/180,nt=180/Math.PI,rt=Math.sqrt,et=function(){function t(){var r=arguments.length>0&&void 0!==arguments[0]?arguments[0]:1,e=arguments.length>1&&void 0!==arguments[1]?arguments[1]:0,i=arguments.length>2&&void 0!==arguments[2]?arguments[2]:0,o=arguments.length>3&&void 0!==arguments[3]?arguments[3]:1,u=arguments.length>4&&void 0!==arguments[4]?arguments[4]:0,a=arguments.length>5&&void 0!==arguments[5]?arguments[5]:0;n(this,t),this.m=[r,e,i,o,u,a],this.i=null,this.w=null,this.s=null}return e(t,[{key:"point",value:function(t,n){var r=this.m;return{x:r[0]*t+r[2]*n+r[4],y:r[1]*t+r[3]*n+r[5]}}},{key:"translateSelf",value:function(){var t=arguments.length>0&&void 0!==arguments[0]?arguments[0]:0,n=arguments.length>1&&void 0!==arguments[1]?arguments[1]:0;if(!t&&!n)return this;var r=this.m;return r[4]+=r[0]*t+r[2]*n,r[5]+=r[1]*t+r[3]*n,this.w=this.s=this.i=null,this}},{key:"rotateSelf",value:function(){var t=arguments.length>0&&void 0!==arguments[0]?arguments[0]:0;if(t%=360){var n=Y(t*=tt),r=Z(t),e=this.m,i=e[0],o=e[1];e[0]=i*r+e[2]*n,e[1]=o*r+e[3]*n,e[2]=e[2]*r-i*n,e[3]=e[3]*r-o*n,this.w=this.s=this.i=null}return this}},{key:"scaleSelf",value:function(){var t=arguments.length>0&&void 0!==arguments[0]?arguments[0]:1,n=arguments.length>1&&void 0!==arguments[1]?arguments[1]:1;if(1!==t||1!==n){var r=this.m;r[0]*=t,r[1]*=t,r[2]*=n,r[3]*=n,this.w=this.s=this.i=null}return this}},{key:"skewSelf",value:function(t,n){if(n%=360,(t%=360)||n){var r=this.m,e=r[0],i=r[1],o=r[2],u=r[3];t&&(t=W(t*tt),r[2]+=e*t,r[3]+=i*t),n&&(n=W(n*tt),r[0]+=o*n,r[1]+=u*n),this.w=this.s=this.i=null}return this}},{key:"resetSelf",value:function(){var t=arguments.length>0&&void 0!==arguments[0]?arguments[0]:1,n=arguments.length>1&&void 0!==arguments[1]?arguments[1]:0,r=arguments.length>2&&void 0!==arguments[2]?arguments[2]:0,e=arguments.length>3&&void 0!==arguments[3]?arguments[3]:1,i=arguments.length>4&&void 0!==arguments[4]?arguments[4]:0,o=arguments.length>5&&void 0!==arguments[5]?arguments[5]:0,u=this.m;return u[0]=t,u[1]=n,u[2]=r,u[3]=e,u[4]=i,u[5]=o,this.w=this.s=this.i=null,this}},{key:"recomposeSelf",value:function(){var t=arguments.length>0&&void 0!==arguments[0]?arguments[0]:null,n=arguments.length>1&&void 0!==arguments[1]?arguments[1]:null,r=arguments.length>2&&void 0!==arguments[2]?arguments[2]:null,e=arguments.length>3&&void 0!==arguments[3]?arguments[3]:null,i=arguments.length>4&&void 0!==arguments[4]?arguments[4]:null;return this.isIdentity||this.resetSelf(),t&&(t.x||t.y)&&this.translateSelf(t.x,t.y),n&&this.rotateSelf(n),r&&(r.x&&this.skewSelf(r.x,0),r.y&&this.skewSelf(0,r.y)),!e||1===e.x&&1===e.y||this.scaleSelf(e.x,e.y),i&&(i.x||i.y)&&this.translateSelf(i.x,i.y),this}},{key:"decompose",value:function(){var t=arguments.length>0&&void 0!==arguments[0]?arguments[0]:0,n=arguments.length>1&&void 0!==arguments[1]?arguments[1]:0,r=this.m,e=r[0]*r[0]+r[1]*r[1],i=[[r[0],r[1]],[r[2],r[3]]],o=rt(e);if(0===o)return{origin:{x:r[4],y:r[5]},translate:{x:t,y:n},scale:{x:0,y:0},skew:{x:0,y:0},rotate:0};i[0][0]/=o,i[0][1]/=o;var u=r[0]*r[3]-r[1]*r[2]<0;u&&(o=-o);var a=i[0][0]*i[1][0]+i[0][1]*i[1][1];i[1][0]-=i[0][0]*a,i[1][1]-=i[0][1]*a;var l=rt(i[1][0]*i[1][0]+i[1][1]*i[1][1]);if(0===l)return{origin:{x:r[4],y:r[5]},translate:{x:t,y:n},scale:{x:o,y:0},skew:{x:0,y:0},rotate:0};i[1][0]/=l,i[1][1]/=l,a/=l;var f=0;return i[1][1]<0?(f=J(i[1][1])*nt,i[0][1]<0&&(f=360-f)):f=K(i[0][1])*nt,u&&(f=-f),a=X(a,rt(i[0][0]*i[0][0]+i[0][1]*i[0][1]))*nt,{origin:{x:r[4],y:r[5]},translate:{x:t,y:n},scale:{x:o,y:l},skew:{x:a,y:0},rotate:f}}},{key:"toString",value:function(){return null===this.s&&(this.s="matrix("+this.m.map(ot).join(" ")+")"),this.s}},{key:"determinant",get:function(){var t=this.m;return t[0]*t[3]-t[1]*t[2]}},{key:"isIdentity",get:function(){if(null===this.i){var t=this.m;this.i=1===t[0]&&0===t[1]&&0===t[2]&&1===t[3]&&0===t[4]&&0===t[5]}return this.i}}]),t}(),it=/\.0+$/;function ot(t){return Number.isInteger(t)?t:t.toFixed(14).replace(it,"")}Object.freeze({M:2,L:2,Z:0,H:1,V:1,C:6,Q:4,T:2,S:4,A:7});function ut(t,n,r){return t+(n-t)*r}function at(t,n,r){var e=arguments.length>3&&void 0!==arguments[3]&&arguments[3],i={x:ut(t.x,n.x,r),y:ut(t.y,n.y,r)};return e&&(i.a=lt(t,n)),i}function lt(t,n){return Math.atan2(n.y-t.y,n.x-t.x)}function ft(t,n,r,e){var i=1-e;return i*i*t+2*i*e*n+e*e*r}function st(t,n,r,e){return 2*(1-e)*(n-t)+2*e*(r-n)}function ct(t,n,r,e){var i=arguments.length>4&&void 0!==arguments[4]&&arguments[4],o={x:ft(t.x,n.x,r.x,e),y:ft(t.y,n.y,r.y,e)};return i&&(o.a=ht(t,n,r,e)),o}function ht(t,n,r,e){return Math.atan2(st(t.y,n.y,r.y,e),st(t.x,n.x,r.x,e))}function vt(t,n,r,e,i){var o=i*i;return i*o*(e-t+3*(n-r))+3*o*(t+r-2*n)+3*i*(n-t)+t}function yt(t,n,r,e,i){var o=1-i;return 3*(o*o*(n-t)+2*o*i*(r-n)+i*i*(e-r))}function dt(t,n,r,e,i){var o=arguments.length>5&&void 0!==arguments[5]&&arguments[5],u={x:vt(t.x,n.x,r.x,e.x,i),y:vt(t.y,n.y,r.y,e.y,i)};return o&&(u.a=gt(t,n,r,e,i)),u}function gt(t,n,r,e,i){return Math.atan2(yt(t.y,n.y,r.y,e.y,i),yt(t.x,n.x,r.x,e.x,i))}function pt(t,n,r){var e=arguments.length>3&&void 0!==arguments[3]&&arguments[3];if(bt(n)){if(wt(r))return ct(n,r.start,r,t,e)}else if(bt(r)){if(n.end)return ct(n,n.end,r,t,e)}else{if(n.end)return r.start?dt(n,n.end,r.start,r,t,e):ct(n,n.end,r,t,e);if(r.start)return ct(n,r.start,r,t,e)}return at(n,r,t,e)}function mt(t,n,r){var e=pt(t,n,r,!0);return e.a=function(t){var n=arguments.length>1&&void 0!==arguments[1]&&arguments[1];return n?t+Math.PI:t}(e.a)/p,e}function bt(t){return!t.type||"corner"===t.type}function wt(t){return null!=t.start&&!bt(t)}var kt=new et;var xt={f:$,i:b},At={f:$,i:function(t,n,r){var e=b(t,n,r);return e<=0?0:e>=1?1:e}};function _t(t,n,r,e,i,o,u,a){return n=function(t,n,r){for(var e,i,o,u=t.length-1,a={},l=0;l<=u;l++)(e=t[l]).e&&(e.e=n(e.e)),e.v&&"g"===(i=e.v).t&&i.r&&(o=r.getElementById(i.r))&&(a[i.r]=o.querySelectorAll("stop"));return a}(t,e,a),function(e){var i,o=r(e,t,St);return o?"c"===o.t?H(o.v):"g"===o.t?(n[o.r]&&function(t,n){for(var r=0,e=t.length;r<e;r++)t[r].setAttribute("stop-color",H(n[r]))}(n[o.r],o.v),(i=o.r)?"url(#"+i+")":"none"):"none":"none"}}function St(t,n,r){if(0===t)return n;if(1===t)return r;if(n&&r){var e=n.t;if(e===r.t)switch(n.t){case"c":return{t:e,v:A(t,n.v,r.v)};case"g":if(n.r===r.r)return{t:e,v:_(t,n.v,r.v),r:n.r}}}return m(t,n,r)}var Ot={fill:_t,"fill-opacity":At,stroke:_t,"stroke-opacity":At,"stroke-width":xt,"stroke-dashoffset":{f:$,i:b},"stroke-dasharray":{f:function(t){var n=arguments.length>1&&void 0!==arguments[1]?arguments[1]:" ";return t&&t.length>0&&(t=t.map((function(t){return Math.floor(1e4*t)/1e4}))),G(t,n)},i:function(t,n,r){var e,i,o,u=n.length,a=r.length;if(u!==a)if(0===u)n=S(u=a,0);else if(0===a)a=u,r=S(u,0);else{var l=(o=(e=u)*(i=a)/function(t,n){for(var r;n;)r=n,n=t%n,t=r;return t||1}(e,i))<0?-o:o;n=O(n,Math.floor(l/u)),r=O(r,Math.floor(l/a)),u=a=l}for(var f=[],s=0;s<u;s++)f.push(g(w(t,n[s],r[s]),6));return f}},opacity:At,transform:function(n,r,e,i){if(!(n=function(n,r){if(!n||"object"!==t(n))return null;var e=!1;for(var i in n)n.hasOwnProperty(i)&&(n[i]&&n[i].length?(n[i].forEach((function(t){t.e&&(t.e=r(t.e))})),e=!0):delete n[i]);return e?n:null}(n,i)))return null;var o=function(t,i,o){var u=arguments.length>3&&void 0!==arguments[3]?arguments[3]:null;return n[t]?e(i,n[t],o):r&&r[t]?r[t]:u};return r&&r.a&&n.o?function(t){var r=e(t,n.o,mt);return kt.recomposeSelf(r,o("r",t,b,0)+r.a,o("k",t,k),o("s",t,k),o("t",t,k)).toString()}:function(t){return kt.recomposeSelf(o("o",t,pt,null),o("r",t,b,0),o("k",t,k),o("s",t,k),o("t",t,k)).toString()}},r:xt,"#size":U,"#radius":Q,_:function(t,n){if(Array.isArray(t))for(var r=0;r<t.length;r++)this[t[r]]=n;else this[t]=n}};return function(t){!function(t,n){if("function"!=typeof n&&null!==n)throw new TypeError("Super expression must either be null or a function");t.prototype=Object.create(n&&n.prototype,{constructor:{value:t,writable:!0,configurable:!0}}),n&&o(t,n)}(u,t);var r=a(u);function u(){return n(this,u),r.apply(this,arguments)}return e(u,null,[{key:"build",value:function(t){var n=l(i(u),"build",this).call(this,t,Ot),r=(n.el,n.options,n.player);return function(t){t.play()}(r),r}}]),u}(L)}));
__SVGATOR_PLAYER__.build({"root":"e1om7uudqg2r1","animations":[{"duration":4000,"direction":1,"iterations":0,"fill":1,"alternate":false,"elements":{"e1om7uudqg2r4":{"transform":{"data":{"t":{"x":-95.72565841674805,"y":-443.4681396484375}},"keys":{"o":[{"t":0,"v":{"x":95.72565841674805,"y":443.4681396484375,"type":"corner"},"e":[0.42,0,0.58,1]},{"t":1000,"v":{"x":95.72565841674805,"y":417.67521309843744,"type":"corner"},"e":[0.42,0,0.58,1]},{"t":2000,"v":{"x":95.72565841674805,"y":443.4681396484375,"type":"corner"},"e":[0.42,0,0.58,1]},{"t":3000,"v":{"x":95.72565841674805,"y":417.67521309843744,"type":"corner"},"e":[0.42,0,0.58,1]},{"t":4000,"v":{"x":95.72565841674805,"y":443.4681396484375,"type":"corner"},"e":[0.42,0,0.58,1]}]}}},"e1om7uudqg2r42":{"transform":{"data":{"o":{"x":396.19166564941406,"y":144.15441131591797,"type":"corner"},"t":{"x":-396.19166564941406,"y":-144.15441131591797}},"keys":{"s":[{"t":0,"v":{"x":1,"y":1},"e":[0.42,0,0.58,1]},{"t":2000,"v":{"x":1.05,"y":1.05},"e":[0.42,0,0.58,1]},{"t":4000,"v":{"x":1,"y":1},"e":[0.42,0,0.58,1]}]}}},"e1om7uudqg2r43":{"transform":{"data":{"o":{"x":221.8372573852539,"y":92.15227484703064,"type":"corner"},"t":{"x":-221.8372573852539,"y":-92.15227484703064}},"keys":{"s":[{"t":0,"v":{"x":1,"y":1},"e":[0.42,0,0.58,1]},{"t":2000,"v":{"x":0.9500000000000001,"y":0.9500000000000001},"e":[0.42,0,0.58,1]},{"t":4000,"v":{"x":1,"y":1},"e":[0.42,0,0.58,1]}]}}},"e1om7uudqg2r44":{"transform":{"data":{"o":{"x":303.03041076660156,"y":290.6427307128906,"type":"corner"},"t":{"x":-303.03041076660156,"y":-290.6427307128906}},"keys":{"s":[{"t":0,"v":{"x":1,"y":1},"e":[0.42,0,0.58,1]},{"t":2000,"v":{"x":0.9,"y":0.9},"e":[0.42,0,0.58,1]},{"t":4000,"v":{"x":1,"y":1},"e":[0.42,0,0.58,1]}]}}},"e1om7uudqg2r45":{"transform":{"data":{"t":{"x":-378.9930725097656,"y":-287.8967971801758}},"keys":{"o":[{"t":0,"v":{"x":378.9930725097656,"y":287.8967971801758,"type":"corner"},"e":[0.42,0,0.58,1]},{"t":2000,"v":{"x":378.9930725097656,"y":309.150390710176,"type":"corner"},"e":[0.42,0,0.58,1]},{"t":4000,"v":{"x":378.9930725097656,"y":287.8967971801758,"type":"corner"},"e":[0.42,0,0.58,1]}]}}},"e1om7uudqg2r72":{"transform":{"data":{"o":{"x":345.9184875488281,"y":165.68099975585938,"type":"corner"},"t":{"x":-345.9184875488281,"y":-165.68099975585938}},"keys":{"s":[{"t":0,"v":{"x":1,"y":1},"e":[0.42,0,0.58,1]},{"t":1000,"v":{"x":0.9,"y":0.9},"e":[0.42,0,0.58,1]},{"t":2000,"v":{"x":1,"y":1},"e":[0.42,0,0.58,1]},{"t":3000,"v":{"x":0.9,"y":0.9},"e":[0.42,0,0.58,1]},{"t":4000,"v":{"x":1,"y":1},"e":[0.42,0,0.58,1]}]}}},"e1om7uudqg2r77":{"transform":{"data":{"o":{"x":156.28903198242188,"y":297.99805450439453,"type":"corner"},"t":{"x":-156.28903198242188,"y":-297.99805450439453}},"keys":{"s":[{"t":0,"v":{"x":1,"y":1},"e":[0.42,0,0.58,1]},{"t":1000,"v":{"x":1.1,"y":1.1},"e":[0.42,0,0.58,1]},{"t":2000,"v":{"x":1,"y":1},"e":[0.42,0,0.58,1]},{"t":3000,"v":{"x":1.1,"y":1.1},"e":[0.42,0,0.58,1]},{"t":4000,"v":{"x":1,"y":1},"e":[0.42,0,0.58,1]}]}}}}}],"options":{"start":"load","hover":"freeze","click":"freeze","scroll":25,"exportedIds":"unique","title":"About Us History"},"animationSettings":{"duration":4000,"direction":1,"iterations":0,"fill":1,"alternate":false}})]]></script></svg>