<svg id="ej32f9mbqbac1" xmlns="http://www.w3.org/2000/svg" xmlns:xlink="http://www.w3.org/1999/xlink" viewBox="0 0 770 654" shape-rendering="geometricPrecision" text-rendering="geometricPrecision"><defs><linearGradient id="ej32f9mbqbac2-fill" x1="366.646000" y1="195.149000" x2="525.576000" y2="195.149000" spreadMethod="pad" gradientUnits="userSpaceOnUse"><stop id="ej32f9mbqbac2-fill-0" offset="0%" stop-color="rgb(239,152,129)"/><stop id="ej32f9mbqbac2-fill-1" offset="100%" stop-color="rgb(255,94,54)"/></linearGradient><linearGradient id="ej32f9mbqbac16-fill" x1="547.586000" y1="523.697000" x2="553.606000" y2="523.697000" spreadMethod="pad" gradientUnits="userSpaceOnUse"><stop id="ej32f9mbqbac16-fill-0" offset="0%" stop-color="rgb(239,152,129)"/><stop id="ej32f9mbqbac16-fill-1" offset="100%" stop-color="rgb(255,94,54)"/></linearGradient><linearGradient id="ej32f9mbqbac19-fill" x1="474.508000" y1="419.335000" x2="526.680000" y2="419.335000" spreadMethod="pad" gradientUnits="userSpaceOnUse"><stop id="ej32f9mbqbac19-fill-0" offset="0%" stop-color="rgb(45,13,178)"/><stop id="ej32f9mbqbac19-fill-1" offset="100%" stop-color="rgba(41,217,225,0.9)"/></linearGradient><linearGradient id="ej32f9mbqbac30-fill" x1="751.226000" y1="630.588000" x2="680.326000" y2="628.089000" spreadMethod="pad" gradientUnits="userSpaceOnUse"><stop id="ej32f9mbqbac30-fill-0" offset="0%" stop-color="rgb(41,217,225)"/><stop id="ej32f9mbqbac30-fill-1" offset="100%" stop-color="rgb(45,13,178)"/></linearGradient><linearGradient id="ej32f9mbqbac44-fill" x1="137.714000" y1="202.927000" x2="411.603000" y2="202.927000" spreadMethod="pad" gradientUnits="userSpaceOnUse"><stop id="ej32f9mbqbac44-fill-0" offset="0%" stop-color="rgb(45,13,178)"/><stop id="ej32f9mbqbac44-fill-1" offset="100%" stop-color="rgba(41,217,225,0.9)"/></linearGradient><linearGradient id="ej32f9mbqbac73-fill" x1="284.925000" y1="458.677000" x2="361.862000" y2="456.558000" spreadMethod="pad" gradientUnits="userSpaceOnUse"><stop id="ej32f9mbqbac73-fill-0" offset="0%" stop-color="rgb(41,217,225)"/><stop id="ej32f9mbqbac73-fill-1" offset="100%" stop-color="rgb(45,13,178)"/></linearGradient><linearGradient id="ej32f9mbqbac75-fill" x1="216.679000" y1="479.572000" x2="305.950000" y2="477.522000" spreadMethod="pad" gradientUnits="userSpaceOnUse"><stop id="ej32f9mbqbac75-fill-0" offset="0%" stop-color="rgb(41,217,225)"/><stop id="ej32f9mbqbac75-fill-1" offset="100%" stop-color="rgb(45,13,178)"/></linearGradient></defs><path id="ej32f9mbqbac2" d="M511.977000,189.033000C512.519000,195.061000,512.248000,201.089000,511.231000,206.909000L524.041000,217.025000L512.722000,241.900000L496.863000,238.436000C493.135000,243.009000,488.865000,247.097000,483.985000,250.561000L486.086000,266.983000L460.874000,276.406000L452.063000,262.479000C446.166000,263.033000,440.270000,262.756000,434.577000,261.717000L424.681000,274.812000L400.350000,263.311000L403.739000,247.097000C399.266000,243.286000,395.267000,238.921000,391.878000,233.932000L375.815000,236.080000L366.665000,210.235000L380.288000,201.228000C379.746000,195.199000,380.017000,189.171000,381.034000,183.351000L368.156000,173.235000L379.475000,148.360000L395.335000,151.824000C399.062000,147.251000,403.332000,143.163000,408.212000,139.699000L406.179000,123.277000L431.391000,113.854000L440.202000,127.781000C446.099000,127.227000,451.995000,127.504000,457.688000,128.543000L467.583000,115.448000L491.915000,127.019000L488.526000,143.233000C492.999000,147.043000,496.998000,151.409000,500.387000,156.397000L516.450000,154.250000L525.667000,180.025000L511.977000,189.033000ZM473.548000,186.192000C468.058000,170.948000,451.588000,163.049000,436.610000,168.662000C421.699000,174.274000,413.973000,191.111000,419.463000,206.424000C424.953000,221.668000,441.422000,229.567000,456.400000,223.954000C471.379000,218.342000,479.038000,201.505000,473.548000,186.192000Z" opacity="0.2" clip-rule="evenodd" fill="url(#ej32f9mbqbac2-fill)" fill-rule="evenodd" stroke="none" stroke-width="1"/><path id="ej32f9mbqbac3" d="M500.185000,49.680300C500.524000,53.699000,500.388000,57.648500,499.710000,61.459400L508.182000,68.180400L500.727000,84.601900L490.222000,82.315400C487.782000,85.294800,484.935000,87.997100,481.682000,90.352900L483.038000,101.231000L466.365000,107.467000L460.536000,98.251900C456.605000,98.598300,452.742000,98.459800,449.014000,97.766900L442.440000,106.428000L426.377000,98.806200L428.614000,88.066400C425.699000,85.572000,423.056000,82.661800,420.820000,79.336000L410.179000,80.721800L404.079000,63.676600L413.093000,57.717800C412.754000,53.699000,412.890000,49.749500,413.568000,45.938600L405.096000,39.217600L412.551000,22.796100L423.056000,25.082600C425.496000,22.103200,428.343000,19.400900,431.596000,17.114400L430.240000,6.236020L446.913000,0L452.742000,9.215440C456.673000,8.869000,460.536000,9.007580,464.264000,9.700470L470.838000,1.039340L486.901000,8.661130L484.596000,19.400900C487.511000,21.895300,490.154000,24.805500,492.391000,28.131400L503.031000,26.745600L509.131000,43.790700L500.185000,49.680300ZM474.769000,47.809500C471.177000,37.693200,460.265000,32.565900,450.370000,36.238200C440.475000,39.910500,435.459000,51.066000,439.051000,61.182200C442.643000,71.298400,453.555000,76.425800,463.450000,72.753500C473.346000,69.011900,478.361000,57.856400,474.769000,47.809500Z" opacity="0.15" clip-rule="evenodd" fill="rgb(41,217,225)" fill-rule="evenodd" stroke="none" stroke-width="1"/><path id="ej32f9mbqbac4" d="M612.549000,128.751000C612.888000,132.354000,612.685000,135.957000,612.075000,139.422000L619.734000,145.450000L612.956000,160.278000L603.467000,158.199000C601.231000,160.901000,598.655000,163.326000,595.809000,165.405000L597.096000,175.313000L582.050000,180.926000L576.831000,172.611000C573.307000,172.957000,569.783000,172.750000,566.394000,172.126000L560.498000,179.956000L545.994000,173.027000L548.027000,163.326000C545.384000,161.040000,543.011000,158.407000,540.978000,155.497000L531.354000,156.744000L525.864000,141.362000L533.997000,136.026000C533.658000,132.423000,533.862000,128.820000,534.472000,125.356000L526.813000,119.328000L533.591000,104.500000L543.079000,106.579000C545.316000,103.876000,547.891000,101.451000,550.738000,99.372500L549.518000,89.533500L564.564000,83.921100L569.783000,92.235800C573.307000,91.889300,576.831000,92.097200,580.220000,92.720800L586.117000,84.891100L600.621000,91.820000L598.587000,101.520000C601.231000,103.807000,603.603000,106.440000,605.636000,109.350000L615.260000,108.103000L620.750000,123.485000L612.549000,128.751000ZM589.641000,127.088000C586.388000,117.942000,576.493000,113.300000,567.614000,116.626000C558.668000,119.951000,554.127000,130.068000,557.380000,139.144000C560.633000,148.291000,570.528000,152.933000,579.407000,149.607000C588.286000,146.281000,592.894000,136.234000,589.641000,127.088000Z" opacity="0.1" clip-rule="evenodd" fill="rgb(45,13,178)" fill-rule="evenodd" stroke="none" stroke-width="1"/><path id="ej32f9mbqbac5" d="M199.083000,419.155000C199.542000,424.500000,199.358000,429.938000,198.441000,435.095000L209.910000,444.191000L199.817000,466.413000L185.595000,463.319000C182.292000,467.351000,178.438000,471.008000,174.126000,474.102000L175.961000,488.823000L153.390000,497.262000L145.499000,484.792000C140.177000,485.260000,134.947000,485.073000,129.901000,484.135000L121.001000,495.856000L99.254900,485.542000L102.283000,471.008000C98.337400,467.632000,94.759000,463.694000,91.731100,459.287000L77.325800,461.162000L69.068000,438.096000L81.271200,430.032000C80.812400,424.594000,80.996000,419.249000,81.913500,414.092000L70.444300,404.997000L80.537200,382.774000L94.759000,385.868000C98.062100,381.836000,101.916000,378.179000,106.228000,375.085000L104.393000,360.364000L126.965000,351.925000L134.855000,364.396000C140.177000,363.927000,145.407000,364.114000,150.453000,365.052000L159.354000,353.331000L181.099000,363.646000L178.071000,378.179000C182.017000,381.555000,185.595000,385.493000,188.623000,389.900000L203.028000,388.025000L211.286000,411.091000L199.083000,419.155000ZM164.767000,416.623000C159.904000,403.027000,145.132000,395.995000,131.736000,400.965000C118.431000,405.934000,111.550000,421.031000,116.413000,434.720000C121.276000,448.410000,136.048000,455.349000,149.444000,450.379000C162.840000,445.410000,169.630000,430.313000,164.767000,416.623000Z" opacity="0.15" clip-rule="evenodd" fill="rgb(41,217,225)" fill-rule="evenodd" stroke="none" stroke-width="1"/><g id="ej32f9mbqbac6" opacity="0.07"><path id="ej32f9mbqbac7" d="M716.593000,563.805000C725.878000,630.877000,499.507000,674.598000,304.652000,644.111000C109.864000,613.555000,20.468100,494.308000,113.456000,430.839000C206.377000,367.301000,707.240000,496.733000,716.593000,563.805000Z" opacity="0.6" fill="rgb(45,13,178)" stroke="none" stroke-width="1"/></g><g id="ej32f9mbqbac8"><path id="ej32f9mbqbac9" d="M631.738000,161.166000L441.084000,161.166000C435.188000,161.166000,430.444000,166.086000,430.444000,172.114000L430.444000,562.281000C430.444000,568.309000,435.188000,573.228000,441.084000,573.228000L631.738000,573.228000C637.634000,573.228000,642.378000,568.309000,642.378000,562.281000L642.378000,172.114000C642.378000,166.086000,637.634000,161.166000,631.738000,161.166000Z" fill="rgb(40,35,79)" stroke="none" stroke-width="1"/><path id="ej32f9mbqbac10" d="M621.707000,173.153000L451.047000,173.153000C445.761000,173.153000,441.491000,177.726000,441.491000,183.408000L441.491000,550.848000C441.491000,556.530000,445.761000,561.103000,451.047000,561.103000L621.707000,561.103000C626.993000,561.103000,631.263000,556.530000,631.263000,550.848000L631.263000,183.477000C631.263000,177.796000,626.993000,173.153000,621.707000,173.153000Z" fill="rgb(255,255,255)" stroke="none" stroke-width="1"/><path id="ej32f9mbqbac11" d="M518.349000,189.853000C519.840000,189.853000,520.992000,188.605000,520.992000,187.150000C520.992000,185.625000,519.772000,184.447000,518.349000,184.447000C516.858000,184.447000,515.706000,185.695000,515.706000,187.150000C515.706000,188.605000,516.926000,189.853000,518.349000,189.853000Z" fill="rgb(45,13,178)" stroke="none" stroke-width="1"/><path id="ej32f9mbqbac12" d="M553.050000,184.378000L530.413000,184.378000C528.922000,184.378000,527.770000,185.626000,527.770000,187.081000C527.770000,188.605000,528.990000,189.783000,530.413000,189.783000L553.050000,189.783000C554.541000,189.783000,555.693000,188.536000,555.693000,187.081000C555.693000,185.626000,554.541000,184.378000,553.050000,184.378000Z" fill="rgb(45,13,178)" stroke="none" stroke-width="1"/><path id="ej32f9mbqbac13" d="M511.436000,522.162000C511.436000,520.430000,510.080000,519.113000,508.454000,519.113000C506.759000,519.113000,505.471000,520.499000,505.471000,522.162000L505.471000,541.702000C505.471000,543.434000,506.827000,544.751000,508.454000,544.751000C510.148000,544.751000,511.436000,543.365000,511.436000,541.702000L511.436000,522.162000Z" fill="rgb(227,232,255)" stroke="none" stroke-width="1"/><path id="ej32f9mbqbac14" d="M525.533000,505.741000C525.533000,504.009000,524.178000,502.692000,522.551000,502.692000C520.924000,502.692000,519.569000,504.078000,519.569000,505.741000L519.569000,541.702000C519.569000,543.434000,520.924000,544.751000,522.551000,544.751000C524.178000,544.751000,525.533000,543.365000,525.533000,541.702000L525.533000,505.741000Z" fill="rgb(227,255,255)" stroke="none" stroke-width="1"/><path id="ej32f9mbqbac15" d="M539.563000,497.496000C539.563000,495.763000,538.207000,494.447000,536.581000,494.447000C534.954000,494.447000,533.598000,495.833000,533.598000,497.496000L533.598000,541.633000C533.598000,543.365000,534.954000,544.681000,536.581000,544.681000C538.207000,544.681000,539.563000,543.296000,539.563000,541.633000L539.563000,497.496000Z" fill="rgb(204,216,255)" stroke="none" stroke-width="1"/><path id="ej32f9mbqbac16" d="M553.592000,505.741000C553.592000,504.009000,552.237000,502.692000,550.610000,502.692000C548.916000,502.692000,547.628000,504.078000,547.628000,505.741000L547.628000,541.702000C547.628000,543.434000,548.983000,544.751000,550.610000,544.751000C552.304000,544.751000,553.592000,543.365000,553.592000,541.702000L553.592000,505.741000Z" opacity="0.25" fill="url(#ej32f9mbqbac16-fill)" stroke="none" stroke-width="1"/><path id="ej32f9mbqbac17" d="M567.622000,489.319000C567.622000,487.587000,566.266000,486.270000,564.640000,486.270000C563.013000,486.270000,561.658000,487.656000,561.658000,489.319000L561.658000,541.702000C561.658000,543.434000,563.013000,544.751000,564.640000,544.751000C566.266000,544.751000,567.622000,543.365000,567.622000,541.702000L567.622000,489.319000Z" fill="rgb(227,232,255)" stroke="none" stroke-width="1"/><path id="ej32f9mbqbac18" d="M616.081000,367.371000L457.012000,367.371000C454.165000,367.371000,451.861000,371.805000,451.861000,377.279000L451.861000,461.396000C451.861000,466.870000,454.165000,471.304000,457.012000,471.304000L616.081000,471.304000C618.928000,471.304000,621.232000,466.870000,621.232000,461.396000L621.232000,377.279000C621.300000,371.805000,618.928000,367.371000,616.081000,367.371000Z" fill="rgb(255,255,255)" stroke="rgb(227,232,255)" stroke-width="1.326500" stroke-miterlimit="10"/><path id="ej32f9mbqbac19" d="M512.385000,426.682000C510.487000,428.761000,507.708000,430.077000,504.658000,430.077000C498.829000,430.077000,494.085000,425.227000,494.085000,419.268000C494.085000,413.309000,498.829000,408.459000,504.658000,408.459000L504.658000,388.435000C488.053000,388.435000,474.430000,402.292000,474.430000,419.268000C474.430000,436.175000,488.053000,450.102000,504.658000,450.102000C513.401000,450.102000,521.263000,446.360000,526.617000,440.332000L512.385000,426.682000Z" opacity="0.7" fill="url(#ej32f9mbqbac19-fill)" stroke="none" stroke-width="1"/><path id="ej32f9mbqbac20" d="M504.590000,388.504000L504.590000,408.528000C510.419000,408.528000,515.096000,413.378000,515.096000,419.337000L534.683000,419.337000C534.683000,402.431000,521.128000,388.504000,504.590000,388.504000Z" fill="rgb(204,216,255)" stroke="none" stroke-width="1"/><path id="ej32f9mbqbac21" d="M514.757000,419.338000C514.757000,422.802000,513.130000,425.920000,510.622000,427.929000L522.957000,443.935000C530.142000,438.184000,534.750000,429.315000,534.750000,419.268000L514.757000,419.268000L514.757000,419.338000Z" fill="rgb(176,255,255)" stroke="none" stroke-width="1"/><path id="ej32f9mbqbac22" d="M602.662000,398.620000L555.083000,398.620000C554.406000,398.620000,552.915000,399.798000,552.915000,401.184000L552.915000,402.986000C552.915000,404.372000,554.406000,405.550000,556.236000,405.550000L603.814000,405.550000C605.644000,405.550000,607.135000,404.372000,607.135000,402.986000L607.135000,401.184000C607.067000,399.798000,605.576000,398.620000,602.662000,398.620000Z" fill="rgb(227,232,255)" stroke="none" stroke-width="1"/><path id="ej32f9mbqbac23" d="M602.662000,414.418000L555.083000,414.418000C554.406000,414.418000,552.915000,415.596000,552.915000,416.982000L552.915000,418.784000C552.915000,420.170000,554.406000,421.348000,556.236000,421.348000L603.814000,421.348000C605.644000,421.348000,607.135000,420.170000,607.135000,418.784000L607.135000,416.982000C607.067000,415.596000,605.576000,414.418000,602.662000,414.418000Z" fill="rgb(227,232,255)" stroke="none" stroke-width="1"/><path id="ej32f9mbqbac24" d="M602.662000,430.285000L555.083000,430.285000C554.406000,430.285000,552.915000,431.463000,552.915000,432.849000L552.915000,434.651000C552.915000,436.037000,554.406000,437.215000,556.236000,437.215000L603.814000,437.215000C605.644000,437.215000,607.135000,436.037000,607.135000,434.651000L607.135000,432.849000C607.067000,431.394000,605.576000,430.285000,602.662000,430.285000Z" fill="rgb(227,232,255)" stroke="none" stroke-width="1"/><path id="ej32f9mbqbac25" d="M567.825000,327.183000L510.487000,327.183000C509.606000,327.183000,507.844000,328.361000,507.844000,329.747000L507.844000,331.549000C507.844000,332.934000,509.606000,334.113000,511.842000,334.113000L569.181000,334.113000C571.417000,334.113000,573.179000,332.934000,573.179000,331.549000L573.179000,329.747000C573.179000,328.361000,571.349000,327.183000,567.825000,327.183000Z" fill="rgb(227,232,255)" stroke="none" stroke-width="1"/><path id="ej32f9mbqbac26" d="M575.890000,343.604000L501.540000,343.604000C500.456000,343.604000,498.084000,344.782000,498.084000,346.168000L498.084000,347.970000C498.084000,349.356000,500.388000,350.534000,503.302000,350.534000L577.652000,350.534000C580.499000,350.534000,582.871000,349.356000,582.871000,347.970000L582.871000,346.168000C582.871000,344.782000,580.499000,343.604000,575.890000,343.604000Z" fill="rgb(227,232,255)" stroke="none" stroke-width="1"/><path id="ej32f9mbqbac27" d="M539.698000,223.457000C515.909000,223.457000,496.593000,243.205000,496.593000,267.525000C496.593000,291.846000,515.909000,311.593000,539.698000,311.593000C563.487000,311.593000,582.804000,291.846000,582.804000,267.525000C582.804000,243.205000,563.487000,223.457000,539.698000,223.457000ZM539.698000,236.691000C546.882000,236.691000,552.643000,242.581000,552.643000,249.926000C552.643000,257.270000,546.882000,263.160000,539.698000,263.160000C532.514000,263.160000,526.753000,257.270000,526.753000,249.926000C526.753000,242.581000,532.514000,236.691000,539.698000,236.691000ZM539.698000,299.329000C528.922000,299.329000,519.365000,293.716000,513.808000,285.124000C513.943000,276.325000,531.091000,271.544000,539.698000,271.544000C548.306000,271.544000,565.453000,276.325000,565.589000,285.124000C560.031000,293.647000,550.475000,299.329000,539.698000,299.329000Z" fill="rgb(58,82,204)" stroke="none" stroke-width="1"/><path id="ej32f9mbqbac28" d="M489.950000,269.604000C490.999000,269.604000,491.848000,268.798000,491.848000,267.803000C491.848000,266.808000,490.999000,266.001000,489.950000,266.001000C488.902000,266.001000,488.053000,266.808000,488.053000,267.803000C488.053000,268.798000,488.902000,269.604000,489.950000,269.604000Z" fill="rgb(41,217,225)" stroke="none" stroke-width="1"/></g><path id="ej32f9mbqbac29" d="M671.454000,445.321000C686.026000,470.403000,703.038000,494.655000,713.272000,522.024000C712.865000,518.767000,712.391000,515.580000,711.916000,512.323000C709.341000,495.278000,706.087000,478.302000,702.699000,461.396000C701.004000,452.804000,699.174000,444.212000,697.277000,435.620000C696.260000,430.978000,695.311000,426.405000,694.227000,421.762000C693.956000,420.654000,693.752000,418.714000,693.481000,416.704000C703.376000,450.032000,713.001000,483.360000,719.981000,517.451000C720.930000,521.954000,721.676000,526.389000,722.354000,530.893000C722.557000,529.853000,722.760000,528.883000,723.031000,527.844000C725.878000,515.649000,730.080000,503.593000,735.163000,492.229000C737.603000,486.756000,740.382000,481.490000,743.635000,476.501000C745.668000,473.383000,750.481000,469.711000,752.310000,466.592000C742.144000,485.716000,738.484000,509.552000,732.588000,530.338000C731.164000,535.396000,729.741000,540.455000,728.318000,545.513000C737.196000,527.359000,750.887000,512.393000,770,505.949000C746.888000,521.608000,732.994000,548.977000,723.641000,576.970000C723.641000,577.316000,723.574000,577.663000,723.574000,577.940000C726.352000,572.605000,729.809000,567.754000,734.485000,564.359000C744.516000,557.084000,755.699000,559.232000,765.459000,565.468000C757.800000,560.479000,743.974000,565.052000,737.535000,570.110000C732.927000,573.713000,728.996000,578.564000,725.539000,583.344000C724.726000,584.453000,723.574000,585.839000,722.421000,587.225000C720.795000,598.242000,718.084000,609.189000,714.221000,619.998000C714.831000,616.880000,714.424000,611.892000,714.559000,609.605000C714.559000,609.328000,714.627000,609.120000,714.627000,608.843000C714.017000,611.199000,713.475000,613.554000,712.933000,615.841000C714.017000,611.407000,714.559000,606.833000,715.034000,602.191000C715.169000,600.182000,715.237000,598.172000,715.373000,596.232000C715.305000,592.421000,715.169000,588.610000,714.898000,584.800000C714.017000,581.127000,712.933000,577.594000,712.119000,574.683000C709.070000,564.221000,704.596000,554.174000,699.107000,544.820000C694.091000,536.297000,688.059000,528.537000,681.146000,521.539000C677.418000,517.797000,673.487000,514.194000,669.624000,510.522000C668.201000,509.205000,665.761000,505.949000,663.592000,504.286000C679.316000,513.155000,695.447000,522.717000,706.901000,536.990000C705.545000,531.724000,704.122000,526.527000,702.563000,521.400000C694.837000,495.555000,684.941000,468.740000,671.454000,445.321000Z" opacity="0.2" fill="rgb(41,217,225)" stroke="none" stroke-width="1"/><path id="ej32f9mbqbac30" d="M687.110000,587.225000C687.110000,615.980000,689.347000,639.261000,719.168000,639.261000C748.989000,639.261000,751.226000,615.980000,751.226000,587.225000" fill="url(#ej32f9mbqbac30-fill)" stroke="none" stroke-width="1"/><path id="ej32f9mbqbac31" d="M379.273000,22.241800L170.049000,22.241800C163.611000,22.241800,158.324000,27.577100,158.324000,34.228800L158.324000,462.504000C158.324000,469.087000,163.543000,474.491000,170.049000,474.491000L379.273000,474.491000C385.712000,474.491000,390.998000,469.156000,390.998000,462.504000L390.998000,34.228800C390.998000,27.577100,385.779000,22.241800,379.273000,22.241800Z" fill="rgb(40,35,79)" stroke="none" stroke-width="1"/><path id="ej32f9mbqbac32" d="M369.107000,33.536000L180.148000,33.536000C174.319000,33.536000,169.575000,38.663400,169.575000,44.899400L169.575000,451.765000C169.575000,458.070000,174.319000,463.128000,180.148000,463.128000L369.107000,463.128000C374.935000,463.128000,379.680000,458.001000,379.680000,451.765000L379.680000,44.899400C379.680000,38.663400,375.003000,33.536000,369.107000,33.536000Z" fill="rgb(255,255,255)" stroke="none" stroke-width="1"/><path id="ej32f9mbqbac33" d="M254.904000,53.561200C256.531000,53.561200,257.819000,52.244600,257.819000,50.581400C257.819000,48.918300,256.531000,47.601600,254.904000,47.601600C253.278000,47.601600,251.990000,48.918300,251.990000,50.581400C251.990000,52.244600,253.278000,53.561200,254.904000,53.561200Z" fill="rgb(45,13,178)" stroke="none" stroke-width="1"/><path id="ej32f9mbqbac34" d="M292.926000,47.601600L268.053000,47.601600C266.426000,47.601600,265.138000,48.918300,265.138000,50.581400C265.138000,52.244600,266.426000,53.561200,268.053000,53.561200L292.926000,53.561200C294.553000,53.561200,295.841000,52.244600,295.841000,50.581400C295.841000,48.918300,294.553000,47.601600,292.926000,47.601600Z" fill="rgb(45,13,178)" stroke="none" stroke-width="1"/><path id="ej32f9mbqbac35" d="M359.957000,365.777000L189.365000,365.777000C186.315000,365.777000,183.808000,368.341000,183.808000,371.459000L183.808000,419.684000C183.808000,422.802000,186.315000,425.366000,189.365000,425.366000L359.957000,425.366000C363.007000,425.366000,365.514000,422.802000,365.514000,419.684000L365.514000,371.459000C365.514000,368.341000,363.007000,365.777000,359.957000,365.777000Z" fill="rgb(227,232,255)" stroke="none" stroke-width="1"/><path id="ej32f9mbqbac36" d="M334.947000,384.416000L242.095000,384.416000C239.790000,384.416000,237.960000,386.010000,237.960000,387.950000L237.960000,388.297000C237.960000,390.237000,239.790000,391.831000,242.095000,391.831000L335.015000,391.831000C337.320000,391.831000,339.150000,390.237000,339.150000,388.297000L339.150000,387.950000C339.150000,386.010000,337.252000,384.416000,334.947000,384.416000Z" fill="rgb(255,255,255)" stroke="none" stroke-width="1"/><path id="ej32f9mbqbac37" d="M301.670000,399.313000L242.027000,399.313000C239.723000,399.313000,237.893000,400.907000,237.893000,402.847000L237.893000,403.194000C237.893000,405.134000,239.723000,406.728000,242.027000,406.728000L301.670000,406.728000C303.974000,406.728000,305.804000,405.134000,305.804000,403.194000L305.804000,402.847000C305.872000,400.907000,303.974000,399.313000,301.670000,399.313000Z" fill="rgb(255,255,255)" stroke="none" stroke-width="1"/><path id="ej32f9mbqbac38" d="M212.951000,412.616000C222.169000,412.616000,229.624000,404.995000,229.624000,395.571000C229.624000,386.148000,222.169000,378.526000,212.951000,378.526000C203.734000,378.526000,196.279000,386.148000,196.279000,395.571000C196.279000,404.995000,203.734000,412.616000,212.951000,412.616000Z" fill="rgb(255,255,255)" stroke="none" stroke-width="1"/><path id="ej32f9mbqbac39" d="M359.957000,284.709000L189.365000,284.709000C186.315000,284.709000,183.808000,287.273000,183.808000,290.391000L183.808000,338.616000C183.808000,341.734000,186.315000,344.297000,189.365000,344.297000L359.957000,344.297000C363.007000,344.297000,365.514000,341.734000,365.514000,338.616000L365.514000,290.391000C365.514000,287.273000,363.007000,284.709000,359.957000,284.709000Z" fill="rgb(227,232,255)" stroke="none" stroke-width="1"/><path id="ej32f9mbqbac40" d="M334.947000,303.347000L242.095000,303.347000C239.790000,303.347000,237.960000,304.941000,237.960000,306.881000L237.960000,307.228000C237.960000,309.168000,239.790000,310.762000,242.095000,310.762000L335.015000,310.762000C337.320000,310.762000,339.150000,309.168000,339.150000,307.228000L339.150000,306.881000C339.150000,304.941000,337.252000,303.347000,334.947000,303.347000Z" fill="rgb(255,255,255)" stroke="none" stroke-width="1"/><path id="ej32f9mbqbac41" d="M301.670000,318.244000L242.027000,318.244000C239.723000,318.244000,237.893000,319.838000,237.893000,321.779000L237.893000,322.125000C237.893000,324.065000,239.723000,325.659000,242.027000,325.659000L301.670000,325.659000C303.974000,325.659000,305.804000,324.065000,305.804000,322.125000L305.804000,321.779000C305.872000,319.838000,303.974000,318.244000,301.670000,318.244000Z" fill="rgb(255,255,255)" stroke="none" stroke-width="1"/><path id="ej32f9mbqbac42" d="M212.951000,331.548000C222.169000,331.548000,229.624000,323.926000,229.624000,314.503000C229.624000,305.080000,222.169000,297.458000,212.951000,297.458000C203.734000,297.458000,196.279000,305.080000,196.279000,314.503000C196.279000,323.926000,203.734000,331.548000,212.951000,331.548000Z" fill="rgb(255,255,255)" stroke="none" stroke-width="1"/><g id="ej32f9mbqbac43"><path id="ej32f9mbqbac44" d="M403.266000,155.970000L146.057000,155.970000C141.448000,155.970000,137.720000,159.989000,137.720000,164.908000L137.720000,240.987000C137.720000,245.907000,141.448000,249.926000,146.057000,249.926000L403.266000,249.926000C407.874000,249.926000,411.602000,245.907000,411.602000,240.987000L411.602000,164.908000C411.602000,159.919000,407.874000,155.970000,403.266000,155.970000Z" opacity="0.7" fill="url(#ej32f9mbqbac44-fill)" stroke="none" stroke-width="1"/><path id="ej32f9mbqbac45" d="M365.582000,184.101000L225.558000,184.101000C222.101000,184.101000,219.254000,186.457000,219.254000,189.367000L219.254000,189.921000C219.254000,192.832000,222.033000,195.187000,225.558000,195.187000L365.650000,195.187000C369.107000,195.187000,371.953000,192.832000,371.953000,189.921000L371.953000,189.367000C371.885000,186.457000,369.039000,184.101000,365.582000,184.101000Z" fill="rgb(255,255,255)" stroke="none" stroke-width="1"/><path id="ej32f9mbqbac46" d="M315.428000,206.551000L225.558000,206.551000C222.101000,206.551000,219.254000,208.907000,219.254000,211.817000L219.254000,212.371000C219.254000,215.281000,222.033000,217.637000,225.558000,217.637000L315.428000,217.637000C318.885000,217.637000,321.731000,215.281000,321.731000,212.371000L321.731000,211.817000C321.731000,208.907000,318.885000,206.551000,315.428000,206.551000Z" fill="rgb(255,255,255)" stroke="none" stroke-width="1"/><path id="ej32f9mbqbac47" d="M181.639000,226.575000C195.465000,226.575000,206.716000,215.073000,206.716000,200.869000C206.716000,186.665000,195.465000,175.163000,181.639000,175.163000C167.813000,175.163000,156.562000,186.665000,156.562000,200.869000C156.562000,215.073000,167.745000,226.575000,181.639000,226.575000Z" fill="rgb(255,255,255)" stroke="none" stroke-width="1"/></g><path id="ej32f9mbqbac48" d="M359.957000,76.841600L189.365000,76.841600C186.315000,76.841600,183.808000,79.405200,183.808000,82.523300L183.808000,130.748000C183.808000,133.866000,186.315000,136.430000,189.365000,136.430000L359.957000,136.430000C363.007000,136.430000,365.514000,133.866000,365.514000,130.748000L365.514000,82.523300C365.514000,79.405200,363.007000,76.841600,359.957000,76.841600Z" fill="rgb(227,232,255)" stroke="none" stroke-width="1"/><path id="ej32f9mbqbac49" d="M334.947000,95.480300L242.095000,95.480300C239.790000,95.480300,237.960000,97.074100,237.960000,99.014500L237.960000,99.361000C237.960000,101.301000,239.790000,102.895000,242.095000,102.895000L335.015000,102.895000C337.320000,102.895000,339.150000,101.301000,339.150000,99.361000L339.150000,99.014500C339.150000,97.074100,337.252000,95.480300,334.947000,95.480300Z" fill="rgb(255,255,255)" stroke="none" stroke-width="1"/><path id="ej32f9mbqbac50" d="M301.670000,110.377000L242.027000,110.377000C239.723000,110.377000,237.893000,111.971000,237.893000,113.912000L237.893000,114.258000C237.893000,116.198000,239.723000,117.792000,242.027000,117.792000L301.670000,117.792000C303.974000,117.792000,305.804000,116.198000,305.804000,114.258000L305.804000,113.912000C305.872000,111.971000,303.974000,110.377000,301.670000,110.377000Z" fill="rgb(255,255,255)" stroke="none" stroke-width="1"/><path id="ej32f9mbqbac51" d="M212.951000,123.681000C222.169000,123.681000,229.624000,116.059000,229.624000,106.636000C229.624000,97.212600,222.169000,89.590800,212.951000,89.590800C203.734000,89.590800,196.279000,97.212600,196.279000,106.636000C196.279000,116.059000,203.734000,123.681000,212.951000,123.681000Z" fill="rgb(255,255,255)" stroke="none" stroke-width="1"/><path id="ej32f9mbqbac52" d="M414.042000,501.445000C414.042000,501.514000,414.110000,501.514000,414.110000,501.583000L414.110000,501.514000C414.313000,502.067000,414.178000,501.722000,414.042000,501.445000Z" fill="rgb(197,207,214)" stroke="none" stroke-width="1"/><path id="ej32f9mbqbac53" d="M414.110000,501.584000C414.178000,501.722000,414.110000,501.584000,414.110000,501.584000L414.110000,501.584000Z" fill="rgb(197,207,214)" stroke="none" stroke-width="1"/><path id="ej32f9mbqbac54" d="M414.110000,501.654000C414.110000,501.654000,414.042000,501.513000,414.110000,501.654000L414.110000,501.654000Z" fill="rgb(197,207,214)" stroke="none" stroke-width="1"/><path id="ej32f9mbqbac55" d="M182.859000,203.918000C182.859000,203.918000,182.859000,204.056000,182.859000,204.264000C182.859000,204.472000,182.859000,204.819000,182.859000,205.165000C182.859000,205.997000,182.859000,207.244000,182.927000,208.768000C182.927000,211.955000,182.994000,216.459000,182.994000,222.141000C182.994000,233.574000,183.062000,249.510000,183.130000,267.872000L182.859000,267.595000C189.501000,267.595000,196.549000,267.595000,203.869000,267.595000C227.930000,267.595000,265.477000,267.664000,265.477000,267.664000L488.460000,267.733000L488.460000,267.932000C488.460000,267.932000,488.934000,267.802000,489.205000,267.802000C489.205000,267.802000,488.798000,267.802000,488.460000,267.802000C488.121000,267.802000,488.460000,267.932000,488.460000,267.932000C488.460000,267.932000,489.680000,267.802000,487.511000,267.872000C483.038000,267.872000,273.339000,267.941000,265.477000,267.941000C249.686000,267.941000,227.930000,268.010000,203.869000,268.010000C196.617000,268.010000,189.501000,268.010000,182.859000,268.010000L182.588000,268.010000L182.588000,267.733000C182.655000,249.372000,182.655000,233.435000,182.723000,222.002000C182.791000,216.321000,182.791000,211.817000,182.791000,208.630000C182.791000,207.105000,182.859000,205.927000,182.859000,205.026000C182.859000,204.611000,182.859000,204.334000,182.859000,204.126000C182.859000,204.056000,182.859000,203.918000,182.859000,203.918000Z" fill="rgb(41,217,225)" stroke="none" stroke-width="1"/><path id="ej32f9mbqbac56" d="M182.859000,205.858000C183.907000,205.858000,184.756000,204.990000,184.756000,203.918000C184.756000,202.846000,183.907000,201.978000,182.859000,201.978000C181.811000,201.978000,180.961000,202.846000,180.961000,203.918000C180.961000,204.990000,181.811000,205.858000,182.859000,205.858000Z" fill="rgb(41,217,225)" stroke="none" stroke-width="1"/><path id="ej32f9mbqbac57" d="M737.874000,222.418000C749.478000,222.418000,758.885000,212.801000,758.885000,200.938000C758.885000,189.075000,749.478000,179.459000,737.874000,179.459000C726.270000,179.459000,716.864000,189.075000,716.864000,200.938000C716.864000,212.801000,726.270000,222.418000,737.874000,222.418000Z" fill="rgb(208,218,255)" stroke="none" stroke-width="1"/><path id="ej32f9mbqbac58" d="M87.701700,112.387000C97.920500,112.387000,106.204000,103.918000,106.204000,93.471000C106.204000,83.024000,97.920500,74.555100,87.701700,74.555100C77.482900,74.555100,69.198900,83.024000,69.198900,93.471000C69.198900,103.918000,77.482900,112.387000,87.701700,112.387000Z" fill="rgb(208,218,255)" stroke="none" stroke-width="1"/><path id="ej32f9mbqbac59" d="M11.793000,296.765000C18.306100,296.765000,23.586000,291.367000,23.586000,284.709000C23.586000,278.050000,18.306100,272.653000,11.793000,272.653000C5.279900,272.653000,0,278.050000,0,284.709000C0,291.367000,5.279900,296.765000,11.793000,296.765000Z" fill="rgb(208,218,255)" stroke="none" stroke-width="1"/><path id="ej32f9mbqbac60" d="M743.432000,384.623000C750.507000,384.623000,756.242000,378.760000,756.242000,371.528000C756.242000,364.295000,750.507000,358.432000,743.432000,358.432000C736.358000,358.432000,730.623000,364.295000,730.623000,371.528000C730.623000,378.760000,736.358000,384.623000,743.432000,384.623000Z" fill="rgb(208,218,255)" stroke="none" stroke-width="1"/><path id="ej32f9mbqbac61" d="M404.621000,588.749000C404.621000,584.315000,376.698000,580.642000,342.268000,580.642000C307.837000,580.642000,279.914000,584.245000,279.914000,588.749000C279.914000,593.184000,307.837000,596.856000,342.268000,596.856000C376.698000,596.787000,404.621000,593.184000,404.621000,588.749000Z" fill="rgb(255,255,255)" stroke="none" stroke-width="1"/><g id="ej32f9mbqbac62"><path id="ej32f9mbqbac63" d="M275.644000,411.092000L291.910000,411.092000L289.131000,391.137000C293.536000,393.839000,297.806000,395.155000,299.840000,394.601000C304.923000,393.285000,305.397000,374.299000,301.466000,366.816000C297.535000,359.333000,277.338000,356.076000,276.321000,370.904000C275.982000,376.032000,278.084000,380.674000,281.201000,384.416000L275.644000,411.092000Z" fill="rgb(246,126,96)" stroke="none" stroke-width="1"/><path id="ej32f9mbqbac64" d="M293.792000,366.111000C291.613000,367.386000,290.063000,369.776000,288.197000,372.910000C287.742000,372.723000,287.247000,372.620000,286.729000,372.620000C284.513000,372.620000,282.716000,374.500000,282.716000,376.820000C282.716000,377.997000,283.179000,379.061000,283.925000,379.824000C282.996000,381.195000,281.956000,382.628000,280.763000,384.107000C276.313000,381.313000,273.003000,373.170000,277.252000,365.309000C280.908000,349.563000,301.624000,359.337000,305.610000,356.681000C306.481000,362.395000,303.671000,367.002000,293.792000,366.111000Z" clip-rule="evenodd" fill="rgb(55,50,73)" fill-rule="evenodd" stroke="none" stroke-width="1"/></g><path id="ej32f9mbqbac65" d="M268.866000,487.310000C240.044000,487.310000,216.679000,510.111000,216.679000,538.237000C216.679000,566.364000,240.044000,589.165000,268.866000,589.165000C297.688000,589.165000,321.054000,566.364000,321.054000,538.237000C321.054000,510.111000,297.689000,487.310000,268.866000,487.310000Z" fill="rgb(208,218,255)" stroke="none" stroke-width="1"/><g id="ej32f9mbqbac66"><path id="ej32f9mbqbac67" d="M375.749000,578.841000C368.497000,533.595000,362.532000,503.662000,359.076000,494.585000C356.771000,488.557000,339.624000,489.250000,341.590000,501.376000C342.403000,506.434000,345.724000,520.084000,349.994000,535.535000C352.502000,544.543000,358.805000,561.657000,367.480000,581.335000L375.749000,578.841000ZM269.273000,527.913000C272.323000,527.498000,307.905000,523.687000,333.050000,519.945000C343.148000,518.490000,337.726000,499.158000,327.221000,501.168000C323.697000,501.861000,319.969000,502.623000,316.106000,503.454000C302.619000,506.295000,274.763000,516.411000,266.765000,519.599000C261.750000,521.677000,265.003000,528.537000,269.273000,527.913000Z" fill="rgb(246,126,96)" stroke="none" stroke-width="1"/><path id="ej32f9mbqbac68" d="M281.134000,513.848000L285.132000,526.805000C293.808000,524.449000,319.766000,531.794000,352.637000,517.866000C352.840000,517.797000,352.976000,517.589000,352.976000,517.312000C359.076000,512.878000,362.465000,495.763000,351.688000,491.052000C335.422000,483.915000,303.974000,470.403000,297.942000,468.671000L260.937000,468.671000C257.480000,492.645000,263.309000,503.593000,283.370000,507.196000C286.488000,507.750000,290.080000,508.443000,294.079000,509.275000L281.134000,513.848000Z" fill="rgb(244,244,244)" stroke="none" stroke-width="1"/><path id="ej32f9mbqbac69" d="M269.522000,517.608000C270.281000,517.605000,270.898000,518.221000,270.910000,518.994000C270.941000,521.004000,271.238000,522.456000,271.646000,523.351000C272.180000,524.462000,273.294000,525.787000,275.047000,527.203000L278.020000,527.006000C278.415000,526.974000,278.723000,527.282000,278.760000,527.684000L279.587000,547.499000C280.065000,548.889000,280.608000,550.618000,281.340000,552.749000C282.101000,554.817000,280.725000,556.121000,277.363000,556.659000C266.659000,534.500000,260.979000,522.834000,260.382000,521.538000C262.334000,520.139000,263.806000,519.113000,264.952000,518.614000C265.856000,518.147000,267.369000,517.832000,269.492000,517.670000C269.431000,517.639000,269.431000,517.639000,269.522000,517.608000Z" fill="rgb(45,13,178)" stroke="none" stroke-width="1"/></g><path id="ej32f9mbqbac70" d="M333.795000,498.258000C333.253000,525.765000,352.637000,541.771000,358.737000,564.706000L374.596000,562.281000C372.970000,558.054000,368.022000,501.306000,359.753000,489.666000L359.686000,489.597000L359.686000,489.527000C358.737000,486.479000,337.455000,479.480000,295.773000,468.671000L290.622000,468.671000L290.622000,473.521000L333.728000,495.971000C333.592000,496.664000,333.660000,497.426000,333.795000,498.258000Z" transform="matrix(1 0 0 1 0 -0.67995037000009)" fill="rgb(228,228,228)" stroke="none" stroke-width="1"/><path id="ej32f9mbqbac71" d="M363.617000,577.594000C363.956000,576.901000,364.701000,576.624000,365.447000,576.901000C367.209000,577.732000,368.632000,578.148000,369.649000,578.148000C370.869000,578.148000,372.495000,577.663000,374.461000,576.762000L375.613000,573.921000C375.749000,573.575000,376.155000,573.436000,376.494000,573.575000L394.251000,581.682000C395.675000,581.890000,397.437000,582.167000,399.606000,582.375000C401.774000,582.652000,402.317000,584.453000,401.300000,587.779000C377.240000,587.779000,364.498000,587.779000,363.075000,587.779000C362.668000,585.354000,362.465000,583.552000,362.465000,582.305000C362.465000,581.266000,362.871000,579.742000,363.617000,577.663000C363.549000,577.663000,363.617000,577.594000,363.617000,577.594000Z" fill="rgb(45,13,178)" stroke="none" stroke-width="1"/><path id="ej32f9mbqbac72" d="M340.437000,459.941000L358.804000,445.528000C368.022000,443.796000,372.224000,442.341000,371.614000,441.094000C370.597000,439.223000,368.090000,440.470000,367.209000,439.362000C366.327000,438.253000,368.496000,434.719000,370.665000,431.393000C372.834000,428.137000,370.801000,428.275000,369.581000,428.622000C365.582000,430.908000,361.448000,434.234000,357.110000,438.600000L332.575000,449.617000L340.437000,459.941000ZM216.475000,494.377000C215.120000,496.179000,206.987000,500.752000,201.429000,503.246000C199.193000,504.216000,199.667000,506.156000,200.345000,506.780000C205.631000,511.769000,210.511000,508.097000,216.204000,506.641000C222.440000,505.048000,220.474000,512.670000,225.422000,511.492000C224.608000,508.027000,222.507000,501.445000,224.812000,497.842000C225.828000,496.248000,233.284000,482.113000,247.313000,455.506000L233.419000,452.665000C223.931000,478.094000,218.305000,491.952000,216.475000,494.377000Z" transform="matrix(1 0 0 1 0 0.13900000000001)" fill="rgb(246,126,96)" stroke="none" stroke-width="1"/><path id="ej32f9mbqbac73" d="M305.262000,468.810000C315.902000,475.392000,342.132000,463.890000,354.467000,450.240000L350.333000,440.748000C336.777000,445.737000,325.391000,449.409000,317.326000,445.598000C308.786000,441.579000,303.635000,411.161000,290.825000,398.481000L284.997000,399.521000C284.319000,420.793000,288.250000,458.347000,305.262000,468.810000Z" transform="matrix(1 0 0 1 0 0.13900000000001)" fill="url(#ej32f9mbqbac73-fill)" stroke="none" stroke-width="1"/><path id="ej32f9mbqbac74" d="M278.490000,395.848000L293.469000,398.273000C293.469000,427.306000,308.921000,449.201000,312.852000,469.572000C313.191000,471.304000,313.666000,474.838000,311.294000,474.838000C300.246000,474.838000,282.963000,474.838000,259.445000,474.838000C261.817000,441.233000,266.155000,416.219000,278.490000,395.848000Z" fill="rgb(255,255,255)" stroke="none" stroke-width="1"/><path id="ej32f9mbqbac75" d="M247.856000,489.388000L294.553000,489.388000C300.585000,473.798000,296.857000,442.618000,283.438000,395.848000L277.677000,395.848000L277.474000,395.848000C243.925000,416.981000,223.660000,449.755000,216.679000,494.169000L227.523000,496.317000C234.707000,487.726000,243.586000,473.729000,254.159000,454.190000C250.973000,465.969000,248.601000,478.025000,247.856000,489.388000Z" fill="url(#ej32f9mbqbac75-fill)" stroke="none" stroke-width="1"/><script><![CDATA[!function(t,n){"object"==typeof exports&&"undefined"!=typeof module?module.exports=n():"function"==typeof define&&define.amd?define(n):(t=t||self).__SVGATOR_PLAYER__=n()}(this,(function(){"use strict";function t(n){return(t="function"==typeof Symbol&&"symbol"==typeof Symbol.iterator?function(t){return typeof t}:function(t){return t&&"function"==typeof Symbol&&t.constructor===Symbol&&t!==Symbol.prototype?"symbol":typeof t})(n)}function n(t,n){if(!(t instanceof n))throw new TypeError("Cannot call a class as a function")}function r(t,n){for(var r=0;r<n.length;r++){var e=n[r];e.enumerable=e.enumerable||!1,e.configurable=!0,"value"in e&&(e.writable=!0),Object.defineProperty(t,e.key,e)}}function e(t,n,e){return n&&r(t.prototype,n),e&&r(t,e),t}function i(t){return(i=Object.setPrototypeOf?Object.getPrototypeOf:function(t){return t.__proto__||Object.getPrototypeOf(t)})(t)}function o(t,n){return(o=Object.setPrototypeOf||function(t,n){return t.__proto__=n,t})(t,n)}function u(t,n){return!n||"object"!=typeof n&&"function"!=typeof n?function(t){if(void 0===t)throw new ReferenceError("this hasn't been initialised - super() hasn't been called");return t}(t):n}function a(t){var n=function(){if("undefined"==typeof Reflect||!Reflect.construct)return!1;if(Reflect.construct.sham)return!1;if("function"==typeof Proxy)return!0;try{return Date.prototype.toString.call(Reflect.construct(Date,[],(function(){}))),!0}catch(t){return!1}}();return function(){var r,e=i(t);if(n){var o=i(this).constructor;r=Reflect.construct(e,arguments,o)}else r=e.apply(this,arguments);return u(this,r)}}function l(t,n,r){return(l="undefined"!=typeof Reflect&&Reflect.get?Reflect.get:function(t,n,r){var e=function(t,n){for(;!Object.prototype.hasOwnProperty.call(t,n)&&null!==(t=i(t)););return t}(t,n);if(e){var o=Object.getOwnPropertyDescriptor(e,n);return o.get?o.get.call(r):o.value}})(t,n,r||t)}var f=Math.abs;function s(t){return t}function c(t,n,r){var e=1-r;return 3*r*e*(t*e+n*r)+r*r*r}function h(){var t=arguments.length>0&&void 0!==arguments[0]?arguments[0]:0,n=arguments.length>1&&void 0!==arguments[1]?arguments[1]:0,r=arguments.length>2&&void 0!==arguments[2]?arguments[2]:1,e=arguments.length>3&&void 0!==arguments[3]?arguments[3]:1;return t<0||t>1||r<0||r>1?null:f(t-n)<=1e-5&&f(r-e)<=1e-5?s:function(i){if(i<=0)return t>0?i*n/t:0===n&&r>0?i*e/r:0;if(i>=1)return r<1?1+(i-1)*(e-1)/(r-1):1===r&&t<1?1+(i-1)*(n-1)/(t-1):1;for(var o,u=0,a=1;u<a;){var l=c(t,r,o=(u+a)/2);if(f(i-l)<1e-5)break;l<i?u=o:a=o}return c(n,e,o)}}function v(){return 1}function y(t){return 1===t?1:0}function d(){var t=arguments.length>0&&void 0!==arguments[0]?arguments[0]:1,n=arguments.length>1&&void 0!==arguments[1]?arguments[1]:0;if(1===t){if(0===n)return y;if(1===n)return v}var r=1/t;return function(t){return t>=1?1:(t+=n*r)-t%r}}function g(t){var n=arguments.length>1&&void 0!==arguments[1]?arguments[1]:2;if(Number.isInteger(t))return t;var r=Math.pow(10,n);return Math.round(t*r)/r}var p=Math.PI/180;function m(t,n,r){return t>=.5?r:n}function b(t,n,r){return 0===t||n===r?n:t*(r-n)+n}function w(t,n,r){var e=b(t,n,r);return e<=0?0:e}function k(t,n,r){return 0===t?n:1===t?r:{x:b(t,n.x,r.x),y:b(t,n.y,r.y)}}function x(t,n,r){var e=function(t,n,r){return Math.round(b(t,n,r))}(t,n,r);return e<=0?0:e>=255?255:e}function A(t,n,r){return 0===t?n:1===t?r:{r:x(t,n.r,r.r),g:x(t,n.g,r.g),b:x(t,n.b,r.b),a:b(t,null==n.a?1:n.a,null==r.a?1:r.a)}}function _(t,n,r){if(0===t)return n;if(1===t)return r;var e=n.length;if(e!==r.length)return m(t,n,r);for(var i=[],o=0;o<e;o++)i.push(A(t,n[o],r[o]));return i}function S(t,n){for(var r=[],e=0;e<t;e++)r.push(n);return r}function O(t,n){if(--n<=0)return t;var r=(t=Object.assign([],t)).length;do{for(var e=0;e<r;e++)t.push(t[e])}while(--n>0);return t}var M,j=function(){function t(r){n(this,t),this.list=r,this.length=r.length}return e(t,[{key:"setAttribute",value:function(t,n){for(var r=this.list,e=0;e<this.length;e++)r[e].setAttribute(t,n)}},{key:"removeAttribute",value:function(t){for(var n=this.list,r=0;r<this.length;r++)n[r].removeAttribute(t)}},{key:"style",value:function(t,n){for(var r=this.list,e=0;e<this.length;e++)r[e].style[t]=n}}]),t}(),F=/-./g,P=function(t,n){return n.toUpperCase()};function q(t){return"function"==typeof t?t:m}function B(t){return t?"function"==typeof t?t:Array.isArray(t)?function(t){var n=arguments.length>1&&void 0!==arguments[1]?arguments[1]:s;if(!Array.isArray(t))return n;switch(t.length){case 1:return d(t[0])||n;case 2:return d(t[0],t[1])||n;case 4:return h(t[0],t[1],t[2],t[3])||n}return n}(t,null):function(t,n){var r=arguments.length>2&&void 0!==arguments[2]?arguments[2]:s;switch(t){case"linear":return s;case"steps":return d(n.steps||1,n.jump||0)||r;case"bezier":case"cubic-bezier":return h(n.x1||0,n.y1||0,n.x2||0,n.y2||0)||r}return r}(t.type,t.value,null):null}function I(t,n,r){var e=arguments.length>3&&void 0!==arguments[3]&&arguments[3],i=n.length-1;if(t<=n[0].t)return e?[0,0,n[0].v]:n[0].v;if(t>=n[i].t)return e?[i,1,n[i].v]:n[i].v;var o,u=n[0],a=null;for(o=1;o<=i;o++){if(!(t>n[o].t)){a=n[o];break}u=n[o]}return null==a?e?[i,1,n[i].v]:n[i].v:u.t===a.t?e?[o,1,a.v]:a.v:(t=(t-u.t)/(a.t-u.t),u.e&&(t=u.e(t)),e?[o,t,r(t,u.v,a.v)]:r(t,u.v,a.v))}function R(t,n){var r=arguments.length>2&&void 0!==arguments[2]?arguments[2]:null;return t&&t.length?"function"!=typeof n?null:("function"!=typeof r&&(r=null),function(e){var i=I(e,t,n);return null!=i&&r&&(i=r(i)),i}):null}function E(t,n){return t.t-n.t}function T(n,r,e,i,o){var u,a="@"===e[0],l="#"===e[0],f=M[e],s=m;switch(a?(u=e.substr(1),e=u.replace(F,P)):l&&(e=e.substr(1)),t(f)){case"function":if(s=f(i,o,I,B,e,a,r,n),l)return s;break;case"string":s=R(i,q(f));break;case"object":if((s=R(i,q(f.i),f.f))&&"function"==typeof f.u)return f.u(r,s,e,a,n)}return s?function(t,n,r){var e=arguments.length>3&&void 0!==arguments[3]&&arguments[3];if(e)return t instanceof j?function(e){return t.style(n,r(e))}:function(e){return t.style[n]=r(e)};if(Array.isArray(n)){var i=n.length;return function(e){var o=r(e);if(null==o)for(var u=0;u<i;u++)t[u].removeAttribute(n);else for(var a=0;a<i;a++)t[a].setAttribute(n,o)}}return function(e){var i=r(e);null==i?t.removeAttribute(n):t.setAttribute(n,i)}}(r,e,s,a):null}function z(n,r,e,i){if(!i||"object"!==t(i))return null;var o=null,u=null;return Array.isArray(i)?u=function(t){if(!t||!t.length)return null;for(var n=0;n<t.length;n++)t[n].e&&(t[n].e=B(t[n].e));return t.sort(E)}(i):(u=i.keys,o=i.data||null),u?T(n,r,e,u,o):null}function C(t,n,r){if(!r)return null;var e=[];for(var i in r)if(r.hasOwnProperty(i)){var o=z(t,n,i,r[i]);o&&e.push(o)}return e.length?e:null}function D(t,n){if(!n.duration||n.duration<0)return null;var r=function(t,n){if(!n)return null;var r=[];if(Array.isArray(n))for(var e=n.length,i=0;i<e;i++){var o=n[i];if(2===o.length){var u=null;if("string"==typeof o[0])u=t.getElementById(o[0]);else if(Array.isArray(o[0])){u=[];for(var a=0;a<o[0].length;a++)if("string"==typeof o[0][a]){var l=t.getElementById(o[0][a]);l&&u.push(l)}u=u.length?1===u.length?u[0]:new j(u):null}if(u){var f=C(t,u,o[1]);f&&(r=r.concat(f))}}}else for(var s in n)if(n.hasOwnProperty(s)){var c=t.getElementById(s);if(c){var h=C(t,c,n[s]);h&&(r=r.concat(h))}}return r.length?r:null}(t,n.elements);return r?function(t,n){var r=arguments.length>2&&void 0!==arguments[2]?arguments[2]:1/0,e=arguments.length>3&&void 0!==arguments[3]?arguments[3]:1,i=arguments.length>4&&void 0!==arguments[4]&&arguments[4],o=arguments.length>5&&void 0!==arguments[5]?arguments[5]:1,u=t.length,a=e>0?n:0;i&&r%2==0&&(a=n-a);var l=null;return function(f,s){var c=f%n,h=1+(f-c)/n;s*=e,i&&h%2==0&&(s=-s);var v=!1;if(h>r)c=a,v=!0,-1===o&&(c=e>0?0:n);else if(s<0&&(c=n-c),c===l)return!1;l=c;for(var y=0;y<u;y++)t[y](c);return v}}(r,n.duration,n.iterations||1/0,n.direction||1,!!n.alternate,n.fill||1):null}function N(t,n){if(M=n,!t||!t.root||!Array.isArray(t.animations))return null;for(var r=document.getElementsByTagName("svg"),e=!1,i=0;i<r.length;i++)if(r[i].id===t.root&&!r[i].svgatorAnimation){(e=r[i]).svgatorAnimation=!0;break}if(!e)return null;var o=t.animations.map((function(t){return D(e,t)})).filter((function(t){return!!t}));return o.length?{element:e,animations:o,animationSettings:t.animationSettings,options:t.options||void 0}:null}var L=function(){function t(r,e){var i=arguments.length>2&&void 0!==arguments[2]?arguments[2]:{};n(this,t),this._id=0,this._running=!1,this._rollingBack=!1,this._animations=r,this.duration=e.duration,this.alternate=e.alternate,this.fill=e.fill,this.iterations=e.iterations,this.direction=i.direction||1,this.speed=i.speed||1,this.fps=i.fps||100,this.offset=i.offset||0,this.rollbackStartOffset=0}return e(t,[{key:"_rollback",value:function(){var t=this,n=1/0,r=null;this.rollbackStartOffset=this.offset,this._rollingBack||(this._rollingBack=!0,this._running=!0);this._id=window.requestAnimationFrame((function e(i){if(t._rollingBack){null==r&&(r=i);var o=i-r,u=t.rollbackStartOffset-o,a=Math.round(u*t.speed);if(a>t.duration&&n!=1/0){var l=!!t.alternate&&a/t.duration%2>1,f=a%t.duration;a=(f+=l?t.duration:0)||t.duration}var s=t.fps?1e3/t.fps:0,c=Math.max(0,a);if(c<n-s){t.offset=c,n=c;for(var h=t._animations,v=h.length,y=0;y<v;y++)h[y](c,t.direction)}var d=!1;if(t.iterations>0&&-1===t.fill){var g=t.iterations*t.duration,p=g==a;a=p?0:a,t.offset=p?0:t.offset,d=a>g}a>0&&t.offset>=a&&!d?t._id=window.requestAnimationFrame(e):t.stop()}}))}},{key:"_start",value:function(){var t=this,n=arguments.length>0&&void 0!==arguments[0]?arguments[0]:0,r=-1/0,e=null,i={},o=function o(u){t._running=!0,null==e&&(e=u);var a=Math.round((u-e+n)*t.speed),l=t.fps?1e3/t.fps:0;if(a>r+l&&!t._rollingBack){t.offset=a,r=a;for(var f=t._animations,s=f.length,c=0,h=0;h<s;h++)i[h]?c++:(i[h]=f[h](a,t.direction),i[h]&&c++);if(c===s)return void t._stop()}t._id=window.requestAnimationFrame(o)};this._id=window.requestAnimationFrame(o)}},{key:"_stop",value:function(){this._id&&window.cancelAnimationFrame(this._id),this._running=!1,this._rollingBack=!1}},{key:"play",value:function(){!this._rollingBack&&this._running||(this._rollingBack=!1,this.rollbackStartOffset>this.duration&&(this.offset=this.rollbackStartOffset-(this.rollbackStartOffset-this.offset)%this.duration,this.rollbackStartOffset=0),this._start(this.offset))}},{key:"stop",value:function(){this._stop(),this.offset=0,this.rollbackStartOffset=0;var t=this.direction,n=this._animations;window.requestAnimationFrame((function(){for(var r=0;r<n.length;r++)n[r](0,t)}))}},{key:"reachedToEnd",value:function(){return this.iterations>0&&this.offset>=this.iterations*this.duration}},{key:"restart",value:function(){this._stop(),this.offset=0,this._start()}},{key:"pause",value:function(){this._stop()}},{key:"reverse",value:function(){this.direction=-this.direction}}],[{key:"build",value:function(n,r){return(n=N(n,r))?{el:n.element,options:n.options||{},player:new t(n.animations,n.animationSettings,n.options)}:null}}]),t}();!function(){for(var t=0,n=["ms","moz","webkit","o"],r=0;r<n.length&&!window.requestAnimationFrame;++r)window.requestAnimationFrame=window[n[r]+"RequestAnimationFrame"],window.cancelAnimationFrame=window[n[r]+"CancelAnimationFrame"]||window[n[r]+"CancelRequestAnimationFrame"];window.requestAnimationFrame||(window.requestAnimationFrame=function(n){var r=Date.now(),e=Math.max(0,16-(r-t)),i=window.setTimeout((function(){n(r+e)}),e);return t=r+e,i},window.cancelAnimationFrame=window.clearTimeout)}();var V=/\.0+$/g;function $(t){return Number.isInteger(t)?t+"":t.toFixed(6).replace(V,"")}function G(t){var n=arguments.length>1&&void 0!==arguments[1]?arguments[1]:" ";return t&&t.length?t.map($).join(n):""}function H(t){return t?null==t.a||t.a>=1?"rgb("+t.r+","+t.g+","+t.b+")":"rgba("+t.r+","+t.g+","+t.b+","+t.a+")":"transparent"}var Q={f:null,i:function(t,n,r){return 0===t?n:1===t?r:{x:w(t,n.x,r.x),y:w(t,n.y,r.y)}},u:function(t,n){return function(r){var e=n(r);t.setAttribute("rx",$(e.x)),t.setAttribute("ry",$(e.y))}}},U={f:null,i:function(t,n,r){return 0===t?n:1===t?r:{width:w(t,n.width,r.width),height:w(t,n.height,r.height)}},u:function(t,n){return function(r){var e=n(r);t.setAttribute("width",$(e.width)),t.setAttribute("height",$(e.height))}}},Y=Math.sin,Z=Math.cos,J=Math.acos,K=Math.asin,W=Math.tan,X=Math.atan2,tt=Math.PI/180,nt=180/Math.PI,rt=Math.sqrt,et=function(){function t(){var r=arguments.length>0&&void 0!==arguments[0]?arguments[0]:1,e=arguments.length>1&&void 0!==arguments[1]?arguments[1]:0,i=arguments.length>2&&void 0!==arguments[2]?arguments[2]:0,o=arguments.length>3&&void 0!==arguments[3]?arguments[3]:1,u=arguments.length>4&&void 0!==arguments[4]?arguments[4]:0,a=arguments.length>5&&void 0!==arguments[5]?arguments[5]:0;n(this,t),this.m=[r,e,i,o,u,a],this.i=null,this.w=null,this.s=null}return e(t,[{key:"point",value:function(t,n){var r=this.m;return{x:r[0]*t+r[2]*n+r[4],y:r[1]*t+r[3]*n+r[5]}}},{key:"translateSelf",value:function(){var t=arguments.length>0&&void 0!==arguments[0]?arguments[0]:0,n=arguments.length>1&&void 0!==arguments[1]?arguments[1]:0;if(!t&&!n)return this;var r=this.m;return r[4]+=r[0]*t+r[2]*n,r[5]+=r[1]*t+r[3]*n,this.w=this.s=this.i=null,this}},{key:"rotateSelf",value:function(){var t=arguments.length>0&&void 0!==arguments[0]?arguments[0]:0;if(t%=360){var n=Y(t*=tt),r=Z(t),e=this.m,i=e[0],o=e[1];e[0]=i*r+e[2]*n,e[1]=o*r+e[3]*n,e[2]=e[2]*r-i*n,e[3]=e[3]*r-o*n,this.w=this.s=this.i=null}return this}},{key:"scaleSelf",value:function(){var t=arguments.length>0&&void 0!==arguments[0]?arguments[0]:1,n=arguments.length>1&&void 0!==arguments[1]?arguments[1]:1;if(1!==t||1!==n){var r=this.m;r[0]*=t,r[1]*=t,r[2]*=n,r[3]*=n,this.w=this.s=this.i=null}return this}},{key:"skewSelf",value:function(t,n){if(n%=360,(t%=360)||n){var r=this.m,e=r[0],i=r[1],o=r[2],u=r[3];t&&(t=W(t*tt),r[2]+=e*t,r[3]+=i*t),n&&(n=W(n*tt),r[0]+=o*n,r[1]+=u*n),this.w=this.s=this.i=null}return this}},{key:"resetSelf",value:function(){var t=arguments.length>0&&void 0!==arguments[0]?arguments[0]:1,n=arguments.length>1&&void 0!==arguments[1]?arguments[1]:0,r=arguments.length>2&&void 0!==arguments[2]?arguments[2]:0,e=arguments.length>3&&void 0!==arguments[3]?arguments[3]:1,i=arguments.length>4&&void 0!==arguments[4]?arguments[4]:0,o=arguments.length>5&&void 0!==arguments[5]?arguments[5]:0,u=this.m;return u[0]=t,u[1]=n,u[2]=r,u[3]=e,u[4]=i,u[5]=o,this.w=this.s=this.i=null,this}},{key:"recomposeSelf",value:function(){var t=arguments.length>0&&void 0!==arguments[0]?arguments[0]:null,n=arguments.length>1&&void 0!==arguments[1]?arguments[1]:null,r=arguments.length>2&&void 0!==arguments[2]?arguments[2]:null,e=arguments.length>3&&void 0!==arguments[3]?arguments[3]:null,i=arguments.length>4&&void 0!==arguments[4]?arguments[4]:null;return this.isIdentity||this.resetSelf(),t&&(t.x||t.y)&&this.translateSelf(t.x,t.y),n&&this.rotateSelf(n),r&&(r.x&&this.skewSelf(r.x,0),r.y&&this.skewSelf(0,r.y)),!e||1===e.x&&1===e.y||this.scaleSelf(e.x,e.y),i&&(i.x||i.y)&&this.translateSelf(i.x,i.y),this}},{key:"decompose",value:function(){var t=arguments.length>0&&void 0!==arguments[0]?arguments[0]:0,n=arguments.length>1&&void 0!==arguments[1]?arguments[1]:0,r=this.m,e=r[0]*r[0]+r[1]*r[1],i=[[r[0],r[1]],[r[2],r[3]]],o=rt(e);if(0===o)return{origin:{x:r[4],y:r[5]},translate:{x:t,y:n},scale:{x:0,y:0},skew:{x:0,y:0},rotate:0};i[0][0]/=o,i[0][1]/=o;var u=r[0]*r[3]-r[1]*r[2]<0;u&&(o=-o);var a=i[0][0]*i[1][0]+i[0][1]*i[1][1];i[1][0]-=i[0][0]*a,i[1][1]-=i[0][1]*a;var l=rt(i[1][0]*i[1][0]+i[1][1]*i[1][1]);if(0===l)return{origin:{x:r[4],y:r[5]},translate:{x:t,y:n},scale:{x:o,y:0},skew:{x:0,y:0},rotate:0};i[1][0]/=l,i[1][1]/=l,a/=l;var f=0;return i[1][1]<0?(f=J(i[1][1])*nt,i[0][1]<0&&(f=360-f)):f=K(i[0][1])*nt,u&&(f=-f),a=X(a,rt(i[0][0]*i[0][0]+i[0][1]*i[0][1]))*nt,{origin:{x:r[4],y:r[5]},translate:{x:t,y:n},scale:{x:o,y:l},skew:{x:a,y:0},rotate:f}}},{key:"toString",value:function(){return null===this.s&&(this.s="matrix("+this.m.map(ot).join(" ")+")"),this.s}},{key:"determinant",get:function(){var t=this.m;return t[0]*t[3]-t[1]*t[2]}},{key:"isIdentity",get:function(){if(null===this.i){var t=this.m;this.i=1===t[0]&&0===t[1]&&0===t[2]&&1===t[3]&&0===t[4]&&0===t[5]}return this.i}}]),t}(),it=/\.0+$/;function ot(t){return Number.isInteger(t)?t:t.toFixed(14).replace(it,"")}Object.freeze({M:2,L:2,Z:0,H:1,V:1,C:6,Q:4,T:2,S:4,A:7});function ut(t,n,r){return t+(n-t)*r}function at(t,n,r){var e=arguments.length>3&&void 0!==arguments[3]&&arguments[3],i={x:ut(t.x,n.x,r),y:ut(t.y,n.y,r)};return e&&(i.a=lt(t,n)),i}function lt(t,n){return Math.atan2(n.y-t.y,n.x-t.x)}function ft(t,n,r,e){var i=1-e;return i*i*t+2*i*e*n+e*e*r}function st(t,n,r,e){return 2*(1-e)*(n-t)+2*e*(r-n)}function ct(t,n,r,e){var i=arguments.length>4&&void 0!==arguments[4]&&arguments[4],o={x:ft(t.x,n.x,r.x,e),y:ft(t.y,n.y,r.y,e)};return i&&(o.a=ht(t,n,r,e)),o}function ht(t,n,r,e){return Math.atan2(st(t.y,n.y,r.y,e),st(t.x,n.x,r.x,e))}function vt(t,n,r,e,i){var o=i*i;return i*o*(e-t+3*(n-r))+3*o*(t+r-2*n)+3*i*(n-t)+t}function yt(t,n,r,e,i){var o=1-i;return 3*(o*o*(n-t)+2*o*i*(r-n)+i*i*(e-r))}function dt(t,n,r,e,i){var o=arguments.length>5&&void 0!==arguments[5]&&arguments[5],u={x:vt(t.x,n.x,r.x,e.x,i),y:vt(t.y,n.y,r.y,e.y,i)};return o&&(u.a=gt(t,n,r,e,i)),u}function gt(t,n,r,e,i){return Math.atan2(yt(t.y,n.y,r.y,e.y,i),yt(t.x,n.x,r.x,e.x,i))}function pt(t,n,r){var e=arguments.length>3&&void 0!==arguments[3]&&arguments[3];if(bt(n)){if(wt(r))return ct(n,r.start,r,t,e)}else if(bt(r)){if(n.end)return ct(n,n.end,r,t,e)}else{if(n.end)return r.start?dt(n,n.end,r.start,r,t,e):ct(n,n.end,r,t,e);if(r.start)return ct(n,r.start,r,t,e)}return at(n,r,t,e)}function mt(t,n,r){var e=pt(t,n,r,!0);return e.a=function(t){var n=arguments.length>1&&void 0!==arguments[1]&&arguments[1];return n?t+Math.PI:t}(e.a)/p,e}function bt(t){return!t.type||"corner"===t.type}function wt(t){return null!=t.start&&!bt(t)}var kt=new et;var xt={f:$,i:b},At={f:$,i:function(t,n,r){var e=b(t,n,r);return e<=0?0:e>=1?1:e}};function _t(t,n,r,e,i,o,u,a){return n=function(t,n,r){for(var e,i,o,u=t.length-1,a={},l=0;l<=u;l++)(e=t[l]).e&&(e.e=n(e.e)),e.v&&"g"===(i=e.v).t&&i.r&&(o=r.getElementById(i.r))&&(a[i.r]=o.querySelectorAll("stop"));return a}(t,e,a),function(e){var i,o=r(e,t,St);return o?"c"===o.t?H(o.v):"g"===o.t?(n[o.r]&&function(t,n){for(var r=0,e=t.length;r<e;r++)t[r].setAttribute("stop-color",H(n[r]))}(n[o.r],o.v),(i=o.r)?"url(#"+i+")":"none"):"none":"none"}}function St(t,n,r){if(0===t)return n;if(1===t)return r;if(n&&r){var e=n.t;if(e===r.t)switch(n.t){case"c":return{t:e,v:A(t,n.v,r.v)};case"g":if(n.r===r.r)return{t:e,v:_(t,n.v,r.v),r:n.r}}}return m(t,n,r)}var Ot={fill:_t,"fill-opacity":At,stroke:_t,"stroke-opacity":At,"stroke-width":xt,"stroke-dashoffset":{f:$,i:b},"stroke-dasharray":{f:function(t){var n=arguments.length>1&&void 0!==arguments[1]?arguments[1]:" ";return t&&t.length>0&&(t=t.map((function(t){return Math.floor(1e4*t)/1e4}))),G(t,n)},i:function(t,n,r){var e,i,o,u=n.length,a=r.length;if(u!==a)if(0===u)n=S(u=a,0);else if(0===a)a=u,r=S(u,0);else{var l=(o=(e=u)*(i=a)/function(t,n){for(var r;n;)r=n,n=t%n,t=r;return t||1}(e,i))<0?-o:o;n=O(n,Math.floor(l/u)),r=O(r,Math.floor(l/a)),u=a=l}for(var f=[],s=0;s<u;s++)f.push(g(w(t,n[s],r[s]),6));return f}},opacity:At,transform:function(n,r,e,i){if(!(n=function(n,r){if(!n||"object"!==t(n))return null;var e=!1;for(var i in n)n.hasOwnProperty(i)&&(n[i]&&n[i].length?(n[i].forEach((function(t){t.e&&(t.e=r(t.e))})),e=!0):delete n[i]);return e?n:null}(n,i)))return null;var o=function(t,i,o){var u=arguments.length>3&&void 0!==arguments[3]?arguments[3]:null;return n[t]?e(i,n[t],o):r&&r[t]?r[t]:u};return r&&r.a&&n.o?function(t){var r=e(t,n.o,mt);return kt.recomposeSelf(r,o("r",t,b,0)+r.a,o("k",t,k),o("s",t,k),o("t",t,k)).toString()}:function(t){return kt.recomposeSelf(o("o",t,pt,null),o("r",t,b,0),o("k",t,k),o("s",t,k),o("t",t,k)).toString()}},r:xt,"#size":U,"#radius":Q,_:function(t,n){if(Array.isArray(t))for(var r=0;r<t.length;r++)this[t[r]]=n;else this[t]=n}};return function(t){!function(t,n){if("function"!=typeof n&&null!==n)throw new TypeError("Super expression must either be null or a function");t.prototype=Object.create(n&&n.prototype,{constructor:{value:t,writable:!0,configurable:!0}}),n&&o(t,n)}(u,t);var r=a(u);function u(){return n(this,u),r.apply(this,arguments)}return e(u,null,[{key:"build",value:function(t){var n=l(i(u),"build",this).call(this,t,Ot),r=(n.el,n.options,n.player);return function(t){t.play()}(r),r}}]),u}(L)}));
__SVGATOR_PLAYER__.build({"root":"ej32f9mbqbac1","animations":[{"duration":4000,"direction":1,"iterations":0,"fill":1,"alternate":false,"elements":{"ej32f9mbqbac2":{"transform":{"data":{"o":{"x":446.16600036621094,"y":195.12999725341797,"type":"corner"},"t":{"x":-446.16600036621094,"y":-195.12999725341797}},"keys":{"r":[{"t":0,"v":0},{"t":4000,"v":-360}]}}},"ej32f9mbqbac3":{"transform":{"data":{"o":{"x":456.6050109863281,"y":53.73350143432617,"type":"corner"},"t":{"x":-456.6050109863281,"y":-53.73350143432617}},"keys":{"r":[{"t":0,"v":0},{"t":4000,"v":360}]}}},"ej32f9mbqbac4":{"transform":{"data":{"o":{"x":573.3070068359375,"y":132.42354583740234,"type":"corner"},"t":{"x":-573.3070068359375,"y":-132.42354583740234}},"keys":{"r":[{"t":0,"v":0},{"t":4000,"v":360}]}}},"ej32f9mbqbac8":{"transform":{"data":{"t":{"x":-536.4109954833984,"y":-367.19700622558594}},"keys":{"o":[{"t":0,"v":{"x":536.4109954833984,"y":367.19700622558594,"type":"corner"},"e":[0.42,0,0.58,1]},{"t":2000,"v":{"x":536.4109954833984,"y":338.454555855586,"type":"corner"},"e":[0.42,0,0.58,1]},{"t":4000,"v":{"x":536.4109954833984,"y":367.19700622558594,"type":"corner"},"e":[0.42,0,0.58,1]}]}}},"ej32f9mbqbac43":{"transform":{"data":{"o":{"x":274.66099548339844,"y":202.947998046875,"type":"corner"},"t":{"x":-274.66099548339844,"y":-202.947998046875}},"keys":{"s":[{"t":0,"v":{"x":1,"y":1},"e":[0.42,0,0.58,1]},{"t":1000,"v":{"x":1.02,"y":1.02},"e":[0.42,0,0.58,1]},{"t":2000,"v":{"x":1,"y":1},"e":[0.42,0,0.58,1]},{"t":3000,"v":{"x":1.02,"y":1.02},"e":[0.42,0,0.58,1]},{"t":4000,"v":{"x":1,"y":1},"e":[0.42,0,0.58,1]}]}}},"ej32f9mbqbac57":{"transform":{"data":{"t":{"x":-737.87451171875,"y":-200.9384994506836}},"keys":{"o":[{"t":0,"v":{"x":737.87451171875,"y":200.9384994506836,"type":"corner"},"e":[0.42,0,0.58,1]},{"t":2000,"v":{"x":737.87451171875,"y":189.6439994506836,"type":"corner"},"e":[0.42,0,0.58,1]},{"t":4000,"v":{"x":737.87451171875,"y":200.9384994506836,"type":"corner"},"e":[0.42,0,0.58,1]}]}}},"ej32f9mbqbac58":{"transform":{"data":{"t":{"x":-87.70145034790039,"y":-93.47105026245117}},"keys":{"o":[{"t":0,"v":{"x":87.70145034790039,"y":93.47105026245117,"type":"corner"},"e":[0.42,0,0.58,1]},{"t":2000,"v":{"x":87.70145034790039,"y":80.27170026245113,"type":"corner"},"e":[0.42,0,0.58,1]},{"t":4000,"v":{"x":87.70145034790039,"y":93.47105026245117,"type":"corner"},"e":[0.42,0,0.58,1]}]}}},"ej32f9mbqbac59":{"transform":{"data":{"t":{"x":-11.793001174926758,"y":-284.7090148925781}},"keys":{"o":[{"t":0,"v":{"x":11.793001174926758,"y":284.7090148925781,"type":"corner"},"e":[0.42,0,0.58,1]},{"t":2000,"v":{"x":11.793001174926758,"y":294.9065645225782,"type":"corner"},"e":[0.42,0,0.58,1]},{"t":4000,"v":{"x":11.793001174926758,"y":284.7090148925781,"type":"corner"},"e":[0.42,0,0.58,1]}]}}},"ej32f9mbqbac60":{"transform":{"data":{"t":{"x":-743.4324951171875,"y":-371.5274963378906}},"keys":{"o":[{"t":0,"v":{"x":743.4324951171875,"y":371.5274963378906,"type":"corner"},"e":[0.42,0,0.58,1]},{"t":2000,"v":{"x":743.4324951171876,"y":388.1234963328908,"type":"corner"},"e":[0.42,0,0.58,1]},{"t":4000,"v":{"x":743.4324951171875,"y":371.5274963378906,"type":"corner"},"e":[0.42,0,0.58,1]}]}}},"ej32f9mbqbac62":{"transform":{"data":{"o":{"x":279.914,"y":395.848,"type":"corner"},"t":{"x":-279.914,"y":-395.848}},"keys":{"r":[{"t":0,"v":0,"e":[0.42,0,0.58,1]},{"t":1000,"v":-8.544420641912726,"e":[0.42,0,0.58,1]},{"t":2000,"v":0,"e":[0.42,0,0.58,1]},{"t":3000,"v":10.929034505524514,"e":[0.42,0,0.58,1]},{"t":4000,"v":0,"e":[0.42,0,0.58,1]}]}}},"ej32f9mbqbac66":{"transform":{"data":{"o":{"x":279.914,"y":479.837161,"type":"corner"},"t":{"x":-279.914,"y":-479.837161}},"keys":{"r":[{"t":0,"v":0,"e":[0.42,0,0.58,1]},{"t":2000,"v":-1.972649148972826,"e":[0.42,0,0.58,1]},{"t":4000,"v":0,"e":[0.42,0,0.58,1]}]}}},"ej32f9mbqbac70":{"transform":{"data":{"o":{"x":297.35101975,"y":474.838,"type":"corner"},"t":{"x":-297.35101975,"y":-475.5179503700001}},"keys":{"r":[{"t":0,"v":0,"e":[0.42,0,0.58,1]},{"t":2000,"v":-1.524696181690567,"e":[0.42,0,0.58,1]},{"t":4000,"v":0,"e":[0.42,0,0.58,1]}]}}},"ej32f9mbqbac71":{"transform":{"data":{"t":{"x":-382.1300048828125,"y":-580.6503601074219}},"keys":{"o":[{"t":0,"v":{"x":382.1300048828125,"y":580.6503601074219,"type":"corner"},"e":[0.42,0,0.58,1]},{"t":2000,"v":{"x":385.33000488281255,"y":577.9759825974214,"type":"corner"},"e":[0.42,0,0.58,1]},{"t":4000,"v":{"x":382.1300048828125,"y":580.6503601074219,"type":"corner"},"e":[0.42,0,0.58,1]}]}}},"ej32f9mbqbac72":{"transform":{"data":{"o":{"x":285.7269287109375,"y":470.17182165527345,"type":"corner"},"t":{"x":-285.7269287109375,"y":-470.03282165527344}},"keys":{"r":[{"t":0,"v":0,"e":[0.42,0,0.58,1]},{"t":2000,"v":-1.9490878148643522},{"t":4000,"v":0,"e":[0.42,0,0.58,1]}]}}},"ej32f9mbqbac73":{"transform":{"data":{"o":{"x":313.13379287,"y":470.85561809,"type":"corner"},"t":{"x":-313.13379287,"y":-470.71661809}},"keys":{"r":[{"t":0,"v":0,"e":[0.42,0,0.58,1]},{"t":2000,"v":-2.527009387691296,"e":[0.42,0,0.58,1]},{"t":4000,"v":0,"e":[0.42,0,0.58,1]}]}}}}}],"options":{"start":"load","hover":"freeze","click":"freeze","scroll":25,"exportedIds":"unique","title":"App Design and Development"},"animationSettings":{"duration":4000,"direction":1,"iterations":0,"fill":1,"alternate":false}})]]></script></svg>