<svg id="e563xmlbixqy1" xmlns="http://www.w3.org/2000/svg" xmlns:xlink="http://www.w3.org/1999/xlink" viewBox="0 0 870 700" shape-rendering="geometricPrecision" text-rendering="geometricPrecision"><defs><linearGradient id="e563xmlbixqy46-fill" x1="327.557000" y1="532.044000" x2="364.844000" y2="532.044000" spreadMethod="pad" gradientUnits="userSpaceOnUse"><stop id="e563xmlbixqy46-fill-0" offset="0%" stop-color="rgb(239,152,129)"/><stop id="e563xmlbixqy46-fill-1" offset="100%" stop-color="rgb(255,94,54)"/></linearGradient><linearGradient id="e563xmlbixqy57-fill" x1="478.905000" y1="511.047000" x2="478.905000" y2="546.628000" spreadMethod="pad" gradientUnits="userSpaceOnUse"><stop id="e563xmlbixqy57-fill-0" offset="0.196314%" stop-color="rgb(214,225,244)"/><stop id="e563xmlbixqy57-fill-1" offset="60.380000%" stop-color="rgb(231,237,248)"/><stop id="e563xmlbixqy57-fill-2" offset="100%" stop-color="rgb(244,247,252)"/></linearGradient><linearGradient id="e563xmlbixqy58-fill" x1="478.905000" y1="532.307000" x2="478.905000" y2="506.347000" spreadMethod="pad" gradientUnits="userSpaceOnUse"><stop id="e563xmlbixqy58-fill-0" offset="0.196314%" stop-color="rgb(214,225,244)"/><stop id="e563xmlbixqy58-fill-1" offset="60.380000%" stop-color="rgb(231,237,248)"/><stop id="e563xmlbixqy58-fill-2" offset="100%" stop-color="rgb(244,247,252)"/></linearGradient></defs><g id="e563xmlbixqy2" clip-path="url(#e563xmlbixqy92)"><g id="e563xmlbixqy3"><path id="e563xmlbixqy4" d="M357.891000,103.108000C375.588000,77.409900,406.242000,60.382900,436.579000,64.009000C465.811000,67.477400,489.829000,89.076500,504.366000,115.878000C506.736000,78.671100,521.589000,40.675600,550.978000,19.076500C577.208000,-0.000031,611.970000,-3.941470,643.098000,3.626090C666.167000,9.144110,687.340000,20.495500,706.460000,34.684700C713.254000,39.729700,719.890000,45.090100,726.211000,50.765700C742.012000,64.797300,757.497000,82.612600,758.129000,104.212000C758.761000,123.288000,747.226000,140.946000,732.847000,152.928000C718.468000,164.910000,701.087000,172.635000,684.654000,181.306000C635.039000,207.950000,592.061000,246.261000,559.511000,293.243000C589.849000,268.176000,620.976000,242.477000,657.477000,228.761000C693.977000,214.887000,737.587000,214.730000,768.873000,238.378000C788.783000,253.356000,801.265000,276.689000,805.690000,301.914000C807.902000,315,808.060000,328.243000,805.848000,341.486000C799.369000,379.640000,775.194000,413.063000,744.382000,435.293000C713.570000,457.523000,676.596000,469.189000,639.306000,474.392000C603.753000,479.437000,567.727000,478.964000,531.859000,478.176000C530.121000,478.176000,528.541000,478.176000,526.961000,478.018000L530.437000,488.896000C459.333000,435.450000,402.133000,364.505000,364.053000,282.680000C361.683000,277.635000,359.471000,272.590000,357.259000,267.387000C356.785000,266.441000,356.469000,265.495000,355.995000,264.392000L360.419000,216.149000C360.735000,213.153000,358.523000,210.473000,355.679000,210.158000L339.246000,208.581000C339.088000,207.950000,339.088000,207.477000,339.088000,207.004000C338.298000,202.432000,337.666000,197.860000,337.349000,193.131000C334.347000,161.757000,340.194000,128.806000,357.891000,103.108000Z" fill="rgb(243,246,255)" stroke="none" stroke-width="1"/><path id="e563xmlbixqy5" d="M519.693000,315.158000C521.273000,315.473000,521.589000,312.793000,520.009000,312.477000C517.955000,312.004000,517.323000,311.847000,515.111000,311.374000C497.888000,308.063000,480.349000,304.122000,464.232000,296.869000C448.273000,289.775000,434.052000,278.896000,424.729000,263.446000C414.933000,247.050000,410.983000,227.815000,408.296000,208.896000C405.136000,186.667000,403.082000,164.279000,401.976000,141.734000C400.870000,118.874000,400.712000,96.013500,401.502000,73.153100C401.660000,71.418900,398.974000,71.261200,398.816000,72.837800C398.658000,75.675600,398.658000,78.513500,398.500000,81.351300C397.868000,104.527000,398.184000,127.703000,399.606000,150.878000C400.396000,162.545000,401.186000,174.054000,402.608000,185.563000C403.714000,196.284000,404.978000,206.847000,406.716000,217.410000C409.877000,236.329000,415.091000,255.563000,426.468000,271.171000C437.212000,285.518000,452.539000,295.135000,468.656000,301.599000C485.721000,308.536000,501.996000,311.847000,519.693000,315.158000Z" fill="rgb(255,255,255)" stroke="none" stroke-width="1"/><path id="e563xmlbixqy6" d="M804.110000,303.491000C805.848000,303.491000,806.006000,300.811000,804.426000,300.811000C801.740000,300.653000,798.896000,300.653000,796.210000,300.653000C750.387000,300.495000,705.196000,311.374000,664.114000,332.658000C644.679000,342.748000,626.192000,355.203000,609.443000,369.707000C592.852000,383.896000,577.999000,399.977000,564.884000,417.635000C551.769000,435.293000,540.708000,454.212000,531.702000,474.392000C531.070000,475.968000,533.440000,476.914000,534.072000,475.338000C535.178000,472.973000,536.284000,470.450000,537.390000,468.085000C546.871000,448.378000,558.405000,429.932000,571.678000,412.905000C585.109000,395.878000,600.120000,380.428000,616.869000,366.869000C633.934000,352.838000,652.737000,341.013000,672.488000,331.396000C693.030000,321.464000,714.519000,314.054000,736.640000,309.482000C758.920000,304.752000,781.357000,302.860000,804.110000,303.491000Z" fill="rgb(255,255,255)" stroke="none" stroke-width="1"/><path id="e563xmlbixqy7" d="M705.037000,35.157600C701.403000,35.945900,697.769000,36.891800,694.134000,37.995400C679.439000,42.567500,665.535000,49.189100,652.736000,57.702600C639.463000,66.531500,627.138000,77.094500,616.078000,88.761200C604.543000,101.216000,593.956000,114.617000,584.792000,128.964000C574.995000,143.941000,566.463000,159.707000,558.878000,175.946000C551.136000,192.815000,544.341000,210,538.495000,227.658000C532.807000,245.315000,528.066000,263.288000,524.274000,281.419000C520.482000,299.392000,517.796000,317.522000,516.058000,335.811000C514.320000,353.153000,513.846000,370.653000,514.320000,388.153000C514.794000,404.234000,516.374000,420.315000,519.218000,436.081000C521.746000,450.270000,525.696000,464.144000,530.911000,477.387000C531.543000,478.964000,533.913000,477.860000,533.281000,476.284000C532.017000,473.131000,530.911000,470.135000,529.804000,466.982000C525.222000,453.108000,521.904000,438.761000,519.850000,424.257000C517.638000,408.176000,516.532000,391.937000,516.690000,375.540000C516.848000,358.040000,517.796000,340.540000,520.008000,323.356000C522.220000,305.225000,525.380000,287.252000,529.647000,269.437000C533.755000,251.464000,538.969000,233.806000,545.289000,216.464000C551.294000,199.279000,558.404000,182.568000,566.621000,166.329000C574.521000,150.563000,583.528000,135.270000,593.798000,120.923000C603.279000,107.365000,614.182000,94.594500,626.032000,83.085500C637.251000,72.207200,649.892000,62.590000,663.481000,54.707200C676.753000,47.139600,690.974000,41.463900,705.669000,38.153100C707.091000,37.364800,706.775000,34.684600,705.037000,35.157600Z" fill="rgb(255,255,255)" stroke="none" stroke-width="1"/><path id="e563xmlbixqy8" d="M298.355000,342.065000C299.836000,344.936000,301.168000,347.920000,302.350000,351.017000C302.577000,351.315000,302.655000,351.725000,302.881000,352.023000L293.782000,358.922000C292.141000,360.166000,291.819000,362.525000,293.067000,364.163000L313.598000,391.116000C313.640000,391.789000,313.795000,392.611000,313.950000,393.433000C314.500000,397.244000,315.164000,401.205000,315.600000,404.867000C323.398000,467.315000,315.870000,530.342000,293.392000,588.260000L291.504000,580.530000C290.609000,581.209000,289.600000,581.738000,288.705000,582.417000C267.845000,596.119000,246.608000,609.636000,223.700000,619.723000C199.783000,630.339000,173.328000,637.006000,146.967000,635.145000C120.571000,633.547000,93.849500,622.562000,75.875000,602.363000C69.606900,595.369000,64.794800,587.507000,61.289400,578.889000C54.583300,562.361000,53.486600,543.930000,59.713100,527.698000C69.476300,502.207000,95.307600,486.381000,122.108000,481.096000C148.760000,475.923000,176.631000,479.458000,203.792000,483.296000C167.032000,467.473000,127.445000,460.606000,88.182000,463.124000C75.219900,464.025000,62.263900,465.861000,49.133900,464.070000C36.153200,462.166000,22.807300,456.075000,16.096400,444.484000C8.513880,431.440000,10.992500,415.231000,15.208300,400.994000C16.782400,395.337000,18.768300,389.603000,20.981100,384.166000C27.100400,368.721000,35.511600,354.122000,47.014800,342.346000C62.688700,326.469000,84.731700,315.864000,107.231000,317.598000C132.655000,319.465000,155.481000,336.456000,170.651000,357.608000C169.386000,336.484000,175.689000,314.792000,191.608000,302.017000C208.274000,288.677000,232.778000,287.482000,252.588000,296.189000C272.773000,305.081000,288.593000,322.451000,298.355000,342.065000Z" fill="rgb(243,246,255)" stroke="none" stroke-width="1"/><path id="e563xmlbixqy9" d="M232.739000,497.590000C242.052000,489.120000,250.357000,481.179000,257.748000,471.112000C264.955000,461.420000,270.537000,449.905000,271.429000,437.483000C272.578000,424.163000,268.517000,410.799000,263.262000,398.340000C260.330000,391.402000,257.249000,384.577000,253.870000,377.978000C250.335000,370.557000,246.616000,363.511000,242.783000,356.317000C234.968000,342.041000,226.819000,328.253000,217.697000,314.732000C216.563000,313.243000,215.464000,311.492000,214.366000,309.741000C213.685000,308.848000,212.194000,309.979000,212.874000,310.872000C221.769000,324.095000,230.216000,337.656000,237.954000,351.522000C245.578000,365.238000,252.754000,379.293000,259.072000,393.766000C264.511000,405.850000,269.318000,418.648000,269.483000,432.147000C269.790000,444.599000,265.258000,456.257000,258.391000,466.396000C251.525000,476.534000,242.552000,485.452000,233.651000,493.845000C232.571000,494.899000,232.124000,495.238000,231.193000,496.178000C230.710000,496.780000,231.844000,498.269000,232.739000,497.590000Z" fill="rgb(255,255,255)" stroke="none" stroke-width="1"/><path id="e563xmlbixqy10" d="M60.054100,595.362000C73.152100,586.606000,87.235200,579.452000,102.005000,574.127000C116.924000,568.689000,132.381000,565.192000,147.999000,563.452000C163.206000,561.790000,178.687000,562.033000,194.068000,563.997000C209.186000,565.926000,223.827000,569.390000,238.104000,574.541000C252.381000,579.691000,266.032000,586.490000,278.830000,594.641000C280.298000,595.642000,282.029000,596.679000,283.498000,597.680000C284.477000,598.347000,285.628000,596.770000,284.763000,596.251000C272.036000,587.576000,258.421000,580.514000,244.066000,574.953000C229.711000,569.392000,214.879000,565.368000,199.833000,562.915000C184.637000,560.576000,169.078000,559.921000,153.794000,561.173000C121.614000,563.723000,90.832600,573.671000,63.735400,590.927000C62.130200,591.909000,60.489200,593.153000,58.884000,594.135000C58.024700,594.551000,59.159000,596.041000,60.054100,595.362000Z" fill="rgb(255,255,255)" stroke="none" stroke-width="1"/><path id="e563xmlbixqy11" d="M19.920100,401.742000C30.015500,398.316000,40.457400,396.271000,51.060900,395.983000C61.926900,395.730000,72.912500,396.561000,83.683700,398.965000C94.980000,401.439000,106.133000,404.962000,116.732000,409.610000C128.118000,414.365000,138.986000,419.984000,149.597000,426.501000C160.322000,433.168000,170.825000,440.471000,180.846000,448.376000C190.980000,456.429000,200.518000,464.935000,209.572000,474.043000C218.662000,482.888000,227.120000,492.447000,235.130000,502.346000C242.800000,511.798000,249.874000,521.703000,256.351000,532.060000C262.410000,541.559000,267.836000,551.772000,272.589000,562.027000C276.810000,571.276000,280.171000,580.941000,282.561000,590.873000C283.063000,593.077000,283.415000,595.393000,284.030000,597.745000C284.263000,598.978000,286.024000,598.818000,285.940000,597.472000C284.076000,587.611000,281.388000,577.904000,277.579000,568.579000C273.387000,558.133000,268.337000,548.105000,262.838000,538.415000C256.660000,527.832000,249.885000,517.701000,242.513000,508.023000C234.801000,497.898000,226.379000,488.077000,217.587000,479.005000C208.569000,469.636000,199.216000,460.755000,189.231000,452.588000C179.395000,444.309000,168.814000,436.594000,158.011000,429.517000C147.436000,422.737000,136.640000,416.595000,125.325000,411.316000C114.649000,406.257000,103.304000,402.174000,91.816900,399.140000C80.854600,396.177000,69.713600,394.524000,58.656500,394.217000C47.862000,393.945000,37.264800,395.168000,26.751400,397.737000C24.245400,398.463000,21.739400,399.189000,19.346800,400.063000C18.225100,400.444000,18.798300,402.123000,19.920100,401.742000Z" fill="rgb(255,255,255)" stroke="none" stroke-width="1"/><path id="e563xmlbixqy12" d="M536.283000,619.279000C536.283000,619.279000,567.253000,592.162000,570.571000,559.685000C571.835000,546.126000,577.524000,533.356000,586.846000,523.581000C591.271000,518.851000,596.169000,514.752000,601.383000,510.969000" fill="none" stroke="rgb(83,84,97)" stroke-width="0.926000" stroke-miterlimit="10"/><path id="e563xmlbixqy13" d="M603.595000,490.631000C601.067000,494.730000,601.225000,511.599000,601.225000,511.599000C601.225000,511.599000,616.236000,504.505000,618.764000,500.405000C621.134000,496.149000,619.396000,490.631000,614.971000,488.266000C611.021000,486.059000,606.123000,487.005000,603.595000,490.631000Z" fill="rgb(46,237,237)" stroke="none" stroke-width="1"/><path id="e563xmlbixqy14" d="M576.891000,505.450000C577.049000,510.338000,586.371000,524.685000,586.371000,524.685000C586.371000,524.685000,594.904000,510.496000,594.746000,505.608000C594.272000,500.721000,590.005000,496.937000,584.949000,497.252000C580.525000,497.410000,577.049000,500.878000,576.891000,505.450000Z" fill="rgb(46,237,237)" stroke="none" stroke-width="1"/><path id="e563xmlbixqy15" d="M553.190000,544.707000C555.877000,548.964000,570.887000,556.847000,570.887000,556.847000C570.887000,556.847000,570.887000,540.135000,568.201000,535.720000C565.357000,531.621000,559.827000,530.518000,555.719000,533.356000C552.242000,535.878000,551.136000,540.766000,553.190000,544.707000Z" fill="rgb(46,237,237)" stroke="none" stroke-width="1"/><path id="e563xmlbixqy16" d="M542.288000,578.761000C544.184000,583.333000,557.773000,593.581000,557.773000,593.581000C557.773000,593.581000,560.617000,577.185000,558.721000,572.455000C557.141000,567.725000,552.084000,565.045000,547.344000,566.464000C542.604000,567.883000,540.076000,572.770000,541.656000,577.500000C541.972000,577.973000,541.972000,578.288000,542.288000,578.761000Z" fill="rgb(46,237,237)" stroke="none" stroke-width="1"/><path id="e563xmlbixqy17" d="M601.857000,535.563000C597.117000,536.509000,581.158000,530.518000,581.158000,530.518000C581.158000,530.518000,593.009000,519.009000,597.907000,518.063000C602.806000,517.433000,607.388000,520.901000,608.178000,525.788000C608.810000,530.203000,606.124000,534.460000,601.857000,535.563000Z" fill="rgb(46,237,237)" stroke="none" stroke-width="1"/><path id="e563xmlbixqy18" d="M588.427000,575.135000C583.528000,574.662000,569.939000,564.099000,569.939000,564.099000C569.939000,564.099000,584.792000,556.847000,589.691000,557.320000C594.589000,558.108000,597.907000,562.838000,597.275000,567.568000C596.801000,572.140000,593.009000,575.450000,588.427000,575.135000Z" fill="rgb(46,237,237)" stroke="none" stroke-width="1"/><path id="e563xmlbixqy19" d="M570.099000,611.554000C565.200000,611.869000,550.189000,603.829000,550.189000,603.829000C550.189000,603.829000,563.620000,594.054000,568.518000,593.739000C573.417000,593.739000,577.525000,597.838000,577.683000,602.725000C577.683000,607.297000,574.523000,611.081000,570.099000,611.554000Z" fill="rgb(46,237,237)" stroke="none" stroke-width="1"/><path id="e563xmlbixqy20" d="M366.227000,343.319000C366.227000,343.319000,327.989000,298.702000,283.114000,293.341000C264.311000,291.134000,246.614000,282.778000,232.867000,269.535000C226.389000,263.071000,220.384000,256.134000,215.170000,248.567000" opacity="0.1" fill="none" stroke="rgb(83,84,97)" stroke-width="1.297300" stroke-miterlimit="10"/><path id="e563xmlbixqy21" d="M187.045000,244.940000C192.733000,248.724000,215.960000,248.724000,215.960000,248.724000C215.960000,248.724000,205.848000,227.125000,200.159000,223.499000C194.155000,220.188000,186.729000,222.553000,183.410000,228.702000C180.566000,234.220000,182.146000,241.157000,187.045000,244.940000Z" opacity="0.1" fill="rgb(108,99,255)" stroke="none" stroke-width="1"/><path id="e563xmlbixqy22" d="M208.219000,283.251000C215.013000,283.094000,234.448000,270.166000,234.448000,270.166000C234.448000,270.166000,214.539000,257.711000,207.903000,257.868000C201.108000,258.341000,196.052000,264.490000,196.684000,271.585000C197,277.891000,201.899000,282.778000,208.219000,283.251000Z" opacity="0.1" fill="rgb(108,99,255)" stroke="none" stroke-width="1"/><path id="e563xmlbixqy23" d="M263.047000,317.621000C268.893000,313.995000,279.322000,292.711000,279.322000,292.711000C279.322000,292.711000,256.094000,292.395000,250.248000,296.022000C244.718000,299.963000,243.296000,308.004000,247.088000,313.679000C250.722000,318.882000,257.517000,320.616000,263.047000,317.621000Z" opacity="0.1" fill="rgb(108,99,255)" stroke="none" stroke-width="1"/><path id="e563xmlbixqy24" d="M310.292000,334.017000C316.612000,331.495000,330.517000,312.260000,330.517000,312.260000C330.517000,312.260000,307.764000,307.846000,301.443000,310.368000C294.965000,312.418000,291.331000,319.513000,293.385000,326.292000C295.439000,333.071000,302.391000,336.697000,308.870000,334.490000C309.186000,334.490000,309.660000,334.332000,310.292000,334.017000Z" opacity="0.1" fill="rgb(108,99,255)" stroke="none" stroke-width="1"/><path id="e563xmlbixqy25" d="M249.300000,248.409000C250.722000,255.346000,242.821000,277.733000,242.821000,277.733000C242.821000,277.733000,226.704000,260.549000,225.282000,253.769000C224.334000,246.832000,228.916000,240.368000,235.711000,239.423000C241.715000,238.319000,247.562000,242.260000,249.300000,248.409000Z" opacity="0.1" fill="rgb(108,99,255)" stroke="none" stroke-width="1"/><path id="e563xmlbixqy26" d="M304.287000,268.274000C303.655000,275.211000,289.592000,294.287000,289.592000,294.287000C289.592000,294.287000,279.163000,272.846000,279.795000,265.909000C280.901000,258.972000,287.222000,254.242000,293.858000,255.346000C300.020000,256.449000,304.445000,261.967000,304.287000,268.274000Z" opacity="0.1" fill="rgb(108,99,255)" stroke="none" stroke-width="1"/><path id="e563xmlbixqy27" d="M355.165000,295.233000C355.639000,302.170000,344.895000,323.454000,344.895000,323.454000C344.895000,323.454000,331.148000,304.220000,330.674000,297.283000C330.674000,290.188000,336.204000,284.513000,342.999000,284.513000C349.003000,284.355000,354.217000,288.927000,355.165000,295.233000Z" opacity="0.1" fill="rgb(108,99,255)" stroke="none" stroke-width="1"/><path id="e563xmlbixqy28" d="M250.467000,165.658000C258.367000,170.388000,265.952000,175.749000,272.904000,181.897000C287.441000,194.825000,297.554000,212.010000,301.820000,230.771000C311.932000,275.546000,359.809000,310.861000,359.809000,310.861000" opacity="0.1" fill="none" stroke="rgb(83,84,97)" stroke-width="1.297300" stroke-miterlimit="10"/><path id="e563xmlbixqy29" d="M227.397000,134.915000C221.709000,138.541000,220.287000,146.424000,224.237000,152.100000C228.503000,157.618000,250.782000,166.289000,250.782000,166.289000C250.782000,166.289000,248.254000,142.798000,243.988000,137.280000C239.722000,132.708000,232.611000,131.604000,227.397000,134.915000Z" opacity="0.1" fill="rgb(108,99,255)" stroke="none" stroke-width="1"/><path id="e563xmlbixqy30" d="M271.006000,145.005000C264.054000,145.005000,258.681000,150.523000,258.839000,157.460000C259.471000,164.239000,273.850000,183.474000,273.850000,183.474000C273.850000,183.474000,284.437000,162.978000,283.805000,156.041000C282.857000,149.735000,277.484000,145.005000,271.006000,145.005000Z" opacity="0.1" fill="rgb(108,99,255)" stroke="none" stroke-width="1"/><path id="e563xmlbixqy31" d="M317.936000,193.091000C311.773000,189.622000,304.189000,191.514000,300.871000,197.505000C297.868000,203.654000,300.713000,226.987000,300.713000,226.987000C300.713000,226.987000,320.464000,214.848000,323.466000,208.699000C325.836000,202.866000,323.466000,196.244000,317.936000,193.091000Z" opacity="0.1" fill="rgb(108,99,255)" stroke="none" stroke-width="1"/><path id="e563xmlbixqy32" d="M345.114000,253.474000C346.536000,246.695000,342.112000,240.073000,335.317000,238.496000C328.523000,236.920000,321.886000,241.019000,320.622000,247.798000C318.884000,254.420000,325.521000,277.122000,325.521000,277.122000C325.521000,277.122000,342.902000,261.672000,344.640000,255.208000C344.956000,254.577000,345.114000,254.104000,345.114000,253.474000Z" opacity="0.1" fill="rgb(108,99,255)" stroke="none" stroke-width="1"/><path id="e563xmlbixqy33" d="M243.672000,186.785000C243.988000,179.848000,249.835000,174.803000,256.629000,175.276000C263.423000,176.222000,282.068000,191.199000,282.068000,191.199000C282.068000,191.199000,260.737000,200.816000,253.943000,199.870000C247.780000,198.609000,243.356000,193.091000,243.672000,186.785000Z" opacity="0.1" fill="rgb(108,99,255)" stroke="none" stroke-width="1"/><path id="e563xmlbixqy34" d="M265.636000,244.329000C263.740000,237.708000,267.848000,230.929000,274.484000,229.352000C281.279000,228.248000,303.400000,237.235000,303.400000,237.235000C303.400000,237.235000,286.177000,252.843000,279.382000,253.947000C273.220000,254.577000,267.374000,250.478000,265.636000,244.329000Z" opacity="0.1" fill="rgb(108,99,255)" stroke="none" stroke-width="1"/><path id="e563xmlbixqy35" d="M299.290000,291.627000C298.500000,284.690000,303.557000,278.699000,310.509000,278.384000C317.461000,278.384000,337.845000,290.838000,337.845000,290.838000C337.845000,290.838000,318.251000,303.136000,311.299000,303.293000C305.137000,302.820000,299.922000,297.775000,299.290000,291.627000Z" opacity="0.1" fill="rgb(108,99,255)" stroke="none" stroke-width="1"/><path id="e563xmlbixqy36" d="M846.458000,171.689000C859.414000,171.689000,869.843000,160.653000,869.843000,146.937000C869.843000,133.221000,859.414000,122.185000,846.458000,122.185000C833.501000,122.185000,823.072000,133.221000,823.072000,146.937000C823.072000,160.653000,833.501000,171.689000,846.458000,171.689000Z" fill="rgb(208,218,255)" stroke="none" stroke-width="1"/><path id="e563xmlbixqy37" d="M33.971900,639.459000C43.926500,639.459000,52.143000,630.946000,52.143000,620.383000C52.143000,609.820000,44.084500,601.306000,33.971900,601.306000C24.017300,601.306000,15.800800,609.820000,15.800800,620.383000C15.800800,630.946000,23.859300,639.459000,33.971900,639.459000Z" fill="rgb(208,218,255)" stroke="none" stroke-width="1"/><path id="e563xmlbixqy38" d="M796.368000,700C804.269000,700,810.747000,693.221000,810.747000,684.865000C810.747000,676.509000,804.269000,669.729000,796.368000,669.729000C788.468000,669.729000,782.147000,676.509000,782.147000,684.865000C781.989000,693.221000,788.468000,700,796.368000,700Z" fill="rgb(208,218,255)" stroke="none" stroke-width="1"/><path id="e563xmlbixqy39" d="M20.699200,187.139000C32.075900,187.139000,41.398500,177.365000,41.398500,165.383000C41.398500,153.401000,32.075900,143.626000,20.699200,143.626000C9.322560,143.626000,0,153.401000,0,165.383000C0,177.522000,9.322560,187.139000,20.699200,187.139000Z" fill="rgb(208,218,255)" stroke="none" stroke-width="1"/><path id="e563xmlbixqy40" d="M410.349000,661.847000C577.027000,661.847000,712.147000,655.423000,712.147000,647.500000C712.147000,639.576000,577.027000,633.153000,410.349000,633.153000C243.670000,633.153000,108.551000,639.576000,108.551000,647.500000C108.551000,655.423000,243.670000,661.847000,410.349000,661.847000Z" opacity="0.1" fill="rgb(45,13,178)" stroke="none" stroke-width="1"/><path id="e563xmlbixqy41" d="M525.855000,167.905000L301.008000,167.905000C294.056000,167.905000,288.367000,173.581000,288.367000,180.518000L288.367000,629.369000C288.367000,636.306000,294.056000,641.982000,301.008000,641.982000L525.697000,641.982000C532.650000,641.982000,538.338000,636.306000,538.338000,629.369000L538.338000,180.518000C538.338000,173.581000,532.808000,167.905000,525.855000,167.905000Z" fill="rgb(208,218,255)" stroke="none" stroke-width="1"/><path id="e563xmlbixqy42" d="M514.810000,179.599000L312.344000,179.599000C306.042000,179.599000,301,184.314000,301,190.246000L301,570.056000C301,575.989000,306.042000,580.704000,312.344000,580.704000L514.652000,580.704000C520.955000,580.704000,525.997000,575.989000,525.997000,570.056000L525.997000,190.094000C526.154000,184.314000,520.955000,179.599000,514.810000,179.599000Z" fill="rgb(255,255,255)" stroke="none" stroke-width="1"/><path id="e563xmlbixqy43" d="M392.180000,200.856000C393.918000,200.856000,395.340000,199.437000,395.340000,197.702000C395.340000,195.968000,393.918000,194.549000,392.180000,194.549000C390.442000,194.549000,389.020000,195.968000,389.020000,197.702000C389.020000,199.437000,390.442000,200.856000,392.180000,200.856000Z" fill="rgb(208,218,255)" stroke="none" stroke-width="1"/><path id="e563xmlbixqy44" d="M433.104000,194.549000L406.400000,194.549000C404.662000,194.549000,403.240000,195.968000,403.240000,197.702000C403.240000,199.437000,404.662000,200.856000,406.400000,200.856000L433.104000,200.856000C434.842000,200.856000,436.264000,199.437000,436.264000,197.702000C436.264000,195.968000,434.842000,194.549000,433.104000,194.549000Z" fill="rgb(208,218,255)" stroke="none" stroke-width="1"/><g id="e563xmlbixqy45"><path id="e563xmlbixqy46" d="M346.198000,550.789000C356.495000,550.789000,364.843000,542.460000,364.843000,532.185000C364.843000,521.911000,356.495000,513.582000,346.198000,513.582000C335.900000,513.582000,327.553000,521.911000,327.553000,532.185000C327.553000,542.460000,335.900000,550.789000,346.198000,550.789000Z" opacity="0.3" fill="url(#e563xmlbixqy46-fill)" stroke="none" stroke-width="1"/><path id="e563xmlbixqy47" d="M359.629000,534.235000L359.629000,535.338000L353.625000,535.338000C353.625000,534.077000,352.677000,532.973000,351.413000,532.658000C346.830000,531.870000,345.566000,531.870000,340.984000,532.816000C339.720000,533.131000,338.772000,534.235000,338.772000,535.496000L332.768000,535.496000L332.768000,534.392000C332.768000,532.343000,334.190000,530.451000,336.244000,529.820000C344.460000,527.298000,349.043000,527.140000,356.153000,529.820000C358.365000,530.608000,359.629000,532.027000,359.629000,534.235000Z" fill="rgb(255,255,255)" stroke="none" stroke-width="1"/><path id="e563xmlbixqy48" d="M332.609000,536.757000L339.087000,536.757000C339.245000,536.757000,339.403000,536.599000,339.403000,536.442000L339.403000,535.496000C339.403000,535.338000,339.245000,535.180000,339.087000,535.180000L332.609000,535.180000C332.451000,535.180000,332.293000,535.338000,332.293000,535.496000L332.293000,536.284000C332.293000,536.442000,332.451000,536.757000,332.609000,536.757000Z" fill="rgb(255,255,255)" stroke="none" stroke-width="1"/><path id="e563xmlbixqy49" d="M359.787000,536.757000L353.308000,536.757000C353.150000,536.757000,352.992000,536.599000,352.992000,536.442000L352.992000,535.496000C352.992000,535.338000,353.150000,535.180000,353.308000,535.180000L359.787000,535.180000C359.945000,535.180000,360.103000,535.338000,360.103000,535.496000L360.103000,536.284000C360.261000,536.442000,360.103000,536.757000,359.787000,536.757000Z" fill="rgb(255,255,255)" stroke="none" stroke-width="1"/></g><g id="e563xmlbixqy50"><path id="e563xmlbixqy51" d="M427.823000,546.528000C436.276000,538.093000,436.276000,524.418000,427.823000,515.983000C419.369000,507.548000,405.663000,507.548000,397.209000,515.983000C388.755000,524.418000,388.755000,538.093000,397.209000,546.528000C405.663000,554.963000,419.369000,554.963000,427.823000,546.528000Z" fill="rgb(41,217,225)" stroke="none" stroke-width="1"/><path id="e563xmlbixqy52" d="M402.765000,522.095000L403.555000,521.307000L407.821000,525.563000C406.873000,526.509000,406.715000,527.928000,407.505000,529.032000C410.034000,532.816000,411.140000,533.762000,414.932000,536.284000C416.038000,537.072000,417.460000,536.915000,418.408000,535.969000L422.674000,540.225000L421.884000,541.014000C420.462000,542.433000,418.092000,542.906000,416.196000,541.802000C408.453000,537.861000,405.293000,534.708000,402.133000,527.771000C401.027000,525.563000,401.185000,523.671000,402.765000,522.095000Z" fill="rgb(255,255,255)" stroke="none" stroke-width="1"/><path id="e563xmlbixqy53" d="M423.621000,539.437000L419.039000,534.865000C418.881000,534.707000,418.723000,534.707000,418.565000,534.865000L418.091000,535.338000C417.933000,535.496000,417.933000,535.653000,418.091000,535.811000L422.673000,540.383000C422.831000,540.541000,422.989000,540.541000,423.147000,540.383000L423.621000,539.910000C423.779000,539.910000,423.779000,539.595000,423.621000,539.437000Z" fill="rgb(255,255,255)" stroke="none" stroke-width="1"/><path id="e563xmlbixqy54" d="M404.344000,520.203000L408.926000,524.775000C409.084000,524.933000,409.084000,525.091000,408.926000,525.248000L408.452000,525.721000C408.294000,525.879000,408.136000,525.879000,407.978000,525.721000L403.396000,521.149000C403.238000,520.991000,403.238000,520.834000,403.396000,520.676000L403.870000,520.203000C404.028000,520.046000,404.186000,520.046000,404.344000,520.203000Z" fill="rgb(255,255,255)" stroke="none" stroke-width="1"/></g><g id="e563xmlbixqy55"><path id="e563xmlbixqy56" d="M478.926000,550.789000C489.224000,550.789000,497.572000,542.460000,497.572000,532.185000C497.572000,521.911000,489.224000,513.582000,478.926000,513.582000C468.629000,513.582000,460.281000,521.911000,460.281000,532.185000C460.281000,542.460000,468.629000,550.789000,478.926000,550.789000Z" fill="rgb(49,90,233)" stroke="none" stroke-width="1"/><path id="e563xmlbixqy57" d="M488.722000,525.721000L469.129000,525.721000L469.129000,538.491000L488.722000,538.491000L488.722000,525.721000Z" fill="url(#e563xmlbixqy57-fill)" stroke="none" stroke-width="1"/><path id="e563xmlbixqy58" d="M469.129000,538.491000L488.722000,538.491000L478.925000,532.185000L469.129000,538.491000Z" fill="url(#e563xmlbixqy58-fill)" stroke="none" stroke-width="1"/><path id="e563xmlbixqy59" d="M488.722000,525.721000L469.129000,525.721000L478.925000,537.703000L488.722000,525.721000Z" fill="rgb(255,255,255)" stroke="none" stroke-width="1"/></g><path id="e563xmlbixqy60" d="M413,235.489000C379.818000,235.489000,353,262.398000,353,295.355000C353,328.312000,379.970000,355.222000,413,355.222000C446.030000,355.222000,473,328.312000,473,295.355000C473,262.398000,446.182000,235.489000,413,235.489000ZM413,253.479000C423,253.479000,431.030000,261.491000,431.030000,271.469000C431.030000,281.447000,423,289.459000,413,289.459000C403,289.459000,394.970000,281.447000,394.970000,271.469000C394.970000,261.491000,403,253.479000,413,253.479000ZM413,338.592000C398,338.592000,384.667000,330.882000,376.939000,319.241000C377.091000,307.298000,401.030000,300.798000,413,300.798000C424.970000,300.798000,448.909000,307.298000,449.061000,319.241000C441.333000,330.882000,428,338.592000,413,338.592000Z" fill="rgb(179,199,255)" stroke="none" stroke-width="1"/><path id="e563xmlbixqy61" d="M413,630.593000C424.046000,630.593000,433,621.659000,433,610.638000C433,599.617000,424.046000,590.682000,413,590.682000C401.954000,590.682000,393,599.617000,393,610.638000C393,621.659000,401.954000,630.593000,413,630.593000Z" fill="rgb(255,255,255)" stroke="none" stroke-width="1"/><path id="e563xmlbixqy62" d="M358.230000,437L470.012000,437C473.947000,437,477.138000,433.280000,477.138000,428.692000C477.138000,424.104000,473.947000,420.384000,470.012000,420.384000L358.230000,420.384000C354.294000,420.384000,351.104000,424.104000,351.104000,428.692000C351.104000,433.280000,354.294000,437,358.230000,437Z" fill="rgb(230,235,255)" stroke="none" stroke-width="1"/><path id="e563xmlbixqy63" d="M358.230000,405.609000L470.012000,405.609000C473.947000,405.609000,477.138000,401.889000,477.138000,397.300000C477.138000,392.712000,473.947000,388.992000,470.012000,388.992000L358.230000,388.992000C354.294000,388.992000,351.104000,392.712000,351.104000,397.300000C351.104000,401.889000,354.294000,405.609000,358.230000,405.609000Z" fill="rgb(230,235,255)" stroke="none" stroke-width="1"/><g id="e563xmlbixqy64"><path id="e563xmlbixqy65" d="M771.938000,476L504.545000,476C502.579000,476,500.971000,474.395000,500.971000,472.433000L500.971000,301.226000C500.971000,299.264000,502.579000,297.659000,504.545000,297.659000L771.938000,297.659000C773.905000,297.659000,775.513000,299.264000,775.513000,301.226000L775.513000,472.433000C775.513000,474.395000,773.905000,476,771.938000,476Z" fill="rgb(58,82,204)" stroke="none" stroke-width="1"/><path id="e563xmlbixqy66" d="M500.971000,476L775.513000,476L638.242000,386.830000L500.971000,476Z" transform="matrix(1 0 0 1 -0.64500000000010 0)" opacity="0.8" fill="rgb(45,13,178)" stroke="none" stroke-width="1"/><path id="e563xmlbixqy67" d="M773.251000,305.916000C776.451000,302.782000,774.231000,297.345000,769.752000,297.345000L506.414000,297.345000C501.935000,297.345000,499.715000,302.782000,502.915000,305.916000L634.584000,434.916000C636.528000,436.821000,639.638000,436.821000,641.582000,434.916000L773.251000,305.916000Z" transform="matrix(1 0 0 1 -0.64500000000010 0)" fill="rgb(49,90,233)" stroke="none" stroke-width="1"/></g><path id="e563xmlbixqy68" d="M686.658000,538C710.201000,538.473000,710.043000,574.419000,686.658000,574.734000C663.114000,574.419000,663.114000,538.473000,686.658000,538Z" fill="rgb(179,199,255)" stroke="none" stroke-width="1"/><path id="e563xmlbixqy69" d="M686.658000,566.536000C686.026000,566.536000,685.394000,565.905000,685.394000,565.274000L685.394000,558.338000C685.394000,558.022000,685.236000,557.707000,684.920000,557.707000L678.125000,557.707000C677.493000,557.707000,676.861000,557.076000,676.861000,556.446000C676.861000,555.815000,677.335000,555.184000,678.125000,555.184000L684.762000,555.184000C685.078000,555.184000,685.236000,555.027000,685.236000,554.554000L685.236000,547.617000C685.236000,546.986000,685.710000,546.355000,686.500000,546.355000C687.132000,546.355000,687.764000,546.986000,687.764000,547.617000L687.764000,554.554000C687.764000,554.869000,687.922000,555.184000,688.238000,555.184000L694.874000,555.184000C695.506000,555.184000,696.138000,555.815000,696.138000,556.446000C696.138000,557.076000,695.664000,557.707000,694.874000,557.707000L688.238000,557.707000C687.922000,557.707000,687.764000,557.865000,687.764000,558.338000L687.764000,565.274000C687.922000,565.905000,687.290000,566.536000,686.658000,566.536000Z" fill="rgb(255,255,255)" stroke="none" stroke-width="1"/><g id="e563xmlbixqy70"><path id="e563xmlbixqy71" d="M242.944000,621.972000L116.694000,621.972000C113.534000,621.972000,111.164000,619.450000,111.164000,616.454000L111.164000,421.589000C111.164000,418.436000,113.692000,416.071000,116.694000,416.071000L242.944000,416.071000C257.323000,416.071000,269.016000,427.738000,269.016000,442.085000L269.016000,596.116000C268.858000,610.306000,257.323000,621.972000,242.944000,621.972000Z" fill="rgb(41,217,225)" stroke="none" stroke-width="1"/><path id="e563xmlbixqy72" d="M117.169000,608.256000L105.002000,608.256000C103.264000,608.256000,102,606.837000,102,605.260000C102,603.526000,103.422000,602.265000,105.002000,602.265000L117.169000,602.265000C118.907000,602.265000,120.171000,603.684000,120.171000,605.260000C120.171000,606.837000,118.749000,608.256000,117.169000,608.256000Z" fill="rgb(45,13,178)" stroke="none" stroke-width="1"/><path id="e563xmlbixqy73" d="M117.169000,586.815000L105.002000,586.815000C103.264000,586.815000,102,585.396000,102,583.819000C102,582.085000,103.422000,580.824000,105.002000,580.824000L117.169000,580.824000C118.907000,580.824000,120.171000,582.243000,120.171000,583.819000C120.171000,585.396000,118.749000,586.815000,117.169000,586.815000Z" fill="rgb(45,13,178)" stroke="none" stroke-width="1"/><path id="e563xmlbixqy74" d="M117.169000,565.373000L105.002000,565.373000C103.264000,565.373000,102,563.954000,102,562.378000C102,560.643000,103.422000,559.382000,105.002000,559.382000L117.169000,559.382000C118.907000,559.382000,120.171000,560.801000,120.171000,562.378000C120.171000,563.954000,118.749000,565.373000,117.169000,565.373000Z" fill="rgb(45,13,178)" stroke="none" stroke-width="1"/><path id="e563xmlbixqy75" d="M117.169000,543.931000L105.002000,543.931000C103.264000,543.931000,102,542.513000,102,540.936000C102,539.202000,103.422000,537.940000,105.002000,537.940000L117.169000,537.940000C118.907000,537.940000,120.171000,539.359000,120.171000,540.936000C120.171000,542.513000,118.749000,543.931000,117.169000,543.931000Z" fill="rgb(45,13,178)" stroke="none" stroke-width="1"/><path id="e563xmlbixqy76" d="M117.169000,522.490000L105.002000,522.490000C103.264000,522.490000,102,521.071000,102,519.495000C102,517.760000,103.422000,516.499000,105.002000,516.499000L117.169000,516.499000C118.907000,516.499000,120.171000,517.918000,120.171000,519.495000C120.171000,521.071000,118.749000,522.490000,117.169000,522.490000Z" fill="rgb(45,13,178)" stroke="none" stroke-width="1"/><path id="e563xmlbixqy77" d="M117.169000,501.049000L105.002000,501.049000C103.264000,501.049000,102,499.630000,102,498.053000C102,496.319000,103.422000,495.058000,105.002000,495.058000L117.169000,495.058000C118.907000,495.058000,120.171000,496.477000,120.171000,498.053000C120.171000,499.630000,118.749000,501.049000,117.169000,501.049000Z" fill="rgb(45,13,178)" stroke="none" stroke-width="1"/><path id="e563xmlbixqy78" d="M117.169000,479.607000L105.002000,479.607000C103.264000,479.607000,102,478.189000,102,476.612000C102,474.878000,103.422000,473.616000,105.002000,473.616000L117.169000,473.616000C118.907000,473.616000,120.171000,475.035000,120.171000,476.612000C120.171000,478.189000,118.749000,479.607000,117.169000,479.607000Z" fill="rgb(45,13,178)" stroke="none" stroke-width="1"/><path id="e563xmlbixqy79" d="M117.169000,458.166000L105.002000,458.166000C103.264000,458.166000,102,456.747000,102,455.170000C102,453.436000,103.422000,452.175000,105.002000,452.175000L117.169000,452.175000C118.907000,452.175000,120.171000,453.594000,120.171000,455.170000C120.171000,456.747000,118.749000,458.166000,117.169000,458.166000Z" fill="rgb(45,13,178)" stroke="none" stroke-width="1"/><path id="e563xmlbixqy80" d="M117.169000,436.724000L105.002000,436.724000C103.264000,436.724000,102,435.305000,102,433.729000C102,431.995000,103.422000,430.733000,105.002000,430.733000L117.169000,430.733000C118.907000,430.733000,120.171000,432.152000,120.171000,433.729000C120.171000,435.463000,118.749000,436.724000,117.169000,436.724000Z" fill="rgb(45,13,178)" stroke="none" stroke-width="1"/><path id="e563xmlbixqy81" d="M234.413000,544.247000C230.936000,540.779000,222.878000,535.418000,218.928000,533.526000C214.345000,531.161000,212.449000,531.161000,209.131000,533.842000C206.445000,535.733000,204.549000,537.783000,201.389000,536.995000C198.228000,536.206000,192.066000,531.319000,185.904000,525.328000C179.899000,519.022000,175.159000,512.715000,174.527000,509.405000C173.737000,506.094000,175.791000,504.202000,177.687000,501.522000C180.057000,498.053000,180.215000,496.319000,178.003000,491.432000C176.107000,487.333000,171.051000,478.819000,167.575000,475.351000C164.098000,471.882000,163.466000,472.670000,161.570000,473.459000C159.674000,474.247000,157.778000,475.351000,156.040000,476.454000C152.564000,478.819000,150.667000,480.711000,149.403000,483.706000C148.139000,486.702000,146.559000,492.062000,154.302000,506.251000C159.990000,517.130000,167.258000,527.062000,175.791000,535.891000C184.165000,544.720000,193.962000,552.130000,204.549000,558.121000C218.296000,566.161000,223.668000,564.585000,226.512000,563.166000C229.356000,561.747000,231.252000,559.855000,233.464000,556.387000C234.729000,554.495000,235.677000,552.761000,236.467000,550.711000C237.257000,548.504000,237.889000,547.715000,234.413000,544.247000Z" fill="rgb(255,255,255)" stroke="none" stroke-width="1"/></g><g id="e563xmlbixqy82"><path id="e563xmlbixqy83" d="M498.680000,21.951200L386.866000,21.951200C384.249000,21.951200,381.740000,22.988300,379.890000,24.834400C378.039000,26.680500,377,29.184400,377,31.795200L377,62.967900C377,65.578700,378.039000,68.082500,379.890000,69.928600C381.740000,71.774700,384.249000,72.811900,386.866000,72.811900L432.562000,72.811900L432.776000,104.526000L448.249000,72.811900L498.680000,72.811900C501.297000,72.811900,503.807000,71.774700,505.657000,69.928600C507.507000,68.082500,508.546000,65.578700,508.546000,62.967900L508.546000,31.795200C508.546000,29.184400,507.507000,26.680500,505.657000,24.834400C503.807000,22.988300,501.297000,21.951200,498.680000,21.951200Z" fill="rgb(255,255,255)" stroke="rgb(55,50,73)" stroke-width="1" stroke-linecap="round" stroke-linejoin="round"/><path id="e563xmlbixqy84" d="M428.050000,42.175100L428.050000,54.775100L425.134000,54.775100L425.134000,49.609100L419.410000,49.609100L419.410000,54.775100L416.494000,54.775100L416.494000,42.175100L419.410000,42.175100L419.410000,47.143100L425.134000,47.143100L425.134000,42.175100L428.050000,42.175100ZM440.319000,49.969100C440.319000,50.005100,440.301000,50.257100,440.265000,50.725100L432.939000,50.725100C433.071000,51.325100,433.383000,51.799100,433.875000,52.147100C434.367000,52.495100,434.979000,52.669100,435.711000,52.669100C436.215000,52.669100,436.659000,52.597100,437.043000,52.453100C437.439000,52.297100,437.805000,52.057100,438.141000,51.733100L439.635000,53.353100C438.723000,54.397100,437.391000,54.919100,435.639000,54.919100C434.547000,54.919100,433.581000,54.709100,432.741000,54.289100C431.901000,53.857100,431.253000,53.263100,430.797000,52.507100C430.341000,51.751100,430.113000,50.893100,430.113000,49.933100C430.113000,48.985100,430.335000,48.133100,430.779000,47.377100C431.235000,46.609100,431.853000,46.015100,432.633000,45.595100C433.425000,45.163100,434.307000,44.947100,435.279000,44.947100C436.227000,44.947100,437.085000,45.151100,437.853000,45.559100C438.621000,45.967100,439.221000,46.555100,439.653000,47.323100C440.097000,48.079100,440.319000,48.961100,440.319000,49.969100ZM435.297000,47.071100C434.661000,47.071100,434.127000,47.251100,433.695000,47.611100C433.263000,47.971100,432.999000,48.463100,432.903000,49.087100L437.673000,49.087100C437.577000,48.475100,437.313000,47.989100,436.881000,47.629100C436.449000,47.257100,435.921000,47.071100,435.297000,47.071100ZM442.189000,41.419100L444.997000,41.419100L444.997000,54.775100L442.189000,54.775100L442.189000,41.419100ZM447.603000,41.419100L450.411000,41.419100L450.411000,54.775100L447.603000,54.775100L447.603000,41.419100ZM457.625000,54.919100C456.605000,54.919100,455.687000,54.709100,454.871000,54.289100C454.067000,53.857100,453.437000,53.263100,452.981000,52.507100C452.525000,51.751100,452.297000,50.893100,452.297000,49.933100C452.297000,48.973100,452.525000,48.115100,452.981000,47.359100C453.437000,46.603100,454.067000,46.015100,454.871000,45.595100C455.687000,45.163100,456.605000,44.947100,457.625000,44.947100C458.645000,44.947100,459.557000,45.163100,460.361000,45.595100C461.165000,46.015100,461.795000,46.603100,462.251000,47.359100C462.707000,48.115100,462.935000,48.973100,462.935000,49.933100C462.935000,50.893100,462.707000,51.751100,462.251000,52.507100C461.795000,53.263100,461.165000,53.857100,460.361000,54.289100C459.557000,54.709100,458.645000,54.919100,457.625000,54.919100ZM457.625000,52.615100C458.345000,52.615100,458.933000,52.375100,459.389000,51.895100C459.857000,51.403100,460.091000,50.749100,460.091000,49.933100C460.091000,49.117100,459.857000,48.469100,459.389000,47.989100C458.933000,47.497100,458.345000,47.251100,457.625000,47.251100C456.905000,47.251100,456.311000,47.497100,455.843000,47.989100C455.375000,48.469100,455.141000,49.117100,455.141000,49.933100C455.141000,50.749100,455.375000,51.403100,455.843000,51.895100C456.311000,52.375100,456.905000,52.615100,457.625000,52.615100ZM464.452000,42.175100L467.800000,42.175100L467.242000,50.401100L465.010000,50.401100L464.452000,42.175100ZM466.126000,54.919100C465.634000,54.919100,465.220000,54.763100,464.884000,54.451100C464.560000,54.127100,464.398000,53.737100,464.398000,53.281100C464.398000,52.825100,464.560000,52.447100,464.884000,52.147100C465.208000,51.835100,465.622000,51.679100,466.126000,51.679100C466.630000,51.679100,467.044000,51.835100,467.368000,52.147100C467.692000,52.447100,467.854000,52.825100,467.854000,53.281100C467.854000,53.737100,467.686000,54.127100,467.350000,54.451100C467.026000,54.763100,466.618000,54.919100,466.126000,54.919100Z" fill="rgb(45,13,178)" stroke="none" stroke-width="1"/></g><path id="e563xmlbixqy85" d="M124.178000,212.369000C124.114000,212.245000,124.061000,212.023000,124.018000,211.703000C123.520000,212.231000,122.921000,212.499000,122.221000,212.506000C121.596000,212.512000,121.080000,212.341000,120.674000,211.994000C120.272000,211.642000,120.067000,211.195000,120.062000,210.653000C120.054000,209.993000,120.299000,209.479000,120.795000,209.111000C121.295000,208.739000,122.001000,208.548000,122.911000,208.540000L123.966000,208.529000L123.961000,208.031000C123.957000,207.653000,123.840000,207.353000,123.611000,207.133000C123.382000,206.909000,123.047000,206.799000,122.605000,206.803000C122.218000,206.807000,121.895000,206.908000,121.635000,207.105000C121.375000,207.303000,121.247000,207.541000,121.250000,207.818000L120.160000,207.828000C120.156000,207.512000,120.264000,207.207000,120.484000,206.912000C120.707000,206.613000,121.010000,206.375000,121.391000,206.200000C121.776000,206.024000,122.199000,205.934000,122.660000,205.930000C123.391000,205.923000,123.965000,206.101000,124.383000,206.463000C124.802000,206.823000,125.022000,207.322000,125.045000,207.962000L125.076000,210.879000C125.083000,211.461000,125.162000,211.923000,125.314000,212.265000L125.315000,212.358000L124.178000,212.369000ZM122.369000,211.561000C122.709000,211.558000,123.031000,211.467000,123.334000,211.288000C123.637000,211.110000,123.855000,210.879000,123.989000,210.597000L123.974000,209.296000L123.125000,209.305000C121.796000,209.318000,121.136000,209.713000,121.144000,210.490000C121.148000,210.829000,121.264000,211.094000,121.493000,211.283000C121.722000,211.472000,122.014000,211.565000,122.369000,211.561000ZM127.749000,205.997000L127.793000,206.793000C128.271000,206.180000,128.901000,205.869000,129.682000,205.861000C131.023000,205.848000,131.707000,206.597000,131.735000,208.108000L131.780000,212.295000L130.696000,212.306000L130.650000,208.113000C130.642000,207.656000,130.532000,207.319000,130.323000,207.102000C130.117000,206.886000,129.798000,206.780000,129.364000,206.784000C129.012000,206.787000,128.705000,206.884000,128.441000,207.074000C128.177000,207.264000,127.973000,207.512000,127.828000,207.818000L127.877000,212.333000L126.792000,212.344000L126.723000,206.007000L127.749000,205.997000ZM137.771000,212.237000L136.646000,212.248000L136.553000,203.721000L137.678000,203.710000L137.771000,212.237000ZM143.666000,206.609000C144.140000,206.015000,144.762000,205.714000,145.532000,205.706000C146.872000,205.693000,147.557000,206.442000,147.585000,207.953000L147.630000,212.140000L146.546000,212.151000L146.500000,207.958000C146.491000,207.501000,146.382000,207.164000,146.173000,206.948000C145.967000,206.731000,145.648000,206.625000,145.214000,206.629000C144.862000,206.632000,144.554000,206.729000,144.291000,206.919000C144.027000,207.109000,143.823000,207.357000,143.677000,207.663000L143.726000,212.179000L142.642000,212.189000L142.544000,203.194000L143.629000,203.183000L143.666000,206.609000ZM151.887000,212.216000C151.027000,212.224000,150.325000,211.950000,149.779000,211.393000C149.234000,210.832000,148.956000,210.079000,148.946000,209.135000L148.944000,208.935000C148.937000,208.307000,149.050000,207.745000,149.283000,207.251000C149.520000,206.753000,149.852000,206.363000,150.279000,206.082000C150.709000,205.796000,151.177000,205.651000,151.681000,205.646000C152.505000,205.638000,153.149000,205.903000,153.612000,206.442000C154.076000,206.980000,154.313000,207.755000,154.324000,208.766000L154.328000,209.217000L150.032000,209.259000C150.054000,209.883000,150.241000,210.387000,150.593000,210.770000C150.949000,211.149000,151.397000,211.336000,151.936000,211.331000C152.319000,211.327000,152.643000,211.246000,152.907000,211.087000C153.171000,210.928000,153.401000,210.719000,153.597000,210.460000L154.265000,210.969000C153.743000,211.790000,152.950000,212.206000,151.887000,212.216000ZM151.691000,206.536000C151.253000,206.541000,150.887000,206.704000,150.594000,207.027000C150.300000,207.347000,150.121000,207.793000,150.057000,208.368000L153.234000,208.337000L153.233000,208.255000C153.196000,207.705000,153.043000,207.281000,152.774000,206.983000C152.505000,206.681000,152.144000,206.532000,151.691000,206.536000ZM156.798000,212.051000L155.714000,212.061000L155.616000,203.066000L156.700000,203.055000L156.798000,212.051000ZM163.863000,208.883000C163.873000,209.848000,163.661000,210.627000,163.226000,211.221000C162.790000,211.815000,162.196000,212.115000,161.442000,212.123000C160.672000,212.130000,160.063000,211.892000,159.617000,211.408000L159.650000,214.460000L158.565000,214.470000L158.470000,205.697000L159.461000,205.687000L159.521000,206.390000C159.957000,205.839000,160.567000,205.559000,161.353000,205.552000C162.115000,205.544000,162.720000,205.825000,163.167000,206.395000C163.619000,206.965000,163.851000,207.761000,163.862000,208.784000L163.863000,208.883000ZM162.777000,208.771000C162.769000,208.057000,162.611000,207.494000,162.301000,207.083000C161.992000,206.672000,161.572000,206.469000,161.040000,206.474000C160.384000,206.481000,159.895000,206.777000,159.573000,207.361000L159.605000,210.389000C159.936000,210.964000,160.436000,211.248000,161.104000,211.241000C161.623000,211.236000,162.034000,211.027000,162.334000,210.614000C162.638000,210.198000,162.786000,209.583000,162.777000,208.771000ZM170.315000,210.332000L171.741000,205.567000L172.901000,205.556000L170.431000,212.896000C170.048000,213.954000,169.426000,214.487000,168.567000,214.495000L168.361000,214.480000L167.956000,214.408000L167.946000,213.529000L168.240000,213.550000C168.607000,213.546000,168.892000,213.469000,169.093000,213.319000C169.299000,213.168000,169.466000,212.895000,169.594000,212.500000L169.828000,211.853000L167.497000,205.609000L168.681000,205.597000L170.315000,210.332000Z" fill="rgb(25,31,209)" stroke="none" stroke-width="1"/><g id="e563xmlbixqy86"><path id="e563xmlbixqy87" d="M234.688000,186.914000L99.345500,188.241000C96.729900,188.265000,94.232100,189.326000,92.401500,191.189000C90.570800,193.052000,89.557200,195.565000,89.583400,198.177000L90.253000,259.440000C90.267000,260.734000,90.536300,262.013000,91.045500,263.203000C91.554700,264.393000,92.293700,265.472000,93.220400,266.378000C94.147000,267.283000,95.243200,267.998000,96.446100,268.481000C97.649100,268.963000,98.935300,269.205000,100.231000,269.191000L148.108000,268.731000L161.936000,302.523000L161.599000,268.590000L235.573000,267.864000C238.185000,267.836000,240.678000,266.775000,242.506000,264.913000C244.333000,263.052000,245.345000,260.542000,245.320000,257.935000L244.651000,196.671000C244.624000,194.060000,243.559000,191.565000,241.691000,189.735000C239.822000,187.906000,237.303000,186.891000,234.688000,186.914000Z" transform="matrix(1 0 0 1 0 -0.26335140499998)" fill="rgb(255,255,255)" stroke="rgb(55,50,73)" stroke-width="1" stroke-linecap="round" stroke-linejoin="round"/><path id="e563xmlbixqy88" d="M106.578000,233.723000C105.668000,233.732000,104.842000,233.541000,104.101000,233.150000C103.368000,232.750000,102.790000,232.201000,102.366000,231.503000C101.942000,230.797000,101.725000,230.002000,101.716000,229.119000C101.706000,228.235000,101.906000,227.440000,102.314000,226.735000C102.723000,226.020000,103.293000,225.460000,104.026000,225.055000C104.758000,224.640000,105.580000,224.429000,106.490000,224.420000C107.201000,224.413000,107.853000,224.528000,108.445000,224.764000C109.037000,224.993000,109.544000,225.338000,109.965000,225.802000L109.128000,226.629000C108.436000,225.917000,107.578000,225.566000,106.555000,225.576000C105.879000,225.582000,105.269000,225.740000,104.726000,226.048000C104.183000,226.357000,103.758000,226.781000,103.452000,227.321000C103.154000,227.853000,103.009000,228.448000,103.016000,229.106000C103.023000,229.764000,103.182000,230.361000,103.491000,230.895000C103.809000,231.420000,104.242000,231.832000,104.792000,232.129000C105.341000,232.427000,105.954000,232.573000,106.631000,232.566000C107.645000,232.556000,108.495000,232.184000,109.181000,231.450000L110.035000,232.260000C109.624000,232.732000,109.120000,233.092000,108.525000,233.340000C107.938000,233.589000,107.289000,233.716000,106.578000,233.723000ZM114.383000,233.621000C113.698000,233.628000,113.081000,233.482000,112.532000,233.184000C111.982000,232.886000,111.549000,232.475000,111.231000,231.949000C110.921000,231.415000,110.763000,230.810000,110.756000,230.135000C110.748000,229.459000,110.894000,228.856000,111.191000,228.324000C111.498000,227.784000,111.922000,227.364000,112.465000,227.064000C113.008000,226.756000,113.622000,226.598000,114.307000,226.591000C114.992000,226.585000,115.605000,226.730000,116.146000,227.028000C116.695000,227.317000,117.125000,227.729000,117.434000,228.263000C117.752000,228.788000,117.914000,229.389000,117.922000,230.065000C117.929000,230.740000,117.779000,231.348000,117.473000,231.888000C117.175000,232.420000,116.755000,232.840000,116.212000,233.148000C115.678000,233.457000,115.068000,233.614000,114.383000,233.621000ZM114.371000,232.529000C114.814000,232.525000,115.207000,232.422000,115.552000,232.219000C115.905000,232.008000,116.179000,231.719000,116.375000,231.353000C116.570000,230.979000,116.665000,230.553000,116.660000,230.077000C116.655000,229.601000,116.551000,229.181000,116.347000,228.820000C116.144000,228.449000,115.863000,228.166000,115.506000,227.970000C115.157000,227.774000,114.761000,227.678000,114.319000,227.683000C113.877000,227.687000,113.479000,227.791000,113.126000,227.993000C112.781000,228.196000,112.507000,228.485000,112.303000,228.859000C112.107000,229.225000,112.012000,229.646000,112.017000,230.122000C112.022000,230.599000,112.127000,231.022000,112.330000,231.393000C112.542000,231.755000,112.823000,232.038000,113.172000,232.242000C113.529000,232.438000,113.929000,232.534000,114.371000,232.529000ZM126.035000,226.542000L126.110000,233.428000L124.927000,233.440000L124.915000,232.400000C124.668000,232.758000,124.337000,233.038000,123.923000,233.242000C123.517000,233.436000,123.072000,233.536000,122.586000,233.541000C121.667000,233.550000,120.941000,233.305000,120.406000,232.808000C119.872000,232.302000,119.599000,231.556000,119.589000,230.568000L119.546000,226.605000L120.794000,226.593000L120.836000,230.413000C120.843000,231.080000,121.009000,231.585000,121.333000,231.928000C121.658000,232.263000,122.119000,232.428000,122.717000,232.422000C123.376000,232.415000,123.894000,232.211000,124.272000,231.809000C124.649000,231.407000,124.833000,230.842000,124.825000,230.114000L124.787000,226.554000L126.035000,226.542000ZM128.382000,223.764000L129.631000,223.751000L129.735000,233.393000L128.487000,233.405000L128.382000,223.764000ZM138.517000,223.664000L138.622000,233.306000L137.425000,233.317000L137.413000,232.226000C137.140000,232.610000,136.792000,232.903000,136.369000,233.107000C135.947000,233.310000,135.479000,233.414000,134.968000,233.419000C134.300000,233.426000,133.701000,233.285000,133.168000,232.995000C132.636000,232.706000,132.216000,232.298000,131.907000,231.773000C131.606000,231.239000,131.452000,230.625000,131.444000,229.932000C131.437000,229.239000,131.578000,228.627000,131.867000,228.096000C132.164000,227.564000,132.576000,227.149000,133.102000,226.849000C133.628000,226.550000,134.224000,226.396000,134.892000,226.390000C135.386000,226.385000,135.842000,226.476000,136.260000,226.662000C136.679000,226.840000,137.028000,227.110000,137.310000,227.471000L137.269000,223.677000L138.517000,223.664000ZM135.060000,232.327000C135.494000,232.323000,135.887000,232.219000,136.240000,232.016000C136.594000,231.805000,136.868000,231.517000,137.063000,231.151000C137.259000,230.776000,137.354000,230.351000,137.349000,229.874000C137.344000,229.398000,137.239000,228.979000,137.036000,228.617000C136.832000,228.246000,136.552000,227.963000,136.194000,227.768000C135.837000,227.572000,135.441000,227.476000,135.008000,227.480000C134.565000,227.485000,134.168000,227.588000,133.814000,227.791000C133.470000,227.994000,133.195000,228.282000,132.991000,228.657000C132.796000,229.022000,132.701000,229.443000,132.706000,229.920000C132.711000,230.396000,132.815000,230.820000,133.019000,231.190000C133.231000,231.552000,133.511000,231.835000,133.860000,232.040000C134.218000,232.236000,134.618000,232.331000,135.060000,232.327000ZM150.501000,226.302000L147.241000,233.910000C146.954000,234.615000,146.612000,235.112000,146.216000,235.401000C145.829000,235.691000,145.358000,235.839000,144.804000,235.844000C144.465000,235.847000,144.135000,235.794000,143.813000,235.685000C143.500000,235.584000,143.238000,235.431000,143.028000,235.225000L143.551000,234.284000C143.910000,234.618000,144.324000,234.783000,144.792000,234.779000C145.095000,234.776000,145.346000,234.691000,145.544000,234.524000C145.750000,234.366000,145.933000,234.092000,146.094000,233.700000L146.310000,233.217000L143.192000,226.374000L144.493000,226.361000L146.958000,231.847000L149.279000,226.314000L150.501000,226.302000ZM154.503000,233.228000C153.818000,233.235000,153.201000,233.089000,152.652000,232.791000C152.102000,232.494000,151.668000,232.082000,151.351000,231.557000C151.041000,231.023000,150.883000,230.418000,150.876000,229.742000C150.868000,229.066000,151.014000,228.463000,151.311000,227.932000C151.618000,227.391000,152.042000,226.971000,152.585000,226.672000C153.128000,226.363000,153.742000,226.205000,154.427000,226.199000C155.112000,226.192000,155.725000,226.338000,156.266000,226.635000C156.815000,226.925000,157.245000,227.336000,157.554000,227.870000C157.872000,228.396000,158.034000,228.996000,158.042000,229.672000C158.049000,230.348000,157.899000,230.955000,157.593000,231.496000C157.295000,232.027000,156.875000,232.447000,156.332000,232.755000C155.798000,233.064000,155.188000,233.221000,154.503000,233.228000ZM154.491000,232.137000C154.934000,232.132000,155.327000,232.029000,155.672000,231.826000C156.025000,231.615000,156.299000,231.326000,156.495000,230.961000C156.690000,230.586000,156.785000,230.161000,156.780000,229.684000C156.775000,229.208000,156.671000,228.789000,156.467000,228.427000C156.264000,228.056000,155.983000,227.773000,155.626000,227.577000C155.277000,227.382000,154.881000,227.286000,154.439000,227.290000C153.997000,227.294000,153.599000,227.398000,153.246000,227.601000C152.901000,227.803000,152.627000,228.092000,152.423000,228.466000C152.227000,228.832000,152.132000,229.253000,152.137000,229.730000C152.142000,230.206000,152.247000,230.630000,152.450000,231C152.662000,231.362000,152.943000,231.645000,153.292000,231.850000C153.649000,232.045000,154.049000,232.141000,154.491000,232.137000ZM166.155000,226.149000L166.230000,233.035000L165.046000,233.047000L165.035000,232.008000C164.788000,232.365000,164.457000,232.646000,164.043000,232.849000C163.637000,233.043000,163.192000,233.143000,162.706000,233.148000C161.787000,233.157000,161.061000,232.913000,160.526000,232.416000C159.992000,231.910000,159.719000,231.163000,159.709000,230.175000L159.666000,226.212000L160.914000,226.200000L160.956000,230.020000C160.963000,230.687000,161.129000,231.192000,161.453000,231.536000C161.778000,231.870000,162.239000,232.035000,162.837000,232.029000C163.496000,232.023000,164.014000,231.818000,164.391000,231.416000C164.769000,231.014000,164.953000,230.449000,164.945000,229.721000L164.907000,226.161000L166.155000,226.149000ZM175.704000,225.990000C176.580000,225.982000,177.276000,226.231000,177.793000,226.737000C178.319000,227.234000,178.587000,227.972000,178.598000,228.951000L178.641000,232.914000L177.392000,232.926000L177.351000,229.106000C177.344000,228.439000,177.178000,227.938000,176.853000,227.604000C176.529000,227.269000,176.068000,227.104000,175.469000,227.110000C174.793000,227.117000,174.262000,227.321000,173.876000,227.724000C173.490000,228.117000,173.301000,228.682000,173.309000,229.419000L173.348000,232.966000L172.099000,232.978000L171.995000,223.337000L173.243000,223.325000L173.284000,227.054000C173.540000,226.722000,173.876000,226.463000,174.290000,226.277000C174.713000,226.091000,175.184000,225.995000,175.704000,225.990000ZM187.182000,229.426000C187.183000,229.521000,187.176000,229.647000,187.160000,229.803000L181.568000,229.857000C181.652000,230.463000,181.922000,230.950000,182.377000,231.318000C182.841000,231.677000,183.410000,231.854000,184.087000,231.847000C184.910000,231.839000,185.571000,231.555000,186.067000,230.996000L186.765000,231.795000C186.457000,232.162000,186.070000,232.443000,185.604000,232.638000C185.147000,232.833000,184.632000,232.933000,184.059000,232.939000C183.331000,232.946000,182.684000,232.805000,182.117000,232.516000C181.550000,232.218000,181.108000,231.803000,180.790000,231.269000C180.480000,230.734000,180.322000,230.130000,180.315000,229.454000C180.308000,228.787000,180.448000,228.183000,180.737000,227.643000C181.035000,227.103000,181.442000,226.684000,181.959000,226.384000C182.485000,226.076000,183.077000,225.918000,183.736000,225.912000C184.395000,225.905000,184.982000,226.051000,185.497000,226.349000C186.020000,226.639000,186.428000,227.051000,186.720000,227.585000C187.020000,228.119000,187.174000,228.733000,187.182000,229.426000ZM183.748000,226.964000C183.149000,226.970000,182.648000,227.157000,182.245000,227.525000C181.850000,227.892000,181.621000,228.371000,181.558000,228.961000L185.980000,228.918000C185.904000,228.338000,185.661000,227.868000,185.249000,227.508000C184.846000,227.140000,184.346000,226.958000,183.748000,226.964000ZM188.848000,223.172000L190.096000,223.160000L190.201000,232.801000L188.952000,232.813000L188.848000,223.172000ZM196.164000,225.790000C196.831000,225.784000,197.431000,225.925000,197.963000,226.214000C198.495000,226.504000,198.912000,226.911000,199.212000,227.437000C199.521000,227.962000,199.680000,228.571000,199.687000,229.264000C199.695000,229.957000,199.550000,230.574000,199.252000,231.114000C198.963000,231.645000,198.556000,232.061000,198.030000,232.360000C197.504000,232.660000,196.908000,232.813000,196.240000,232.820000C195.746000,232.825000,195.290000,232.734000,194.871000,232.547000C194.462000,232.361000,194.112000,232.087000,193.822000,231.726000L193.861000,235.286000L192.612000,235.298000L192.510000,225.891000L193.707000,225.879000L193.718000,226.971000C193.992000,226.587000,194.340000,226.297000,194.762000,226.103000C195.185000,225.899000,195.652000,225.795000,196.164000,225.790000ZM196.124000,231.729000C196.566000,231.725000,196.960000,231.621000,197.304000,231.419000C197.658000,231.207000,197.932000,230.919000,198.127000,230.553000C198.331000,230.179000,198.431000,229.753000,198.426000,229.277000C198.421000,228.800000,198.312000,228.381000,198.100000,228.019000C197.896000,227.649000,197.616000,227.366000,197.258000,227.170000C196.909000,226.974000,196.514000,226.878000,196.072000,226.883000C195.638000,226.887000,195.245000,226.995000,194.892000,227.206000C194.547000,227.409000,194.272000,227.693000,194.068000,228.059000C193.873000,228.425000,193.778000,228.846000,193.783000,229.322000C193.788000,229.799000,193.892000,230.222000,194.096000,230.593000C194.299000,230.954000,194.580000,231.238000,194.937000,231.442000C195.295000,231.638000,195.691000,231.733000,196.124000,231.729000ZM213.489000,225.621000C214.356000,225.612000,215.044000,225.857000,215.552000,226.354000C216.069000,226.851000,216.333000,227.594000,216.344000,228.581000L216.386000,232.545000L215.138000,232.557000L215.097000,228.737000C215.089000,228.070000,214.928000,227.569000,214.612000,227.234000C214.305000,226.899000,213.865000,226.734000,213.293000,226.740000C212.660000,226.746000,212.159000,226.950000,211.791000,227.353000C211.422000,227.746000,211.242000,228.311000,211.250000,229.047000L211.288000,232.594000L210.040000,232.607000L209.999000,228.787000C209.991000,228.120000,209.830000,227.619000,209.514000,227.284000C209.207000,226.949000,208.767000,226.784000,208.195000,226.790000C207.562000,226.796000,207.061000,227,206.693000,227.402000C206.324000,227.796000,206.144000,228.361000,206.152000,229.097000L206.191000,232.644000L204.942000,232.657000L204.867000,225.770000L206.064000,225.758000L206.075000,226.785000C206.323000,226.427000,206.649000,226.155000,207.055000,225.969000C207.460000,225.775000,207.923000,225.675000,208.443000,225.670000C208.981000,225.665000,209.459000,225.768000,209.877000,225.981000C210.296000,226.193000,210.620000,226.506000,210.850000,226.920000C211.106000,226.519000,211.462000,226.204000,211.919000,225.974000C212.385000,225.744000,212.908000,225.626000,213.489000,225.621000ZM224.914000,229.056000C224.915000,229.152000,224.908000,229.277000,224.892000,229.433000L219.300000,229.488000C219.385000,230.094000,219.655000,230.581000,220.109000,230.949000C220.573000,231.308000,221.143000,231.484000,221.819000,231.478000C222.643000,231.470000,223.303000,231.186000,223.800000,230.627000L224.498000,231.426000C224.190000,231.792000,223.802000,232.073000,223.336000,232.269000C222.879000,232.464000,222.364000,232.564000,221.792000,232.570000C221.064000,232.577000,220.416000,232.436000,219.849000,232.147000C219.282000,231.849000,218.840000,231.433000,218.522000,230.899000C218.213000,230.365000,218.055000,229.760000,218.047000,229.085000C218.040000,228.418000,218.181000,227.814000,218.470000,227.274000C218.767000,226.734000,219.175000,226.314000,219.692000,226.015000C220.217000,225.706000,220.810000,225.549000,221.469000,225.542000C222.127000,225.536000,222.714000,225.682000,223.229000,225.980000C223.753000,226.269000,224.160000,226.681000,224.452000,227.216000C224.753000,227.750000,224.907000,228.363000,224.914000,229.056000ZM221.480000,226.595000C220.882000,226.601000,220.381000,226.788000,219.977000,227.155000C219.582000,227.523000,219.353000,228.002000,219.290000,228.592000L223.712000,228.548000C223.637000,227.969000,223.393000,227.499000,222.982000,227.139000C222.579000,226.770000,222.078000,226.589000,221.480000,226.595000ZM227.826000,229.561000C227.822000,229.214000,227.875000,228.910000,227.985000,228.649000C228.103000,228.380000,228.244000,228.153000,228.407000,227.970000C228.578000,227.786000,228.801000,227.567000,229.076000,227.313000C229.420000,227.007000,229.673000,226.744000,229.835000,226.526000C229.997000,226.299000,230.077000,226.030000,230.073000,225.718000C230.069000,225.294000,229.900000,224.957000,229.568000,224.709000C229.236000,224.453000,228.779000,224.327000,228.198000,224.333000C227.184000,224.343000,226.412000,224.693000,225.882000,225.382000L224.925000,224.716000C225.284000,224.245000,225.744000,223.881000,226.305000,223.624000C226.874000,223.367000,227.532000,223.235000,228.277000,223.228000C229.222000,223.218000,229.975000,223.419000,230.534000,223.829000C231.093000,224.231000,231.377000,224.791000,231.385000,225.510000C231.388000,225.866000,231.331000,226.182000,231.213000,226.461000C231.103000,226.730000,230.967000,226.957000,230.804000,227.140000C230.641000,227.324000,230.423000,227.543000,230.148000,227.797000C229.796000,228.121000,229.534000,228.405000,229.364000,228.649000C229.202000,228.893000,229.122000,229.193000,229.126000,229.548000L227.826000,229.561000ZM228.521000,232.504000C228.278000,232.506000,228.074000,232.430000,227.907000,232.276000C227.749000,232.113000,227.669000,231.914000,227.667000,231.680000C227.664000,231.447000,227.740000,231.251000,227.894000,231.093000C228.057000,230.927000,228.260000,230.843000,228.503000,230.841000C228.746000,230.838000,228.946000,230.918000,229.104000,231.082000C229.262000,231.236000,229.342000,231.430000,229.344000,231.664000C229.347000,231.898000,229.267000,232.098000,229.104000,232.264000C228.949000,232.422000,228.755000,232.501000,228.521000,232.504000Z" fill="rgb(55,50,73)" stroke="none" stroke-width="1"/></g><g id="e563xmlbixqy89"><path id="e563xmlbixqy90" d="M624.915000,172.570000L667.667000,172.570000C670.284000,172.570000,672.793000,173.608000,674.644000,175.454000C676.494000,177.300000,677.533000,179.804000,677.533000,182.414000L677.533000,223.973000C677.533000,226.583000,676.494000,229.087000,674.644000,230.933000C672.793000,232.779000,670.284000,233.817000,667.667000,233.817000L643.923000,233.817000L632.265000,252.274000L632.627000,233.817000L624.865000,233.817000C622.249000,233.817000,619.739000,232.779000,617.889000,230.933000C616.039000,229.087000,614.999000,226.583000,614.999000,223.973000L614.999000,182.414000C614.999000,181.118000,615.256000,179.833000,615.755000,178.636000C616.254000,177.438000,616.985000,176.351000,617.907000,175.436000C618.828000,174.521000,619.921000,173.797000,621.124000,173.306000C622.327000,172.814000,623.615000,172.564000,624.915000,172.570000Z" fill="rgb(255,255,255)" stroke="rgb(55,50,73)" stroke-width="1" stroke-linecap="round" stroke-linejoin="round"/><path id="e563xmlbixqy91" d="M646.753000,196.697000L646.753000,207.344000L645.232000,207.344000L645.232000,202.599000L639.118000,202.599000L639.118000,207.344000L637.597000,207.344000L637.597000,196.697000L639.118000,196.697000L639.118000,201.276000L645.232000,201.276000L645.232000,196.697000L646.753000,196.697000ZM649.727000,199.283000L651.188000,199.283000L651.188000,207.344000L649.727000,207.344000L649.727000,199.283000ZM650.457000,197.732000C650.174000,197.732000,649.935000,197.641000,649.743000,197.458000C649.560000,197.275000,649.469000,197.052000,649.469000,196.789000C649.469000,196.525000,649.560000,196.302000,649.743000,196.120000C649.935000,195.927000,650.174000,195.831000,650.457000,195.831000C650.741000,195.831000,650.975000,195.922000,651.157000,196.104000C651.350000,196.277000,651.446000,196.495000,651.446000,196.758000C651.446000,197.032000,651.350000,197.265000,651.157000,197.458000C650.975000,197.641000,650.741000,197.732000,650.457000,197.732000ZM653.778000,196.697000L655.496000,196.697000L655.207000,203.983000L654.052000,203.983000L653.778000,196.697000ZM654.645000,207.436000C654.361000,207.436000,654.123000,207.344000,653.930000,207.162000C653.737000,206.969000,653.641000,206.736000,653.641000,206.462000C653.641000,206.189000,653.737000,205.960000,653.930000,205.778000C654.123000,205.585000,654.361000,205.489000,654.645000,205.489000C654.929000,205.489000,655.162000,205.585000,655.344000,205.778000C655.527000,205.960000,655.618000,206.189000,655.618000,206.462000C655.618000,206.736000,655.522000,206.969000,655.329000,207.162000C655.147000,207.344000,654.919000,207.436000,654.645000,207.436000Z" fill="rgb(45,13,178)" stroke="none" stroke-width="1"/></g></g><clipPath id="e563xmlbixqy92"><rect id="e563xmlbixqy93" width="870" height="700" rx="0" ry="0" fill="rgb(255,255,255)" stroke="none" stroke-width="1"/></clipPath></g><script><![CDATA[!function(t,n){"object"==typeof exports&&"undefined"!=typeof module?module.exports=n():"function"==typeof define&&define.amd?define(n):(t=t||self).__SVGATOR_PLAYER__=n()}(this,(function(){"use strict";function t(n){return(t="function"==typeof Symbol&&"symbol"==typeof Symbol.iterator?function(t){return typeof t}:function(t){return t&&"function"==typeof Symbol&&t.constructor===Symbol&&t!==Symbol.prototype?"symbol":typeof t})(n)}function n(t,n){if(!(t instanceof n))throw new TypeError("Cannot call a class as a function")}function r(t,n){for(var r=0;r<n.length;r++){var e=n[r];e.enumerable=e.enumerable||!1,e.configurable=!0,"value"in e&&(e.writable=!0),Object.defineProperty(t,e.key,e)}}function e(t,n,e){return n&&r(t.prototype,n),e&&r(t,e),t}function i(t){return(i=Object.setPrototypeOf?Object.getPrototypeOf:function(t){return t.__proto__||Object.getPrototypeOf(t)})(t)}function o(t,n){return(o=Object.setPrototypeOf||function(t,n){return t.__proto__=n,t})(t,n)}function u(t,n){return!n||"object"!=typeof n&&"function"!=typeof n?function(t){if(void 0===t)throw new ReferenceError("this hasn't been initialised - super() hasn't been called");return t}(t):n}function a(t){var n=function(){if("undefined"==typeof Reflect||!Reflect.construct)return!1;if(Reflect.construct.sham)return!1;if("function"==typeof Proxy)return!0;try{return Date.prototype.toString.call(Reflect.construct(Date,[],(function(){}))),!0}catch(t){return!1}}();return function(){var r,e=i(t);if(n){var o=i(this).constructor;r=Reflect.construct(e,arguments,o)}else r=e.apply(this,arguments);return u(this,r)}}function l(t,n,r){return(l="undefined"!=typeof Reflect&&Reflect.get?Reflect.get:function(t,n,r){var e=function(t,n){for(;!Object.prototype.hasOwnProperty.call(t,n)&&null!==(t=i(t)););return t}(t,n);if(e){var o=Object.getOwnPropertyDescriptor(e,n);return o.get?o.get.call(r):o.value}})(t,n,r||t)}var f=Math.abs;function s(t){return t}function c(t,n,r){var e=1-r;return 3*r*e*(t*e+n*r)+r*r*r}function h(){var t=arguments.length>0&&void 0!==arguments[0]?arguments[0]:0,n=arguments.length>1&&void 0!==arguments[1]?arguments[1]:0,r=arguments.length>2&&void 0!==arguments[2]?arguments[2]:1,e=arguments.length>3&&void 0!==arguments[3]?arguments[3]:1;return t<0||t>1||r<0||r>1?null:f(t-n)<=1e-5&&f(r-e)<=1e-5?s:function(i){if(i<=0)return t>0?i*n/t:0===n&&r>0?i*e/r:0;if(i>=1)return r<1?1+(i-1)*(e-1)/(r-1):1===r&&t<1?1+(i-1)*(n-1)/(t-1):1;for(var o,u=0,a=1;u<a;){var l=c(t,r,o=(u+a)/2);if(f(i-l)<1e-5)break;l<i?u=o:a=o}return c(n,e,o)}}function v(){return 1}function y(t){return 1===t?1:0}function d(){var t=arguments.length>0&&void 0!==arguments[0]?arguments[0]:1,n=arguments.length>1&&void 0!==arguments[1]?arguments[1]:0;if(1===t){if(0===n)return y;if(1===n)return v}var r=1/t;return function(t){return t>=1?1:(t+=n*r)-t%r}}function g(t){var n=arguments.length>1&&void 0!==arguments[1]?arguments[1]:2;if(Number.isInteger(t))return t;var r=Math.pow(10,n);return Math.round(t*r)/r}var p=Math.PI/180;function m(t,n,r){return t>=.5?r:n}function b(t,n,r){return 0===t||n===r?n:t*(r-n)+n}function w(t,n,r){var e=b(t,n,r);return e<=0?0:e}function k(t,n,r){return 0===t?n:1===t?r:{x:b(t,n.x,r.x),y:b(t,n.y,r.y)}}function x(t,n,r){var e=function(t,n,r){return Math.round(b(t,n,r))}(t,n,r);return e<=0?0:e>=255?255:e}function A(t,n,r){return 0===t?n:1===t?r:{r:x(t,n.r,r.r),g:x(t,n.g,r.g),b:x(t,n.b,r.b),a:b(t,null==n.a?1:n.a,null==r.a?1:r.a)}}function _(t,n,r){if(0===t)return n;if(1===t)return r;var e=n.length;if(e!==r.length)return m(t,n,r);for(var i=[],o=0;o<e;o++)i.push(A(t,n[o],r[o]));return i}function S(t,n){for(var r=[],e=0;e<t;e++)r.push(n);return r}function O(t,n){if(--n<=0)return t;var r=(t=Object.assign([],t)).length;do{for(var e=0;e<r;e++)t.push(t[e])}while(--n>0);return t}var M,j=function(){function t(r){n(this,t),this.list=r,this.length=r.length}return e(t,[{key:"setAttribute",value:function(t,n){for(var r=this.list,e=0;e<this.length;e++)r[e].setAttribute(t,n)}},{key:"removeAttribute",value:function(t){for(var n=this.list,r=0;r<this.length;r++)n[r].removeAttribute(t)}},{key:"style",value:function(t,n){for(var r=this.list,e=0;e<this.length;e++)r[e].style[t]=n}}]),t}(),F=/-./g,P=function(t,n){return n.toUpperCase()};function q(t){return"function"==typeof t?t:m}function B(t){return t?"function"==typeof t?t:Array.isArray(t)?function(t){var n=arguments.length>1&&void 0!==arguments[1]?arguments[1]:s;if(!Array.isArray(t))return n;switch(t.length){case 1:return d(t[0])||n;case 2:return d(t[0],t[1])||n;case 4:return h(t[0],t[1],t[2],t[3])||n}return n}(t,null):function(t,n){var r=arguments.length>2&&void 0!==arguments[2]?arguments[2]:s;switch(t){case"linear":return s;case"steps":return d(n.steps||1,n.jump||0)||r;case"bezier":case"cubic-bezier":return h(n.x1||0,n.y1||0,n.x2||0,n.y2||0)||r}return r}(t.type,t.value,null):null}function I(t,n,r){var e=arguments.length>3&&void 0!==arguments[3]&&arguments[3],i=n.length-1;if(t<=n[0].t)return e?[0,0,n[0].v]:n[0].v;if(t>=n[i].t)return e?[i,1,n[i].v]:n[i].v;var o,u=n[0],a=null;for(o=1;o<=i;o++){if(!(t>n[o].t)){a=n[o];break}u=n[o]}return null==a?e?[i,1,n[i].v]:n[i].v:u.t===a.t?e?[o,1,a.v]:a.v:(t=(t-u.t)/(a.t-u.t),u.e&&(t=u.e(t)),e?[o,t,r(t,u.v,a.v)]:r(t,u.v,a.v))}function R(t,n){var r=arguments.length>2&&void 0!==arguments[2]?arguments[2]:null;return t&&t.length?"function"!=typeof n?null:("function"!=typeof r&&(r=null),function(e){var i=I(e,t,n);return null!=i&&r&&(i=r(i)),i}):null}function E(t,n){return t.t-n.t}function T(n,r,e,i,o){var u,a="@"===e[0],l="#"===e[0],f=M[e],s=m;switch(a?(u=e.substr(1),e=u.replace(F,P)):l&&(e=e.substr(1)),t(f)){case"function":if(s=f(i,o,I,B,e,a,r,n),l)return s;break;case"string":s=R(i,q(f));break;case"object":if((s=R(i,q(f.i),f.f))&&"function"==typeof f.u)return f.u(r,s,e,a,n)}return s?function(t,n,r){var e=arguments.length>3&&void 0!==arguments[3]&&arguments[3];if(e)return t instanceof j?function(e){return t.style(n,r(e))}:function(e){return t.style[n]=r(e)};if(Array.isArray(n)){var i=n.length;return function(e){var o=r(e);if(null==o)for(var u=0;u<i;u++)t[u].removeAttribute(n);else for(var a=0;a<i;a++)t[a].setAttribute(n,o)}}return function(e){var i=r(e);null==i?t.removeAttribute(n):t.setAttribute(n,i)}}(r,e,s,a):null}function z(n,r,e,i){if(!i||"object"!==t(i))return null;var o=null,u=null;return Array.isArray(i)?u=function(t){if(!t||!t.length)return null;for(var n=0;n<t.length;n++)t[n].e&&(t[n].e=B(t[n].e));return t.sort(E)}(i):(u=i.keys,o=i.data||null),u?T(n,r,e,u,o):null}function C(t,n,r){if(!r)return null;var e=[];for(var i in r)if(r.hasOwnProperty(i)){var o=z(t,n,i,r[i]);o&&e.push(o)}return e.length?e:null}function D(t,n){if(!n.duration||n.duration<0)return null;var r=function(t,n){if(!n)return null;var r=[];if(Array.isArray(n))for(var e=n.length,i=0;i<e;i++){var o=n[i];if(2===o.length){var u=null;if("string"==typeof o[0])u=t.getElementById(o[0]);else if(Array.isArray(o[0])){u=[];for(var a=0;a<o[0].length;a++)if("string"==typeof o[0][a]){var l=t.getElementById(o[0][a]);l&&u.push(l)}u=u.length?1===u.length?u[0]:new j(u):null}if(u){var f=C(t,u,o[1]);f&&(r=r.concat(f))}}}else for(var s in n)if(n.hasOwnProperty(s)){var c=t.getElementById(s);if(c){var h=C(t,c,n[s]);h&&(r=r.concat(h))}}return r.length?r:null}(t,n.elements);return r?function(t,n){var r=arguments.length>2&&void 0!==arguments[2]?arguments[2]:1/0,e=arguments.length>3&&void 0!==arguments[3]?arguments[3]:1,i=arguments.length>4&&void 0!==arguments[4]&&arguments[4],o=arguments.length>5&&void 0!==arguments[5]?arguments[5]:1,u=t.length,a=e>0?n:0;i&&r%2==0&&(a=n-a);var l=null;return function(f,s){var c=f%n,h=1+(f-c)/n;s*=e,i&&h%2==0&&(s=-s);var v=!1;if(h>r)c=a,v=!0,-1===o&&(c=e>0?0:n);else if(s<0&&(c=n-c),c===l)return!1;l=c;for(var y=0;y<u;y++)t[y](c);return v}}(r,n.duration,n.iterations||1/0,n.direction||1,!!n.alternate,n.fill||1):null}function N(t,n){if(M=n,!t||!t.root||!Array.isArray(t.animations))return null;for(var r=document.getElementsByTagName("svg"),e=!1,i=0;i<r.length;i++)if(r[i].id===t.root&&!r[i].svgatorAnimation){(e=r[i]).svgatorAnimation=!0;break}if(!e)return null;var o=t.animations.map((function(t){return D(e,t)})).filter((function(t){return!!t}));return o.length?{element:e,animations:o,animationSettings:t.animationSettings,options:t.options||void 0}:null}var L=function(){function t(r,e){var i=arguments.length>2&&void 0!==arguments[2]?arguments[2]:{};n(this,t),this._id=0,this._running=!1,this._rollingBack=!1,this._animations=r,this.duration=e.duration,this.alternate=e.alternate,this.fill=e.fill,this.iterations=e.iterations,this.direction=i.direction||1,this.speed=i.speed||1,this.fps=i.fps||100,this.offset=i.offset||0,this.rollbackStartOffset=0}return e(t,[{key:"_rollback",value:function(){var t=this,n=1/0,r=null;this.rollbackStartOffset=this.offset,this._rollingBack||(this._rollingBack=!0,this._running=!0);this._id=window.requestAnimationFrame((function e(i){if(t._rollingBack){null==r&&(r=i);var o=i-r,u=t.rollbackStartOffset-o,a=Math.round(u*t.speed);if(a>t.duration&&n!=1/0){var l=!!t.alternate&&a/t.duration%2>1,f=a%t.duration;a=(f+=l?t.duration:0)||t.duration}var s=t.fps?1e3/t.fps:0,c=Math.max(0,a);if(c<n-s){t.offset=c,n=c;for(var h=t._animations,v=h.length,y=0;y<v;y++)h[y](c,t.direction)}var d=!1;if(t.iterations>0&&-1===t.fill){var g=t.iterations*t.duration,p=g==a;a=p?0:a,t.offset=p?0:t.offset,d=a>g}a>0&&t.offset>=a&&!d?t._id=window.requestAnimationFrame(e):t.stop()}}))}},{key:"_start",value:function(){var t=this,n=arguments.length>0&&void 0!==arguments[0]?arguments[0]:0,r=-1/0,e=null,i={},o=function o(u){t._running=!0,null==e&&(e=u);var a=Math.round((u-e+n)*t.speed),l=t.fps?1e3/t.fps:0;if(a>r+l&&!t._rollingBack){t.offset=a,r=a;for(var f=t._animations,s=f.length,c=0,h=0;h<s;h++)i[h]?c++:(i[h]=f[h](a,t.direction),i[h]&&c++);if(c===s)return void t._stop()}t._id=window.requestAnimationFrame(o)};this._id=window.requestAnimationFrame(o)}},{key:"_stop",value:function(){this._id&&window.cancelAnimationFrame(this._id),this._running=!1,this._rollingBack=!1}},{key:"play",value:function(){!this._rollingBack&&this._running||(this._rollingBack=!1,this.rollbackStartOffset>this.duration&&(this.offset=this.rollbackStartOffset-(this.rollbackStartOffset-this.offset)%this.duration,this.rollbackStartOffset=0),this._start(this.offset))}},{key:"stop",value:function(){this._stop(),this.offset=0,this.rollbackStartOffset=0;var t=this.direction,n=this._animations;window.requestAnimationFrame((function(){for(var r=0;r<n.length;r++)n[r](0,t)}))}},{key:"reachedToEnd",value:function(){return this.iterations>0&&this.offset>=this.iterations*this.duration}},{key:"restart",value:function(){this._stop(),this.offset=0,this._start()}},{key:"pause",value:function(){this._stop()}},{key:"reverse",value:function(){this.direction=-this.direction}}],[{key:"build",value:function(n,r){return(n=N(n,r))?{el:n.element,options:n.options||{},player:new t(n.animations,n.animationSettings,n.options)}:null}}]),t}();!function(){for(var t=0,n=["ms","moz","webkit","o"],r=0;r<n.length&&!window.requestAnimationFrame;++r)window.requestAnimationFrame=window[n[r]+"RequestAnimationFrame"],window.cancelAnimationFrame=window[n[r]+"CancelAnimationFrame"]||window[n[r]+"CancelRequestAnimationFrame"];window.requestAnimationFrame||(window.requestAnimationFrame=function(n){var r=Date.now(),e=Math.max(0,16-(r-t)),i=window.setTimeout((function(){n(r+e)}),e);return t=r+e,i},window.cancelAnimationFrame=window.clearTimeout)}();var V=/\.0+$/g;function $(t){return Number.isInteger(t)?t+"":t.toFixed(6).replace(V,"")}function G(t){var n=arguments.length>1&&void 0!==arguments[1]?arguments[1]:" ";return t&&t.length?t.map($).join(n):""}function H(t){return t?null==t.a||t.a>=1?"rgb("+t.r+","+t.g+","+t.b+")":"rgba("+t.r+","+t.g+","+t.b+","+t.a+")":"transparent"}var Q={f:null,i:function(t,n,r){return 0===t?n:1===t?r:{x:w(t,n.x,r.x),y:w(t,n.y,r.y)}},u:function(t,n){return function(r){var e=n(r);t.setAttribute("rx",$(e.x)),t.setAttribute("ry",$(e.y))}}},U={f:null,i:function(t,n,r){return 0===t?n:1===t?r:{width:w(t,n.width,r.width),height:w(t,n.height,r.height)}},u:function(t,n){return function(r){var e=n(r);t.setAttribute("width",$(e.width)),t.setAttribute("height",$(e.height))}}},Y=Math.sin,Z=Math.cos,J=Math.acos,K=Math.asin,W=Math.tan,X=Math.atan2,tt=Math.PI/180,nt=180/Math.PI,rt=Math.sqrt,et=function(){function t(){var r=arguments.length>0&&void 0!==arguments[0]?arguments[0]:1,e=arguments.length>1&&void 0!==arguments[1]?arguments[1]:0,i=arguments.length>2&&void 0!==arguments[2]?arguments[2]:0,o=arguments.length>3&&void 0!==arguments[3]?arguments[3]:1,u=arguments.length>4&&void 0!==arguments[4]?arguments[4]:0,a=arguments.length>5&&void 0!==arguments[5]?arguments[5]:0;n(this,t),this.m=[r,e,i,o,u,a],this.i=null,this.w=null,this.s=null}return e(t,[{key:"point",value:function(t,n){var r=this.m;return{x:r[0]*t+r[2]*n+r[4],y:r[1]*t+r[3]*n+r[5]}}},{key:"translateSelf",value:function(){var t=arguments.length>0&&void 0!==arguments[0]?arguments[0]:0,n=arguments.length>1&&void 0!==arguments[1]?arguments[1]:0;if(!t&&!n)return this;var r=this.m;return r[4]+=r[0]*t+r[2]*n,r[5]+=r[1]*t+r[3]*n,this.w=this.s=this.i=null,this}},{key:"rotateSelf",value:function(){var t=arguments.length>0&&void 0!==arguments[0]?arguments[0]:0;if(t%=360){var n=Y(t*=tt),r=Z(t),e=this.m,i=e[0],o=e[1];e[0]=i*r+e[2]*n,e[1]=o*r+e[3]*n,e[2]=e[2]*r-i*n,e[3]=e[3]*r-o*n,this.w=this.s=this.i=null}return this}},{key:"scaleSelf",value:function(){var t=arguments.length>0&&void 0!==arguments[0]?arguments[0]:1,n=arguments.length>1&&void 0!==arguments[1]?arguments[1]:1;if(1!==t||1!==n){var r=this.m;r[0]*=t,r[1]*=t,r[2]*=n,r[3]*=n,this.w=this.s=this.i=null}return this}},{key:"skewSelf",value:function(t,n){if(n%=360,(t%=360)||n){var r=this.m,e=r[0],i=r[1],o=r[2],u=r[3];t&&(t=W(t*tt),r[2]+=e*t,r[3]+=i*t),n&&(n=W(n*tt),r[0]+=o*n,r[1]+=u*n),this.w=this.s=this.i=null}return this}},{key:"resetSelf",value:function(){var t=arguments.length>0&&void 0!==arguments[0]?arguments[0]:1,n=arguments.length>1&&void 0!==arguments[1]?arguments[1]:0,r=arguments.length>2&&void 0!==arguments[2]?arguments[2]:0,e=arguments.length>3&&void 0!==arguments[3]?arguments[3]:1,i=arguments.length>4&&void 0!==arguments[4]?arguments[4]:0,o=arguments.length>5&&void 0!==arguments[5]?arguments[5]:0,u=this.m;return u[0]=t,u[1]=n,u[2]=r,u[3]=e,u[4]=i,u[5]=o,this.w=this.s=this.i=null,this}},{key:"recomposeSelf",value:function(){var t=arguments.length>0&&void 0!==arguments[0]?arguments[0]:null,n=arguments.length>1&&void 0!==arguments[1]?arguments[1]:null,r=arguments.length>2&&void 0!==arguments[2]?arguments[2]:null,e=arguments.length>3&&void 0!==arguments[3]?arguments[3]:null,i=arguments.length>4&&void 0!==arguments[4]?arguments[4]:null;return this.isIdentity||this.resetSelf(),t&&(t.x||t.y)&&this.translateSelf(t.x,t.y),n&&this.rotateSelf(n),r&&(r.x&&this.skewSelf(r.x,0),r.y&&this.skewSelf(0,r.y)),!e||1===e.x&&1===e.y||this.scaleSelf(e.x,e.y),i&&(i.x||i.y)&&this.translateSelf(i.x,i.y),this}},{key:"decompose",value:function(){var t=arguments.length>0&&void 0!==arguments[0]?arguments[0]:0,n=arguments.length>1&&void 0!==arguments[1]?arguments[1]:0,r=this.m,e=r[0]*r[0]+r[1]*r[1],i=[[r[0],r[1]],[r[2],r[3]]],o=rt(e);if(0===o)return{origin:{x:r[4],y:r[5]},translate:{x:t,y:n},scale:{x:0,y:0},skew:{x:0,y:0},rotate:0};i[0][0]/=o,i[0][1]/=o;var u=r[0]*r[3]-r[1]*r[2]<0;u&&(o=-o);var a=i[0][0]*i[1][0]+i[0][1]*i[1][1];i[1][0]-=i[0][0]*a,i[1][1]-=i[0][1]*a;var l=rt(i[1][0]*i[1][0]+i[1][1]*i[1][1]);if(0===l)return{origin:{x:r[4],y:r[5]},translate:{x:t,y:n},scale:{x:o,y:0},skew:{x:0,y:0},rotate:0};i[1][0]/=l,i[1][1]/=l,a/=l;var f=0;return i[1][1]<0?(f=J(i[1][1])*nt,i[0][1]<0&&(f=360-f)):f=K(i[0][1])*nt,u&&(f=-f),a=X(a,rt(i[0][0]*i[0][0]+i[0][1]*i[0][1]))*nt,{origin:{x:r[4],y:r[5]},translate:{x:t,y:n},scale:{x:o,y:l},skew:{x:a,y:0},rotate:f}}},{key:"toString",value:function(){return null===this.s&&(this.s="matrix("+this.m.map(ot).join(" ")+")"),this.s}},{key:"determinant",get:function(){var t=this.m;return t[0]*t[3]-t[1]*t[2]}},{key:"isIdentity",get:function(){if(null===this.i){var t=this.m;this.i=1===t[0]&&0===t[1]&&0===t[2]&&1===t[3]&&0===t[4]&&0===t[5]}return this.i}}]),t}(),it=/\.0+$/;function ot(t){return Number.isInteger(t)?t:t.toFixed(14).replace(it,"")}Object.freeze({M:2,L:2,Z:0,H:1,V:1,C:6,Q:4,T:2,S:4,A:7});function ut(t,n,r){return t+(n-t)*r}function at(t,n,r){var e=arguments.length>3&&void 0!==arguments[3]&&arguments[3],i={x:ut(t.x,n.x,r),y:ut(t.y,n.y,r)};return e&&(i.a=lt(t,n)),i}function lt(t,n){return Math.atan2(n.y-t.y,n.x-t.x)}function ft(t,n,r,e){var i=1-e;return i*i*t+2*i*e*n+e*e*r}function st(t,n,r,e){return 2*(1-e)*(n-t)+2*e*(r-n)}function ct(t,n,r,e){var i=arguments.length>4&&void 0!==arguments[4]&&arguments[4],o={x:ft(t.x,n.x,r.x,e),y:ft(t.y,n.y,r.y,e)};return i&&(o.a=ht(t,n,r,e)),o}function ht(t,n,r,e){return Math.atan2(st(t.y,n.y,r.y,e),st(t.x,n.x,r.x,e))}function vt(t,n,r,e,i){var o=i*i;return i*o*(e-t+3*(n-r))+3*o*(t+r-2*n)+3*i*(n-t)+t}function yt(t,n,r,e,i){var o=1-i;return 3*(o*o*(n-t)+2*o*i*(r-n)+i*i*(e-r))}function dt(t,n,r,e,i){var o=arguments.length>5&&void 0!==arguments[5]&&arguments[5],u={x:vt(t.x,n.x,r.x,e.x,i),y:vt(t.y,n.y,r.y,e.y,i)};return o&&(u.a=gt(t,n,r,e,i)),u}function gt(t,n,r,e,i){return Math.atan2(yt(t.y,n.y,r.y,e.y,i),yt(t.x,n.x,r.x,e.x,i))}function pt(t,n,r){var e=arguments.length>3&&void 0!==arguments[3]&&arguments[3];if(bt(n)){if(wt(r))return ct(n,r.start,r,t,e)}else if(bt(r)){if(n.end)return ct(n,n.end,r,t,e)}else{if(n.end)return r.start?dt(n,n.end,r.start,r,t,e):ct(n,n.end,r,t,e);if(r.start)return ct(n,r.start,r,t,e)}return at(n,r,t,e)}function mt(t,n,r){var e=pt(t,n,r,!0);return e.a=function(t){var n=arguments.length>1&&void 0!==arguments[1]&&arguments[1];return n?t+Math.PI:t}(e.a)/p,e}function bt(t){return!t.type||"corner"===t.type}function wt(t){return null!=t.start&&!bt(t)}var kt=new et;var xt={f:$,i:b},At={f:$,i:function(t,n,r){var e=b(t,n,r);return e<=0?0:e>=1?1:e}};function _t(t,n,r,e,i,o,u,a){return n=function(t,n,r){for(var e,i,o,u=t.length-1,a={},l=0;l<=u;l++)(e=t[l]).e&&(e.e=n(e.e)),e.v&&"g"===(i=e.v).t&&i.r&&(o=r.getElementById(i.r))&&(a[i.r]=o.querySelectorAll("stop"));return a}(t,e,a),function(e){var i,o=r(e,t,St);return o?"c"===o.t?H(o.v):"g"===o.t?(n[o.r]&&function(t,n){for(var r=0,e=t.length;r<e;r++)t[r].setAttribute("stop-color",H(n[r]))}(n[o.r],o.v),(i=o.r)?"url(#"+i+")":"none"):"none":"none"}}function St(t,n,r){if(0===t)return n;if(1===t)return r;if(n&&r){var e=n.t;if(e===r.t)switch(n.t){case"c":return{t:e,v:A(t,n.v,r.v)};case"g":if(n.r===r.r)return{t:e,v:_(t,n.v,r.v),r:n.r}}}return m(t,n,r)}var Ot={fill:_t,"fill-opacity":At,stroke:_t,"stroke-opacity":At,"stroke-width":xt,"stroke-dashoffset":{f:$,i:b},"stroke-dasharray":{f:function(t){var n=arguments.length>1&&void 0!==arguments[1]?arguments[1]:" ";return t&&t.length>0&&(t=t.map((function(t){return Math.floor(1e4*t)/1e4}))),G(t,n)},i:function(t,n,r){var e,i,o,u=n.length,a=r.length;if(u!==a)if(0===u)n=S(u=a,0);else if(0===a)a=u,r=S(u,0);else{var l=(o=(e=u)*(i=a)/function(t,n){for(var r;n;)r=n,n=t%n,t=r;return t||1}(e,i))<0?-o:o;n=O(n,Math.floor(l/u)),r=O(r,Math.floor(l/a)),u=a=l}for(var f=[],s=0;s<u;s++)f.push(g(w(t,n[s],r[s]),6));return f}},opacity:At,transform:function(n,r,e,i){if(!(n=function(n,r){if(!n||"object"!==t(n))return null;var e=!1;for(var i in n)n.hasOwnProperty(i)&&(n[i]&&n[i].length?(n[i].forEach((function(t){t.e&&(t.e=r(t.e))})),e=!0):delete n[i]);return e?n:null}(n,i)))return null;var o=function(t,i,o){var u=arguments.length>3&&void 0!==arguments[3]?arguments[3]:null;return n[t]?e(i,n[t],o):r&&r[t]?r[t]:u};return r&&r.a&&n.o?function(t){var r=e(t,n.o,mt);return kt.recomposeSelf(r,o("r",t,b,0)+r.a,o("k",t,k),o("s",t,k),o("t",t,k)).toString()}:function(t){return kt.recomposeSelf(o("o",t,pt,null),o("r",t,b,0),o("k",t,k),o("s",t,k),o("t",t,k)).toString()}},r:xt,"#size":U,"#radius":Q,_:function(t,n){if(Array.isArray(t))for(var r=0;r<t.length;r++)this[t[r]]=n;else this[t]=n}};return function(t){!function(t,n){if("function"!=typeof n&&null!==n)throw new TypeError("Super expression must either be null or a function");t.prototype=Object.create(n&&n.prototype,{constructor:{value:t,writable:!0,configurable:!0}}),n&&o(t,n)}(u,t);var r=a(u);function u(){return n(this,u),r.apply(this,arguments)}return e(u,null,[{key:"build",value:function(t){var n=l(i(u),"build",this).call(this,t,Ot),r=(n.el,n.options,n.player);return function(t){t.play()}(r),r}}]),u}(L)}));
__SVGATOR_PLAYER__.build({"root":"e563xmlbixqy1","animations":[{"duration":4000,"direction":1,"iterations":0,"fill":1,"alternate":false,"elements":{"e563xmlbixqy36":{"transform":{"data":{"t":{"x":-846.45751953125,"y":-146.93699645996094}},"keys":{"o":[{"t":0,"v":{"x":846.45751953125,"y":146.93699645996094,"type":"corner"},"e":[0.42,0,0.58,1]},{"t":2000,"v":{"x":846.45751953125,"y":178.30299645996095,"type":"corner"},"e":[0.42,0,0.58,1]},{"t":4000,"v":{"x":846.45751953125,"y":146.93699645996094,"type":"corner"},"e":[0.42,0,0.58,1]}]}}},"e563xmlbixqy37":{"transform":{"data":{"t":{"x":-33.971900939941406,"y":-620.3825073242188}},"keys":{"o":[{"t":0,"v":{"x":33.971900939941406,"y":620.3825073242188,"type":"corner"},"e":[0.42,0,0.58,1]},{"t":2000,"v":{"x":33.971900939941406,"y":635.4558170342187,"type":"corner"},"e":[0.42,0,0.58,1]},{"t":4000,"v":{"x":33.971900939941406,"y":620.3825073242188,"type":"corner"},"e":[0.42,0,0.58,1]}]}}},"e563xmlbixqy38":{"transform":{"data":{"t":{"x":-796.4455871582031,"y":-684.864501953125}},"keys":{"o":[{"t":0,"v":{"x":796.4455871582031,"y":684.864501953125,"type":"corner"},"e":[0.42,0,0.58,1]},{"t":2000,"v":{"x":796.4455871582031,"y":676.9825019531249,"type":"corner"},"e":[0.42,0,0.58,1]},{"t":4000,"v":{"x":796.4455871582031,"y":684.864501953125,"type":"corner"},"e":[0.42,0,0.58,1]}]}}},"e563xmlbixqy39":{"transform":{"data":{"t":{"x":-20.699249267578125,"y":-165.38250732421875}},"keys":{"o":[{"t":0,"v":{"x":20.699249267578125,"y":165.38250732421875,"type":"corner"},"e":[0.42,0,0.58,1]},{"t":2000,"v":{"x":20.699249267578125,"y":149.64425510921873,"type":"corner"},"e":[0.42,0,0.58,1]},{"t":4000,"v":{"x":20.699249267578125,"y":165.38250732421875,"type":"corner"},"e":[0.42,0,0.58,1]}]}}},"e563xmlbixqy45":{"transform":{"data":{"t":{"x":-346.197998046875,"y":-532.1854858398438}},"keys":{"o":[{"t":0,"v":{"x":346.197998046875,"y":532.1854858398438,"type":"corner"},"e":[0.42,0,0.58,1]},{"t":2000,"v":{"x":346.197998046875,"y":540.7784843748439,"type":"corner"},"e":[0.42,0,0.58,1]},{"t":4000,"v":{"x":346.197998046875,"y":532.1854858398438,"type":"corner"},"e":[0.42,0,0.58,1]}]}}},"e563xmlbixqy50":{"transform":{"data":{"t":{"x":-412.515625,"y":-531.2554931640625}},"keys":{"o":[{"t":0,"v":{"x":412.515625,"y":531.2554931640625,"type":"corner"},"e":[0.42,0,0.58,1]},{"t":2000,"v":{"x":412.515625,"y":517.9798531690625,"type":"corner"},"e":[0.42,0,0.58,1]},{"t":4000,"v":{"x":412.515625,"y":531.2554931640625,"type":"corner"},"e":[0.42,0,0.58,1]}]}}},"e563xmlbixqy55":{"transform":{"data":{"t":{"x":-478.92649841308594,"y":-532.1854858398438}},"keys":{"o":[{"t":0,"v":{"x":478.92649841308594,"y":532.1854858398438,"type":"corner"},"e":[0.42,0,0.58,1]},{"t":2000,"v":{"x":478.92649841308594,"y":540.7784843748439,"type":"corner"},"e":[0.42,0,0.58,1]},{"t":4000,"v":{"x":478.92649841308594,"y":532.1854858398438,"type":"corner"},"e":[0.42,0,0.58,1]}]}}},"e563xmlbixqy64":{"transform":{"data":{"t":{"x":-637.9195098876953,"y":-386.67250061035156}},"keys":{"o":[{"t":0,"v":{"x":637.9195098876953,"y":386.67250061035156,"type":"corner"}},{"t":1000,"v":{"x":637.9195098876953,"y":410.0151292303517,"type":"corner"}},{"t":2000,"v":{"x":637.9195098876953,"y":386.67250061035156,"type":"corner"}},{"t":3000,"v":{"x":637.9195098876953,"y":410.0151292303517,"type":"corner"}},{"t":4000,"v":{"x":637.9195098876953,"y":386.67250061035156,"type":"corner"}}]}}},"e563xmlbixqy70":{"transform":{"data":{"t":{"x":-185.50799560546875,"y":-519.0214996337891}},"keys":{"o":[{"t":0,"v":{"x":185.50799560546875,"y":519.0214996337891,"type":"corner"},"e":[0.42,0,0.58,1]},{"t":1000,"v":{"x":185.50799560546875,"y":509.656750008789,"type":"corner"},"e":[0.42,0,0.58,1]},{"t":2000,"v":{"x":185.50799560546875,"y":519.0214996337891,"type":"corner"},"e":[0.42,0,0.58,1]},{"t":3000,"v":{"x":185.50799560546875,"y":509.656750008789,"type":"corner"},"e":[0.42,0,0.58,1]},{"t":4000,"v":{"x":185.50799560546875,"y":519.0214996337891,"type":"corner"},"e":[0.42,0,0.58,1]}]}}},"e563xmlbixqy82":{"transform":{"data":{"t":{"x":-442.7729949951172,"y":-63.23859977722168}},"keys":{"o":[{"t":0,"v":{"x":442.7729949951172,"y":63.23859977722168,"type":"corner"},"e":[0.42,0,0.58,1]},{"t":2000,"v":{"x":442.7729949951172,"y":70.7887337772217,"type":"corner"},"e":[0.42,0,0.58,1]},{"t":4000,"v":{"x":442.7729949951172,"y":63.23859977722168,"type":"corner"},"e":[0.42,0,0.58,1]}]}}},"e563xmlbixqy86":{"transform":{"data":{"t":{"x":-167.4516830444336,"y":-244.4549560546875}},"keys":{"o":[{"t":0,"v":{"x":167.4516830444336,"y":244.4549560546875,"type":"corner"},"e":[0.42,0,0.58,1]},{"t":2000,"v":{"x":167.4516830444336,"y":230.37458201468763,"type":"corner"},"e":[0.42,0,0.58,1]},{"t":4000,"v":{"x":167.4516830444336,"y":244.4549560546875,"type":"corner"},"e":[0.42,0,0.58,1]}]}}},"e563xmlbixqy89":{"transform":{"data":{"t":{"x":-646.2660217285156,"y":-212.4219512939453}},"keys":{"o":[{"t":0,"v":{"x":646.2660217285156,"y":212.4219512939453,"type":"corner"},"e":[0.42,0,0.58,1]},{"t":2000,"v":{"x":646.2660217285156,"y":219.45105078894525,"type":"corner"},"e":[0.42,0,0.58,1]},{"t":4000,"v":{"x":646.2660217285156,"y":212.4219512939453,"type":"corner"},"e":[0.42,0,0.58,1]}]}}}}}],"options":{"start":"load","hover":"freeze","click":"freeze","scroll":25,"exportedIds":"unique","title":"Illustration get in touch"},"animationSettings":{"duration":4000,"direction":1,"iterations":0,"fill":1,"alternate":false}})]]></script></svg>