<svg id="e7j0r6z424qg1" xmlns="http://www.w3.org/2000/svg" xmlns:xlink="http://www.w3.org/1999/xlink" viewBox="0 0 850 837" shape-rendering="geometricPrecision" text-rendering="geometricPrecision"><defs><linearGradient id="e7j0r6z424qg8-fill" x1="410.121000" y1="746.772000" x2="410.121000" y2="0" spreadMethod="pad" gradientUnits="userSpaceOnUse"><stop id="e7j0r6z424qg8-fill-0" offset="0%" stop-color="rgba(41,217,225,0.5)"/><stop id="e7j0r6z424qg8-fill-1" offset="100%" stop-color="rgba(41,217,225,0)"/></linearGradient><linearGradient id="e7j0r6z424qg11-fill" x1="597.859000" y1="310.718000" x2="618.776000" y2="310.718000" spreadMethod="pad" gradientUnits="userSpaceOnUse"><stop id="e7j0r6z424qg11-fill-0" offset="0%" stop-color="rgb(239,152,129)"/><stop id="e7j0r6z424qg11-fill-1" offset="100%" stop-color="rgb(255,94,54)"/></linearGradient><linearGradient id="e7j0r6z424qg26-fill" x1="488.302000" y1="167.364000" x2="518.751000" y2="154.854000" spreadMethod="pad" gradientUnits="userSpaceOnUse"><stop id="e7j0r6z424qg26-fill-0" offset="0%" stop-color="rgb(239,152,129)"/><stop id="e7j0r6z424qg26-fill-1" offset="100%" stop-color="rgb(255,94,54)"/></linearGradient><linearGradient id="e7j0r6z424qg32-stroke" x1="567.623000" y1="194.743000" x2="542.288000" y2="193.597000" spreadMethod="pad" gradientUnits="userSpaceOnUse"><stop id="e7j0r6z424qg32-stroke-0" offset="0%" stop-color="rgb(41,217,225)"/><stop id="e7j0r6z424qg32-stroke-1" offset="100%" stop-color="rgb(45,13,178)"/></linearGradient><linearGradient id="e7j0r6z424qg44-fill" x1="40.820600" y1="445.220000" x2="79.784700" y2="445.220000" spreadMethod="pad" gradientUnits="userSpaceOnUse"><stop id="e7j0r6z424qg44-fill-0" offset="0%" stop-color="rgb(45,13,178)"/><stop id="e7j0r6z424qg44-fill-1" offset="100%" stop-color="rgba(41,217,225,0.9)"/></linearGradient><linearGradient id="e7j0r6z424qg53-fill" x1="197.839000" y1="436.619000" x2="223.456000" y2="436.619000" spreadMethod="pad" gradientUnits="userSpaceOnUse"><stop id="e7j0r6z424qg53-fill-0" offset="0%" stop-color="rgb(239,152,129)"/><stop id="e7j0r6z424qg53-fill-1" offset="100%" stop-color="rgb(255,94,54)"/></linearGradient><linearGradient id="e7j0r6z424qg59-fill" x1="160.469000" y1="423.251000" x2="186.086000" y2="423.251000" spreadMethod="pad" gradientUnits="userSpaceOnUse"><stop id="e7j0r6z424qg59-fill-0" offset="0%" stop-color="rgb(239,152,129)"/><stop id="e7j0r6z424qg59-fill-1" offset="100%" stop-color="rgb(255,94,54)"/></linearGradient><linearGradient id="e7j0r6z424qg60-fill" x1="162.717000" y1="476.029000" x2="188.334000" y2="476.029000" spreadMethod="pad" gradientUnits="userSpaceOnUse"><stop id="e7j0r6z424qg60-fill-0" offset="0%" stop-color="rgb(239,152,129)"/><stop id="e7j0r6z424qg60-fill-1" offset="100%" stop-color="rgb(255,94,54)"/></linearGradient><linearGradient id="e7j0r6z424qg84-fill" x1="779.603000" y1="449.046000" x2="799.718000" y2="449.046000" spreadMethod="pad" gradientUnits="userSpaceOnUse"><stop id="e7j0r6z424qg84-fill-0" offset="0%" stop-color="rgb(239,152,129)"/><stop id="e7j0r6z424qg84-fill-1" offset="100%" stop-color="rgb(255,94,54)"/></linearGradient><linearGradient id="e7j0r6z424qg93-fill" x1="625.305000" y1="646.527000" x2="709.953000" y2="646.527000" spreadMethod="pad" gradientUnits="userSpaceOnUse"><stop id="e7j0r6z424qg93-fill-0" offset="0%" stop-color="rgb(172,198,249)"/><stop id="e7j0r6z424qg93-fill-1" offset="100%" stop-color="rgb(111,150,227)"/></linearGradient><linearGradient id="e7j0r6z424qg126-fill" x1="244.757000" y1="411.906000" x2="573.319000" y2="411.906000" spreadMethod="pad" gradientUnits="userSpaceOnUse"><stop id="e7j0r6z424qg126-fill-0" offset="0%" stop-color="rgb(45,13,178)"/><stop id="e7j0r6z424qg126-fill-1" offset="100%" stop-color="rgba(41,217,225,0.9)"/></linearGradient><linearGradient id="e7j0r6z424qg132-fill" x1="728.196000" y1="284.789000" x2="814.631000" y2="352.686000" spreadMethod="pad" gradientUnits="userSpaceOnUse"><stop id="e7j0r6z424qg132-fill-0" offset="0%" stop-color="rgb(45,13,178)"/><stop id="e7j0r6z424qg132-fill-1" offset="100%" stop-color="rgba(41,217,225,0.9)"/></linearGradient><linearGradient id="e7j0r6z424qg137-fill" x1="123.288000" y1="192.530000" x2="68.620300" y2="137.875000" spreadMethod="pad" gradientUnits="userSpaceOnUse"><stop id="e7j0r6z424qg137-fill-0" offset="0%" stop-color="rgb(239,152,129)"/><stop id="e7j0r6z424qg137-fill-1" offset="100%" stop-color="rgb(255,94,54)"/></linearGradient><linearGradient id="e7j0r6z424qg151-fill" x1="296.478000" y1="220.478000" x2="308.137000" y2="208.822000" spreadMethod="pad" gradientUnits="userSpaceOnUse"><stop id="e7j0r6z424qg151-fill-0" offset="0%" stop-color="rgb(239,152,129)"/><stop id="e7j0r6z424qg151-fill-1" offset="100%" stop-color="rgba(255,94,54,0.48)"/></linearGradient></defs><g id="e7j0r6z424qg2"><path id="e7j0r6z424qg3" d="M548.260000,742.703000L494.949000,742.703000C470.707000,732.038000,440.011000,725.864000,406.622000,726.257000C375.365000,726.650000,346.577000,732.712000,323.288000,742.703000L266.891000,742.703000C266.891000,742.703000,266.891000,758.531000,266.891000,759.429000C267.396000,803.154000,330.808000,837.898000,408.474000,836.944000C485.746000,836.046000,547.980000,800.235000,548.204000,756.847000L548.260000,742.703000Z" fill="rgb(45,13,178)" stroke="none" stroke-width="1"/><path id="e7j0r6z424qg4" d="M406.679000,663.560000C329.014000,664.459000,266.443000,700.662000,266.948000,744.387000C267.453000,788.111000,330.865000,822.856000,408.531000,821.901000C486.196000,821.003000,548.767000,784.800000,548.261000,741.075000C547.756000,697.350000,484.345000,662.606000,406.679000,663.560000Z" fill="rgb(58,82,204)" stroke="none" stroke-width="1"/><path id="e7j0r6z424qg5" d="M516.947000,711.607000L475.533000,711.607000C456.678000,703.356000,432.828000,698.529000,406.846000,698.810000C382.548000,699.090000,360.157000,703.805000,342.088000,711.607000L298.204000,711.607000C298.204000,711.607000,298.204000,739.335000,298.204000,740.009000C298.597000,774.023000,347.868000,801.021000,408.305000,800.291000C468.350000,799.562000,516.779000,771.778000,516.947000,737.988000L516.947000,711.607000Z" fill="rgb(45,13,178)" stroke="none" stroke-width="1"/><path id="e7j0r6z424qg6" d="M406.846000,650.033000C346.465000,650.763000,297.812000,678.884000,298.204000,712.898000C298.597000,746.912000,347.868000,773.911000,408.305000,773.181000C468.687000,772.451000,517.340000,744.331000,516.947000,710.316000C516.554000,676.302000,467.284000,649.304000,406.846000,650.033000Z" fill="rgb(41,217,225)" stroke="none" stroke-width="1"/><path id="e7j0r6z424qg7" d="M408.748000,746.718000C446.803000,746.271000,477.449000,728.545000,477.197000,707.127000C476.945000,685.709000,445.892000,668.708000,407.837000,669.156000C369.782000,669.603000,339.137000,687.329000,339.388000,708.747000C339.640000,730.165000,370.693000,747.166000,408.748000,746.718000Z" fill="rgb(45,13,178)" stroke="none" stroke-width="1"/></g><path id="e7j0r6z424qg8" d="M820.258000,0L0,0L339.394000,708.801000C339.618000,730.242000,370.707000,747.249000,408.754000,746.800000C446.352000,746.351000,476.655000,729.063000,477.217000,708.015000L477.273000,708.015000L820.258000,0Z" fill="url(#e7j0r6z424qg8-fill)" stroke="none" stroke-width="1"/><path id="e7j0r6z424qg9" d="M196.184000,262.966000C205.265000,262.966000,212.626000,255.603000,212.626000,246.520000C212.626000,237.437000,205.265000,230.074000,196.184000,230.074000C187.103000,230.074000,179.742000,237.437000,179.742000,246.520000C179.742000,255.603000,187.103000,262.966000,196.184000,262.966000Z" fill="rgb(41,217,225)" stroke="none" stroke-width="1"/><path id="e7j0r6z424qg10" d="M698.485000,122.530000C707.566000,122.530000,714.927000,115.167000,714.927000,106.084000C714.927000,97.001500,707.566000,89.638400,698.485000,89.638400C689.404000,89.638400,682.043000,97.001500,682.043000,106.084000C682.043000,115.167000,689.404000,122.530000,698.485000,122.530000Z" fill="rgb(41,217,225)" stroke="none" stroke-width="1"/><path id="e7j0r6z424qg11" d="M608.305000,321.172000C614.070000,321.172000,618.743000,316.498000,618.743000,310.732000C618.743000,304.966000,614.070000,300.292000,608.305000,300.292000C602.541000,300.292000,597.868000,304.966000,597.868000,310.732000C597.868000,316.498000,602.541000,321.172000,608.305000,321.172000Z" fill="url(#e7j0r6z424qg11-fill)" stroke="none" stroke-width="1"/><path id="e7j0r6z424qg12" d="M378.451000,122.474000C381.333000,122.474000,383.670000,120.137000,383.670000,117.254000C383.670000,114.371000,381.333000,112.034000,378.451000,112.034000C375.569000,112.034000,373.232000,114.371000,373.232000,117.254000C373.232000,120.137000,375.569000,122.474000,378.451000,122.474000Z" fill="rgb(41,217,225)" stroke="none" stroke-width="1"/><g id="e7j0r6z424qg13" transform="matrix(0.93250000000000 0 0 0.93250000000000 88.57286518751789 38.61769638180269)"><path id="e7j0r6z424qg14" d="M555.443000,204.198000C558.326000,204.198000,560.662000,201.861000,560.662000,198.978000C560.662000,196.095000,558.326000,193.758000,555.443000,193.758000C552.561000,193.758000,550.224000,196.095000,550.224000,198.978000C550.224000,201.861000,552.561000,204.198000,555.443000,204.198000Z" fill="rgb(255,255,255)" stroke="none" stroke-width="1"/><path id="e7j0r6z424qg15" d="M542.321000,184.120000L525.582000,174.046000L523.539000,149.516000L536.190000,155.113000L542.321000,184.120000Z" fill="rgb(43,111,200)" stroke="none" stroke-width="1"/><path id="e7j0r6z424qg16" d="M531.324000,201.252000L515.218000,190.253000L492.057000,198.721000L502.469000,207.871000L531.324000,201.252000Z" fill="rgb(43,111,200)" stroke="none" stroke-width="1"/><path id="e7j0r6z424qg17" d="M511.277000,182.125000L517.116000,171.710000C517.116000,171.710000,517.359000,162.803000,507.530000,158.764000C496.728000,154.335000,485.828000,156.281000,475.805000,155.454000C481.936000,163.192000,485.877000,173.802000,495.317000,180.665000C503.832000,186.943000,511.277000,182.125000,511.277000,182.125000Z" fill="rgb(43,111,200)" stroke="none" stroke-width="1"/><path id="e7j0r6z424qg18" d="M512.298000,182.855000L515.267000,177.501000L518.186000,172.294000C518.186000,172.294000,507.141000,164.215000,490.840000,163.971000C499.647000,177.745000,512.298000,182.855000,512.298000,182.855000Z" fill="rgb(43,111,200)" stroke="none" stroke-width="1"/><path id="e7j0r6z424qg19" d="M511.617000,188.099000L522.362000,171.288000L517.033000,167.880000L506.288000,184.692000L511.617000,188.099000Z" fill="rgb(43,111,200)" stroke="none" stroke-width="1"/><path id="e7j0r6z424qg20" d="M547.771000,222.472000C572.051000,235.953000,589.276000,226.024000,589.276000,226.024000C589.276000,226.024000,591.077000,206.167000,568.694000,189.766000C548.890000,175.262000,522.371000,171.320000,522.371000,171.320000L516.970000,179.789000L511.617000,188.160000C511.617000,188.111000,526.312000,210.548000,547.771000,222.472000Z" fill="rgb(43,111,200)" stroke="none" stroke-width="1"/><path id="e7j0r6z424qg21" d="M561.006000,227.874000C578.085000,232.449000,589.276000,225.976000,589.276000,225.976000C589.276000,225.976000,590.444000,213.078000,579.155000,199.451000L561.006000,227.874000Z" fill="rgb(43,111,200)" stroke="none" stroke-width="1"/><path id="e7j0r6z424qg22" d="M563.536000,228.507000L580.761000,201.544000C580.275000,200.862000,579.739000,200.181000,579.155000,199.500000L561.006000,227.923000C561.833000,228.117000,562.709000,228.312000,563.536000,228.507000Z" fill="rgb(43,111,200)" stroke="none" stroke-width="1"/><path id="e7j0r6z424qg23" d="M559.600000,206.268000C563.088000,200.810000,561.493000,193.557000,556.036000,190.068000C550.580000,186.579000,543.329000,188.175000,539.840000,193.633000C536.352000,199.091000,537.948000,206.343000,543.404000,209.832000C548.861000,213.321000,556.112000,211.725000,559.600000,206.268000Z" fill="rgb(43,111,200)" stroke="none" stroke-width="1"/><path id="e7j0r6z424qg24" d="M547.573000,178.359000L530.834000,168.284000L528.791000,143.755000L541.442000,149.352000L547.573000,178.359000Z" fill="rgb(45,13,178)" stroke="none" stroke-width="1"/><path id="e7j0r6z424qg25" d="M536.576000,195.491000L520.470000,184.491000L497.309000,192.960000L507.721000,202.110000L536.576000,195.491000Z" fill="rgb(45,13,178)" stroke="none" stroke-width="1"/><path id="e7j0r6z424qg26" d="M516.528000,176.364000L522.368000,165.948000C522.368000,165.948000,522.611000,157.042000,512.782000,153.002000C501.980000,148.573000,491.080000,150.520000,481.057000,149.693000C487.187000,157.431000,491.129000,168.041000,500.569000,174.904000C509.084000,181.182000,516.528000,176.364000,516.528000,176.364000Z" fill="url(#e7j0r6z424qg26-fill)" stroke="none" stroke-width="1"/><path id="e7j0r6z424qg27" d="M517.550000,177.094000L520.518000,171.740000L523.438000,166.532000C523.438000,166.532000,512.393000,158.453000,496.092000,158.210000C504.899000,171.983000,517.550000,177.094000,517.550000,177.094000Z" opacity="0.5" fill="rgb(255,255,255)" stroke="none" stroke-width="1"/><path id="e7j0r6z424qg28" d="M516.869000,182.338000L527.614000,165.527000L522.285000,162.119000L511.540000,178.931000L516.869000,182.338000Z" fill="rgb(45,13,178)" stroke="none" stroke-width="1"/><path id="e7j0r6z424qg29" d="M553.022000,216.710000C577.303000,230.192000,594.528000,220.263000,594.528000,220.263000C594.528000,220.263000,596.328000,200.406000,573.946000,184.005000C554.142000,169.501000,527.623000,165.559000,527.623000,165.559000L522.222000,174.027000L516.869000,182.398000C516.869000,182.350000,531.564000,204.786000,553.022000,216.710000Z" fill="rgb(255,255,255)" stroke="none" stroke-width="1"/><path id="e7j0r6z424qg30" d="M566.258000,222.113000C583.337000,226.687000,594.528000,220.214000,594.528000,220.214000C594.528000,220.214000,595.696000,207.317000,584.407000,193.690000L566.258000,222.113000Z" fill="rgb(45,13,178)" stroke="none" stroke-width="1"/><path id="e7j0r6z424qg31" d="M568.788000,222.745000L586.013000,195.782000C585.526000,195.101000,584.991000,194.420000,584.407000,193.738000L566.258000,222.161000C567.085000,222.356000,567.961000,222.551000,568.788000,222.745000Z" fill="rgb(41,217,225)" stroke="none" stroke-width="1"/><path id="e7j0r6z424qg32" d="M564.852000,200.507000C568.340000,195.049000,566.744000,187.796000,561.288000,184.307000C555.832000,180.818000,548.580000,182.414000,545.092000,187.872000C541.604000,193.329000,543.200000,200.582000,548.656000,204.071000C554.112000,207.560000,561.363000,205.964000,564.852000,200.507000Z" fill="rgb(41,217,225)" stroke="url(#e7j0r6z424qg32-stroke)" stroke-width="4" stroke-miterlimit="10"/></g><path id="e7j0r6z424qg33" d="M183.502000,339.807000C186.384000,339.807000,188.721000,337.470000,188.721000,334.587000C188.721000,331.704000,186.384000,329.367000,183.502000,329.367000C180.619000,329.367000,178.283000,331.704000,178.283000,334.587000C178.283000,337.470000,180.619000,339.807000,183.502000,339.807000Z" fill="rgb(255,255,255)" stroke="none" stroke-width="1"/><path id="e7j0r6z424qg34" d="M635.391000,183.410000C638.274000,183.410000,640.610000,181.073000,640.610000,178.190000C640.610000,175.307000,638.274000,172.970000,635.391000,172.970000C632.509000,172.970000,630.172000,175.307000,630.172000,178.190000C630.172000,181.073000,632.509000,183.410000,635.391000,183.410000Z" fill="rgb(255,255,255)" stroke="none" stroke-width="1"/><path id="e7j0r6z424qg35" d="M423.380000,206.863000C426.262000,206.863000,428.599000,204.526000,428.599000,201.643000C428.599000,198.760000,426.262000,196.423000,423.380000,196.423000C420.497000,196.423000,418.161000,198.760000,418.161000,201.643000C418.161000,204.526000,420.497000,206.863000,423.380000,206.863000Z" fill="rgb(45,13,178)" stroke="none" stroke-width="1"/><path id="e7j0r6z424qg36" d="M178.793000,222.808000C182.570000,222.808000,185.632000,219.746000,185.632000,215.968000C185.632000,212.190000,182.570000,209.127000,178.793000,209.127000C175.016000,209.127000,171.954000,212.190000,171.954000,215.968000C171.954000,219.746000,175.016000,222.808000,178.793000,222.808000Z" fill="rgb(45,13,178)" stroke="none" stroke-width="1"/><path id="e7j0r6z424qg37" d="M449.914000,619.564000C452.342000,619.564000,454.310000,617.595000,454.310000,615.167000C454.310000,612.738000,452.342000,610.769000,449.914000,610.769000C447.486000,610.769000,445.517000,612.738000,445.517000,615.167000C445.517000,617.595000,447.486000,619.564000,449.914000,619.564000Z" fill="rgb(255,255,255)" stroke="none" stroke-width="1"/><path id="e7j0r6z424qg38" d="M347.173000,602.642000C350.055000,602.642000,352.392000,600.305000,352.392000,597.422000C352.392000,594.539000,350.055000,592.202000,347.173000,592.202000C344.291000,592.202000,341.954000,594.539000,341.954000,597.422000C341.954000,600.305000,344.291000,602.642000,347.173000,602.642000Z" fill="rgb(243,139,112)" stroke="none" stroke-width="1"/><g id="e7j0r6z424qg39"><path id="e7j0r6z424qg40" d="M31.264400,395.816000C31.264400,392.732000,34.608100,390.808000,37.274700,392.358000L89.039100,422.452000C90.270800,423.168000,91.028700,424.485000,91.028700,425.910000L91.028700,487.901000C91.028700,490.982000,87.692300,492.906000,85.025600,491.363000L33.261300,461.416000C32.025400,460.701000,31.264400,459.381000,31.264400,457.954000L31.264400,395.816000Z" opacity="0.1" fill="rgb(45,13,178)" stroke="none" stroke-width="1"/><path id="e7j0r6z424qg41" d="M47.931000,412.382000L47.931000,415.077000L33.789600,406.882000L33.789600,404.188000L47.931000,412.382000Z" opacity="0.3" fill="rgb(45,13,178)" stroke="none" stroke-width="1"/><path id="e7j0r6z424qg42" d="M86.876000,486.249000L86.876000,488.943000L72.678500,480.748000L72.678500,478.054000L86.876000,486.249000Z" opacity="0.3" fill="rgb(45,13,178)" stroke="none" stroke-width="1"/><path id="e7j0r6z424qg43" d="M43.890600,416.255000L43.890600,418.950000L33.789600,413.112000L33.789600,410.418000L43.890600,416.255000Z" opacity="0.3" fill="rgb(45,13,178)" stroke="none" stroke-width="1"/><path id="e7j0r6z424qg44" d="M40.804200,437.360000C41.197000,451.617000,50.175700,466.660000,60.950100,470.981000C71.724500,475.303000,80.142000,467.277000,79.749200,453.020000C79.356400,438.763000,70.377700,423.721000,59.603300,419.399000C48.885000,415.077000,40.467500,423.159000,40.804200,437.360000Z" fill="url(#e7j0r6z424qg44-fill)" stroke="none" stroke-width="1"/><path id="e7j0r6z424qg45" d="M51.298100,441.907000C51.466400,447.969000,55.282300,454.311000,59.827800,456.163000C64.373300,458.016000,67.964700,454.592000,67.796400,448.530000C67.628000,442.468000,63.812100,436.125000,59.266600,434.273000C54.721200,432.421000,51.185800,435.845000,51.298100,441.907000Z" opacity="0.6" fill="rgb(255,255,255)" stroke="none" stroke-width="1"/></g><g id="e7j0r6z424qg46"><path id="e7j0r6z424qg47" d="M101.186000,468.392000C101.186000,469.821000,101.948000,471.141000,103.185000,471.855000L222.121000,540.540000C224.788000,542.080000,228.122000,540.156000,228.122000,537.077000L228.122000,435.235000C228.122000,433.806000,227.360000,432.486000,226.122000,431.771000L107.186000,363.086000C104.520000,361.546000,101.186000,363.471000,101.186000,366.550000L101.186000,468.392000Z" opacity="0.1" fill="rgb(45,13,178)" stroke="none" stroke-width="1"/><path id="e7j0r6z424qg48" d="M130.254000,436.799000L104.609000,422.037000L104.609000,427.032000L130.254000,441.850000L130.254000,436.799000Z" opacity="0.6" fill="rgb(255,255,255)" stroke="none" stroke-width="1"/><path id="e7j0r6z424qg49" d="M130.254000,426.920000L104.609000,412.102000L104.609000,417.153000L130.254000,431.915000L130.254000,426.920000Z" opacity="0.6" fill="rgb(255,255,255)" stroke="none" stroke-width="1"/><path id="e7j0r6z424qg50" d="M130.254000,416.536000L104.609000,401.774000L104.609000,406.769000L130.254000,421.588000L130.254000,416.536000Z" opacity="0.6" fill="rgb(255,255,255)" stroke="none" stroke-width="1"/><path id="e7j0r6z424qg51" d="M130.254000,406.657000L104.609000,391.839000L104.609000,396.891000L130.254000,411.653000L130.254000,406.657000Z" opacity="0.6" fill="rgb(255,255,255)" stroke="none" stroke-width="1"/><path id="e7j0r6z424qg52" d="M130.254000,383.139000L104.609000,368.377000L104.609000,381.736000L130.254000,396.554000L130.254000,383.139000Z" opacity="0.5" fill="rgb(45,13,178)" stroke="none" stroke-width="1"/><path id="e7j0r6z424qg53" d="M223.464000,437.304000L197.819000,422.542000L197.819000,435.900000L223.464000,450.719000L223.464000,437.304000Z" opacity="0.5" fill="url(#e7j0r6z424qg53-fill)" stroke="none" stroke-width="1"/><path id="e7j0r6z424qg54" d="M173.296000,418.388000C173.296000,418.388000,173.240000,418.388000,173.240000,418.332000C171.276000,417.209000,169.648000,418.444000,169.648000,421.138000C169.648000,421.812000,169.760000,422.542000,169.929000,423.215000L157.246000,431.859000L132.611000,417.602000L132.611000,420.128000L157.359000,434.441000L170.771000,425.292000C171.444000,426.527000,172.342000,427.593000,173.296000,428.155000C175.316000,429.333000,176.943000,428.098000,176.943000,425.404000C176.943000,422.654000,175.316000,419.511000,173.296000,418.388000Z" opacity="0.5" fill="rgb(45,13,178)" stroke="none" stroke-width="1"/><path id="e7j0r6z424qg55" d="M213.532000,450.326000L213.532000,463.741000L223.464000,469.466000L223.464000,456.051000L213.532000,450.326000Z" opacity="0.6" fill="rgb(255,255,255)" stroke="none" stroke-width="1"/><path id="e7j0r6z424qg56" d="M213.532000,470.364000L213.532000,483.779000L223.464000,489.504000L223.464000,476.089000L213.532000,470.364000Z" opacity="0.6" fill="rgb(255,255,255)" stroke="none" stroke-width="1"/><path id="e7j0r6z424qg57" d="M213.532000,490.402000L213.532000,503.761000L223.464000,509.486000L223.464000,496.127000L213.532000,490.402000Z" opacity="0.6" fill="rgb(255,255,255)" stroke="none" stroke-width="1"/><path id="e7j0r6z424qg58" d="M213.532000,510.440000L213.532000,523.799000L223.464000,529.524000L223.464000,516.109000L213.532000,510.440000Z" opacity="0.6" fill="rgb(255,255,255)" stroke="none" stroke-width="1"/><path id="e7j0r6z424qg59" d="M186.090000,415.750000L160.445000,400.932000L160.445000,430.793000L186.090000,445.555000L186.090000,415.750000Z" opacity="0.5" fill="url(#e7j0r6z424qg59-fill)" stroke="none" stroke-width="1"/><path id="e7j0r6z424qg60" d="M188.335000,468.512000L162.690000,453.694000L162.690000,483.554000L188.335000,498.372000L188.335000,468.512000Z" opacity="0.5" fill="url(#e7j0r6z424qg60-fill)" stroke="none" stroke-width="1"/><path id="e7j0r6z424qg61" d="M175.540000,469.242000C175.484000,469.242000,175.484000,469.185000,175.428000,469.185000C174.699000,468.793000,174.025000,468.624000,173.352000,468.624000L160.613000,444.881000L160.445000,444.601000L132.555000,428.323000L132.555000,430.849000L158.818000,446.172000L171.444000,469.634000C170.827000,470.420000,170.434000,471.543000,170.434000,473.058000C170.434000,476.819000,172.679000,481.141000,175.484000,482.769000C178.290000,484.396000,180.535000,482.656000,180.535000,478.952000C180.591000,475.247000,178.346000,470.869000,175.540000,469.242000Z" opacity="0.6" fill="rgb(255,255,255)" stroke="none" stroke-width="1"/><path id="e7j0r6z424qg62" d="M173.296000,421.251000C173.296000,421.251000,173.240000,421.251000,173.296000,421.251000C172.454000,420.802000,171.781000,421.307000,171.781000,422.373000C171.781000,423.495000,172.454000,424.786000,173.296000,425.291000C174.138000,425.796000,174.811000,425.235000,174.811000,424.169000C174.811000,422.990000,174.138000,421.700000,173.296000,421.251000Z" opacity="0.6" fill="rgb(255,255,255)" stroke="none" stroke-width="1"/><path id="e7j0r6z424qg63" d="M195.799000,449.147000C195.742000,449.147000,195.686000,449.091000,195.686000,449.091000C191.646000,446.846000,188.335000,449.371000,188.335000,454.816000C188.335000,460.317000,191.702000,466.715000,195.799000,469.073000C199.895000,471.430000,203.262000,468.904000,203.262000,463.460000C203.262000,457.903000,199.895000,451.504000,195.799000,449.147000Z" opacity="0.6" fill="rgb(255,255,255)" stroke="none" stroke-width="1"/><path id="e7j0r6z424qg64" d="M175.540000,473.002000C175.484000,473.002000,175.484000,473.002000,175.540000,473.002000C174.306000,472.329000,173.296000,473.058000,173.296000,474.686000C173.296000,476.370000,174.306000,478.278000,175.540000,479.008000C176.775000,479.738000,177.785000,478.952000,177.785000,477.324000C177.785000,475.696000,176.775000,473.732000,175.540000,473.002000Z" opacity="0.5" fill="rgb(45,13,178)" stroke="none" stroke-width="1"/><path id="e7j0r6z424qg65" d="M195.799000,453.188000C195.799000,453.188000,195.742000,453.188000,195.742000,453.132000C193.329000,451.785000,191.421000,453.301000,191.421000,456.500000C191.421000,459.755000,193.386000,463.516000,195.855000,464.976000C198.324000,466.379000,200.288000,464.863000,200.288000,461.608000C200.232000,458.352000,198.212000,454.592000,195.799000,453.188000Z" opacity="0.5" fill="rgb(45,13,178)" stroke="none" stroke-width="1"/></g><g id="e7j0r6z424qg66"><path id="e7j0r6z424qg67" d="M199.367000,105.442000C199.367000,105.442000,188.649000,94.215800,195.102000,86.413800C196.393000,84.842200,198.188000,83.775800,200.153000,83.270600C203.969000,82.316400,210.815000,82.316400,216.090000,92.307400C216.090000,92.307400,220.018000,74.458300,239.547000,76.366700C243.475000,76.759600,247.178000,78.611900,249.535000,81.755100C252.453000,85.515800,254.361000,92.026800,250.489000,102.747000C250.489000,102.747000,266.370000,96.180300,270.411000,106.115000C270.691000,106.845000,270.916000,107.631000,271.028000,108.360000C271.701000,112.233000,272.375000,122.673000,259.861000,124.189000L185.338000,124.189000C185.338000,124.189000,174.619000,124.020000,172.319000,115.433000C171.421000,112.121000,172.206000,108.473000,174.395000,105.778000C177.762000,101.569000,185.057000,96.910000,199.367000,105.442000Z" fill="rgb(41,217,225)" stroke="none" stroke-width="1"/><path id="e7j0r6z424qg68" d="M203.479000,102.324000C203.479000,102.324000,192.761000,91.097900,199.214000,83.295900C200.505000,81.724300,202.301000,80.657800,204.265000,80.152700C208.081000,79.198500,214.927000,79.198500,220.202000,89.189500C220.202000,89.189500,224.130000,71.340400,243.659000,73.248800C247.587000,73.641700,251.291000,75.493900,253.648000,78.637200C256.566000,82.397800,258.474000,88.908800,254.602000,99.629500C254.602000,99.629500,270.483000,93.062400,274.523000,102.997000C274.804000,103.727000,275.028000,104.513000,275.140000,105.242000C275.814000,109.115000,276.487000,119.555000,263.973000,121.071000L189.450000,121.071000C189.450000,121.071000,178.732000,120.903000,176.431000,112.315000C175.533000,109.003000,176.319000,105.355000,178.507000,102.661000C181.874000,98.450800,189.169000,93.792100,203.479000,102.324000Z" transform="matrix(1 0 0 1 0.87667927000001 0)" fill="rgb(242,242,242)" stroke="none" stroke-width="1"/></g><g id="e7j0r6z424qg69"><path id="e7j0r6z424qg70" d="M740.689000,220.994000C740.689000,220.994000,748.994000,212.294000,743.999000,206.232000C742.989000,204.997000,741.643000,204.211000,740.071000,203.818000C737.153000,203.032000,731.822000,203.088000,727.726000,210.834000C727.726000,210.834000,724.695000,197.026000,709.544000,198.486000C706.514000,198.766000,703.652000,200.226000,701.800000,202.639000C699.555000,205.558000,698.040000,210.554000,701.070000,218.917000C701.070000,218.917000,688.781000,213.865000,685.638000,221.555000C685.414000,222.116000,685.245000,222.734000,685.133000,223.295000C684.572000,226.326000,684.123000,234.408000,693.775000,235.587000L751.519000,235.587000C751.519000,235.587000,759.824000,235.475000,761.620000,228.796000C762.294000,226.214000,761.676000,223.407000,759.993000,221.330000C757.411000,218.019000,751.744000,214.426000,740.689000,220.994000Z" fill="rgb(43,111,200)" stroke="none" stroke-width="1"/><path id="e7j0r6z424qg71" d="M737.767000,216.884000C737.767000,216.884000,746.072000,208.184000,741.077000,202.122000C740.067000,200.887000,738.721000,200.101000,737.149000,199.708000C734.231000,198.922000,728.900000,198.978000,724.804000,206.724000C724.804000,206.724000,721.773000,192.916000,706.622000,194.376000C703.592000,194.657000,700.730000,196.116000,698.878000,198.529000C696.633000,201.448000,695.118000,206.444000,698.148000,214.807000C698.148000,214.807000,685.859000,209.755000,682.716000,217.445000C682.492000,218.006000,682.323000,218.624000,682.211000,219.185000C681.650000,222.216000,681.201000,230.299000,690.853000,231.477000L748.597000,231.477000C748.597000,231.477000,756.902000,231.365000,758.698000,224.686000C759.372000,222.104000,758.754000,219.297000,757.071000,217.221000C754.489000,213.909000,748.822000,210.317000,737.767000,216.884000Z" fill="rgb(242,242,242)" stroke="none" stroke-width="1"/></g><g id="e7j0r6z424qg72"><path id="e7j0r6z424qg73" d="M649.214000,417.657000L678.676000,419.060000C680.696000,419.060000,682.548000,420.408000,683.389000,422.540000L688.833000,436.797000C689.338000,438.144000,688.552000,439.660000,687.261000,439.716000L660.101000,443.084000C658.025000,443.252000,656.004000,441.905000,655.163000,439.716000L647.755000,420.464000C647.138000,419.117000,647.924000,417.657000,649.214000,417.657000Z" opacity="0.6" fill="rgb(255,255,255)" stroke="none" stroke-width="1"/><path id="e7j0r6z424qg74" d="M652.469000,414.683000L681.930000,416.086000C683.951000,416.086000,685.802000,417.433000,686.644000,419.566000L692.088000,433.823000C692.593000,435.170000,691.807000,436.686000,690.516000,436.742000L663.356000,440.110000C661.279000,440.278000,659.259000,438.931000,658.417000,436.742000L651.010000,417.490000C650.393000,416.142000,651.178000,414.683000,652.469000,414.683000Z" fill="rgb(242,242,242)" stroke="none" stroke-width="1"/><path id="e7j0r6z424qg75" d="M676.880000,419.565000L666.947000,419.172000C666.779000,419.172000,666.667000,419.004000,666.667000,418.892000C666.667000,418.724000,666.779000,418.611000,666.947000,418.611000L676.824000,419.004000C676.992000,419.004000,677.104000,419.172000,677.104000,419.285000C677.160000,419.453000,677.048000,419.565000,676.880000,419.565000Z" fill="rgb(41,217,225)" stroke="none" stroke-width="1"/><path id="e7j0r6z424qg76" d="M683.221000,422.822000L667.452000,422.429000C667.284000,422.429000,667.172000,422.317000,667.172000,422.148000C667.172000,421.980000,667.284000,421.868000,667.452000,421.868000L683.221000,422.261000C683.389000,422.261000,683.502000,422.373000,683.502000,422.541000C683.558000,422.709000,683.389000,422.822000,683.221000,422.822000Z" fill="rgb(41,217,225)" stroke="none" stroke-width="1"/><path id="e7j0r6z424qg77" d="M673.279000,432.803000C673.998000,430.075000,671.835000,427.140000,668.448000,426.248000C665.062000,425.356000,661.734000,426.844000,661.016000,429.572000C660.297000,432.300000,662.460000,435.234000,665.847000,436.126000C669.233000,437.019000,672.561000,435.531000,673.279000,432.803000Z" fill="rgb(41,217,225)" stroke="none" stroke-width="1"/></g><g id="e7j0r6z424qg78"><path id="e7j0r6z424qg79" d="M847.419000,472.573000L778.900000,472.573000C777.497000,472.573000,776.319000,471.394000,776.319000,469.991000L776.319000,426.603000C776.319000,425.199000,777.497000,424.021000,778.900000,424.021000L847.419000,424.021000C848.822000,424.021000,850,425.199000,850,426.603000L850,470.047000C850,471.450000,848.878000,472.573000,847.419000,472.573000Z" opacity="0.9" fill="rgb(172,198,249)" stroke="none" stroke-width="1"/><path id="e7j0r6z424qg80" d="M839.506000,480.186000L770.988000,480.186000C769.585000,480.186000,768.406000,479.007000,768.406000,477.604000L768.406000,434.160000C768.406000,432.757000,769.585000,431.578000,770.988000,431.578000L839.506000,431.578000C840.909000,431.578000,842.088000,432.757000,842.088000,434.160000L842.088000,477.604000C842.088000,479.007000,840.909000,480.186000,839.506000,480.186000Z" transform="matrix(1 0 0 1 0 -1.52401397000000)" opacity="0.8" fill="rgb(255,255,255)" stroke="none" stroke-width="1"/><path id="e7j0r6z424qg81" d="M815.769000,452.907000L811.223000,452.907000L811.223000,472.721000L815.769000,472.721000L815.769000,452.907000Z" fill="rgb(45,13,178)" stroke="none" stroke-width="1"/><path id="e7j0r6z424qg82" d="M827.217000,452.907000L822.671000,452.907000L822.671000,472.721000L827.217000,472.721000L827.217000,452.907000Z" fill="rgb(45,13,178)" stroke="none" stroke-width="1"/><path id="e7j0r6z424qg83" d="M805.107000,466.266000C804.994000,466.266000,804.826000,466.210000,804.714000,466.098000C804.489000,465.873000,804.489000,465.536000,804.714000,465.368000C805.051000,465.031000,813.468000,456.892000,819.697000,461.327000C819.921000,461.551000,824.635000,465.424000,830.471000,459.530000C830.696000,459.306000,831.033000,459.306000,831.201000,459.530000C831.369000,459.755000,831.425000,460.092000,831.201000,460.260000C824.635000,466.827000,819.080000,462.169000,819.024000,462.112000C813.524000,458.183000,805.500000,466.041000,805.443000,466.098000C805.387000,466.210000,805.275000,466.266000,805.107000,466.266000Z" fill="rgb(41,217,225)" stroke="none" stroke-width="1"/><path id="e7j0r6z424qg84" d="M789.675000,459.081000C795.222000,459.081000,799.719000,454.583000,799.719000,449.034000C799.719000,443.485000,795.222000,438.987000,789.675000,438.987000C784.127000,438.987000,779.630000,443.485000,779.630000,449.034000C779.630000,454.583000,784.127000,459.081000,789.675000,459.081000Z" fill="url(#e7j0r6z424qg84-fill)" stroke="none" stroke-width="1"/><path id="e7j0r6z424qg85" d="M800.224000,445.161000C798.653000,440.840000,794.557000,437.752000,789.675000,437.752000L789.675000,448.978000L800.224000,445.161000Z" fill="rgb(255,255,255)" stroke="none" stroke-width="1"/></g><g id="e7j0r6z424qg86"><g id="e7j0r6z424qg87"><path id="e7j0r6z424qg88" d="M627.329000,751.459000L636.195000,751.459000L642.873000,735.462000L634.905000,734.171000L627.329000,751.459000Z" fill="rgb(246,126,96)" stroke="none" stroke-width="1"/><path id="e7j0r6z424qg89" d="M706.958000,599.237000C706.958000,599.237000,679.798000,622.418000,658.249000,646.666000C651.571000,654.131000,646.857000,663.168000,644.444000,672.878000C639.618000,692.131000,630.976000,726.313000,626.431000,741.356000L645.062000,744.331000C645.062000,744.331000,657.800000,712.842000,672.054000,675.011000C672.054000,675.011000,676.319000,667.770000,684.287000,660.642000L714.195000,639.109000C714.195000,639.109000,731.857000,624.461000,736.178000,614.189000C736.234000,614.246000,718.855000,593.455000,706.958000,599.237000Z" fill="rgb(172,198,249)" stroke="none" stroke-width="1"/><path id="e7j0r6z424qg90" d="M640.047000,747.009000C639.695000,746.430000,638.937000,746.239000,638.358000,746.591000C636.885000,747.504000,635.644000,747.994000,634.753000,748.101000C633.639000,748.236000,632.143000,748.021000,630.315000,747.394000L629.016000,745.064000C628.871000,744.799000,628.461000,744.679000,628.202000,744.880000L613.236000,753.869000C611.974000,754.192000,610.441000,754.603000,608.574000,755.055000C606.707000,755.507000,606.401000,757.183000,607.642000,759.973000C629.091000,757.379000,640.401000,756.012000,641.682000,755.857000C641.823000,753.748000,641.795000,752.112000,641.660000,750.998000C641.552000,750.106000,641.056000,748.809000,640.166000,747.051000C640.054000,747.065000,640.047000,747.009000,640.047000,747.009000Z" transform="matrix(1 0 0 1 0 -0.44835826999997)" fill="rgb(255,255,255)" stroke="none" stroke-width="1"/></g><g id="e7j0r6z424qg91"><path id="e7j0r6z424qg92" d="M676.543000,705.153000L683.894000,702.122000C664.534000,663.729000,674.579000,684.441000,674.635000,683.206000C674.635000,681.410000,650.112000,667.714000,676.543000,705.153000Z" fill="rgb(246,126,96)" stroke="none" stroke-width="1"/><path id="e7j0r6z424qg93" d="M694.949000,596.037000L637.823000,616.075000C637.823000,616.075000,618.462000,619.555000,627.834000,636.057000L667.172000,700.045000L684.680000,687.977000C684.680000,687.977000,686.869000,684.834000,655.331000,636.506000C655.331000,636.506000,681.762000,627.750000,692.312000,624.495000L709.933000,607.151000L707.520000,592.894000L694.949000,596.037000Z" fill="url(#e7j0r6z424qg93-fill)" stroke="none" stroke-width="1"/><path id="e7j0r6z424qg94" d="M682.886000,696.107000C682.231000,695.850000,681.528000,696.148000,681.314000,696.766000C680.652000,698.421000,680.001000,699.480000,679.350000,700.100000C678.526000,700.865000,677.192000,701.545000,675.383000,702.184000L672.930000,701.092000C672.620000,700.986000,672.290000,701.116000,672.105000,701.419000L665.398000,717.525000C664.632000,718.534000,663.566000,719.795000,662.364000,721.244000C661.119000,722.729000,661.864000,724.228000,664.556000,725.778000C680.234000,710.935000,688.528000,703.095000,689.445000,702.179000C688.246000,700.401000,687.322000,699.125000,686.557000,698.301000C685.937000,697.649000,684.771000,696.869000,683.051000,696.042000C682.965000,696.114000,682.886000,696.107000,682.886000,696.107000Z" fill="rgb(255,255,255)" stroke="none" stroke-width="1"/></g><g id="e7j0r6z424qg95"><path id="e7j0r6z424qg96" d="M695.006000,497.081000C695.006000,497.081000,690.404000,484.396000,693.771000,479.457000C702.245000,467.276000,716.779000,471.430000,720.146000,473.956000C731.500000,479.457000,731.574000,494.516000,728,502.613000C727.500000,507.614000,723.008000,513.078000,720.370000,509.598000L695.006000,497.081000Z" fill="rgb(55,50,73)" stroke="none" stroke-width="1"/><path id="e7j0r6z424qg97" d="M695.679000,486.024000C695.679000,486.024000,692.817000,504.659000,697.643000,512.685000C698.485000,514.088000,699.719000,515.828000,701.403000,516.053000C703.311000,516.277000,708.361000,513.864000,711.167000,511.899000C711.167000,511.899000,709.764000,516.333000,710.943000,521.329000C710.943000,521.329000,719.978000,524.584000,723.569000,521.610000C723.569000,521.610000,722.278000,515.155000,721.605000,509.822000C721.605000,509.822000,720.651000,504.883000,720.202000,503.255000C720.202000,503.255000,726.038000,503.480000,724.860000,497.811000C724.860000,497.811000,725.196000,492.647000,719.192000,496.632000C719.192000,496.632000,715.769000,498.877000,716.835000,494.275000C716.835000,494.275000,718.911000,484.508000,712.402000,488.549000C712.402000,488.437000,705.331000,491.075000,695.679000,486.024000Z" fill="rgb(246,126,96)" stroke="none" stroke-width="1"/></g><path id="e7j0r6z424qg98" d="M703.160000,520.306000C703.160000,520.306000,719.993000,514.167000,738.651000,522.446000C743.124000,524.417000,746.479000,528.246000,747.715000,532.808000C748.539000,535.962000,749.187000,540.073000,748.951000,545.197000C748.951000,545.761000,748.833000,546.380000,748.775000,546.943000L740.170000,622.050000C740.170000,622.050000,726.489000,622.938000,716.601000,619.109000C706.713000,615.279000,671,599.499000,671,599.499000C671,599.499000,681.205000,594.755000,686.267000,586.364000C687.739000,583.886000,688.916000,581.239000,689.387000,578.367000C689.622000,577.072000,689.563000,575.777000,689.446000,574.425000L688.798000,568.681000C688.798000,568.512000,688.739000,568.287000,688.739000,568.118000C688.445000,566.428000,686.974000,555.391000,690.270000,538.440000C690.152000,538.552000,693.507000,522.333000,703.160000,520.306000Z" fill="rgb(41,217,225)" stroke="none" stroke-width="1"/><path id="e7j0r6z424qg99" d="M745.903000,546.363000C745.903000,546.363000,740.292000,588.740000,723.737000,597.160000C723.737000,597.160000,706.397000,599.012000,688.103000,584.867000L708.474000,584.811000C708.474000,584.811000,715.993000,584.418000,719.697000,580.658000C723.401000,576.897000,731.930000,561.630000,731.930000,561.630000L745.903000,546.363000Z" fill="rgb(58,82,204)" stroke="none" stroke-width="1"/><path id="e7j0r6z424qg100" d="M692.256000,566.176000C692.256000,566.176000,698.597000,561.798000,700.505000,534.520000C700.505000,534.520000,700.673000,555.063000,697.531000,571.789000L692.256000,566.176000Z" fill="rgb(58,82,204)" stroke="none" stroke-width="1"/><path id="e7j0r6z424qg101" d="M715.881000,579.816000C715.881000,579.816000,727.048000,561.181000,730.415000,534.014000C730.415000,534.014000,729.517000,554.501000,725.533000,571.116000L715.881000,579.816000Z" fill="rgb(58,82,204)" stroke="none" stroke-width="1"/><path id="e7j0r6z424qg102" d="M671.380000,568.983000C671.380000,568.983000,670.314000,580.882000,683.277000,578.469000L681.201000,569.993000L671.380000,568.983000Z" fill="rgb(246,126,96)" stroke="none" stroke-width="1"/><path id="e7j0r6z424qg103" d="M745.118000,534.239000C745.118000,534.239000,741.639000,527.840000,735.859000,531.657000C735.859000,531.657000,733.109000,533.846000,730.022000,544.510000C730.022000,544.510000,726.206000,562.752000,717.901000,577.290000C716.891000,579.086000,714.927000,580.153000,712.907000,580.040000C706.004000,579.704000,689.562000,578.076000,676.711000,570.611000C676.711000,570.611000,681.089000,584.924000,707.576000,592.894000C714.197000,594.858000,720.146000,597.777000,725.028000,592.894000C728.283000,589.638000,733.614000,580.602000,736.925000,573.024000C736.925000,573.080000,750.449000,544.903000,745.118000,534.239000Z" fill="rgb(41,217,225)" stroke="none" stroke-width="1"/><path id="e7j0r6z424qg104" d="M685.690000,560.058000C685.690000,560.058000,702.918000,569.769000,709.708000,577.290000C710.269000,577.907000,709.820000,578.862000,709.035000,578.862000C705.163000,579.030000,695.847000,578.918000,686.307000,575.269000L685.690000,560.058000Z" fill="rgb(242,242,242)" stroke="none" stroke-width="1"/><path id="e7j0r6z424qg105" d="M642.985000,522.452000L647.924000,555.624000C648.429000,557.982000,649.832000,560.002000,651.964000,561.237000C657.071000,564.212000,668.238000,569.937000,686.420000,575.213000C687.374000,575.494000,688.328000,574.820000,688.328000,573.810000C688.440000,568.927000,688.496000,555.849000,686.195000,545.409000C685.690000,542.995000,684.231000,540.862000,682.267000,539.403000C677.441000,535.867000,668.350000,530.871000,645.174000,520.656000C643.996000,520.206000,642.705000,521.217000,642.985000,522.452000Z" fill="rgb(45,13,178)" stroke="none" stroke-width="1"/><path id="e7j0r6z424qg106" d="M666.787000,552.296000C667.804000,551.918000,668.050000,550.057000,667.337000,548.139000C666.624000,546.222000,665.222000,544.974000,664.205000,545.352000C663.188000,545.730000,662.942000,547.591000,663.655000,549.509000C664.368000,551.427000,665.771000,552.675000,666.787000,552.296000Z" fill="rgb(41,217,225)" stroke="none" stroke-width="1"/></g><path id="e7j0r6z424qg107" d="M666.865000,804.052000C700.616000,804.052000,727.976000,800.584000,727.976000,796.306000C727.976000,792.028000,700.616000,788.561000,666.865000,788.561000C633.115000,788.561000,605.754000,792.028000,605.754000,796.306000C605.754000,800.584000,633.115000,804.052000,666.865000,804.052000Z" transform="matrix(1 0 0 1 0 -3.74653826999997)" opacity="0.2" fill="rgb(58,82,204)" stroke="none" stroke-width="1"/><path id="e7j0r6z424qg108" d="M90.421500,797.276000C124.172000,797.276000,151.533000,793.808000,151.533000,789.530000C151.533000,785.252000,124.172000,781.784000,90.421500,781.784000C56.670700,781.784000,29.310300,785.252000,29.310300,789.530000C29.310300,793.808000,56.670700,797.276000,90.421500,797.276000Z" opacity="0.2" fill="rgb(41,217,225)" stroke="none" stroke-width="1"/><g id="e7j0r6z424qg109"><path id="e7j0r6z424qg110" d="M130.453000,463.413000C133.293000,472.565000,137.230000,493.180000,133.993000,496.559000L112.922000,497.238000C112.919000,497.165000,112.919000,497.165000,112.917000,497.093000C105.115000,496.471000,98.798100,490.051000,98.538200,481.981000L98.046500,466.714000C97.767900,458.062000,104.518000,450.858000,113.165000,450.579000L114.618000,450.532000C122.395000,450.355000,129.119000,455.887000,130.453000,463.413000Z" transform="matrix(1 0 0 1 -14.04498068499989 -1.54987031999997)" fill="rgb(55,50,73)" stroke="none" stroke-width="1"/><path id="e7j0r6z424qg111" d="M106.585000,478.883000C103.116000,475.065000,100.709000,470.339000,100.897000,464.875000C101.485000,449.281000,123.248000,452.001000,127.715000,459.717000C132.182000,467.433000,132.315000,487.370000,126.913000,489C124.752000,489.651000,120.130000,488.418000,115.315000,485.734000L118.969000,506.577000L101.530000,507.139000L106.585000,478.883000Z" transform="matrix(1 0 0 1 -14.04498068499989 -1.71752745999999)" fill="rgb(246,126,96)" stroke="none" stroke-width="1"/><path id="e7j0r6z424qg112" d="M111.223000,476.114000C112.301000,484.740000,112.327000,494.564000,110.006000,497.041000L88.935000,497.720000C87.114500,477.328000,98.704600,484.887000,98.086500,465.693000C98.789600,464.943000,99.422500,464.268000,100.058000,463.665000L100.039000,463.083000C103.428000,455.405000,107.887000,451.550000,113.554000,451.367000C121.982000,451.096000,124.725000,454.937000,127.085000,458.209000C125.601000,464.079000,119.017000,465.165000,113.319000,468.914000C112.646000,468.354000,111.692000,468.093000,110.748000,468.124000C108.568000,468.194000,106.810000,470.070000,106.880000,472.251000C106.951000,474.432000,108.826000,476.191000,111.005000,476.121000C111.078000,476.119000,111.151000,476.116000,111.223000,476.114000Z" transform="matrix(1 0 0 1 -14.04498068499989 -1.54987031999997)" fill="rgb(55,50,73)" stroke="none" stroke-width="1"/><g id="e7j0r6z424qg113"><path id="e7j0r6z424qg114" d="M97.563800,566.548000L111.653000,666.382000L118.946000,748.898000L126.649000,752.148000L128.791000,579.722000L97.563800,566.548000Z" transform="matrix(1 0 0 1 -14.92814112499988 -1.71752745999993)" fill="rgb(245,131,102)" stroke="none" stroke-width="1"/><path id="e7j0r6z424qg115" d="M115.574000,743.820000C114.063000,745.417000,113.083000,746.748000,112.683000,747.696000C112.183000,748.881000,111.662000,750.616000,111.127000,753.042000C112.490000,753.617000,124.518000,758.692000,147.331000,768.316000C149.578000,765.635000,149.770000,763.691000,147.855000,762.604000C145.940000,761.517000,144.322000,760.555000,143.093000,759.828000L129.404000,745.118000C129.158000,744.875000,128.693000,744.818000,128.450000,745.064000L126.284000,747.222000C124.013000,747.311000,122.357000,747.101000,121.172000,746.601000C120.223000,746.201000,119.070000,745.295000,117.676000,743.800000C117.149000,743.229000,116.254000,743.200000,115.683000,743.727000C115.599000,743.761000,115.574000,743.820000,115.574000,743.820000Z" transform="matrix(1 0 0 1 -14.04498068499991 -1.71752745999993)" fill="rgb(228,228,228)" stroke="none" stroke-width="1"/><path id="e7j0r6z424qg116" d="M110.048000,736.361000L130.371000,735.708000C132.049000,713.519000,133.155000,688.716000,133.520000,661.366000C133.945000,634.042000,138.225000,596.020000,136.527000,569.754000L89.623900,563.198000C90.116900,595.796000,99.941500,626.156000,103.981000,654.317000C108.020000,682.478000,102.557000,711.422000,110.048000,736.361000Z" transform="matrix(1 0 0 1 -14.92814112499988 -1.71752745999993)" fill="rgb(45,13,178)" stroke="none" stroke-width="1"/></g><g id="e7j0r6z424qg117"><path id="e7j0r6z424qg118" d="M90.595900,573.721000C86.198800,604.221000,77.436400,643.217000,76.555900,644.454000C75.989600,645.235000,54.759200,652.780000,12.862700,666.961000L14.781900,674.328000C64.880100,666.256000,91.215800,660.238000,93.852100,656.207000C97.806500,650.161000,109.621000,602.196000,116.996000,572.936000L90.597000,573.785000L90.595900,573.721000Z" transform="matrix(1 0 0 1 -14.04498068499989 -1.71752745999993)" fill="rgb(245,131,102)" stroke="none" stroke-width="1"/><path id="e7j0r6z424qg119" d="M27.391300,658.740000L30.430800,677.220000C68.032200,679.898000,91.406500,672.071000,99.764200,663.896000C108.122000,655.720000,113.737000,620.951000,123.700000,568.619000L83.909600,573.828000C77.716800,616.643000,74.217000,638.958000,73.473400,640.707000C72.666500,642.521000,57.244600,647.518000,27.391300,658.740000Z" transform="matrix(1 0 0 1 -14.04498068499989 -1.71752745999993)" fill="rgb(58,82,204)" stroke="none" stroke-width="1"/><path id="e7j0r6z424qg120" d="M14.864600,663.820000C12.697800,663.452000,11.046200,663.378000,10.035900,663.573000C8.773040,663.816000,7.041590,664.347000,4.727430,665.252000C5.007610,666.705000,7.480440,679.525000,12.170300,703.841000C15.648600,704.217000,17.370100,703.296000,17.208500,701.100000C17.046900,698.904000,16.946200,697.023000,16.867700,695.597000L21.478200,676.038000C21.543600,675.698000,21.332100,675.280000,20.992000,675.215000L17.919100,674.563000C16.582200,672.725000,15.835600,671.231000,15.592000,669.968000C15.397100,668.958000,15.508000,667.495000,15.975600,665.505000C16.157300,664.750000,15.683200,663.990000,14.927700,663.808000C14.927700,663.808000,14.927700,663.808000,14.864600,663.820000Z" transform="matrix(1 0 0 1 -14.04498068499989 -1.71752745999993)" fill="rgb(228,228,228)" stroke="none" stroke-width="1"/></g><path id="e7j0r6z424qg121" d="M159.216000,536.722000L187.790000,531.871000C193.428000,528.487000,198.662000,526.135000,203.422000,524.890000C204.800000,524.773000,206.924000,525.214000,203.813000,528.007000C200.703000,530.800000,197.529000,533.886000,198.155000,535.249000C198.783000,536.684000,201.743000,536.006000,202.324000,538.244000C202.734000,539.686000,197.873000,540.061000,187.816000,539.439000L164.862000,549.421000L159.216000,536.722000ZM69.259300,546.244000L85.174000,545.804000C68.999600,585.625000,60.579500,606.492000,59.841100,608.408000C58.303300,612.606000,62.069600,618.889000,63.705400,622.257000C58.837100,624.670000,59.079000,616.365000,52.926200,619.548000C47.272700,622.423000,43.140300,627.359000,36.397200,623.501000C35.581600,623.018000,34.648800,621.156000,36.709200,619.634000C41.968900,615.825000,49.462500,609.107000,50.411900,606.965000C51.769100,603.938000,58.030500,583.795000,69.259300,546.244000Z" transform="matrix(1 0 0 1 -14.04498068499989 -2.47516769999993)" fill="rgb(243,137,109)" stroke="none" stroke-width="1"/><path id="e7j0r6z424qg122" d="M111.230000,494.382000L123.680000,494.781000C127.626000,522.455000,144.902000,539.438000,182.132000,532.343000L187.001000,549.122000C152.196000,554.755000,130,559.124000,114.765000,522.869000C112.923000,513.104000,111.285000,502.895000,111.230000,494.382000Z" transform="matrix(1 0 0 1 -14.04498068499993 -2.47516769999993)" fill="rgb(219,229,236)" stroke="none" stroke-width="1"/><path id="e7j0r6z424qg123" d="M107.001000,491.611000L124.040000,494.625000C125.086000,527.123000,131.929000,550.453000,138.001000,574.128000L108.001000,574.129000L77,574.129000C74.499900,582.631000,74.999900,583.131000,68.499700,603.635000L52.428000,599.550000C59.592800,553.250000,86.500700,499.112000,107.001000,491.611000Z" transform="matrix(1 0 0 1 -14.04498068499989 -1.71752745999993)" fill="rgb(231,241,249)" stroke="none" stroke-width="1"/><path id="e7j0r6z424qg124" d="M91.401800,527.234000C87.308300,547.081000,86.661100,563.218000,87.999700,574.129000L77.000300,574.129000C80.704400,558.120000,85.285500,541.069000,91.401800,527.234000Z" transform="matrix(1 0 0 1 -14.04498068499989 -1.71752745999993)" fill="rgb(0,0,0)" fill-opacity="0.1" stroke="none" stroke-width="1"/></g><g id="e7j0r6z424qg125"><path id="e7j0r6z424qg126" d="M573.345000,411.877000C573.345000,453.749000,557.688000,491.917000,531.874000,520.992000C531.874000,521.048000,531.818000,521.048000,531.818000,521.048000C530.303000,522.788000,528.732000,524.472000,527.104000,526.156000C526.880000,526.325000,526.768000,526.381000,526.768000,526.437000C496.970000,557.140000,455.219000,576.223000,409.035000,576.223000C396.016000,576.223000,383.333000,574.708000,371.156000,571.845000C368.519000,571.228000,365.825000,570.498000,363.244000,569.769000C294.781000,549.955000,244.725000,486.753000,244.725000,411.877000C244.725000,403.963000,245.286000,396.161000,246.408000,388.527000C253.311000,339.695000,281.818000,297.710000,321.885000,272.620000C344.108000,258.700000,369.865000,249.944000,397.531000,248.035000C401.347000,247.755000,405.219000,247.643000,409.091000,247.643000C427.609000,247.643000,445.455000,250.730000,462.065000,256.399000C498.822000,268.859000,529.798000,294.118000,549.607000,326.785000C557.239000,339.414000,563.244000,353.110000,567.228000,367.591000C570.595000,379.546000,572.615000,392.007000,573.120000,404.917000L573.120000,404.973000C573.288000,407.218000,573.345000,409.576000,573.345000,411.877000Z" fill="url(#e7j0r6z424qg126-fill)" stroke="none" stroke-width="1"/><path id="e7j0r6z424qg127" d="M371.156000,571.845000C371.380000,570.891000,371.661000,569.769000,371.829000,568.478000C373.457000,556.185000,386.195000,546.924000,390.348000,544.342000C394.557000,541.816000,385.017000,536.933000,388.945000,536.933000C392.929000,536.933000,395.230000,536.035000,399.214000,525.090000C403.142000,514.201000,409.428000,513.527000,420.314000,512.797000C431.201000,512.068000,428.676000,488.662000,434.736000,485.631000C440.741000,482.600000,439.113000,472.384000,426.880000,465.200000C414.590000,457.959000,408.361000,467.501000,408.810000,461.439000C409.259000,455.433000,404.433000,448.922000,396.745000,448.473000C389.057000,448.024000,386.813000,449.427000,375.645000,437.079000C364.534000,424.787000,358.249000,439.156000,349.439000,444.488000C340.628000,449.820000,351.571000,426.414000,342.705000,426.863000C333.894000,427.312000,333.221000,416.423000,333.221000,416.423000C333.221000,416.423000,319.080000,420.352000,317.228000,410.586000C315.376000,400.819000,327.217000,386.450000,332.997000,392.961000C338.833000,399.416000,350.168000,410.137000,348.821000,405.254000C347.419000,400.370000,357.632000,377.301000,367.340000,371.520000C377.104000,365.682000,381.369000,356.197000,378.900000,350.022000C376.487000,343.904000,390.965000,347.216000,400.729000,345.308000C410.494000,343.343000,384.512000,316.738000,381.369000,313.538000C378.283000,310.283000,373.793000,327.571000,371.044000,319.993000C368.238000,312.416000,361.392000,308.992000,351.683000,303.042000C341.919000,297.093000,353.086000,331.444000,347.531000,337.506000C341.975000,343.511000,329.798000,328.357000,320.988000,316.457000C312.177000,304.614000,331.874000,293.276000,339.282000,286.989000C346.689000,280.703000,344.052000,268.130000,338.103000,273.406000C332.267000,278.738000,326.880000,280.029000,322.054000,272.508000C282.043000,297.598000,253.535000,339.582000,246.577000,388.415000C260.606000,408.004000,279.742000,425.741000,282.940000,425.180000C288.047000,424.281000,288.945000,398.967000,290.797000,403.626000C292.649000,408.285000,297.250000,425.909000,320.707000,429.389000C344.164000,432.869000,334.848000,436.293000,337.654000,445.891000C340.460000,455.377000,339.282000,449.820000,348.821000,447.968000C358.305000,446.116000,357.183000,450.045000,357.183000,450.045000C357.183000,450.045000,345.118000,464.919000,344.669000,467.950000C344.220000,470.981000,350.505000,482.095000,352.301000,486.753000C354.153000,491.412000,369.192000,501.515000,369.192000,501.515000C369.192000,501.515000,365.095000,512.741000,361.841000,519.926000C358.586000,527.166000,361.616000,546.419000,362.514000,562.640000C362.682000,565.447000,363.019000,567.804000,363.468000,569.712000L371.156000,571.845000Z" fill="rgb(242,242,242)" stroke="none" stroke-width="1"/><path id="e7j0r6z424qg128" d="M567.284000,367.591000C565.993000,369.836000,564.310000,371.745000,562.009000,373.092000C550.505000,379.996000,542.368000,368.826000,532.940000,361.866000C523.513000,354.906000,540.572000,377.863000,537.149000,381.230000C533.670000,384.486000,533.446000,377.189000,530.864000,372.362000C528.227000,367.479000,522.671000,364.335000,515.320000,365.065000C508.025000,365.739000,509.035000,376.347000,501.571000,380.388000C494.108000,384.374000,487.149000,379.996000,488.552000,375.842000C489.899000,371.632000,487.654000,371.464000,488.047000,365.683000C488.440000,359.845000,489.057000,363.494000,498.092000,364.504000C507.127000,365.514000,496.352000,354.064000,502.637000,353.727000C508.923000,353.390000,518.294000,334.250000,533.782000,334.924000C543.603000,335.373000,547.868000,330.489000,549.607000,326.841000C557.239000,339.414000,563.244000,353.110000,567.284000,367.591000Z" fill="rgb(242,242,242)" stroke="none" stroke-width="1"/><path id="e7j0r6z424qg129" d="M531.874000,520.992000C538.889000,507.072000,536.644000,470.588000,528.900000,470.307000C520.090000,469.914000,521.605000,464.919000,520.090000,454.984000C518.518000,445.049000,514.702000,447.856000,502.637000,451.336000C490.628000,454.816000,483.838000,449.596000,475.814000,439.661000C467.845000,429.726000,468.518000,411.989000,481.930000,405.534000C495.342000,399.079000,488.552000,386.057000,492.031000,386.057000C495.511000,386.057000,506.285000,384.879000,518.687000,381.342000C531.032000,377.862000,525.477000,381.679000,530.359000,390.548000C535.241000,399.416000,537.654000,395.599000,545.062000,394.926000C552.469000,394.196000,554.377000,393.130000,560.999000,396.273000C567.621000,399.360000,567.789000,394.533000,567.789000,394.533000L573.176000,404.804000L573.176000,404.861000C573.288000,407.162000,573.344000,409.463000,573.344000,411.765000C573.344000,453.749000,557.632000,491.917000,531.874000,520.992000Z" fill="rgb(242,242,242)" stroke="none" stroke-width="1"/><path id="e7j0r6z424qg130" d="M462.065000,256.343000C461.504000,258.026000,460.718000,259.823000,459.540000,261.675000C450.281000,276.998000,439.113000,281.152000,425.252000,294.847000C411.335000,308.543000,421.998000,330.097000,412.907000,323.586000C403.872000,317.075000,398.092000,269.982000,397.867000,253.480000C397.811000,251.403000,397.755000,249.551000,397.587000,247.923000C401.403000,247.643000,405.275000,247.530000,409.147000,247.530000C427.609000,247.586000,445.454000,250.674000,462.065000,256.343000Z" fill="rgb(242,242,242)" stroke="none" stroke-width="1"/></g><g id="e7j0r6z424qg131"><path id="e7j0r6z424qg132" d="M775.421000,365.290000C799.378000,365.290000,818.799000,345.864000,818.799000,321.902000C818.799000,297.939000,799.378000,278.514000,775.421000,278.514000C751.464000,278.514000,732.043000,297.939000,732.043000,321.902000C732.043000,345.864000,751.464000,365.290000,775.421000,365.290000Z" fill="url(#e7j0r6z424qg132-fill)" stroke="none" stroke-width="1"/><path id="e7j0r6z424qg133" d="M737.962000,300.009000C744.692000,299.454000,753.325000,301.029000,764.254000,307.027000C785.073000,318.478000,802.357000,307.701000,812.009000,298.664000C809.652000,294.847000,806.622000,291.479000,803.199000,288.617000C793.210000,295.240000,779.293000,299.562000,763.243000,290.750000C759.040000,288.451000,755.116000,286.769000,751.584000,285.646000C750.657000,286.257000,749.755000,286.903000,748.879000,287.581000C748.167000,288.134000,747.471000,288.709000,746.793000,289.303000C743.309000,292.367000,740.320000,295.981000,737.962000,300.009000Z" clip-rule="evenodd" fill="rgb(45,13,178)" fill-rule="evenodd" stroke="none" stroke-width="1"/><path id="e7j0r6z424qg134" d="M732.046000,322.445000C732.056000,322.899000,732.073000,323.354000,732.099000,323.810000C732.379000,330.040000,733.951000,335.878000,736.532000,341.098000C740.965000,335.878000,753.591000,323.080000,764.366000,329.142000C777.722000,336.664000,789.618000,338.404000,803.535000,323.361000C807.744000,318.815000,812.907000,315.952000,818.070000,314.156000C817.228000,309.497000,815.657000,305.175000,813.524000,301.190000C810.522000,302.332000,807.681000,304.247000,804.635000,306.299000C796.008000,312.111000,785.742000,319.029000,765.544000,312.640000C747.306000,306.859000,737.935000,308.824000,733.165000,312.079000C733.100000,312.352000,733.037000,312.627000,732.977000,312.902000C732.365000,315.805000,732.043000,318.816000,732.043000,321.902000C732.043000,322.083000,732.044000,322.264000,732.046000,322.445000Z" clip-rule="evenodd" fill="rgb(45,13,178)" fill-rule="evenodd" stroke="none" stroke-width="1"/><path id="e7j0r6z424qg135" d="M747.506000,355.113000C749.410000,354.062000,751.926000,353.901000,755.219000,354.962000C755.880000,355.179000,756.790000,355.627000,757.916000,356.182000C763.478000,358.922000,774.324000,364.265000,786.644000,357.263000C792.144000,354.120000,797.811000,354.232000,802.750000,355.579000C810.157000,349.573000,815.488000,341.154000,817.677000,331.668000C813.636000,330.490000,808.530000,330.377000,805.499000,335.261000C801.122000,342.221000,792.144000,353.278000,765.769000,339.639000C748.437000,330.662000,742.710000,340.135000,740.632000,347.823000C742.636000,350.510000,744.944000,352.957000,747.506000,355.113000Z" clip-rule="evenodd" fill="rgb(45,13,178)" fill-rule="evenodd" stroke="none" stroke-width="1"/></g><g id="e7j0r6z424qg136"><path id="e7j0r6z424qg137" d="M95.622900,217.277000C124.539000,217.277000,147.980000,193.830000,147.980000,164.908000C147.980000,135.986000,124.539000,112.539000,95.622900,112.539000C66.707000,112.539000,43.266000,135.986000,43.266000,164.908000C43.266000,193.830000,66.707000,217.277000,95.622900,217.277000Z" fill="url(#e7j0r6z424qg137-fill)" stroke="none" stroke-width="1"/><path id="e7j0r6z424qg138" d="M105.499000,181.129000C92.031400,181.129000,81.144700,192.018000,81.144700,205.490000C81.144700,209.194000,81.986500,212.674000,83.501600,215.817000C87.429800,216.771000,91.470200,217.277000,95.622900,217.277000C108.698000,217.277000,120.651000,212.506000,129.798000,204.591000C129.349000,191.513000,118.631000,181.129000,105.499000,181.129000Z" opacity="0.42" fill="rgb(142,2,2)" stroke="none" stroke-width="1"/><path id="e7j0r6z424qg139" d="M129.798000,204.535000C128.171000,205.938000,126.487000,207.173000,124.747000,208.352000C122.334000,196.284000,111.616000,183.262000,99.775600,183.262000C97.699200,183.262000,95.735100,183.543000,93.827200,183.992000C97.306400,182.140000,101.235000,181.017000,105.443000,181.017000C118.631000,181.129000,129.349000,191.513000,129.798000,204.535000Z" opacity="0.42" fill="rgb(142,2,2)" stroke="none" stroke-width="1"/><path id="e7j0r6z424qg140" d="M135.466000,184.834000C140.858000,184.834000,145.230000,180.461000,145.230000,175.068000C145.230000,169.674000,140.858000,165.301000,135.466000,165.301000C130.073000,165.301000,125.701000,169.674000,125.701000,175.068000C125.701000,180.461000,130.073000,184.834000,135.466000,184.834000Z" opacity="0.21" fill="rgb(142,2,2)" stroke="none" stroke-width="1"/><path id="e7j0r6z424qg141" d="M130.191000,137.910000C133.389000,137.910000,136.308000,136.843000,138.664000,135.103000C133.277000,127.357000,125.926000,121.183000,117.284000,117.198000C116.330000,119.106000,115.825000,121.239000,115.825000,123.484000C115.825000,131.455000,122.278000,137.910000,130.191000,137.910000Z" opacity="0.42" fill="rgb(142,2,2)" stroke="none" stroke-width="1"/><path id="e7j0r6z424qg142" d="M112.233000,172.542000C119.548000,172.542000,125.477000,166.611000,125.477000,159.295000C125.477000,151.979000,119.548000,146.049000,112.233000,146.049000C104.919000,146.049000,98.989900,151.979000,98.989900,159.295000C98.989900,166.611000,104.919000,172.542000,112.233000,172.542000Z" opacity="0.42" fill="rgb(142,2,2)" stroke="none" stroke-width="1"/><path id="e7j0r6z424qg143" d="M117.060000,146.947000C119.809000,149.360000,121.549000,152.952000,121.549000,156.881000C121.549000,164.234000,115.600000,170.128000,108.305000,170.128000C106.622000,170.128000,104.994000,169.791000,103.479000,169.230000C105.836000,171.307000,108.866000,172.542000,112.233000,172.542000C119.585000,172.542000,125.477000,166.592000,125.477000,159.295000C125.477000,153.682000,121.998000,148.855000,117.060000,146.947000Z" opacity="0.42" fill="rgb(142,2,2)" stroke="none" stroke-width="1"/><path id="e7j0r6z424qg144" d="M93.883300,140.099000C96.982500,140.099000,99.494900,137.586000,99.494900,134.486000C99.494900,131.386000,96.982500,128.873000,93.883300,128.873000C90.784000,128.873000,88.271600,131.386000,88.271600,134.486000C88.271600,137.586000,90.784000,140.099000,93.883300,140.099000Z" opacity="0.42" fill="rgb(142,2,2)" stroke="none" stroke-width="1"/><path id="e7j0r6z424qg145" d="M70.651000,135.833000C70.651000,130.613000,67.901200,126.010000,63.804700,123.372000C55.892300,129.434000,49.775500,137.685000,46.352400,147.227000C48.933800,149.360000,52.244700,150.651000,55.836200,150.651000C64.029200,150.651000,70.651000,143.972000,70.651000,135.833000Z" opacity="0.42" fill="rgb(142,2,2)" stroke="none" stroke-width="1"/><path id="e7j0r6z424qg146" d="M63.804700,123.316000C63.636400,123.428000,63.468000,123.597000,63.355800,123.709000C66.105500,126.403000,67.845100,130.108000,67.845100,134.261000C67.845100,142.456000,61.223400,149.080000,53.030300,149.080000C51.066200,149.080000,49.158300,148.687000,47.474800,147.957000C49.887800,149.641000,52.749700,150.595000,55.892300,150.595000C64.085300,150.595000,70.707100,143.972000,70.707100,135.777000C70.651000,130.557000,67.901300,125.954000,63.804700,123.316000Z" opacity="0.42" fill="rgb(142,2,2)" stroke="none" stroke-width="1"/><path id="e7j0r6z424qg147" d="M85.129100,173.215000C89.127100,173.215000,92.368100,169.973000,92.368100,165.975000C92.368100,161.976000,89.127100,158.734000,85.129100,158.734000C81.131000,158.734000,77.890000,161.976000,77.890000,165.975000C77.890000,169.973000,81.131000,173.215000,85.129100,173.215000Z" opacity="0.21" fill="rgb(142,2,2)" stroke="none" stroke-width="1"/><path id="e7j0r6z424qg148" d="M53.759900,182.645000C51.346800,182.645000,49.046100,183.262000,47.025900,184.273000C50.673400,193.422000,56.846300,201.336000,64.702600,207.117000C67.003400,204.535000,68.462400,201.111000,68.462400,197.351000C68.462400,189.212000,61.840700,182.645000,53.759900,182.645000Z" opacity="0.21" fill="rgb(142,2,2)" stroke="none" stroke-width="1"/><path id="e7j0r6z424qg149" d="M139.675000,152.054000C139.675000,155.029000,142.088000,157.499000,145.118000,157.499000C145.960000,157.499000,146.745000,157.274000,147.419000,156.938000C146.857000,153.402000,145.960000,149.978000,144.781000,146.666000C141.919000,146.834000,139.675000,149.192000,139.675000,152.054000Z" opacity="0.21" fill="rgb(142,2,2)" stroke="none" stroke-width="1"/><path id="e7j0r6z424qg150" d="M86.419800,122.979000C90.516300,122.979000,93.883300,119.612000,93.883300,115.514000C93.883300,114.448000,93.658800,113.494000,93.266000,112.595000C88.271600,112.820000,83.501700,113.718000,78.956300,115.234000C78.956300,115.346000,78.956300,115.402000,78.956300,115.514000C78.956300,119.612000,82.323300,122.979000,86.419800,122.979000Z" opacity="0.21" fill="rgb(142,2,2)" stroke="none" stroke-width="1"/></g><path id="e7j0r6z424qg151" d="M315.264000,201.673000C316.274000,202.683000,298.429000,222.272000,297.363000,223.282000C296.353000,224.293000,294.669000,224.293000,293.659000,223.282000C292.649000,222.272000,292.649000,220.588000,293.659000,219.578000C294.725000,218.511000,314.254000,200.662000,315.264000,201.673000Z" fill="url(#e7j0r6z424qg151-fill)" stroke="none" stroke-width="1"/><script><![CDATA[!function(t,n){"object"==typeof exports&&"undefined"!=typeof module?module.exports=n():"function"==typeof define&&define.amd?define(n):(t=t||self).__SVGATOR_PLAYER__=n()}(this,(function(){"use strict";function t(n){return(t="function"==typeof Symbol&&"symbol"==typeof Symbol.iterator?function(t){return typeof t}:function(t){return t&&"function"==typeof Symbol&&t.constructor===Symbol&&t!==Symbol.prototype?"symbol":typeof t})(n)}function n(t,n){if(!(t instanceof n))throw new TypeError("Cannot call a class as a function")}function r(t,n){for(var r=0;r<n.length;r++){var e=n[r];e.enumerable=e.enumerable||!1,e.configurable=!0,"value"in e&&(e.writable=!0),Object.defineProperty(t,e.key,e)}}function e(t,n,e){return n&&r(t.prototype,n),e&&r(t,e),t}function i(t){return(i=Object.setPrototypeOf?Object.getPrototypeOf:function(t){return t.__proto__||Object.getPrototypeOf(t)})(t)}function o(t,n){return(o=Object.setPrototypeOf||function(t,n){return t.__proto__=n,t})(t,n)}function u(t,n){return!n||"object"!=typeof n&&"function"!=typeof n?function(t){if(void 0===t)throw new ReferenceError("this hasn't been initialised - super() hasn't been called");return t}(t):n}function a(t){var n=function(){if("undefined"==typeof Reflect||!Reflect.construct)return!1;if(Reflect.construct.sham)return!1;if("function"==typeof Proxy)return!0;try{return Date.prototype.toString.call(Reflect.construct(Date,[],(function(){}))),!0}catch(t){return!1}}();return function(){var r,e=i(t);if(n){var o=i(this).constructor;r=Reflect.construct(e,arguments,o)}else r=e.apply(this,arguments);return u(this,r)}}function l(t,n,r){return(l="undefined"!=typeof Reflect&&Reflect.get?Reflect.get:function(t,n,r){var e=function(t,n){for(;!Object.prototype.hasOwnProperty.call(t,n)&&null!==(t=i(t)););return t}(t,n);if(e){var o=Object.getOwnPropertyDescriptor(e,n);return o.get?o.get.call(r):o.value}})(t,n,r||t)}var f=Math.abs;function s(t){return t}function c(t,n,r){var e=1-r;return 3*r*e*(t*e+n*r)+r*r*r}function h(){var t=arguments.length>0&&void 0!==arguments[0]?arguments[0]:0,n=arguments.length>1&&void 0!==arguments[1]?arguments[1]:0,r=arguments.length>2&&void 0!==arguments[2]?arguments[2]:1,e=arguments.length>3&&void 0!==arguments[3]?arguments[3]:1;return t<0||t>1||r<0||r>1?null:f(t-n)<=1e-5&&f(r-e)<=1e-5?s:function(i){if(i<=0)return t>0?i*n/t:0===n&&r>0?i*e/r:0;if(i>=1)return r<1?1+(i-1)*(e-1)/(r-1):1===r&&t<1?1+(i-1)*(n-1)/(t-1):1;for(var o,u=0,a=1;u<a;){var l=c(t,r,o=(u+a)/2);if(f(i-l)<1e-5)break;l<i?u=o:a=o}return c(n,e,o)}}function v(){return 1}function y(t){return 1===t?1:0}function d(){var t=arguments.length>0&&void 0!==arguments[0]?arguments[0]:1,n=arguments.length>1&&void 0!==arguments[1]?arguments[1]:0;if(1===t){if(0===n)return y;if(1===n)return v}var r=1/t;return function(t){return t>=1?1:(t+=n*r)-t%r}}function g(t){var n=arguments.length>1&&void 0!==arguments[1]?arguments[1]:2;if(Number.isInteger(t))return t;var r=Math.pow(10,n);return Math.round(t*r)/r}var p=Math.PI/180;function m(t,n,r){return t>=.5?r:n}function b(t,n,r){return 0===t||n===r?n:t*(r-n)+n}function w(t,n,r){var e=b(t,n,r);return e<=0?0:e}function k(t,n,r){return 0===t?n:1===t?r:{x:b(t,n.x,r.x),y:b(t,n.y,r.y)}}function x(t,n,r){var e=function(t,n,r){return Math.round(b(t,n,r))}(t,n,r);return e<=0?0:e>=255?255:e}function A(t,n,r){return 0===t?n:1===t?r:{r:x(t,n.r,r.r),g:x(t,n.g,r.g),b:x(t,n.b,r.b),a:b(t,null==n.a?1:n.a,null==r.a?1:r.a)}}function _(t,n,r){if(0===t)return n;if(1===t)return r;var e=n.length;if(e!==r.length)return m(t,n,r);for(var i=[],o=0;o<e;o++)i.push(A(t,n[o],r[o]));return i}function S(t,n){for(var r=[],e=0;e<t;e++)r.push(n);return r}function O(t,n){if(--n<=0)return t;var r=(t=Object.assign([],t)).length;do{for(var e=0;e<r;e++)t.push(t[e])}while(--n>0);return t}var M,j=function(){function t(r){n(this,t),this.list=r,this.length=r.length}return e(t,[{key:"setAttribute",value:function(t,n){for(var r=this.list,e=0;e<this.length;e++)r[e].setAttribute(t,n)}},{key:"removeAttribute",value:function(t){for(var n=this.list,r=0;r<this.length;r++)n[r].removeAttribute(t)}},{key:"style",value:function(t,n){for(var r=this.list,e=0;e<this.length;e++)r[e].style[t]=n}}]),t}(),F=/-./g,P=function(t,n){return n.toUpperCase()};function q(t){return"function"==typeof t?t:m}function B(t){return t?"function"==typeof t?t:Array.isArray(t)?function(t){var n=arguments.length>1&&void 0!==arguments[1]?arguments[1]:s;if(!Array.isArray(t))return n;switch(t.length){case 1:return d(t[0])||n;case 2:return d(t[0],t[1])||n;case 4:return h(t[0],t[1],t[2],t[3])||n}return n}(t,null):function(t,n){var r=arguments.length>2&&void 0!==arguments[2]?arguments[2]:s;switch(t){case"linear":return s;case"steps":return d(n.steps||1,n.jump||0)||r;case"bezier":case"cubic-bezier":return h(n.x1||0,n.y1||0,n.x2||0,n.y2||0)||r}return r}(t.type,t.value,null):null}function I(t,n,r){var e=arguments.length>3&&void 0!==arguments[3]&&arguments[3],i=n.length-1;if(t<=n[0].t)return e?[0,0,n[0].v]:n[0].v;if(t>=n[i].t)return e?[i,1,n[i].v]:n[i].v;var o,u=n[0],a=null;for(o=1;o<=i;o++){if(!(t>n[o].t)){a=n[o];break}u=n[o]}return null==a?e?[i,1,n[i].v]:n[i].v:u.t===a.t?e?[o,1,a.v]:a.v:(t=(t-u.t)/(a.t-u.t),u.e&&(t=u.e(t)),e?[o,t,r(t,u.v,a.v)]:r(t,u.v,a.v))}function R(t,n){var r=arguments.length>2&&void 0!==arguments[2]?arguments[2]:null;return t&&t.length?"function"!=typeof n?null:("function"!=typeof r&&(r=null),function(e){var i=I(e,t,n);return null!=i&&r&&(i=r(i)),i}):null}function E(t,n){return t.t-n.t}function T(n,r,e,i,o){var u,a="@"===e[0],l="#"===e[0],f=M[e],s=m;switch(a?(u=e.substr(1),e=u.replace(F,P)):l&&(e=e.substr(1)),t(f)){case"function":if(s=f(i,o,I,B,e,a,r,n),l)return s;break;case"string":s=R(i,q(f));break;case"object":if((s=R(i,q(f.i),f.f))&&"function"==typeof f.u)return f.u(r,s,e,a,n)}return s?function(t,n,r){var e=arguments.length>3&&void 0!==arguments[3]&&arguments[3];if(e)return t instanceof j?function(e){return t.style(n,r(e))}:function(e){return t.style[n]=r(e)};if(Array.isArray(n)){var i=n.length;return function(e){var o=r(e);if(null==o)for(var u=0;u<i;u++)t[u].removeAttribute(n);else for(var a=0;a<i;a++)t[a].setAttribute(n,o)}}return function(e){var i=r(e);null==i?t.removeAttribute(n):t.setAttribute(n,i)}}(r,e,s,a):null}function z(n,r,e,i){if(!i||"object"!==t(i))return null;var o=null,u=null;return Array.isArray(i)?u=function(t){if(!t||!t.length)return null;for(var n=0;n<t.length;n++)t[n].e&&(t[n].e=B(t[n].e));return t.sort(E)}(i):(u=i.keys,o=i.data||null),u?T(n,r,e,u,o):null}function C(t,n,r){if(!r)return null;var e=[];for(var i in r)if(r.hasOwnProperty(i)){var o=z(t,n,i,r[i]);o&&e.push(o)}return e.length?e:null}function D(t,n){if(!n.duration||n.duration<0)return null;var r=function(t,n){if(!n)return null;var r=[];if(Array.isArray(n))for(var e=n.length,i=0;i<e;i++){var o=n[i];if(2===o.length){var u=null;if("string"==typeof o[0])u=t.getElementById(o[0]);else if(Array.isArray(o[0])){u=[];for(var a=0;a<o[0].length;a++)if("string"==typeof o[0][a]){var l=t.getElementById(o[0][a]);l&&u.push(l)}u=u.length?1===u.length?u[0]:new j(u):null}if(u){var f=C(t,u,o[1]);f&&(r=r.concat(f))}}}else for(var s in n)if(n.hasOwnProperty(s)){var c=t.getElementById(s);if(c){var h=C(t,c,n[s]);h&&(r=r.concat(h))}}return r.length?r:null}(t,n.elements);return r?function(t,n){var r=arguments.length>2&&void 0!==arguments[2]?arguments[2]:1/0,e=arguments.length>3&&void 0!==arguments[3]?arguments[3]:1,i=arguments.length>4&&void 0!==arguments[4]&&arguments[4],o=arguments.length>5&&void 0!==arguments[5]?arguments[5]:1,u=t.length,a=e>0?n:0;i&&r%2==0&&(a=n-a);var l=null;return function(f,s){var c=f%n,h=1+(f-c)/n;s*=e,i&&h%2==0&&(s=-s);var v=!1;if(h>r)c=a,v=!0,-1===o&&(c=e>0?0:n);else if(s<0&&(c=n-c),c===l)return!1;l=c;for(var y=0;y<u;y++)t[y](c);return v}}(r,n.duration,n.iterations||1/0,n.direction||1,!!n.alternate,n.fill||1):null}function N(t,n){if(M=n,!t||!t.root||!Array.isArray(t.animations))return null;for(var r=document.getElementsByTagName("svg"),e=!1,i=0;i<r.length;i++)if(r[i].id===t.root&&!r[i].svgatorAnimation){(e=r[i]).svgatorAnimation=!0;break}if(!e)return null;var o=t.animations.map((function(t){return D(e,t)})).filter((function(t){return!!t}));return o.length?{element:e,animations:o,animationSettings:t.animationSettings,options:t.options||void 0}:null}var L=function(){function t(r,e){var i=arguments.length>2&&void 0!==arguments[2]?arguments[2]:{};n(this,t),this._id=0,this._running=!1,this._rollingBack=!1,this._animations=r,this.duration=e.duration,this.alternate=e.alternate,this.fill=e.fill,this.iterations=e.iterations,this.direction=i.direction||1,this.speed=i.speed||1,this.fps=i.fps||100,this.offset=i.offset||0,this.rollbackStartOffset=0}return e(t,[{key:"_rollback",value:function(){var t=this,n=1/0,r=null;this.rollbackStartOffset=this.offset,this._rollingBack||(this._rollingBack=!0,this._running=!0);this._id=window.requestAnimationFrame((function e(i){if(t._rollingBack){null==r&&(r=i);var o=i-r,u=t.rollbackStartOffset-o,a=Math.round(u*t.speed);if(a>t.duration&&n!=1/0){var l=!!t.alternate&&a/t.duration%2>1,f=a%t.duration;a=(f+=l?t.duration:0)||t.duration}var s=t.fps?1e3/t.fps:0,c=Math.max(0,a);if(c<n-s){t.offset=c,n=c;for(var h=t._animations,v=h.length,y=0;y<v;y++)h[y](c,t.direction)}var d=!1;if(t.iterations>0&&-1===t.fill){var g=t.iterations*t.duration,p=g==a;a=p?0:a,t.offset=p?0:t.offset,d=a>g}a>0&&t.offset>=a&&!d?t._id=window.requestAnimationFrame(e):t.stop()}}))}},{key:"_start",value:function(){var t=this,n=arguments.length>0&&void 0!==arguments[0]?arguments[0]:0,r=-1/0,e=null,i={},o=function o(u){t._running=!0,null==e&&(e=u);var a=Math.round((u-e+n)*t.speed),l=t.fps?1e3/t.fps:0;if(a>r+l&&!t._rollingBack){t.offset=a,r=a;for(var f=t._animations,s=f.length,c=0,h=0;h<s;h++)i[h]?c++:(i[h]=f[h](a,t.direction),i[h]&&c++);if(c===s)return void t._stop()}t._id=window.requestAnimationFrame(o)};this._id=window.requestAnimationFrame(o)}},{key:"_stop",value:function(){this._id&&window.cancelAnimationFrame(this._id),this._running=!1,this._rollingBack=!1}},{key:"play",value:function(){!this._rollingBack&&this._running||(this._rollingBack=!1,this.rollbackStartOffset>this.duration&&(this.offset=this.rollbackStartOffset-(this.rollbackStartOffset-this.offset)%this.duration,this.rollbackStartOffset=0),this._start(this.offset))}},{key:"stop",value:function(){this._stop(),this.offset=0,this.rollbackStartOffset=0;var t=this.direction,n=this._animations;window.requestAnimationFrame((function(){for(var r=0;r<n.length;r++)n[r](0,t)}))}},{key:"reachedToEnd",value:function(){return this.iterations>0&&this.offset>=this.iterations*this.duration}},{key:"restart",value:function(){this._stop(),this.offset=0,this._start()}},{key:"pause",value:function(){this._stop()}},{key:"reverse",value:function(){this.direction=-this.direction}}],[{key:"build",value:function(n,r){return(n=N(n,r))?{el:n.element,options:n.options||{},player:new t(n.animations,n.animationSettings,n.options)}:null}}]),t}();!function(){for(var t=0,n=["ms","moz","webkit","o"],r=0;r<n.length&&!window.requestAnimationFrame;++r)window.requestAnimationFrame=window[n[r]+"RequestAnimationFrame"],window.cancelAnimationFrame=window[n[r]+"CancelAnimationFrame"]||window[n[r]+"CancelRequestAnimationFrame"];window.requestAnimationFrame||(window.requestAnimationFrame=function(n){var r=Date.now(),e=Math.max(0,16-(r-t)),i=window.setTimeout((function(){n(r+e)}),e);return t=r+e,i},window.cancelAnimationFrame=window.clearTimeout)}();var V=/\.0+$/g;function $(t){return Number.isInteger(t)?t+"":t.toFixed(6).replace(V,"")}function G(t){var n=arguments.length>1&&void 0!==arguments[1]?arguments[1]:" ";return t&&t.length?t.map($).join(n):""}function H(t){return t?null==t.a||t.a>=1?"rgb("+t.r+","+t.g+","+t.b+")":"rgba("+t.r+","+t.g+","+t.b+","+t.a+")":"transparent"}var Q={f:null,i:function(t,n,r){return 0===t?n:1===t?r:{x:w(t,n.x,r.x),y:w(t,n.y,r.y)}},u:function(t,n){return function(r){var e=n(r);t.setAttribute("rx",$(e.x)),t.setAttribute("ry",$(e.y))}}},U={f:null,i:function(t,n,r){return 0===t?n:1===t?r:{width:w(t,n.width,r.width),height:w(t,n.height,r.height)}},u:function(t,n){return function(r){var e=n(r);t.setAttribute("width",$(e.width)),t.setAttribute("height",$(e.height))}}},Y=Math.sin,Z=Math.cos,J=Math.acos,K=Math.asin,W=Math.tan,X=Math.atan2,tt=Math.PI/180,nt=180/Math.PI,rt=Math.sqrt,et=function(){function t(){var r=arguments.length>0&&void 0!==arguments[0]?arguments[0]:1,e=arguments.length>1&&void 0!==arguments[1]?arguments[1]:0,i=arguments.length>2&&void 0!==arguments[2]?arguments[2]:0,o=arguments.length>3&&void 0!==arguments[3]?arguments[3]:1,u=arguments.length>4&&void 0!==arguments[4]?arguments[4]:0,a=arguments.length>5&&void 0!==arguments[5]?arguments[5]:0;n(this,t),this.m=[r,e,i,o,u,a],this.i=null,this.w=null,this.s=null}return e(t,[{key:"point",value:function(t,n){var r=this.m;return{x:r[0]*t+r[2]*n+r[4],y:r[1]*t+r[3]*n+r[5]}}},{key:"translateSelf",value:function(){var t=arguments.length>0&&void 0!==arguments[0]?arguments[0]:0,n=arguments.length>1&&void 0!==arguments[1]?arguments[1]:0;if(!t&&!n)return this;var r=this.m;return r[4]+=r[0]*t+r[2]*n,r[5]+=r[1]*t+r[3]*n,this.w=this.s=this.i=null,this}},{key:"rotateSelf",value:function(){var t=arguments.length>0&&void 0!==arguments[0]?arguments[0]:0;if(t%=360){var n=Y(t*=tt),r=Z(t),e=this.m,i=e[0],o=e[1];e[0]=i*r+e[2]*n,e[1]=o*r+e[3]*n,e[2]=e[2]*r-i*n,e[3]=e[3]*r-o*n,this.w=this.s=this.i=null}return this}},{key:"scaleSelf",value:function(){var t=arguments.length>0&&void 0!==arguments[0]?arguments[0]:1,n=arguments.length>1&&void 0!==arguments[1]?arguments[1]:1;if(1!==t||1!==n){var r=this.m;r[0]*=t,r[1]*=t,r[2]*=n,r[3]*=n,this.w=this.s=this.i=null}return this}},{key:"skewSelf",value:function(t,n){if(n%=360,(t%=360)||n){var r=this.m,e=r[0],i=r[1],o=r[2],u=r[3];t&&(t=W(t*tt),r[2]+=e*t,r[3]+=i*t),n&&(n=W(n*tt),r[0]+=o*n,r[1]+=u*n),this.w=this.s=this.i=null}return this}},{key:"resetSelf",value:function(){var t=arguments.length>0&&void 0!==arguments[0]?arguments[0]:1,n=arguments.length>1&&void 0!==arguments[1]?arguments[1]:0,r=arguments.length>2&&void 0!==arguments[2]?arguments[2]:0,e=arguments.length>3&&void 0!==arguments[3]?arguments[3]:1,i=arguments.length>4&&void 0!==arguments[4]?arguments[4]:0,o=arguments.length>5&&void 0!==arguments[5]?arguments[5]:0,u=this.m;return u[0]=t,u[1]=n,u[2]=r,u[3]=e,u[4]=i,u[5]=o,this.w=this.s=this.i=null,this}},{key:"recomposeSelf",value:function(){var t=arguments.length>0&&void 0!==arguments[0]?arguments[0]:null,n=arguments.length>1&&void 0!==arguments[1]?arguments[1]:null,r=arguments.length>2&&void 0!==arguments[2]?arguments[2]:null,e=arguments.length>3&&void 0!==arguments[3]?arguments[3]:null,i=arguments.length>4&&void 0!==arguments[4]?arguments[4]:null;return this.isIdentity||this.resetSelf(),t&&(t.x||t.y)&&this.translateSelf(t.x,t.y),n&&this.rotateSelf(n),r&&(r.x&&this.skewSelf(r.x,0),r.y&&this.skewSelf(0,r.y)),!e||1===e.x&&1===e.y||this.scaleSelf(e.x,e.y),i&&(i.x||i.y)&&this.translateSelf(i.x,i.y),this}},{key:"decompose",value:function(){var t=arguments.length>0&&void 0!==arguments[0]?arguments[0]:0,n=arguments.length>1&&void 0!==arguments[1]?arguments[1]:0,r=this.m,e=r[0]*r[0]+r[1]*r[1],i=[[r[0],r[1]],[r[2],r[3]]],o=rt(e);if(0===o)return{origin:{x:r[4],y:r[5]},translate:{x:t,y:n},scale:{x:0,y:0},skew:{x:0,y:0},rotate:0};i[0][0]/=o,i[0][1]/=o;var u=r[0]*r[3]-r[1]*r[2]<0;u&&(o=-o);var a=i[0][0]*i[1][0]+i[0][1]*i[1][1];i[1][0]-=i[0][0]*a,i[1][1]-=i[0][1]*a;var l=rt(i[1][0]*i[1][0]+i[1][1]*i[1][1]);if(0===l)return{origin:{x:r[4],y:r[5]},translate:{x:t,y:n},scale:{x:o,y:0},skew:{x:0,y:0},rotate:0};i[1][0]/=l,i[1][1]/=l,a/=l;var f=0;return i[1][1]<0?(f=J(i[1][1])*nt,i[0][1]<0&&(f=360-f)):f=K(i[0][1])*nt,u&&(f=-f),a=X(a,rt(i[0][0]*i[0][0]+i[0][1]*i[0][1]))*nt,{origin:{x:r[4],y:r[5]},translate:{x:t,y:n},scale:{x:o,y:l},skew:{x:a,y:0},rotate:f}}},{key:"toString",value:function(){return null===this.s&&(this.s="matrix("+this.m.map(ot).join(" ")+")"),this.s}},{key:"determinant",get:function(){var t=this.m;return t[0]*t[3]-t[1]*t[2]}},{key:"isIdentity",get:function(){if(null===this.i){var t=this.m;this.i=1===t[0]&&0===t[1]&&0===t[2]&&1===t[3]&&0===t[4]&&0===t[5]}return this.i}}]),t}(),it=/\.0+$/;function ot(t){return Number.isInteger(t)?t:t.toFixed(14).replace(it,"")}Object.freeze({M:2,L:2,Z:0,H:1,V:1,C:6,Q:4,T:2,S:4,A:7});function ut(t,n,r){return t+(n-t)*r}function at(t,n,r){var e=arguments.length>3&&void 0!==arguments[3]&&arguments[3],i={x:ut(t.x,n.x,r),y:ut(t.y,n.y,r)};return e&&(i.a=lt(t,n)),i}function lt(t,n){return Math.atan2(n.y-t.y,n.x-t.x)}function ft(t,n,r,e){var i=1-e;return i*i*t+2*i*e*n+e*e*r}function st(t,n,r,e){return 2*(1-e)*(n-t)+2*e*(r-n)}function ct(t,n,r,e){var i=arguments.length>4&&void 0!==arguments[4]&&arguments[4],o={x:ft(t.x,n.x,r.x,e),y:ft(t.y,n.y,r.y,e)};return i&&(o.a=ht(t,n,r,e)),o}function ht(t,n,r,e){return Math.atan2(st(t.y,n.y,r.y,e),st(t.x,n.x,r.x,e))}function vt(t,n,r,e,i){var o=i*i;return i*o*(e-t+3*(n-r))+3*o*(t+r-2*n)+3*i*(n-t)+t}function yt(t,n,r,e,i){var o=1-i;return 3*(o*o*(n-t)+2*o*i*(r-n)+i*i*(e-r))}function dt(t,n,r,e,i){var o=arguments.length>5&&void 0!==arguments[5]&&arguments[5],u={x:vt(t.x,n.x,r.x,e.x,i),y:vt(t.y,n.y,r.y,e.y,i)};return o&&(u.a=gt(t,n,r,e,i)),u}function gt(t,n,r,e,i){return Math.atan2(yt(t.y,n.y,r.y,e.y,i),yt(t.x,n.x,r.x,e.x,i))}function pt(t,n,r){var e=arguments.length>3&&void 0!==arguments[3]&&arguments[3];if(bt(n)){if(wt(r))return ct(n,r.start,r,t,e)}else if(bt(r)){if(n.end)return ct(n,n.end,r,t,e)}else{if(n.end)return r.start?dt(n,n.end,r.start,r,t,e):ct(n,n.end,r,t,e);if(r.start)return ct(n,r.start,r,t,e)}return at(n,r,t,e)}function mt(t,n,r){var e=pt(t,n,r,!0);return e.a=function(t){var n=arguments.length>1&&void 0!==arguments[1]&&arguments[1];return n?t+Math.PI:t}(e.a)/p,e}function bt(t){return!t.type||"corner"===t.type}function wt(t){return null!=t.start&&!bt(t)}var kt=new et;var xt={f:$,i:b},At={f:$,i:function(t,n,r){var e=b(t,n,r);return e<=0?0:e>=1?1:e}};function _t(t,n,r,e,i,o,u,a){return n=function(t,n,r){for(var e,i,o,u=t.length-1,a={},l=0;l<=u;l++)(e=t[l]).e&&(e.e=n(e.e)),e.v&&"g"===(i=e.v).t&&i.r&&(o=r.getElementById(i.r))&&(a[i.r]=o.querySelectorAll("stop"));return a}(t,e,a),function(e){var i,o=r(e,t,St);return o?"c"===o.t?H(o.v):"g"===o.t?(n[o.r]&&function(t,n){for(var r=0,e=t.length;r<e;r++)t[r].setAttribute("stop-color",H(n[r]))}(n[o.r],o.v),(i=o.r)?"url(#"+i+")":"none"):"none":"none"}}function St(t,n,r){if(0===t)return n;if(1===t)return r;if(n&&r){var e=n.t;if(e===r.t)switch(n.t){case"c":return{t:e,v:A(t,n.v,r.v)};case"g":if(n.r===r.r)return{t:e,v:_(t,n.v,r.v),r:n.r}}}return m(t,n,r)}var Ot={fill:_t,"fill-opacity":At,stroke:_t,"stroke-opacity":At,"stroke-width":xt,"stroke-dashoffset":{f:$,i:b},"stroke-dasharray":{f:function(t){var n=arguments.length>1&&void 0!==arguments[1]?arguments[1]:" ";return t&&t.length>0&&(t=t.map((function(t){return Math.floor(1e4*t)/1e4}))),G(t,n)},i:function(t,n,r){var e,i,o,u=n.length,a=r.length;if(u!==a)if(0===u)n=S(u=a,0);else if(0===a)a=u,r=S(u,0);else{var l=(o=(e=u)*(i=a)/function(t,n){for(var r;n;)r=n,n=t%n,t=r;return t||1}(e,i))<0?-o:o;n=O(n,Math.floor(l/u)),r=O(r,Math.floor(l/a)),u=a=l}for(var f=[],s=0;s<u;s++)f.push(g(w(t,n[s],r[s]),6));return f}},opacity:At,transform:function(n,r,e,i){if(!(n=function(n,r){if(!n||"object"!==t(n))return null;var e=!1;for(var i in n)n.hasOwnProperty(i)&&(n[i]&&n[i].length?(n[i].forEach((function(t){t.e&&(t.e=r(t.e))})),e=!0):delete n[i]);return e?n:null}(n,i)))return null;var o=function(t,i,o){var u=arguments.length>3&&void 0!==arguments[3]?arguments[3]:null;return n[t]?e(i,n[t],o):r&&r[t]?r[t]:u};return r&&r.a&&n.o?function(t){var r=e(t,n.o,mt);return kt.recomposeSelf(r,o("r",t,b,0)+r.a,o("k",t,k),o("s",t,k),o("t",t,k)).toString()}:function(t){return kt.recomposeSelf(o("o",t,pt,null),o("r",t,b,0),o("k",t,k),o("s",t,k),o("t",t,k)).toString()}},r:xt,"#size":U,"#radius":Q,_:function(t,n){if(Array.isArray(t))for(var r=0;r<t.length;r++)this[t[r]]=n;else this[t]=n}};return function(t){!function(t,n){if("function"!=typeof n&&null!==n)throw new TypeError("Super expression must either be null or a function");t.prototype=Object.create(n&&n.prototype,{constructor:{value:t,writable:!0,configurable:!0}}),n&&o(t,n)}(u,t);var r=a(u);function u(){return n(this,u),r.apply(this,arguments)}return e(u,null,[{key:"build",value:function(t){var n=l(i(u),"build",this).call(this,t,Ot),r=(n.el,n.options,n.player);return function(t){t.play()}(r),r}}]),u}(L)}));
__SVGATOR_PLAYER__.build({"root":"e7j0r6z424qg1","animations":[{"duration":4000,"direction":1,"iterations":0,"fill":1,"alternate":false,"elements":{"e7j0r6z424qg9":{"transform":{"data":{"t":{"x":-196.1840057373047,"y":-246.52000427246094}},"keys":{"o":[{"t":0,"v":{"x":196.1840057373047,"y":246.52000427246094,"type":"corner"},"e":[0.42,0,0.58,1]},{"t":1970,"v":{"x":196.1840057373047,"y":250.00781514746097,"type":"corner"},"e":[0.42,0,0.58,1]},{"t":3970,"v":{"x":196.1840057373047,"y":246.52000427246094,"type":"corner"},"e":[0.42,0,0.58,1]}]}}},"e7j0r6z424qg10":{"transform":{"data":{"t":{"x":-698.4850158691406,"y":-106.08419799804688}},"keys":{"o":[{"t":0,"v":{"x":698.4850158691406,"y":106.08419799804688,"type":"corner"},"e":[0.42,0,0.58,1]},{"t":1970,"v":{"x":698.4850158691406,"y":99.40519799804687,"type":"corner"},"e":[0.42,0,0.58,1]},{"t":3970,"v":{"x":698.4850158691406,"y":106.08419799804688,"type":"corner"},"e":[0.42,0,0.58,1]}]}}},"e7j0r6z424qg11":{"transform":{"data":{"t":{"x":-608.3054809570312,"y":-310.73199462890625}},"keys":{"o":[{"t":0,"v":{"x":608.3054809570312,"y":310.73199462890625,"type":"corner"},"e":[0.42,0,0.58,1]},{"t":1970,"v":{"x":610.2150002670312,"y":309.25407727890666,"type":"corner"},"e":[0.42,0,0.58,1]},{"t":3970,"v":{"x":608.3054809570312,"y":310.73199462890625,"type":"corner"},"e":[0.42,0,0.58,1]}]}}},"e7j0r6z424qg12":{"transform":{"data":{"t":{"x":-378.4510040283203,"y":-117.25399780273438}},"keys":{"o":[{"t":0,"v":{"x":378.4510040283203,"y":117.25399780273438,"type":"corner"},"e":[0.42,0,0.58,1]},{"t":1970,"v":{"x":378.4510040283203,"y":121.07099780273434,"type":"corner"},"e":[0.42,0,0.58,1]},{"t":3970,"v":{"x":378.4510040283203,"y":117.25399780273438,"type":"corner"},"e":[0.42,0,0.58,1]}]}}},"e7j0r6z424qg13":{"transform":{"data":{"s":{"x":0.9325,"y":0.9325},"t":{"x":-542.3210000001109,"y":-200.43333266048958}},"keys":{"o":[{"t":0,"v":{"x":594.2871976876213,"y":225.52177908770923,"type":"corner","end":{"x":599.2780514640137,"y":223.01248474035293}},"e":[0.42,0,0.58,1]},{"t":1970,"v":{"x":594.2871976876213,"y":215.60425120270926,"type":"corner","end":{"x":599.2780514640137,"y":213.09495685535296}},"e":[0.42,0,0.58,1]},{"t":3970,"v":{"x":594.2871976876213,"y":225.52177908770923,"type":"corner","end":{"x":599.2780514640137,"y":223.01248474035293}},"e":[0.42,0,0.58,1]}],"r":[{"t":0,"v":0},{"t":970,"v":3},{"t":1970,"v":0},{"t":2970,"v":-3},{"t":3970,"v":0}]}}},"e7j0r6z424qg33":{"transform":{"data":{"t":{"x":-183.5019989013672,"y":-334.5870056152344}},"keys":{"o":[{"t":0,"v":{"x":183.5019989013672,"y":334.5870056152344,"type":"corner"},"e":[0.42,0,0.58,1]},{"t":1970,"v":{"x":183.5019989013672,"y":329.90583522523434,"type":"corner"},"e":[0.42,0,0.58,1]},{"t":3970,"v":{"x":183.5019989013672,"y":334.5870056152344,"type":"corner"},"e":[0.42,0,0.58,1]}]}}},"e7j0r6z424qg34":{"transform":{"data":{"t":{"x":-635.3909912109375,"y":-178.19000244140625}},"keys":{"o":[{"t":0,"v":{"x":635.3909912109375,"y":178.19000244140625,"type":"corner"},"e":[0.42,0,0.58,1]},{"t":1970,"v":{"x":633.5920105209375,"y":179.23564950140633,"type":"corner"},"e":[0.42,0,0.58,1]},{"t":3970,"v":{"x":635.3909912109375,"y":178.19000244140625,"type":"corner"},"e":[0.42,0,0.58,1]}]}}},"e7j0r6z424qg35":{"transform":{"data":{"t":{"x":-423.3800048828125,"y":-201.64300537109375}},"keys":{"o":[{"t":0,"v":{"x":423.3800048828125,"y":201.64300537109375,"type":"corner"},"e":[0.42,0,0.58,1]},{"t":1970,"v":{"x":423.3800048828125,"y":200.06581625109374,"type":"corner"},"e":[0.42,0,0.58,1]},{"t":3970,"v":{"x":423.3800048828125,"y":201.64300537109375,"type":"corner"},"e":[0.42,0,0.58,1]}]}}},"e7j0r6z424qg36":{"transform":{"data":{"t":{"x":-178.79299926757812,"y":-215.96749877929688}},"keys":{"o":[{"t":0,"v":{"x":178.79299926757812,"y":215.96749877929688,"type":"corner"},"e":[0.42,0,0.58,1]},{"t":1970,"v":{"x":178.79299926757812,"y":211.35980965429692,"type":"corner"},"e":[0.42,0,0.58,1]},{"t":3970,"v":{"x":178.79299926757812,"y":215.96749877929688,"type":"corner"},"e":[0.42,0,0.58,1]}]}}},"e7j0r6z424qg37":{"transform":{"data":{"t":{"x":-449.9134979248047,"y":-615.16650390625}},"keys":{"o":[{"t":0,"v":{"x":449.9134979248047,"y":615.16650390625,"type":"corner"},"e":[0.42,0,0.58,1]},{"t":1970,"v":{"x":449.9134979248047,"y":622.4424854712506,"type":"corner"},"e":[0.42,0,0.58,1]},{"t":3970,"v":{"x":449.9134979248047,"y":615.16650390625,"type":"corner"},"e":[0.42,0,0.58,1]}]}}},"e7j0r6z424qg38":{"transform":{"data":{"t":{"x":-347.1730041503906,"y":-597.4220275878906}},"keys":{"o":[{"t":0,"v":{"x":347.1730041503906,"y":597.4220275878906,"type":"corner"},"e":[0.42,0,0.58,1]},{"t":1970,"v":{"x":347.1730041503906,"y":585.0360275878907,"type":"corner"},"e":[0.42,0,0.58,1]},{"t":3970,"v":{"x":347.1730041503906,"y":597.4220275878906,"type":"corner"},"e":[0.42,0,0.58,1]}]}}},"e7j0r6z424qg39":{"transform":{"data":{"t":{"x":-61.14655113220215,"y":-441.8585510253906}},"keys":{"o":[{"t":0,"v":{"x":61.14655113220215,"y":441.8585510253906,"type":"corner"},"e":[0.42,0,0.58,1]},{"t":970,"v":{"x":61.14655113220215,"y":437.7519999953907,"type":"corner"},"e":[0.42,0,0.58,1]},{"t":1970,"v":{"x":61.14655113220215,"y":441.8585510253906,"type":"corner"},"e":[0.42,0,0.58,1]},{"t":2970,"v":{"x":61.14655113220215,"y":437.7519999953907,"type":"corner"},"e":[0.42,0,0.58,1]},{"t":3970,"v":{"x":61.14655113220215,"y":441.8585510253906,"type":"corner"},"e":[0.42,0,0.58,1]}]}}},"e7j0r6z424qg46":{"transform":{"data":{"t":{"x":-164.65399551391602,"y":-451.8130645751953}},"keys":{"o":[{"t":0,"v":{"x":164.65399551391602,"y":451.8130645751953,"type":"corner"},"e":[0.42,0,0.58,1]},{"t":1970,"v":{"x":164.65399551391602,"y":458.6429899901955,"type":"corner"},"e":[0.42,0,0.58,1]},{"t":3970,"v":{"x":164.65399551391602,"y":451.8130645751953,"type":"corner"},"e":[0.42,0,0.58,1]}]}}},"e7j0r6z424qg66":{"transform":{"data":{"t":{"x":-223.6993865966797,"y":-98.64749908447266}},"keys":{"o":[{"t":0,"v":{"x":223.6993865966797,"y":98.64749908447266,"type":"corner"}},{"t":970,"v":{"x":227.6836607666797,"y":98.64749908447266,"type":"corner"}},{"t":1970,"v":{"x":223.6993865966797,"y":98.64749908447266,"type":"corner"}},{"t":2970,"v":{"x":216.3992239966797,"y":98.64749908447266,"type":"corner"}},{"t":3970,"v":{"x":223.6993865966797,"y":98.64749908447266,"type":"corner"}}]}}},"e7j0r6z424qg69":{"transform":{"data":{"t":{"x":-721.9255065917969,"y":-214.9274444580078}},"keys":{"o":[{"t":0,"v":{"x":721.9255065917969,"y":214.9274444580078,"type":"corner"}},{"t":970,"v":{"x":718.0559613017967,"y":214.9274444580078,"type":"corner"}},{"t":1970,"v":{"x":721.9255065917969,"y":214.9274444580078,"type":"corner"}},{"t":2970,"v":{"x":728.3324525067967,"y":214.9274444580078,"type":"corner"}},{"t":3970,"v":{"x":721.9255065917969,"y":214.9274444580078,"type":"corner"}}]}}},"e7j0r6z424qg72":{"transform":{"data":{"t":{"x":-669.8917236328125,"y":-428.89056396484375}},"keys":{"o":[{"t":0,"v":{"x":669.8917236328125,"y":428.89056396484375,"type":"corner"},"e":[0.42,0,0.58,1]},{"t":1970,"v":{"x":669.8917236328125,"y":420.94537537484376,"type":"corner"},"e":[0.42,0,0.58,1]},{"t":3970,"v":{"x":669.8917236328125,"y":428.89056396484375,"type":"corner"},"e":[0.42,0,0.58,1]}],"r":[{"t":0,"v":0},{"t":3970,"v":360}]}}},"e7j0r6z424qg78":{"transform":{"data":{"t":{"x":-809.2030029296875,"y":-452.10350036621094}},"keys":{"o":[{"t":0,"v":{"x":809.2030029296875,"y":452.10350036621094,"type":"corner"},"e":[0.42,0,0.58,1]},{"t":1970,"v":{"x":809.2030029296875,"y":460.2614436162109,"type":"corner"},"e":[0.42,0,0.58,1]},{"t":3970,"v":{"x":809.2030029296875,"y":452.10350036621094,"type":"corner"},"e":[0.42,0,0.58,1]}]}}},"e7j0r6z424qg86":{"transform":{"data":{"t":{"x":-687.1362609863281,"y":-611.3192749023438}},"keys":{"o":[{"t":0,"v":{"x":687.1362609863281,"y":611.3192749023438,"type":"corner"},"e":[0.42,0,0.58,1]},{"t":970,"v":{"x":687.1362609863281,"y":585.3320078023438,"type":"corner"},"e":[0.42,0,0.58,1]},{"t":1970,"v":{"x":687.1362609863281,"y":611.3192749023438,"type":"corner"},"e":[0.42,0,0.58,1]},{"t":2970,"v":{"x":687.1362609863281,"y":585.3320078023438,"type":"corner"},"e":[0.42,0,0.58,1]},{"t":3970,"v":{"x":687.1362609863281,"y":611.3192749023438,"type":"corner"},"e":[0,0,0.58,1]}]}}},"e7j0r6z424qg87":{"transform":{"data":{"o":{"x":717.0029999999999,"y":615.2275863274901,"type":"corner"},"t":{"x":-717.0029999999999,"y":-615.2275863274901}},"keys":{"r":[{"t":0,"v":0,"e":[0.42,0,0.58,1]},{"t":970,"v":-3,"e":[0.42,0,0.58,1]},{"t":1970,"v":0,"e":[0.42,0,0.58,1]},{"t":2970,"v":-3,"e":[0.42,0,0.58,1]},{"t":3970,"v":0,"e":[0.42,0,0.58,1]}]}}},"e7j0r6z424qg91":{"transform":{"data":{"o":{"x":692.256,"y":602.642,"type":"corner"},"t":{"x":-692.256,"y":-602.642}},"keys":{"r":[{"t":0,"v":0,"e":[0.42,0,0.58,1]},{"t":970,"v":-3,"e":[0.42,0,0.58,1]},{"t":1970,"v":0,"e":[0.42,0,0.58,1]},{"t":2970,"v":-3,"e":[0.42,0,0.58,1]},{"t":3970,"v":0,"e":[0.42,0,0.58,1]}]}}},"e7j0r6z424qg95":{"transform":{"data":{"o":{"x":717.0029999999999,"y":518.11605393,"type":"corner"},"t":{"x":-717.0029999999999,"y":-518.11605393}},"keys":{"r":[{"t":0,"v":0,"e":[0.42,0,0.58,1]},{"t":1970,"v":-10,"e":[0.42,0,0.58,1]},{"t":3970,"v":0,"e":[0.42,0,0.58,1]}]}}},"e7j0r6z424qg107":{"transform":{"data":{"o":{"x":666.8650207519531,"y":792.5599497671094,"type":"corner"},"t":{"x":-666.8650207519531,"y":-796.3064880371094}},"keys":{"s":[{"t":0,"v":{"x":1,"y":1},"e":[0.42,0,0.58,1]},{"t":970,"v":{"x":0.9,"y":0.9},"e":[0.42,0,0.58,1]},{"t":1970,"v":{"x":1,"y":1},"e":[0.42,0,0.58,1]},{"t":2970,"v":{"x":0.9,"y":0.9},"e":[0.42,0,0.58,1]},{"t":3970,"v":{"x":1,"y":1},"e":[0.42,0,0.58,1]}]}}},"e7j0r6z424qg108":{"transform":{"data":{"o":{"x":90.42165184020996,"y":789.5299987792969,"type":"corner"},"t":{"x":-90.42165184020996,"y":-789.5299987792969}},"keys":{"s":[{"t":0,"v":{"x":1,"y":1},"e":[0.42,0,0.58,1]},{"t":970,"v":{"x":0.9,"y":0.9},"e":[0.42,0,0.58,1]},{"t":1970,"v":{"x":1,"y":1},"e":[0.42,0,0.58,1]},{"t":2970,"v":{"x":0.9,"y":0.9},"e":[0.42,0,0.58,1]},{"t":3970,"v":{"x":1,"y":1},"e":[0.42,0,0.58,1]}]}}},"e7j0r6z424qg109":{"transform":{"data":{"t":{"x":-91.02870178222656,"y":-607.7882385253906}},"keys":{"o":[{"t":0,"v":{"x":91.02870178222656,"y":607.7882385253906,"type":"corner"},"e":[0.42,0,0.58,1]},{"t":970,"v":{"x":91.02870178222656,"y":595.4407111853907,"type":"corner"},"e":[0.42,0,0.58,1]},{"t":1970,"v":{"x":91.02870178222656,"y":607.7882385253906,"type":"corner"},"e":[0.42,0,0.58,1]},{"t":2970,"v":{"x":91.02870178222656,"y":595.4407111853907,"type":"corner"},"e":[0.42,0,0.58,1]},{"t":3970,"v":{"x":91.02870178222656,"y":607.7882385253906,"type":"corner"},"e":[0.42,0,0.58,1]}]}}},"e7j0r6z424qg113":{"transform":{"data":{"o":{"x":106.39627881499999,"y":572.4202934049999,"type":"corner"},"t":{"x":-106.39627881499999,"y":-572.4202934049999}},"keys":{"r":[{"t":0,"v":0,"e":[0.42,0,0.58,1]},{"t":970,"v":2},{"t":1970,"v":0,"e":[0.42,0,0.58,1]},{"t":2970,"v":2},{"t":3970,"v":0,"e":[0.42,0,0.58,1]}]}}},"e7j0r6z424qg117":{"transform":{"data":{"o":{"x":90.42165,"y":572.4202934049999,"type":"corner"},"t":{"x":-90.42165,"y":-572.4202934049999}},"keys":{"r":[{"t":0,"v":0,"e":[0.42,0,0.58,1]},{"t":970,"v":-4,"e":[0.42,0,0.58,1]},{"t":1970,"v":0,"e":[0.42,0,0.58,1]},{"t":2970,"v":-4,"e":[0.42,0,0.58,1]},{"t":3970,"v":0,"e":[0.42,0,0.58,1]}]}}},"e7j0r6z424qg125":{"transform":{"data":{"t":{"x":-409.0349884033203,"y":-411.8765106201172}},"keys":{"o":[{"t":0,"v":{"x":409.0349884033203,"y":411.8765106201172,"type":"corner"},"e":[0.42,0,0.58,1]},{"t":1970,"v":{"x":409.0349884033203,"y":417,"type":"corner"},"e":[0.42,0,0.58,1]},{"t":3970,"v":{"x":409.0349884033203,"y":411.8765106201172,"type":"corner"},"e":[0.42,0,0.58,1]}]}}},"e7j0r6z424qg131":{"transform":{"data":{"t":{"x":-775.4210205078125,"y":-321.9020080566406}},"keys":{"o":[{"t":0,"v":{"x":775.4210205078125,"y":321.9020080566406,"type":"corner"},"e":[0.42,0,0.58,1]},{"t":970,"v":{"x":775.4210205078125,"y":327.3440849216406,"type":"corner"},"e":[0.42,0,0.58,1]},{"t":1970,"v":{"x":775.4210205078125,"y":321.9020080566406,"type":"corner"},"e":[0.42,0,0.58,1]},{"t":2970,"v":{"x":775.4210205078125,"y":327.3440849216406,"type":"corner"},"e":[0.42,0,0.58,1]},{"t":3970,"v":{"x":775.4210205078125,"y":321.9020080566406,"type":"corner"},"e":[0.42,0,0.58,1]}],"r":[{"t":0,"v":0},{"t":970,"v":-2},{"t":1970,"v":0},{"t":2970,"v":2},{"t":3970,"v":0}]}}},"e7j0r6z424qg136":{"transform":{"data":{"t":{"x":-95.62299728393555,"y":-164.90799713134766}},"keys":{"o":[{"t":0,"v":{"x":95.62299728393555,"y":164.90799713134766,"type":"corner"},"e":[0.42,0,0.58,1]},{"t":1970,"v":{"x":95.62299728393555,"y":149.2626441963476,"type":"corner"},"e":[0.42,0,0.58,1]},{"t":3970,"v":{"x":95.62299728393555,"y":164.90799713134766,"type":"corner"},"e":[0.42,0,0.58,1]}],"r":[{"t":0,"v":0},{"t":970,"v":-2},{"t":1970,"v":0},{"t":2970,"v":2},{"t":3970,"v":0}]}}},"e7j0r6z424qg151":{"transform":{"data":{"o":{"x":304.1033935546875,"y":212.83594512939453,"type":"corner"},"t":{"x":-304.1033935546875,"y":-212.83594512939453}},"keys":{"s":[{"t":0,"v":{"x":1,"y":1}},{"t":1970,"v":{"x":0.9,"y":0.9}},{"t":3970,"v":{"x":1,"y":1}}]}}}}}],"options":{"start":"load","hover":"freeze","click":"freeze","scroll":25,"exportedIds":"unique","title":"Eivolo Landing Page"},"animationSettings":{"duration":4000,"direction":1,"iterations":0,"fill":1,"alternate":false}})]]></script></svg>