<svg width="770" height="640" viewBox="0 0 770 640" fill="none" xmlns="http://www.w3.org/2000/svg">
<path opacity="0.05" d="M405 8.66025C414.282 3.30127 425.718 3.30127 435 8.66025L682.128 151.34C691.41 156.699 697.128 166.603 697.128 177.321V462.68C697.128 473.397 691.41 483.301 682.128 488.66L435 631.34C425.718 636.699 414.282 636.699 405 631.34L157.872 488.66C148.59 483.301 142.872 473.397 142.872 462.68V177.32C142.872 166.603 148.59 156.699 157.872 151.34L405 8.66025Z" fill="#2D0DB2"/>
<path d="M742.184 251.289C757.546 251.289 770 238.831 770 223.463C770 208.095 757.546 195.637 742.184 195.637C726.821 195.637 714.367 208.095 714.367 223.463C714.367 238.831 726.821 251.289 742.184 251.289Z" fill="#D0DAFF"/>
<path d="M673.512 619.86C682.878 619.86 690.471 612.264 690.471 602.895C690.471 593.526 682.878 585.93 673.512 585.93C664.146 585.93 656.553 593.526 656.553 602.895C656.553 612.264 664.146 619.86 673.512 619.86Z" fill="#D0DAFF"/>
<path d="M37.5852 247.546C43.7953 240.27 42.9332 229.335 35.6594 223.123C28.3856 216.911 17.4547 217.773 11.2445 225.049C5.03435 232.326 5.89655 243.26 13.1703 249.472C20.4441 255.685 31.375 254.822 37.5852 247.546Z" fill="#D0DAFF"/>
<path d="M69.1796 490.434C80.3855 490.434 89.4697 481.346 89.4697 470.137C89.4697 458.927 80.3855 449.84 69.1796 449.84C57.9738 449.84 48.8896 458.927 48.8896 470.137C48.8896 481.346 57.9738 490.434 69.1796 490.434Z" fill="#D0DAFF"/>
<path opacity="0.5" d="M644.522 120H570.895C570.006 120 569.217 119.211 569.217 118.322V68.6778C569.217 67.7896 570.006 67 570.895 67H644.522C645.411 67 646.2 67.6909 646.2 68.6778V118.322C646.2 119.309 645.509 120 644.522 120Z" fill="#29D9E1"/>
<path d="M619.946 106.084C612.445 106.084 606.228 99.9648 606.228 92.5625C606.228 85.1602 612.347 79.041 619.946 79.041C627.447 79.041 633.665 85.1602 633.665 92.5625C633.665 99.9648 627.546 106.084 619.946 106.084ZM619.946 84.7654C615.604 84.7654 612.149 88.2198 612.149 92.5625C612.149 96.8065 615.702 100.36 619.946 100.36C624.289 100.36 627.743 96.9052 627.743 92.5625C627.842 88.3185 624.289 84.7654 619.946 84.7654Z" fill="white"/>
<path d="M587.672 101.544H581.75V89.6016H609.188V95.4247H587.573V101.544H587.672Z" fill="white"/>
<path d="M596.754 92.5625H590.832V99.3726H596.754V92.5625Z" fill="white"/>
<path d="M116 146.254V368.026C116 373.158 120.145 377.303 125.376 377.303H449.595C454.728 377.303 458.972 373.158 458.972 368.026V146.254C458.972 141.121 454.826 136.976 449.595 136.976H125.376C120.145 136.976 116 141.121 116 146.254Z" fill="#D0DAFF"/>
<path d="M124.784 154.347V359.932C124.784 364.571 128.831 368.322 133.766 368.322H441.108C446.043 368.322 450.089 364.571 450.089 359.932V154.445C450.089 149.807 446.043 146.056 441.108 146.056H133.766C128.831 145.958 124.784 149.708 124.784 154.347Z" fill="white"/>
<path d="M271.746 159.775C273.029 159.775 274.114 158.689 274.114 157.406C274.114 156.123 273.029 155.038 271.746 155.038C270.463 155.038 269.377 156.123 269.377 157.406C269.476 158.788 270.463 159.775 271.746 159.775Z" fill="#D0DAFF"/>
<path d="M302.045 155.136H282.207C280.924 155.136 279.838 156.222 279.838 157.505C279.838 158.788 280.924 159.874 282.207 159.874H302.045C303.328 159.874 304.413 158.788 304.413 157.505C304.413 156.123 303.328 155.136 302.045 155.136Z" fill="#D0DAFF"/>
<path d="M274.607 218.598H149.558C148.275 218.598 147.189 217.315 147.189 215.835V178.231C147.189 176.652 148.275 175.468 149.558 175.468H274.706C275.989 175.468 277.075 176.751 277.075 178.231V215.835C276.976 217.315 275.89 218.598 274.607 218.598ZM149.558 176.554C148.769 176.554 148.176 177.244 148.176 178.231V215.835C148.176 216.822 148.769 217.513 149.558 217.513H274.706C275.495 217.513 276.088 216.822 276.088 215.835V178.231C276.088 177.244 275.495 176.554 274.706 176.554H149.558Z" fill="#E3E8FF"/>
<path d="M172.653 209.222C179.561 209.222 185.187 203.596 185.187 196.589C185.187 189.582 179.561 183.956 172.653 183.956C165.744 183.956 160.118 189.582 160.118 196.589C160.118 203.498 165.645 209.222 172.653 209.222Z" fill="#E3E8FF"/>
<path d="M200.683 188.2C199.993 188.2 199.499 189.187 199.499 190.272C199.499 191.457 200.091 192.444 200.683 192.444H258.915C259.605 192.444 260.099 191.457 260.099 190.371C260.099 189.285 259.507 188.298 258.915 188.298L200.683 188.2Z" fill="#E3E8FF"/>
<path d="M201.572 200.734C200.387 200.734 199.499 201.721 199.499 202.807C199.499 203.893 200.486 204.88 201.572 204.88H243.913C245.097 204.88 245.985 203.893 245.985 202.807C245.985 201.721 244.998 200.734 243.913 200.734H201.572Z" fill="#E3E8FF"/>
<path d="M426.403 218.598H301.354C300.071 218.598 298.985 217.315 298.985 215.835V178.231C298.985 176.652 300.071 175.468 301.354 175.468H426.502C427.785 175.468 428.87 176.751 428.87 178.231V215.835C428.673 217.315 427.686 218.598 426.403 218.598ZM301.354 176.554C300.565 176.554 299.972 177.244 299.972 178.231V215.835C299.972 216.822 300.565 217.513 301.354 217.513H426.502C427.291 217.513 427.883 216.822 427.883 215.835V178.231C427.883 177.244 427.291 176.554 426.502 176.554H301.354Z" fill="#E3E8FF"/>
<path d="M348.135 188.2C347.642 188.2 347.247 189.187 347.247 190.272C347.247 191.457 347.642 192.444 348.135 192.444H411.005C411.499 192.444 411.894 191.457 411.894 190.371C411.894 189.285 411.499 188.298 411.005 188.298L348.135 188.2Z" fill="#E3E8FF"/>
<path d="M348.728 200.734C347.938 200.734 347.247 201.721 347.247 202.807C347.247 203.893 347.938 204.88 348.728 204.88H400.445C401.234 204.88 401.925 203.893 401.925 202.807C401.925 201.721 401.234 200.734 400.445 200.734H348.728Z" fill="#E3E8FF"/>
<path d="M328.099 187.015C324.052 182.87 317.44 182.673 313.294 186.719C313.196 186.818 313.196 186.818 313.097 186.917C309.149 190.865 309.05 197.379 312.899 201.524C316.453 205.176 322.078 205.867 326.322 203.004L333.922 210.9C334.119 211.097 334.415 211.097 334.613 210.9L336.488 209.124C336.685 208.926 336.685 208.63 336.488 208.433L328.888 200.537C331.948 196.392 331.553 190.766 328.099 187.015ZM325.73 199.747C322.769 202.61 318.032 202.511 315.17 199.55C312.307 196.589 312.406 191.852 315.367 188.989C318.328 186.127 323.065 186.226 325.927 189.187C328.79 192.148 328.691 196.885 325.73 199.747Z" fill="#2EEDED"/>
<path opacity="0.05" d="M426.403 301.701H301.354C300.071 301.701 298.985 300.418 298.985 298.938V240.016C298.985 238.437 300.071 237.252 301.354 237.252H426.502C427.785 237.252 428.87 238.535 428.87 240.016V298.938C428.673 300.418 427.686 301.602 426.403 301.701Z" fill="#2D0DB2"/>
<path d="M210.254 258.176H200.088V301.997H210.352V258.176H210.254Z" fill="#E3E8FF"/>
<path d="M224.961 246.135H214.696V301.997H224.961V246.135Z" fill="#FDE5DF"/>
<path d="M269.08 237.153H258.815V301.997H269.08V237.153Z" fill="#E3E8FF"/>
<path d="M239.669 253.34H229.503V301.997H239.767V253.34H239.669Z" fill="#E3E8FF"/>
<path d="M254.371 257.189H244.106V301.997H254.371V257.189Z" fill="#E0FBFC"/>
<path d="M195.551 266.96H185.286V301.997H195.551V266.96Z" fill="#E0FBFC"/>
<path d="M180.842 270.809H170.577V301.997H180.842V270.809Z" fill="#FDE5DF"/>
<path d="M166.14 266.96H155.876V301.997H166.14V266.96Z" fill="#E3E8FF"/>
<path d="M275.791 301.8H150.051V302.491H275.791V301.8Z" fill="#E3E8FF"/>
<path opacity="0.05" d="M205.022 321.342H152.416C151.331 321.342 150.442 320.454 150.442 319.368V319.072C150.442 317.986 151.331 317.098 152.416 317.098H205.022C206.107 317.098 206.996 317.986 206.996 319.072V319.368C206.996 320.454 206.107 321.342 205.022 321.342Z" fill="#2D0DB2"/>
<path opacity="0.05" d="M205.023 353.221H152.417C151.332 353.221 150.443 352.333 150.443 351.247V328.349C150.443 327.264 151.332 326.375 152.417 326.375H205.023C206.108 326.375 206.997 327.264 206.997 328.349V351.247C206.997 352.333 206.108 353.221 205.023 353.221Z" fill="#2D0DB2"/>
<path opacity="0.05" d="M272.333 321.342H219.629C218.544 321.342 217.655 320.454 217.655 319.368V319.072C217.655 317.986 218.544 317.098 219.629 317.098H272.235C273.32 317.098 274.209 317.986 274.209 319.072V319.368C274.307 320.454 273.419 321.342 272.333 321.342Z" fill="#2D0DB2"/>
<path opacity="0.05" d="M272.331 353.221H219.627C218.542 353.221 217.653 352.333 217.653 351.247V328.349C217.653 327.264 218.542 326.375 219.627 326.375H272.233C273.318 326.375 274.207 327.264 274.207 328.349V351.247C274.305 352.333 273.417 353.221 272.331 353.221Z" fill="#2D0DB2"/>
<path d="M320.796 335.457C319.71 336.543 318.23 337.332 316.552 337.332C313.295 337.332 310.63 334.766 310.63 331.509C310.63 328.252 313.295 325.686 316.552 325.686V314.829C307.274 314.829 299.773 322.33 299.773 331.509C299.773 340.688 307.373 348.189 316.552 348.189C321.388 348.189 325.829 346.116 328.79 342.859L320.796 335.457Z" fill="#E3E8FF"/>
<path d="M316.354 314.729V325.586C319.611 325.586 322.178 328.152 322.178 331.409H333.034C333.034 322.23 325.533 314.729 316.354 314.729Z" fill="#B0FFFF"/>
<path d="M322.277 331.409C322.277 333.284 321.389 334.863 320.007 335.949L326.718 344.437C330.567 341.377 333.134 336.64 333.134 331.409H322.277Z" fill="#D0DAFF"/>
<path d="M363.729 337.331C362.15 337.331 360.571 336.837 359.386 335.653C357.116 333.383 357.116 329.632 359.386 327.362C361.656 325.092 365.407 325.092 367.677 327.362L375.375 319.664C368.861 313.15 358.202 313.15 351.688 319.565C345.174 326.079 345.273 336.739 351.787 343.253C355.241 346.707 359.781 348.385 364.124 348.187L363.729 337.331Z" fill="#CCD8FF"/>
<path d="M375.276 319.565L367.578 327.264C369.848 329.534 369.848 333.284 367.578 335.554L375.276 343.253C381.692 336.64 381.692 326.079 375.276 319.565Z" fill="#B0FFFF"/>
<path opacity="0.7" d="M367.579 335.554C366.296 336.837 364.52 337.429 362.743 337.232L361.46 347.99C366.395 348.582 371.428 347.003 375.179 343.253L367.579 335.554Z" fill="url(#paint0_linear)"/>
<path opacity="0.7" d="M414.952 335.457C413.866 336.543 412.386 337.332 410.708 337.332C407.451 337.332 404.786 334.766 404.786 331.509C404.786 328.252 407.451 325.686 410.708 325.686V314.829C401.431 314.829 393.93 322.33 393.93 331.509C393.93 340.688 401.529 348.189 410.708 348.189C415.544 348.189 419.986 346.116 422.947 342.859L414.952 335.457Z" fill="url(#paint1_linear)"/>
<path d="M410.511 314.729V325.586C413.768 325.586 416.334 328.152 416.334 331.409H427.191C427.191 322.23 419.69 314.729 410.511 314.729Z" fill="#CCD8FF"/>
<path d="M416.433 331.409C416.433 333.284 415.545 334.863 414.163 335.949L420.874 344.437C424.724 341.377 427.29 336.64 427.29 331.409H416.433Z" fill="#B0FFFF"/>
<path d="M555.397 624.637C555.496 627.302 558.95 630.46 565.958 625.92C566.353 620.295 565.267 602.628 559.444 593.252C550.66 590.883 555.299 620.097 555.397 624.637Z" fill="#2D0DB2"/>
<path d="M569.211 625.032C570.099 627.302 570.494 628.98 570.494 630.164C570.395 632.138 570.198 634.211 569.803 636.185H526.87C525.784 632.533 526.376 630.46 528.844 630.164C531.213 629.868 533.285 629.572 534.864 629.375L554.801 620.492C554.999 620.393 555.196 620.393 555.393 620.492C555.591 620.591 555.689 620.689 555.788 620.887L557.071 624.045C559.341 625.032 561.118 625.624 562.5 625.624C563.585 625.624 565.164 625.131 567.138 624.243C567.533 624.045 567.928 624.045 568.323 624.243C568.717 624.341 569.014 624.637 569.211 625.032Z" fill="#191847"/>
<path d="M500.618 622.17C500.026 624.835 502.789 628.881 510.883 626.019C512.659 620.492 515.916 602.529 512.363 591.771C504.072 587.133 501.605 617.531 500.618 622.17Z" fill="#2D0DB2"/>
<path d="M514.832 624.144C515.72 626.513 516.115 628.289 516.115 629.375C516.016 631.447 515.819 633.52 515.325 635.593L471.109 635.297C470.023 631.447 470.714 629.473 473.182 629.177C475.649 628.881 477.722 628.585 479.399 628.388L500.027 619.308C500.126 619.308 500.225 619.209 500.323 619.209C500.422 619.209 500.521 619.209 500.619 619.209C500.718 619.209 500.817 619.308 500.915 619.406C501.014 619.505 501.014 619.604 501.113 619.702L502.396 622.959C504.666 624.045 506.541 624.637 507.923 624.637C509.107 624.637 510.686 624.144 512.759 623.256C513.154 623.058 513.549 623.058 513.943 623.256C514.338 623.354 514.634 623.65 514.832 624.045V624.144Z" fill="#191847"/>
<path d="M547.892 407.406L514.039 616.939H487.983L511.276 407.603L547.892 407.406Z" fill="black"/>
<path d="M571.975 400.398L574.147 617.827L550.064 617.729L528.943 415.696L571.975 400.398Z" fill="black"/>
<path d="M508.022 392.798C508.022 354.109 519.767 315.617 528.453 310.683C528.453 310.683 538.618 309.992 543.849 309.794C551.646 309.498 563.688 313.347 570.201 334.666C574.248 348.089 572.373 380.56 571.879 408.886C571.682 421.421 573.656 433.166 573.36 442.048C551.252 442.048 535.164 441.357 513.747 441.357C513.549 434.745 508.022 405.037 508.022 392.798Z" fill="white"/>
<path d="M539.112 358.353C541.382 321.243 552.14 311.077 552.14 311.077C552.14 311.077 556.483 312.558 562.405 316.407C568.228 320.256 576.321 346.904 576.321 346.904C576.321 346.904 580.96 377.599 593.494 456.655L545.133 455.866C545.824 406.813 539.112 358.353 539.112 358.353Z" fill="#191847"/>
<path d="M541.777 283.146C541.777 283.146 547.402 302.392 546.613 311.768C546.613 311.768 534.769 323.711 530.032 320.355L529.439 296.372L541.777 283.146Z" fill="#F3896D"/>
<path d="M525.194 264.196C524.898 264.492 524.602 264.789 524.404 265.085C523.121 267.157 517.298 271.204 517.693 277.224C518.088 284.528 518.877 302.886 524.602 303.083C530.03 303.28 541.775 296.668 543.946 288.081C546.118 279.494 550.658 275.843 548.684 268.638C546.809 261.334 525.194 264.196 525.194 264.196Z" fill="#F3896D"/>
<path d="M541.087 277.323C541.087 277.323 540.001 272.98 538.422 270.612C536.942 268.243 537.83 266.664 537.83 266.664C537.83 266.664 523.025 276.928 516.215 272.388C509.405 267.749 516.314 262.716 516.314 262.716C516.314 262.716 524.308 254.425 527.565 255.018C530.921 255.61 528.552 251.859 534.375 251.958C540.199 252.057 543.653 255.906 543.653 255.906C543.653 255.906 544.245 255.807 547.996 259.558C551.746 263.308 550.068 274.362 547.798 278.113C545.528 281.863 544.146 288.377 544.146 288.377C544.146 288.377 539.014 288.575 541.087 277.323Z" fill="#191847"/>
<path d="M544.44 275.941C544.44 275.448 544.242 275.053 543.946 274.658C543.65 274.263 543.255 274.066 542.762 273.869C542.268 273.77 541.874 273.77 541.38 273.869C540.985 274.066 540.591 274.263 540.294 274.658C539.209 276.04 538.321 277.915 539.406 279.593C541.578 283.047 544.637 280.284 544.44 276.533C544.538 276.435 544.44 276.139 544.44 275.941Z" fill="#F3896D"/>
<path d="M554.609 448.661C554.51 448.858 554.214 448.957 554.017 449.056C553.721 449.154 553.523 449.154 553.227 449.154C552.931 449.154 552.734 449.056 552.536 448.957C552.339 448.858 552.142 448.661 552.142 448.463C552.142 448.365 552.043 448.266 552.142 448.167C552.832 446.884 553.918 444.516 555.399 443.627C558.853 441.555 564.479 436.817 564.479 434.843C564.38 432.869 566.551 423.691 566.551 423.691L579.974 422.407C579.974 422.407 570.993 455.175 566.847 457.544C564.183 459.024 562.209 457.938 559.149 457.938C556.089 458.037 559.248 447.476 557.274 446.49L554.609 448.661Z" fill="#F3896D"/>
<path d="M552.833 311.472C552.833 311.472 552.932 324.5 552.142 337.232C551.352 349.964 567.144 397.24 563.591 403.162C563.295 404.05 555.794 433.56 555.794 433.56L576.52 439.087C576.52 439.087 590.239 406.123 589.153 401.582C589.252 401.681 582.146 300.023 552.833 311.472Z" fill="#191847"/>
<path d="M448.111 355.294C448.111 355.294 446.927 349.076 446.729 348.089C446.532 347.102 444.361 345.226 441.597 343.746C438.932 342.266 435.379 339.897 434.886 340.094C434.392 340.292 433.8 340.193 433.011 341.279C432.221 342.364 432.122 343.746 432.122 343.746C432.122 343.746 430.444 344.634 430.444 346.312C430.444 346.312 428.865 347.2 429.26 349.174C429.26 349.174 427.78 350.063 428.174 351.543C428.174 351.543 430.148 353.418 430.642 354.307C431.135 355.195 435.577 358.847 440.314 361.61C440.215 361.61 445.545 362.795 448.111 355.294Z" fill="#F3896D"/>
<path d="M440.219 361.61C440.219 361.61 446.338 364.275 448.805 363.584C451.273 362.893 450.385 355.787 450.385 355.787L446.93 352.333L440.219 361.61Z" fill="#F3896D"/>
<path d="M440.51 350.457C440.51 350.457 439.819 353.616 440.115 354.603C440.412 355.59 433.7 355.392 433.7 355.392C433.7 355.392 436.661 349.767 440.51 350.457Z" fill="#EA816C"/>
<path d="M435.576 340.489C435.576 340.489 441.695 345.621 441.004 346.707C440.314 347.793 439.425 347.793 439.425 347.793L441.004 351.05C441.004 351.05 440.807 353.813 437.945 352.826C437.945 352.826 438.044 355.392 435.379 354.109C435.379 354.109 434.688 355.787 433.306 355.491C431.924 355.096 428.174 351.642 428.174 351.642C428.174 351.642 427.483 350.457 429.062 349.174C429.062 349.174 428.569 347.299 430.247 346.312C430.247 346.312 430.543 344.042 432.319 343.055C432.319 343.055 432.813 340.588 435.083 340.094C434.885 339.996 435.28 340.292 435.576 340.489Z" fill="#EA816C"/>
<path d="M446.533 347.891C446.533 347.891 441.204 346.707 438.045 347.299C437.354 347.398 436.664 347.694 436.466 348.385C436.367 349.076 437.157 350.26 439.427 350.852C441.697 351.444 444.362 353.32 444.362 353.32C444.362 353.32 447.027 353.418 446.533 347.891Z" fill="#F3896D"/>
<path d="M526.379 312.064C526.576 311.275 526.773 310.584 526.971 309.893L527.859 308.906C523.023 311.077 503.481 319.565 501.902 320.75L483.544 367.631L452.652 348.977C450.777 353.418 444.164 367.631 444.164 367.631C444.559 369.605 490.552 390.726 493.216 389.739C493.809 389.541 494.894 387.666 496.079 384.903C497.362 382.139 498.743 378.586 500.224 374.836C501.31 372.072 502.297 369.21 503.284 366.545C503.284 366.446 503.284 366.446 503.382 366.348C500.816 386.087 497.46 419.447 494.499 454.583C494.401 455.767 519.766 456.359 519.766 456.359C519.766 456.359 522.727 366.94 522.727 358.156C522.727 349.372 528.55 310.781 528.55 310.781C528.55 310.781 527.662 311.077 526.379 312.064Z" fill="#191847"/>
<path d="M555.691 309.794L547.302 306.34C547.302 306.34 545.624 312.854 532.201 319.565L536.84 332.495L555.691 309.794Z" fill="#E3E8FF"/>
<path d="M529.738 307.722C529.738 307.722 529.146 310.88 532.106 318.184L523.125 329.928L524.803 309.893L529.738 307.722Z" fill="#E3E8FF"/>
<path d="M532.499 317.197C532.499 317.197 535.361 323.02 534.769 324.994C534.769 324.994 530.92 326.375 528.156 324.599C528.156 324.698 529.045 320.947 532.499 317.197Z" fill="#2EEDED"/>
<path d="M529.832 324.303L526.477 406.122L530.622 412.933L534.175 404.642L533.78 323.316L529.832 324.303Z" fill="#2EEDED"/>
<path d="M499.93 375.428C501.016 372.664 502.003 369.802 502.99 367.137C502.99 367.039 502.99 367.039 503.088 366.94C503.088 366.94 503.088 361.709 503.384 355.688C503.68 350.063 504.273 343.845 505.457 340.983C505.26 341.279 500.226 349.964 499.831 366.348C499.634 369.21 499.733 372.171 499.93 375.428Z" fill="black"/>
<path d="M557.668 370.394C556.286 367.729 554.905 364.966 553.72 362.498C553.72 362.4 553.72 362.4 553.621 362.301C553.621 362.301 553.128 357.07 552.141 351.148C551.253 345.621 549.97 339.502 548.489 336.739C548.687 337.035 554.707 345.128 556.878 361.314C557.273 364.176 557.569 367.137 557.668 370.394Z" fill="black"/>
<path d="M565.068 399.016C564.574 401.78 561.712 412.439 559.738 418.065C557.863 423.394 555.988 429.316 555.494 432.277C555.494 431.981 556.185 422.901 561.811 407.504C562.699 404.839 563.883 401.977 565.068 399.016Z" fill="black"/>
<path d="M432.126 342.956C432.126 342.956 439.429 347.595 439.725 348.385C440.12 349.174 441.798 346.51 441.502 345.917C441.107 345.227 435.777 340.489 435.185 340.094C434.593 339.699 431.83 340.686 432.126 342.956Z" fill="#F3896D"/>
<path d="M436.566 340.785C436.566 340.785 424.821 335.159 424.229 336.64C423.636 338.12 424.722 338.614 434.098 344.042C443.277 349.372 436.566 340.785 436.566 340.785Z" fill="#EA816C"/>
<path d="M220.98 422.495H240.755L237.442 398.785C242.723 401.995 248.003 403.548 250.488 402.926C256.7 401.373 257.218 378.803 252.455 369.898C247.692 360.994 223.154 357.164 221.912 374.765C221.498 380.873 224.086 386.361 227.813 390.813L220.98 422.495Z" fill="#F67E60"/>
<path opacity="0.1" d="M212.801 512.985C177.806 512.985 149.437 540.056 149.437 573.45C149.437 606.844 177.806 633.915 212.801 633.915C247.796 633.915 276.165 606.844 276.165 573.45C276.165 540.056 247.796 512.985 212.801 512.985Z" fill="#2D0DB2"/>
<path d="M342.533 621.698C333.733 567.963 326.485 532.45 322.344 521.578C319.548 514.434 298.738 515.263 301.119 529.654C302.154 535.659 306.089 551.811 311.369 570.24C314.475 581.008 322.033 601.301 332.594 624.597L342.533 621.698ZM213.217 561.233C216.944 560.715 260.119 556.159 290.662 551.811C302.879 550.051 296.356 527.066 283.621 529.551C279.376 530.379 277.616 536.695 272.957 537.627C256.598 541.043 219.947 547.566 210.214 551.397C204.106 553.778 208.04 561.957 213.217 561.233Z" fill="black"/>
<path d="M291.596 525.927C304.745 558.541 311.268 588.463 318.619 615.693L343.261 608.445C341.294 603.372 333.114 529.551 323.071 515.78C323.071 515.78 323.071 515.677 322.968 515.677V515.573C321.829 511.95 295.945 503.667 245.316 490.725H239.104V496.523L291.389 523.131C291.389 524.063 291.389 524.995 291.596 525.927Z" fill="#2D0DB2"/>
<path d="M221.189 544.46L228.23 567.445C238.79 564.649 270.265 563.407 314.475 549.223C314.682 549.119 314.889 548.912 314.889 548.601C322.344 543.321 326.382 523.028 313.336 517.437C293.561 508.947 255.46 492.899 248.109 490.828H203.174C198.929 519.301 206.073 532.346 230.404 536.591C234.131 537.212 243.967 538.144 248.833 539.076L221.189 544.46Z" fill="#3A52CC"/>
<path d="M213.665 549.005C214.591 548.996 215.293 549.684 215.302 550.61C215.418 552.97 215.62 554.682 216.232 555.787C216.848 557.124 218.298 558.638 220.352 560.331L224.008 560.156C224.471 560.151 224.891 560.471 224.896 560.934L225.73 584.495C226.302 586.156 227.081 594.715 222.921 595.451C210.16 569.183 203.355 555.266 202.599 553.745C204.943 552.009 206.784 550.833 208.121 550.218C209.087 549.653 210.935 549.171 213.665 549.005C213.572 548.96 213.572 548.96 213.665 549.005Z" fill="#3A52CC"/>
<path d="M327.83 620.248C328.245 619.42 329.176 619.109 330.005 619.42C332.179 620.455 333.836 620.869 335.078 620.869C336.631 620.869 338.495 620.352 340.979 619.213L342.325 615.9C342.533 615.485 342.947 615.278 343.361 615.485L364.896 625.114C366.656 625.321 374.629 628.427 373.49 632.465C344.293 632.465 328.762 632.465 327.106 632.465C326.588 629.67 326.381 627.496 326.381 625.943C326.381 624.7 326.795 622.837 327.727 620.455C327.727 620.248 327.727 620.248 327.83 620.248Z" fill="#3A52CC"/>
<path d="M299.667 480.475L322.03 463.391C333.212 461.321 338.389 459.561 337.561 458.111C336.318 455.937 333.316 457.386 332.177 456.04C331.038 454.694 333.73 450.449 336.422 446.619C339.114 442.788 336.629 442.891 335.179 443.305C330.313 445.997 325.24 449.932 320.063 455.212L290.245 468.258L299.667 480.475ZM149.126 521.371C147.469 523.442 137.53 528.93 130.8 531.829C128.108 532.967 128.626 535.245 129.454 535.97C135.873 541.872 141.775 537.523 148.711 535.763C156.27 533.899 153.888 542.907 159.893 541.457C158.962 537.316 156.373 529.551 159.169 525.202C160.411 523.339 169.522 506.566 186.502 474.987L169.626 471.674C158.133 502.01 151.3 518.472 149.126 521.371Z" fill="#F67E60"/>
<path d="M256.907 491.035C269.849 498.801 301.635 485.134 316.647 468.982L311.574 457.697C295.112 463.598 281.238 467.947 271.506 463.495C261.152 458.732 254.837 422.598 239.306 407.586L232.162 408.828C231.541 433.987 236.304 478.508 256.907 491.035Z" fill="#191847"/>
<path d="M224.501 404.376L242.62 407.275C242.62 441.752 258.15 467.843 262.913 491.967C263.327 494.038 267.158 498.179 264.259 498.179C250.799 498.179 229.781 498.179 201.309 498.179C204.208 458.318 209.385 428.5 224.501 404.376Z" fill="#E6EBFF"/>
<path d="M187.331 515.47H243.965C238.374 481.821 239.202 459.561 230.505 404.376H223.568H223.361C182.672 429.432 158.03 468.361 149.54 521.164L162.689 523.753C171.386 513.606 182.257 496.937 195.096 473.745C191.058 487.619 188.159 501.907 187.331 515.47Z" fill="#191847"/>
<path d="M238.684 405.411C238.684 405.411 242.929 410.277 242.722 412.245C242.722 412.245 238.891 414.419 235.578 413.487C235.578 413.487 235.682 409.76 238.684 405.411Z" fill="#2D0DB2"/>
<path d="M253.594 368.863C252.455 374.04 246.45 376.628 240.652 379.424C239.824 377.871 238.167 376.939 236.2 376.939C233.405 376.939 231.127 379.113 231.127 381.909C231.127 382.841 231.437 383.772 231.955 384.601C229.988 386.361 228.538 388.431 228.228 391.123C225.018 391.123 219.841 381.702 221.602 372.798C222.119 348.467 266.536 359.338 253.594 368.863Z" fill="#191847"/>
<path d="M241.376 410.899L237.339 412.762L250.798 491.139L256.596 496.523L258.771 487.826L241.376 410.899Z" fill="#2D0DB2"/>
<defs>
<linearGradient id="paint0_linear" x1="361.491" y1="341.77" x2="375.239" y2="341.77" gradientUnits="userSpaceOnUse">
<stop stop-color="#2D0DB2"/>
<stop offset="1" stop-color="#29D9E1" stop-opacity="0.9"/>
</linearGradient>
<linearGradient id="paint1_linear" x1="393.871" y1="331.436" x2="422.867" y2="331.436" gradientUnits="userSpaceOnUse">
<stop stop-color="#2D0DB2"/>
<stop offset="1" stop-color="#29D9E1" stop-opacity="0.9"/>
</linearGradient>
</defs>
</svg>
